<svg width="33" height="20" viewBox="0 0 33 20" fill="none" xmlns="http://www.w3.org/2000/svg">
<path fill-rule="evenodd" clip-rule="evenodd" d="M9.85355 17.6464C10.0488 17.8417 10.0488 18.1583 9.85355 18.3536C9.65829 18.5488 9.34171 18.5488 9.14645 18.3536L1.14686 10.354L1.14645 10.3536M9.85355 17.6464L2.70711 10.5L9.85355 17.6464ZM2.70711 10.5L31.2143 10.5C31.4904 10.5 31.7143 10.2761 31.7143 10C31.7143 9.72386 31.4904 9.5 31.2143 9.5L2.70711 9.5L9.85355 2.35355C10.0488 2.15829 10.0488 1.84171 9.85355 1.64645C9.65829 1.45118 9.34171 1.45118 9.14645 1.64645L1.14645 9.64645C1.09851 9.69438 1.06234 9.74964 1.03794 9.80861C1.01349 9.86756 0.999999 9.93221 0.999999 10C0.999999 10.137 1.05509 10.2611 1.14433 10.3514" fill="white"/>
<path d="M9.85355 18.3536L9.14645 17.6464L9.14645 17.6464L9.85355 18.3536ZM9.85355 17.6464L10.5607 16.9393L10.5607 16.9393L9.85355 17.6464ZM9.14645 18.3536L9.85355 17.6464L9.85355 17.6464L9.14645 18.3536ZM1.14686 10.354L0.439754 11.0611L0.439449 11.0608L1.14686 10.354ZM1.14645 10.3536L0.439034 11.0604C0.0608496 10.6818 0.0476193 10.0727 0.409013 9.67813C0.770406 9.28356 1.37836 9.24337 1.78855 9.58693L1.14645 10.3536ZM2.70711 9.5L2.70711 10.5C2.30264 10.5 1.93801 10.2564 1.78323 9.88268C1.62845 9.50901 1.714 9.07889 2 8.79289L2.70711 9.5ZM9.85355 2.35355L9.14645 1.64644L9.14645 1.64644L9.85355 2.35355ZM9.85355 1.64645L9.14645 2.35355L9.14644 2.35355L9.85355 1.64645ZM9.14645 1.64645L9.85355 2.35355L9.85355 2.35355L9.14645 1.64645ZM1.14645 9.64645L1.85355 10.3536L1.85355 10.3536L1.14645 9.64645ZM1.03794 9.80861L1.96197 10.1909L1.96167 10.1917L1.03794 9.80861ZM1.14433 10.3514L1.04969 11.3469C0.816174 11.3247 0.597895 11.2212 0.433022 11.0543L1.14433 10.3514ZM9.14645 17.6464C8.95118 17.8417 8.95118 18.1583 9.14645 18.3536L10.5607 16.9393C11.1464 17.5251 11.1464 18.4749 10.5607 19.0607L9.14645 17.6464ZM9.85355 17.6464C9.65829 17.4512 9.34171 17.4512 9.14645 17.6464L10.5607 19.0607C9.97487 19.6464 9.02513 19.6464 8.43934 19.0607L9.85355 17.6464ZM1.85397 9.64686L9.85355 17.6464L8.43934 19.0607L0.439754 11.0611L1.85397 9.64686ZM1.85386 9.64675L1.85427 9.64717L0.439449 11.0608L0.439034 11.0604L1.85386 9.64675ZM1.78855 9.58693L10.4957 16.8798L9.21145 18.4131L0.504343 11.1202L1.78855 9.58693ZM9.14645 18.3536L2 11.2071L3.41421 9.79289L10.5607 16.9393L9.14645 18.3536ZM9.14645 18.3536L2 11.2071L3.41421 9.79289L10.5607 16.9393L9.14645 18.3536ZM2.70711 9.5L31.2143 9.5L31.2143 11.5L2.70711 11.5L2.70711 9.5ZM31.2143 9.5C30.9381 9.5 30.7143 9.72386 30.7143 10L32.7143 10C32.7143 10.8284 32.0427 11.5 31.2143 11.5L31.2143 9.5ZM30.7143 10C30.7143 10.2761 30.9381 10.5 31.2143 10.5L31.2143 8.5C32.0427 8.5 32.7143 9.17157 32.7143 10L30.7143 10ZM31.2143 10.5L2.70711 10.5L2.70711 8.5L31.2143 8.5L31.2143 10.5ZM2 8.79289L9.14645 1.64644L10.5607 3.06066L3.41421 10.2071L2 8.79289ZM9.14645 1.64644C8.95118 1.84171 8.95118 2.15829 9.14645 2.35355L10.5607 0.939338C11.1464 1.52512 11.1464 2.47487 10.5607 3.06066L9.14645 1.64644ZM9.14644 2.35355C9.34171 2.54881 9.65829 2.54881 9.85355 2.35355L8.43934 0.93934C9.02512 0.353551 9.97487 0.353551 10.5607 0.93934L9.14644 2.35355ZM9.85355 2.35355L1.85355 10.3536L0.439339 8.93934L8.43934 0.939338L9.85355 2.35355ZM1.85355 10.3536C1.90019 10.3069 1.937 10.2513 1.96197 10.1909L0.113906 9.4263C0.187679 9.24799 0.296826 9.08185 0.43934 8.93934L1.85355 10.3536ZM1.96167 10.1917C1.98669 10.1313 2 10.066 2 10L-7.43094e-07 10C-7.60713e-07 9.79846 0.040295 9.60381 0.11421 9.42556L1.96167 10.1917ZM2 10C2 9.86332 1.94384 9.7378 1.85564 9.64855L0.433022 11.0543C0.166347 10.7844 -7.07192e-07 10.4107 -7.43094e-07 10L2 10ZM1.23898 9.35592L2.80175 9.50449L2.61246 11.4955L1.04969 11.3469L1.23898 9.35592Z" fill="white"/>
</svg>
