<svg width="33" height="20" viewBox="0 0 33 20" fill="none" xmlns="http://www.w3.org/2000/svg">
<path fill-rule="evenodd" clip-rule="evenodd" d="M23.1464 17.6464C22.9512 17.8417 22.9512 18.1583 23.1464 18.3536C23.3417 18.5488 23.6583 18.5488 23.8536 18.3536L31.8531 10.354L31.8536 10.3536M23.1464 17.6464L30.2929 10.5L23.1464 17.6464ZM30.2929 10.5L1.78571 10.5C1.50957 10.5 1.28571 10.2761 1.28571 10C1.28571 9.72386 1.50957 9.5 1.78571 9.5L30.2929 9.5L23.1464 2.35355C22.9512 2.15829 22.9512 1.84171 23.1464 1.64645C23.3417 1.45118 23.6583 1.45118 23.8536 1.64645L31.8536 9.64645C31.9015 9.69438 31.9377 9.74964 31.9621 9.80861C31.9865 9.86756 32 9.93221 32 10C32 10.137 31.9449 10.2611 31.8557 10.3514" fill="white"/>
<path d="M23.1464 18.3536L23.8536 17.6464L23.8536 17.6464L23.1464 18.3536ZM23.1464 17.6464L22.4393 16.9393L22.4393 16.9393L23.1464 17.6464ZM23.8536 18.3536L23.1464 17.6464L23.1464 17.6464L23.8536 18.3536ZM31.8531 10.354L32.5602 11.0611L32.5606 11.0608L31.8531 10.354ZM31.8536 10.3536L32.561 11.0604C32.9392 10.6818 32.9524 10.0727 32.591 9.67813C32.2296 9.28356 31.6216 9.24337 31.2115 9.58693L31.8536 10.3536ZM30.2929 9.5L30.2929 10.5C30.6974 10.5 31.062 10.2564 31.2168 9.88268C31.3716 9.50901 31.286 9.07889 31 8.79289L30.2929 9.5ZM23.1464 2.35355L23.8536 1.64644L23.8536 1.64644L23.1464 2.35355ZM23.1464 1.64645L23.8536 2.35355L23.8536 2.35355L23.1464 1.64645ZM23.8536 1.64645L23.1464 2.35355L23.1464 2.35355L23.8536 1.64645ZM31.8536 9.64645L31.1464 10.3536L31.1464 10.3536L31.8536 9.64645ZM31.9621 9.80861L31.038 10.1909L31.0383 10.1917L31.9621 9.80861ZM31.8557 10.3514L31.9503 11.3469C32.1838 11.3247 32.4021 11.2212 32.567 11.0543L31.8557 10.3514ZM23.8536 17.6464C24.0488 17.8417 24.0488 18.1583 23.8536 18.3536L22.4393 16.9393C21.8536 17.5251 21.8536 18.4749 22.4393 19.0607L23.8536 17.6464ZM23.1464 17.6464C23.3417 17.4512 23.6583 17.4512 23.8536 17.6464L22.4393 19.0607C23.0251 19.6464 23.9749 19.6464 24.5607 19.0607L23.1464 17.6464ZM31.146 9.64686L23.1464 17.6464L24.5607 19.0607L32.5602 11.0611L31.146 9.64686ZM31.1461 9.64675L31.1457 9.64717L32.5606 11.0608L32.561 11.0604L31.1461 9.64675ZM31.2115 9.58693L22.5043 16.8798L23.7885 18.4131L32.4957 11.1202L31.2115 9.58693ZM23.8536 18.3536L31 11.2071L29.5858 9.79289L22.4393 16.9393L23.8536 18.3536ZM23.8536 18.3536L31 11.2071L29.5858 9.79289L22.4393 16.9393L23.8536 18.3536ZM30.2929 9.5L1.78571 9.5L1.78571 11.5L30.2929 11.5L30.2929 9.5ZM1.78571 9.5C2.06186 9.5 2.28571 9.72386 2.28571 10L0.285714 10C0.285714 10.8284 0.957287 11.5 1.78571 11.5L1.78571 9.5ZM2.28571 10C2.28571 10.2761 2.06186 10.5 1.78571 10.5L1.78571 8.5C0.957288 8.5 0.285714 9.17157 0.285714 10L2.28571 10ZM1.78571 10.5L30.2929 10.5L30.2929 8.5L1.78571 8.5L1.78571 10.5ZM31 8.79289L23.8536 1.64644L22.4393 3.06066L29.5858 10.2071L31 8.79289ZM23.8536 1.64644C24.0488 1.84171 24.0488 2.15829 23.8536 2.35355L22.4393 0.939338C21.8536 1.52512 21.8536 2.47487 22.4393 3.06066L23.8536 1.64644ZM23.8536 2.35355C23.6583 2.54881 23.3417 2.54881 23.1464 2.35355L24.5607 0.93934C23.9749 0.353551 23.0251 0.353551 22.4393 0.93934L23.8536 2.35355ZM23.1464 2.35355L31.1464 10.3536L32.5607 8.93934L24.5607 0.939338L23.1464 2.35355ZM31.1464 10.3536C31.0998 10.3069 31.063 10.2513 31.038 10.1909L32.8861 9.4263C32.8123 9.24799 32.7032 9.08185 32.5607 8.93934L31.1464 10.3536ZM31.0383 10.1917C31.0133 10.1313 31 10.066 31 10L33 10C33 9.79846 32.9597 9.60381 32.8858 9.42556L31.0383 10.1917ZM31 10C31 9.86332 31.0562 9.7378 31.1444 9.64855L32.567 11.0543C32.8337 10.7844 33 10.4107 33 10L31 10ZM31.761 9.35592L30.1983 9.50449L30.3875 11.4955L31.9503 11.3469L31.761 9.35592Z" fill="white"/>
</svg>
