<svg width="48" height="48" viewBox="0 0 48 48" fill="none" xmlns="http://www.w3.org/2000/svg">
<rect width="48" height="48" rx="24" fill="white"/>
<path fill-rule="evenodd" clip-rule="evenodd" d="M12 22C12 30.235 14.118 32 24 32C33.882 32 36 30.235 36 22C36 13.765 33.882 12 24 12C14.118 12 12 13.765 12 22ZM14 22C14 26.1423 14.5893 27.7306 15.5746 28.5517C16.0968 28.9868 16.9189 29.3695 18.3202 29.629C19.7267 29.8895 21.5669 30 24 30C26.4331 30 28.2733 29.8895 29.6798 29.629C31.0811 29.3695 31.9032 28.9868 32.4254 28.5517C33.4107 27.7306 34 26.1423 34 22C34 17.8577 33.4107 16.2694 32.4254 15.4483C31.9032 15.0132 31.0811 14.6305 29.6798 14.371C28.2733 14.1105 26.4331 14 24 14C21.5669 14 19.7267 14.1105 18.3202 14.371C16.9189 14.6305 16.0968 15.0132 15.5746 15.4483C14.5893 16.2694 14 17.8577 14 22Z" fill="#99B9DF"/>
<rect x="14" y="34" width="20" height="2" rx="1" fill="#1961BA"/>
</svg>
