<svg width="48" height="48" viewBox="0 0 48 48" fill="none" xmlns="http://www.w3.org/2000/svg">
<rect width="48.0005" height="48.0005" rx="24.0003" fill="white"/>
<path d="M14.0013 27.0114C13.9648 26.4752 13.5255 26.0504 12.988 26.0504C12.4204 26.0504 11.9645 26.5258 12.0022 27.0921C12.4271 33.4868 14.5137 35.5735 20.9084 35.9984C21.4747 36.036 21.9501 35.5801 21.9501 35.0125C21.9501 34.475 21.5253 34.0358 20.9891 33.9992C19.9528 33.9286 19.0742 33.8134 18.3255 33.647C16.9693 33.3456 16.1648 32.9037 15.6308 32.3697C15.0969 31.8357 14.6549 31.0312 14.3536 29.6751C14.1872 28.9263 14.0719 28.0477 14.0013 27.0114Z" fill="#99B9DF"/>
<path d="M33.9133 27.0114C33.9499 26.4752 34.3891 26.0504 34.9266 26.0504C35.4942 26.0504 35.9501 26.5258 35.9125 27.0921C35.4876 33.4868 33.4009 35.5735 27.0062 35.9984C26.4399 36.036 25.9645 35.5801 25.9645 35.0125C25.9645 34.475 26.3893 34.0358 26.9255 33.9992C27.9618 33.9286 28.8404 33.8134 29.5892 33.647C30.9453 33.3456 31.7498 32.9037 32.2838 32.3697C32.8178 31.8357 33.2597 31.0312 33.5611 29.6751C33.7275 28.9263 33.8427 28.0477 33.9133 27.0114Z" fill="#99B9DF"/>
<path d="M36.0005 24.0892C36.0005 24.0739 36.0005 24.0585 36.0005 24.0432C36.0005 24.0279 36.0005 24.0126 36.0005 23.9973V24.0892Z" fill="#99B9DF"/>
<path d="M35.9125 20.9943C35.9501 21.5606 35.4942 22.036 34.9266 22.036C34.3891 22.036 33.9499 21.6113 33.9133 21.075C33.8427 20.0387 33.7275 19.1601 33.5611 18.4114C33.2597 17.0552 32.8178 16.2507 32.2838 15.7167C31.7498 15.1828 30.9453 14.7408 29.5892 14.4395C28.8404 14.2731 27.9618 14.1578 26.9255 14.0872C26.3893 14.0507 25.9645 13.6114 25.9645 13.0739C25.9645 12.5063 26.4399 12.0504 27.0062 12.0881C33.4009 12.513 35.4876 14.5996 35.9125 20.9943Z" fill="#99B9DF"/>
<path d="M14.0013 21.075C13.9648 21.6113 13.5255 22.036 12.988 22.036C12.4204 22.036 11.9645 21.5606 12.0022 20.9943C12.4271 14.5996 14.5137 12.513 20.9084 12.0881C21.4747 12.0504 21.9501 12.5063 21.9501 13.0739C21.9501 13.6114 21.5253 14.0507 20.9891 14.0872C19.9528 14.1578 19.0742 14.2731 18.3255 14.4395C16.9693 14.7408 16.1648 15.1828 15.6308 15.7167C15.0969 16.2507 14.6549 17.0552 14.3536 18.4114C14.1872 19.1601 14.0719 20.0387 14.0013 21.075Z" fill="#99B9DF"/>
<path fill-rule="evenodd" clip-rule="evenodd" d="M21 20.0859C21 21.7428 22.3431 23.0859 24 23.0859C25.6569 23.0859 27 21.7428 27 20.0859C27 18.4291 25.6569 17.0859 24 17.0859C22.3431 17.0859 21 18.4291 21 20.0859ZM23 20.0859C23 20.6382 23.4477 21.0859 24 21.0859C24.5523 21.0859 25 20.6382 25 20.0859C25 19.5337 24.5523 19.0859 24 19.0859C23.4477 19.0859 23 19.5337 23 20.0859Z" fill="#1961BA"/>
<path fill-rule="evenodd" clip-rule="evenodd" d="M18 27.0859C18 29.5564 19.059 30.0859 24 30.0859C28.941 30.0859 30 29.5564 30 27.0859C30 24.6154 28.941 24.0859 24 24.0859C19.059 24.0859 18 24.6154 18 27.0859ZM20 27.0859C20 27.4546 20.0319 27.6444 20.0531 27.7291C20.1922 27.7957 20.5175 27.9011 21.1989 27.9768C21.8817 28.0527 22.7866 28.0859 24 28.0859C25.2134 28.0859 26.1183 28.0527 26.8011 27.9768C27.4825 27.9011 27.8078 27.7957 27.9469 27.7291C27.9681 27.6444 28 27.4546 28 27.0859C28 26.7173 27.9681 26.5274 27.9469 26.4427C27.8078 26.3761 27.4825 26.2708 26.8011 26.195C26.1183 26.1192 25.2134 26.0859 24 26.0859C22.7866 26.0859 21.8817 26.1192 21.1989 26.195C20.5175 26.2708 20.1922 26.3761 20.0531 26.4427C20.0319 26.5274 20 26.7173 20 27.0859Z" fill="#1961BA"/>
</svg>
