<svg width="48" height="48" viewBox="0 0 48 48" fill="none" xmlns="http://www.w3.org/2000/svg">
<rect width="48" height="48" rx="24" fill="white"/>
<path d="M20.0001 18C20.0001 18.5523 19.5524 19 19.0001 19C18.4478 19 18.0001 18.5523 18.0001 18C18.0001 16.062 18.7368 14.535 19.8982 13.5026C21.0412 12.4866 22.537 12 24.0001 12C25.4632 12 26.9589 12.4866 28.1019 13.5026C29.2634 14.535 30.0001 16.062 30.0001 18C30.0001 18.5523 29.5524 19 29.0001 19C28.4478 19 28.0001 18.5523 28.0001 18C28.0001 16.6047 27.4868 15.6317 26.7732 14.9974C26.0412 14.3468 25.037 14 24.0001 14C22.9632 14 21.9589 14.3468 21.2269 14.9974C20.5134 15.6317 20.0001 16.6047 20.0001 18Z" fill="#1961BA"/>
<path d="M13.0001 23C12.3861 23.7894 12.3864 23.7896 12.3867 23.7898L12.3891 23.7917L12.3938 23.7953L12.4081 23.8062C12.4198 23.8151 12.4359 23.8272 12.4563 23.8424C12.4971 23.8726 12.5552 23.915 12.6299 23.9677C12.7793 24.073 12.9955 24.2198 13.2736 24.3942C13.8294 24.7426 14.635 25.2025 15.651 25.6614C17.6797 26.5776 20.5716 27.5 24.0001 27.5C27.4286 27.5 30.3204 26.5776 32.3492 25.6614C33.3652 25.2025 34.1707 24.7426 34.7265 24.3942C35.0046 24.2198 35.2208 24.073 35.3702 23.9677C35.445 23.915 35.503 23.8726 35.5439 23.8424C35.5643 23.8272 35.5804 23.8151 35.5921 23.8062L35.6064 23.7953L35.611 23.7917L35.6127 23.7904C35.613 23.7901 35.614 23.7894 35.0001 23C34.3861 22.2106 34.3864 22.2105 34.3866 22.2103L34.3819 22.2139L34.3521 22.2363C34.3238 22.2572 34.2788 22.2901 34.2178 22.3331C34.0957 22.4192 33.9096 22.5458 33.6643 22.6996C33.1732 23.0074 32.4475 23.4225 31.526 23.8386C29.6797 24.6724 27.0716 25.5 24.0001 25.5C20.9286 25.5 18.3204 24.6724 16.4742 23.8386C15.5527 23.4225 14.827 23.0074 14.3359 22.6996C14.0906 22.5458 13.9044 22.4192 13.7824 22.3331C13.7213 22.2901 13.6764 22.2572 13.6481 22.2363L13.6183 22.2139L13.6135 22.2103C13.6138 22.2105 13.614 22.2106 13.0001 23Z" fill="#1961BA"/>
<path fill-rule="evenodd" clip-rule="evenodd" d="M12 26.5C12 34.3232 14.118 36 24 36C33.882 36 36 34.3232 36 26.5C36 18.6768 33.882 17 24 17C14.118 17 12 18.6768 12 26.5ZM14 26.5C14 30.4173 14.5839 31.8621 15.5357 32.6156C16.0585 33.0295 16.8887 33.3973 18.3026 33.646C19.7176 33.895 21.5649 34 24 34C26.4351 34 28.2824 33.895 29.6974 33.646C31.1113 33.3973 31.9415 33.0295 32.4643 32.6156C33.4161 31.8621 34 30.4173 34 26.5C34 22.5827 33.4161 21.1379 32.4643 20.3844C31.9415 19.9705 31.1113 19.6027 29.6974 19.354C28.2824 19.105 26.4351 19 24 19C21.5649 19 19.7176 19.105 18.3026 19.354C16.8887 19.6027 16.0585 19.9705 15.5357 20.3844C14.5839 21.1379 14 22.5827 14 26.5Z" fill="#99B9DF"/>
</svg>
