<svg width="32" height="32" viewBox="0 0 32 32" fill="none" xmlns="http://www.w3.org/2000/svg">
<path d="M17.7518 15.8664L22.4651 11.1518C22.5924 11.0288 22.694 10.8816 22.7639 10.719C22.8338 10.5563 22.8706 10.3813 22.8721 10.2043C22.8736 10.0273 22.8399 9.85168 22.7729 9.68782C22.7058 9.52396 22.6068 9.37509 22.4816 9.2499C22.3564 9.12471 22.2076 9.0257 22.0437 8.95866C21.8798 8.89162 21.7043 8.85789 21.5272 8.85943C21.3502 8.86096 21.1752 8.89775 21.0126 8.96762C20.8499 9.0375 20.7028 9.13908 20.5798 9.26643L15.8651 13.9798L11.1518 9.26643C11.0288 9.13908 10.8816 9.0375 10.719 8.96762C10.5563 8.89775 10.3813 8.86096 10.2043 8.85943C10.0273 8.85789 9.85168 8.89162 9.68782 8.95866C9.52396 9.0257 9.37509 9.12471 9.2499 9.2499C9.12471 9.37509 9.0257 9.52396 8.95866 9.68782C8.89162 9.85168 8.85789 10.0273 8.85943 10.2043C8.86096 10.3813 8.89775 10.5563 8.96762 10.719C9.0375 10.8816 9.13908 11.0288 9.26643 11.1518L13.9798 15.8651L9.26643 20.5798C9.13908 20.7028 9.0375 20.8499 8.96762 21.0126C8.89775 21.1752 8.86096 21.3502 8.85943 21.5272C8.85789 21.7043 8.89162 21.8798 8.95866 22.0437C9.0257 22.2076 9.12471 22.3564 9.2499 22.4816C9.37509 22.6068 9.52396 22.7058 9.68782 22.7729C9.85168 22.8399 10.0273 22.8736 10.2043 22.8721C10.3813 22.8706 10.5563 22.8338 10.719 22.7639C10.8816 22.694 11.0288 22.5924 11.1518 22.4651L15.8651 17.7518L20.5798 22.4651C20.7028 22.5924 20.8499 22.694 21.0126 22.7639C21.1752 22.8338 21.3502 22.8706 21.5272 22.8721C21.7043 22.8736 21.8798 22.8399 22.0437 22.7729C22.2076 22.7058 22.3564 22.6068 22.4816 22.4816C22.6068 22.3564 22.7058 22.2076 22.7729 22.0437C22.8399 21.8798 22.8736 21.7043 22.8721 21.5272C22.8706 21.3502 22.8338 21.1752 22.7639 21.0126C22.694 20.8499 22.5924 20.7028 22.4651 20.5798L17.7518 15.8651V15.8664Z" fill="#8FA1BD"/>
</svg>
