<svg width="24" height="25" viewBox="0 0 24 25" fill="none" xmlns="http://www.w3.org/2000/svg">
<path d="M13.3138 12.3998L16.8488 8.86382C16.9443 8.77157 17.0205 8.66123 17.0729 8.53922C17.1253 8.41722 17.1529 8.286 17.1541 8.15322C17.1552 8.02044 17.1299 7.88876 17.0796 7.76587C17.0294 7.64297 16.9551 7.53132 16.8612 7.43742C16.7673 7.34353 16.6557 7.26928 16.5328 7.219C16.4099 7.16872 16.2782 7.14342 16.1454 7.14457C16.0126 7.14572 15.8814 7.17331 15.7594 7.22572C15.6374 7.27813 15.5271 7.35431 15.4348 7.44982L11.8988 10.9848L8.36382 7.44982C8.27157 7.35431 8.16123 7.27813 8.03922 7.22572C7.91722 7.17331 7.786 7.14572 7.65322 7.14457C7.52044 7.14342 7.38876 7.16872 7.26587 7.219C7.14297 7.26928 7.03132 7.34353 6.93742 7.43742C6.84353 7.53132 6.76928 7.64297 6.719 7.76587C6.66872 7.88876 6.64342 8.02044 6.64457 8.15322C6.64572 8.286 6.67331 8.41722 6.72572 8.53922C6.77813 8.66123 6.85431 8.77157 6.94982 8.86382L10.4848 12.3988L6.94982 15.9348C6.85431 16.0271 6.77813 16.1374 6.72572 16.2594C6.67331 16.3814 6.64572 16.5126 6.64457 16.6454C6.64342 16.7782 6.66872 16.9099 6.719 17.0328C6.76928 17.1557 6.84353 17.2673 6.93742 17.3612C7.03132 17.4551 7.14297 17.5294 7.26587 17.5796C7.38876 17.6299 7.52044 17.6552 7.65322 17.6541C7.786 17.6529 7.91722 17.6253 8.03922 17.5729C8.16123 17.5205 8.27157 17.4443 8.36382 17.3488L11.8988 13.8138L15.4348 17.3488C15.5271 17.4443 15.6374 17.5205 15.7594 17.5729C15.8814 17.6253 16.0126 17.6529 16.1454 17.6541C16.2782 17.6552 16.4099 17.6299 16.5328 17.5796C16.6557 17.5294 16.7673 17.4551 16.8612 17.3612C16.9551 17.2673 17.0294 17.1557 17.0796 17.0328C17.1299 16.9099 17.1552 16.7782 17.1541 16.6454C17.1529 16.5126 17.1253 16.3814 17.0729 16.2594C17.0205 16.1374 16.9443 16.0271 16.8488 15.9348L13.3138 12.3988V12.3998Z" fill="white"/>
</svg>
