<svg width="26" height="26" viewBox="0 0 26 26" fill="none" xmlns="http://www.w3.org/2000/svg">
<path d="M12.7779 22.75H5.41667C4.84203 22.75 4.29093 22.5217 3.8846 22.1154C3.47827 21.7091 3.25 21.158 3.25 20.5833V7.58333C3.25 7.0087 3.47827 6.4576 3.8846 6.05127C4.29093 5.64494 4.84203 5.41667 5.41667 5.41667H18.4167C18.9913 5.41667 19.5424 5.64494 19.9487 6.05127C20.3551 6.4576 20.5833 7.0087 20.5833 7.58333V11.9167H3.25M16.25 3.25V7.58333M7.58333 3.25V7.58333" stroke="#ABAFD1" stroke-width="2" stroke-linecap="round" stroke-linejoin="round"/>
<path d="M19.4974 15.166V19.4993H23.8307M19.4974 15.166C20.6467 15.166 21.7489 15.6226 22.5615 16.4352C23.3742 17.2479 23.8307 18.3501 23.8307 19.4993M19.4974 15.166C18.3481 15.166 17.2459 15.6226 16.4333 16.4352C15.6206 17.2479 15.1641 18.3501 15.1641 19.4993C15.1641 20.6486 15.6206 21.7508 16.4333 22.5635C17.2459 23.3761 18.3481 23.8327 19.4974 23.8327C20.6467 23.8327 21.7489 23.3761 22.5615 22.5635C23.3742 21.7508 23.8307 20.6486 23.8307 19.4993" stroke="#2676DA" stroke-width="2" stroke-linecap="round" stroke-linejoin="round"/>
</svg>
