<svg width="56" height="56" viewBox="0 0 56 56" fill="none" xmlns="http://www.w3.org/2000/svg">
<rect width="56" height="56" rx="28" fill="#F2F4F8"/>
<path fill-rule="evenodd" clip-rule="evenodd" d="M12 28C12 41.176 14.824 44 28 44C41.176 44 44 41.176 44 28C44 14.824 41.176 12 28 12C14.824 12 12 14.824 12 28ZM14.6667 28C14.6667 31.2331 14.8434 33.6492 15.2503 35.4801C15.6504 37.2807 16.2369 38.3477 16.9446 39.0554C17.6523 39.7631 18.7193 40.3496 20.5199 40.7497C22.3508 41.1566 24.7669 41.3333 28 41.3333C31.2331 41.3333 33.6492 41.1566 35.4801 40.7497C37.2807 40.3496 38.3477 39.7631 39.0554 39.0554C39.7631 38.3477 40.3496 37.2807 40.7497 35.4801C41.1566 33.6492 41.3333 31.2331 41.3333 28C41.3333 24.7669 41.1566 22.3508 40.7497 20.5199C40.3496 18.7193 39.7631 17.6523 39.0554 16.9446C38.3477 16.2369 37.2807 15.6504 35.4801 15.2503C33.6492 14.8434 31.2331 14.6667 28 14.6667C24.7669 14.6667 22.3508 14.8434 20.5199 15.2503C18.7193 15.6504 17.6523 16.2369 16.9446 16.9446C16.2369 17.6523 15.6504 18.7193 15.2503 20.5199C14.8434 22.3508 14.6667 24.7669 14.6667 28Z" fill="#ABAFD1"/>
<path fill-rule="evenodd" clip-rule="evenodd" d="M19.9987 18.6654C19.9987 17.929 20.5957 17.332 21.332 17.332H34.6654C35.4017 17.332 35.9987 17.929 35.9987 18.6654L35.9985 18.6854C36.0011 18.8537 36.0354 19.0201 36.0999 19.1757C36.1669 19.3375 36.2652 19.4845 36.389 19.6084C36.5128 19.7322 36.6599 19.8305 36.8217 19.8975C36.9773 19.9619 37.1437 19.9963 37.312 19.9989L37.332 19.9987C38.0684 19.9987 38.6654 20.5957 38.6654 21.332V34.6654C38.6654 35.4017 38.0684 35.9987 37.332 35.9987L37.312 35.9985C37.1437 36.0011 36.9773 36.0354 36.8217 36.0999C36.6599 36.1669 36.5128 36.2652 36.389 36.389C36.2652 36.5128 36.1669 36.6599 36.0999 36.8217C36.0354 36.9773 36.0011 37.1437 35.9985 37.312L35.9987 37.332C35.9987 38.0684 35.4017 38.6654 34.6654 38.6654H21.332C20.5957 38.6654 19.9987 38.0684 19.9987 37.332L19.9989 37.312C19.9963 37.1437 19.9619 36.9773 19.8975 36.8217C19.8305 36.6599 19.7322 36.5128 19.6084 36.389C19.4845 36.2652 19.3375 36.1669 19.1757 36.0999C19.0201 36.0354 18.8537 36.0011 18.6854 35.9985C18.6788 35.9986 18.6721 35.9987 18.6654 35.9987C17.929 35.9987 17.332 35.4017 17.332 34.6654V21.332C17.332 20.5957 17.929 19.9987 18.6654 19.9987C18.6721 19.9987 18.6789 19.9987 18.6856 19.9988C18.8539 19.9963 19.0202 19.9619 19.1757 19.8975C19.3375 19.8305 19.4845 19.7322 19.6084 19.6084C19.7322 19.4845 19.8305 19.3375 19.8975 19.1757C19.9619 19.0202 19.9963 18.8539 19.9988 18.6856L19.9987 18.6654ZM19.9987 22.4366V33.5608C20.0651 33.5843 20.1309 33.6095 20.1961 33.6365C20.6814 33.8375 21.1224 34.1322 21.4938 34.5036C21.8652 34.875 22.1599 35.316 22.3609 35.8013C22.3879 35.8665 22.4131 35.9323 22.4366 35.9987H33.5608C33.5843 35.9323 33.6095 35.8665 33.6365 35.8013C33.8375 35.316 34.1322 34.875 34.5036 34.5036C34.875 34.1322 35.316 33.8375 35.8013 33.6365C35.8665 33.6095 35.9323 33.5843 35.9987 33.5608V22.4366C35.9323 22.4131 35.8665 22.3879 35.8013 22.3609C35.316 22.1599 34.875 21.8652 34.5036 21.4938C34.1322 21.1224 33.8375 20.6814 33.6365 20.1961C33.6095 20.1309 33.5843 20.0651 33.5608 19.9987H22.4366C22.4131 20.0651 22.3879 20.1309 22.3609 20.1961C22.1599 20.6814 21.8652 21.1224 21.4938 21.4938C21.1224 21.8652 20.6814 22.1599 20.1961 22.3609C20.1309 22.3879 20.0651 22.4131 19.9987 22.4366Z" fill="#5189CF"/>
<path fill-rule="evenodd" clip-rule="evenodd" d="M22.668 28.0013C22.668 30.9468 25.0558 33.3346 28.0013 33.3346C30.9468 33.3346 33.3346 30.9468 33.3346 28.0013C33.3346 25.0558 30.9468 22.668 28.0013 22.668C25.0558 22.668 22.668 25.0558 22.668 28.0013ZM25.3346 28.0013C25.3346 29.4741 26.5285 30.668 28.0013 30.668C29.4741 30.668 30.668 29.4741 30.668 28.0013C30.668 26.5285 29.4741 25.3346 28.0013 25.3346C26.5285 25.3346 25.3346 26.5285 25.3346 28.0013Z" fill="#ABAFD1"/>
</svg>
