<svg width="24" height="30" viewBox="0 0 24 30" fill="none" xmlns="http://www.w3.org/2000/svg">
<path d="M12.0008 9C11.338 9 10.8008 9.53726 10.8008 10.2V15C10.8008 15.6627 11.338 16.2 12.0008 16.2H18.0008C18.6635 16.2 19.2008 15.6627 19.2008 15C19.2008 14.3373 18.6635 13.8 18.0008 13.8L13.2008 13.8V10.2C13.2008 9.53726 12.6635 9 12.0008 9Z" fill="#2676DA"/>
<path fill-rule="evenodd" clip-rule="evenodd" d="M4.81589 4.702C4.81157 4.79174 4.80805 4.86204 4.80364 4.92358C0.995117 6.09019 0 8.90338 0 14.9996C0 21.097 0.995508 23.9101 4.80589 25.0763C4.8093 25.1294 4.81232 25.19 4.81589 25.2641L4.81646 25.276C4.82168 25.3845 4.82816 25.5192 4.83986 25.6592C4.86429 25.9515 4.91489 26.3213 5.0576 26.71C5.37099 27.5637 6.03712 28.2691 7.18431 28.7305C8.26996 29.1672 9.81219 29.3996 12 29.3996C14.1878 29.3996 15.73 29.1672 16.8157 28.7305C17.9629 28.2691 18.629 27.5637 18.9424 26.71C19.0851 26.3213 19.1357 25.9515 19.1601 25.6592C19.1718 25.5192 19.1783 25.3845 19.1835 25.2759L19.1841 25.2641C19.1877 25.19 19.1907 25.1294 19.1941 25.0763C23.0045 23.9101 24 21.097 24 14.9996C24 8.90338 23.0049 6.09019 19.1964 4.92358C19.1919 4.86204 19.1884 4.79174 19.1841 4.702L19.1836 4.69097C19.1784 4.58208 19.1719 4.44695 19.1601 4.30681C19.1357 4.01488 19.0849 3.64549 18.9411 3.25758C18.6248 2.40411 17.9538 1.70831 16.8093 1.2556C15.7258 0.827058 14.1859 0.599609 12 0.599609C9.81407 0.599609 8.2742 0.827058 7.19074 1.2556C6.04617 1.70831 5.37521 2.40411 5.05889 3.25758C4.91512 3.64549 4.86435 4.01488 4.83988 4.30681C4.82813 4.44701 4.82165 4.58206 4.81642 4.69098L4.81589 4.702ZM16.7577 25.5675C15.4177 25.7332 13.844 25.7996 12 25.7996C10.156 25.7996 8.58233 25.7332 7.24233 25.5675C7.25811 25.7007 7.2803 25.8005 7.31059 25.883C7.35855 26.0136 7.4731 26.2598 8.07989 26.5039C8.74822 26.7727 9.93326 26.9996 12 26.9996C14.0667 26.9996 15.2518 26.7727 15.9201 26.5039C16.5269 26.2598 16.6414 26.0136 16.6894 25.883C16.7197 25.8005 16.7419 25.7007 16.7577 25.5675ZM16.6907 4.09164C16.7225 4.17742 16.7455 4.28387 16.7614 4.43221C15.4206 4.26611 13.8457 4.19961 12 4.19961C10.1543 4.19961 8.57942 4.26611 7.23862 4.43221C7.25449 4.28387 7.2775 4.17742 7.30929 4.09164C7.35434 3.9701 7.46406 3.72841 8.07347 3.48737C8.74398 3.22216 9.93139 2.99961 12 2.99961C14.0686 2.99961 15.256 3.22216 15.9265 3.48737C16.5359 3.72841 16.6457 3.9701 16.6907 4.09164ZM3.89977 21.9509C3.00769 21.148 2.4 19.5053 2.4 14.9996C2.4 10.4939 3.00769 8.8512 3.89977 8.04834C4.35171 7.6416 5.08719 7.25774 6.42675 6.98981C7.78066 6.719 9.57826 6.59961 12 6.59961C14.4217 6.59961 16.2193 6.719 17.5732 6.98981C18.9128 7.25774 19.6483 7.6416 20.1002 8.04834C20.9923 8.8512 21.6 10.4939 21.6 14.9996C21.6 19.5053 20.9923 21.148 20.1002 21.9509C19.6483 22.3576 18.9128 22.7415 17.5732 23.0094C16.2193 23.2802 14.4217 23.3996 12 23.3996C9.57826 23.3996 7.78066 23.2802 6.42675 23.0094C5.08719 22.7415 4.35171 22.3576 3.89977 21.9509Z" fill="#ABAFD1"/>
</svg>
