<svg width="24" height="33" viewBox="0 0 24 33" fill="none" xmlns="http://www.w3.org/2000/svg">
<path d="M10.4103 30.8468C11.2061 31.9038 12.7939 31.9038 13.5897 30.8468C16.6766 26.747 19.0136 23.1998 20.5832 20.212C22.1386 17.2511 23 14.7301 23 12.7148C23 9.79746 21.8411 6.99957 19.7782 4.93667C17.7153 2.87377 14.9174 1.71484 12 1.71484C9.08262 1.71484 6.28473 2.87377 4.22183 4.93667C2.15893 6.99957 1 9.79746 1 12.7148C1 14.7301 1.86143 17.2511 3.41684 20.212C4.98638 23.1998 7.3234 26.747 10.4103 30.8468ZM15.3335 16.0483C14.4494 16.9324 13.2503 17.4291 12 17.4291C10.7497 17.4291 9.5506 16.9324 8.6665 16.0483C7.7824 15.1642 7.28571 13.9652 7.28571 12.7148C7.28571 11.4645 7.7824 10.2654 8.6665 9.38134C9.5506 8.49724 10.7497 8.00056 12 8.00056C13.2503 8.00056 14.4494 8.49724 15.3335 9.38134C16.2176 10.2654 16.7143 11.4645 16.7143 12.7148C16.7143 13.9652 16.2176 15.1642 15.3335 16.0483Z" stroke="#ABAFD1" stroke-width="2"/>
<circle cx="11.9994" cy="12.7143" r="4.71429" stroke="#2676DA" stroke-width="2"/>
</svg>
