<svg width="56" height="56" viewBox="0 0 56 56" fill="none" xmlns="http://www.w3.org/2000/svg">
<rect width="56" height="56" rx="28" fill="#F2F4F8"/>
<path fill-rule="evenodd" clip-rule="evenodd" d="M23.6487 17.2338L22.8732 16.4583C21.2752 14.8602 18.7945 14.5548 16.8565 15.7176C15.0717 16.7885 14.1527 18.8659 14.561 20.9069L14.7853 22.0284C14.8994 22.5991 14.8451 23.1906 14.6289 23.731L13.6128 26.2713C13.1353 27.4651 13.4151 28.8286 14.3243 29.7378C15.1852 30.5986 16.4585 30.8992 17.6135 30.5143L18.0469 30.3698C18.0206 30.8298 18.006 31.2672 18.001 31.6749C17.2816 32.7305 16.9435 33.8301 17.0945 34.9171C17.2589 36.101 17.9753 37.0678 18.9663 37.8019C20.9077 39.2399 24.1654 39.9983 27.999 39.9983C31.8326 39.9983 35.0904 39.2399 37.0318 37.8019C38.0228 37.0678 38.7392 36.101 38.9036 34.9171C39.0546 33.8301 38.7165 32.7305 37.997 31.675C37.9921 31.2672 37.9775 30.8298 37.9512 30.3698L38.3846 30.5143C39.5396 30.8992 40.8129 30.5986 41.6738 29.7378C42.5829 28.8286 42.8628 27.4651 42.3853 26.2713L41.3691 23.731C41.153 23.1906 41.0987 22.5991 41.2128 22.0284L41.4371 20.9069C41.8453 18.8659 40.9264 16.7885 39.1415 15.7176C37.2036 14.5548 34.7229 14.8602 33.1248 16.4583L32.3493 17.2338C31.157 16.4642 29.721 15.9983 27.999 15.9983C26.2771 15.9983 24.8411 16.4642 23.6487 17.2338ZM21.459 17.8725C20.5099 16.9234 19.0366 16.742 17.8855 17.4326C16.8255 18.0686 16.2797 19.3024 16.5221 20.5147L16.7464 21.6362C16.9366 22.5873 16.8461 23.5732 16.4859 24.4737L15.4697 27.0141C15.2894 27.4651 15.3951 27.9801 15.7385 28.3236C16.0637 28.6488 16.5447 28.7623 16.981 28.6169L18.2493 28.1941C18.4993 26.262 18.9643 24.1547 19.7644 22.2475C20.3371 20.8823 21.1025 19.5801 22.1077 18.5212L21.459 17.8725ZM38.1125 17.4326C36.9615 16.742 35.4882 16.9234 34.539 17.8725L33.8904 18.5212C34.8956 19.5801 35.661 20.8823 36.2337 22.2475C37.0338 24.1547 37.4988 26.262 37.7487 28.1941L39.0171 28.6169C39.4534 28.7623 39.9344 28.6488 40.2596 28.3236C40.603 27.9801 40.7087 27.4651 40.5283 27.0141L39.5122 24.4737C39.152 23.5732 39.0614 22.5873 39.2517 21.6362L39.476 20.5147C39.7184 19.3024 39.1726 18.0686 38.1125 17.4326ZM19.999 31.9983C19.999 29.5818 20.3676 25.9796 21.6087 23.0212C22.8452 20.0736 24.8244 17.9983 27.999 17.9983C31.1736 17.9983 33.1529 20.0736 34.3894 23.0212C35.6305 25.9796 35.999 29.5818 35.999 31.9983V32.3316L36.199 32.5983C36.8447 33.4591 36.9928 34.1369 36.9226 34.642C36.8527 35.1456 36.5378 35.6788 35.8413 36.1948C34.4077 37.2567 31.6654 37.9983 27.999 37.9983C24.3326 37.9983 21.5904 37.2567 20.1568 36.1948C19.4603 35.6788 19.1454 35.1456 19.0755 34.642C19.0053 34.1369 19.1534 33.4591 19.799 32.5983L19.999 32.3316V31.9983Z" fill="#ABAFD1"/>
<path d="M26.0002 24C26.0002 23.4477 25.5524 23 25.0002 23C24.4479 23 24.0002 23.4477 24.0002 24V25C24.0002 25.5523 24.4479 26 25.0002 26C25.5524 26 26.0002 25.5523 26.0002 25V24Z" fill="#5189CF"/>
<path d="M27.0002 29C26.4479 29 26.0002 29.4477 26.0002 30C26.0002 30.5523 26.4479 31 27.0002 31C27.0002 31.9538 26.3106 32.7678 25.3698 32.9246L24.8358 33.0136C24.291 33.1044 23.923 33.6196 24.0138 34.1644C24.1046 34.7092 24.6198 35.0772 25.1646 34.9864L25.6986 34.8974C26.6172 34.7443 27.4176 34.2817 28.0002 33.6272C28.5827 34.2817 29.3831 34.7443 30.3017 34.8974L30.8358 34.9864C31.3805 35.0772 31.8958 34.7092 31.9866 34.1644C32.0773 33.6196 31.7093 33.1044 31.1646 33.0136L30.6305 32.9246C29.6897 32.7678 29.0002 31.9538 29.0002 31C29.5524 31 30.0002 30.5523 30.0002 30C30.0002 29.4477 29.5524 29 29.0002 29H27.0002Z" fill="#5189CF"/>
<path d="M31.0002 23C31.5524 23 32.0002 23.4477 32.0002 24V25C32.0002 25.5523 31.5524 26 31.0002 26C30.4479 26 30.0002 25.5523 30.0002 25V24C30.0002 23.4477 30.4479 23 31.0002 23Z" fill="#5189CF"/>
</svg>
