<svg width="56" height="56" viewBox="0 0 56 56" fill="none" xmlns="http://www.w3.org/2000/svg">
<rect width="56" height="56" rx="28" fill="#F2F4F8"/>
<path d="M31.9987 26.6659V26.6792" stroke="#5189CF" stroke-width="2" stroke-linecap="round" stroke-linejoin="round"/>
<path fill-rule="evenodd" clip-rule="evenodd" d="M33.335 16V21.0707C34.9851 22.0255 36.2414 23.5366 36.879 25.3333H38.667C39.4033 25.3333 40.0003 25.9303 40.0003 26.6667V29.3333C40.0003 30.0697 39.4033 30.6667 38.667 30.6667H36.8776C36.4291 31.9338 35.6688 33.0678 34.667 33.964V36.6667C34.667 37.7712 33.7715 38.6667 32.667 38.6667C31.5624 38.6667 30.667 37.7712 30.667 36.6667V35.8893C30.2264 35.9631 29.7804 36.0002 29.3336 36H24.0003C23.5535 36.0002 23.1076 35.9631 22.667 35.8893V36.6667C22.667 37.7712 21.7715 38.6667 20.667 38.6667C19.5624 38.6667 18.667 37.7712 18.667 36.6667V34L18.6683 33.964C16.1953 31.753 15.3433 28.2453 16.5266 25.1463C17.71 22.0472 20.6831 20 24.0003 20H27.3336L33.3336 16L33.335 16Z" stroke="#ABAFD1" stroke-width="2" stroke-linecap="round" stroke-linejoin="round"/>
</svg>
