<svg width="24" height="28" viewBox="0 0 24 28" fill="none" xmlns="http://www.w3.org/2000/svg">
<path fill-rule="evenodd" clip-rule="evenodd" d="M0 15.5C0 25.382 2.118 27.5 12 27.5C21.882 27.5 24 25.382 24 15.5C24 5.618 21.882 3.5 12 3.5C2.118 3.5 0 5.618 0 15.5ZM2 15.5C2 17.9249 2.13254 19.7369 2.43771 21.1101C2.73783 22.4605 3.17768 23.2608 3.70846 23.7915C4.23924 24.3223 5.03949 24.7622 6.38993 25.0623C7.76307 25.3675 9.57515 25.5 12 25.5C14.4249 25.5 16.2369 25.3675 17.6101 25.0623C18.9605 24.7622 19.7608 24.3223 20.2915 23.7915C20.8223 23.2608 21.2622 22.4605 21.5623 21.1101C21.8675 19.7369 22 17.9249 22 15.5C22 13.0751 21.8675 11.2631 21.5623 9.88993C21.2622 8.53949 20.8223 7.73924 20.2915 7.20846C19.7608 6.67768 18.9605 6.23783 17.6101 5.93771C16.2369 5.63254 14.4249 5.5 12 5.5C9.57515 5.5 7.76307 5.63254 6.38993 5.93771C5.03949 6.23783 4.23924 6.67768 3.70846 7.20846C3.17768 7.73924 2.73783 8.53949 2.43771 9.88993C2.13254 11.2631 2 13.0751 2 15.5Z" fill="#ABAFD1"/>
<path d="M9 1.5C9 0.947708 9.44769 0.5 10 0.5C10.5523 0.5 11 0.947708 11 1.5V2.5H13V1.5C13 0.947708 13.4477 0.5 14 0.5C14.5523 0.5 15 0.947708 15 1.5V2.5H16C17.1046 2.5 18 3.39543 18 4.5C18 5.60457 17.1046 6.5 16 6.5H8C6.89545 6.5 6 5.60457 6 4.5C6 3.39543 6.89545 2.5 8 2.5H9V1.5Z" fill="#2676DA"/>
<path d="M7 12.5C6.44769 12.5 6 12.0523 6 11.5C6 10.9477 6.44769 10.5 7 10.5H17C17.5523 10.5 18 10.9477 18 11.5C18 12.0523 17.5523 12.5 17 12.5H7Z" fill="#2676DA"/>
<path d="M6 16.5C6 15.9477 6.44769 15.5 7 15.5H17C17.5523 15.5 18 15.9477 18 16.5C18 17.0523 17.5523 17.5 17 17.5H7C6.44769 17.5 6 17.0523 6 16.5Z" fill="#2676DA"/>
<path d="M6 21.5C6 20.9477 6.44769 20.5 7 20.5H17C17.5523 20.5 18 20.9477 18 21.5C18 22.0523 17.5523 22.5 17 22.5H7C6.44769 22.5 6 22.0523 6 21.5Z" fill="#2676DA"/>
</svg>
