<svg width="56" height="56" viewBox="0 0 56 56" fill="none" xmlns="http://www.w3.org/2000/svg">
<rect width="56" height="56" rx="28" fill="#F2F4F8"/>
<path fill-rule="evenodd" clip-rule="evenodd" d="M14 29.1641C14 40.6931 16.471 43.1641 28 43.1641C39.529 43.1641 42 40.6931 42 29.1641C42 17.6351 39.529 15.1641 28 15.1641C16.471 15.1641 14 17.6351 14 29.1641ZM16.3333 29.1641C16.3333 31.9931 16.488 34.1071 16.844 35.7092C17.1942 37.2847 17.7073 38.2183 18.3265 38.8375C18.9458 39.4568 19.8794 39.9699 21.4549 40.3201C23.0569 40.6761 25.171 40.8307 28 40.8307C30.829 40.8307 32.9431 40.6761 34.5451 40.3201C36.1206 39.9699 37.0542 39.4568 37.6735 38.8375C38.2927 38.2183 38.8058 37.2847 39.156 35.7092C39.512 34.1071 39.6667 31.9931 39.6667 29.1641C39.6667 28.3252 39.6531 27.5492 39.6247 26.8307H16.3753C16.3469 27.5492 16.3333 28.3252 16.3333 29.1641ZM16.5423 24.4974H39.4577C39.3805 23.8028 39.2806 23.1795 39.156 22.619C38.8058 21.0435 38.2927 20.1098 37.6735 19.4906C37.0542 18.8714 36.1206 18.3582 34.5451 18.0081C32.9431 17.652 30.829 17.4974 28 17.4974C25.171 17.4974 23.0569 17.652 21.4549 18.0081C19.8794 18.3582 18.9458 18.8714 18.3265 19.4906C17.7073 20.1098 17.1942 21.0435 16.844 22.619C16.7194 23.1795 16.6195 23.8028 16.5423 24.4974Z" fill="#ABAFD1"/>
<path d="M19.832 31.4987C19.832 30.8544 20.3544 30.332 20.9987 30.332H24.4987C25.143 30.332 25.6654 30.8544 25.6654 31.4987C25.6654 32.143 25.143 32.6654 24.4987 32.6654H20.9987C20.3544 32.6654 19.832 32.143 19.832 31.4987Z" fill="#5189CF"/>
<path d="M19.832 36.1654C19.832 35.521 20.3544 34.9987 20.9987 34.9987H24.4987C25.143 34.9987 25.6654 35.521 25.6654 36.1654C25.6654 36.8097 25.143 37.332 24.4987 37.332H20.9987C20.3544 37.332 19.832 36.8097 19.832 36.1654Z" fill="#5189CF"/>
<path d="M34.8622 30.6787C35.3178 30.2231 36.0565 30.2231 36.5121 30.6787C36.9677 31.1343 36.9677 31.873 36.5121 32.3286L31.8031 37.0376C31.5629 37.2778 31.2441 37.3914 30.9296 37.3783C30.642 37.3703 30.3568 37.2566 30.1373 37.0371L28.4874 35.3872C28.0318 34.9315 28.0318 34.1928 28.4874 33.7372C28.943 33.2816 29.6817 33.2816 30.1373 33.7372L30.9705 34.5704L34.8622 30.6787Z" fill="#5189CF"/>
<path d="M23.3346 12.832C22.6903 12.832 22.168 13.3544 22.168 13.9987V18.6654C22.168 19.3097 22.6903 19.832 23.3346 19.832C23.979 19.832 24.5013 19.3097 24.5013 18.6654V13.9987C24.5013 13.3544 23.979 12.832 23.3346 12.832Z" fill="#5189CF"/>
<path d="M32.668 12.832C32.0236 12.832 31.5013 13.3544 31.5013 13.9987V18.6654C31.5013 19.3097 32.0236 19.832 32.668 19.832C33.3123 19.832 33.8346 19.3097 33.8346 18.6654V13.9987C33.8346 13.3544 33.3123 12.832 32.668 12.832Z" fill="#5189CF"/>
</svg>
