<svg width="56" height="56" viewBox="0 0 56 56" fill="none" xmlns="http://www.w3.org/2000/svg">
<rect width="56" height="56" rx="28" fill="#F2F4F8"/>
<path fill-rule="evenodd" clip-rule="evenodd" d="M14 28C14 39.529 16.471 42 28 42C39.529 42 42 39.529 42 28C42 16.471 39.529 14 28 14C16.471 14 14 16.471 14 28ZM16.3333 28C16.3333 30.829 16.488 32.9431 16.844 34.5451C17.1941 36.1206 17.7073 37.0542 18.3265 37.6735C18.9458 38.2927 19.8794 38.8059 21.4549 39.156C23.0569 39.512 25.171 39.6667 28 39.6667C29.3439 39.6667 30.5265 39.6318 31.5695 39.557C31.5653 39.3477 31.5543 39.1235 31.5418 38.8691C31.5348 38.726 31.5273 38.573 31.5203 38.408C31.4987 37.8984 31.485 37.3169 31.5291 36.7207C31.6169 35.5349 31.9429 34.1548 33.0295 33.0648C34.1195 31.9714 35.5413 31.6365 36.7388 31.538C37.3463 31.488 37.9361 31.4958 38.4484 31.5136C38.6464 31.5204 38.8239 31.5282 38.9866 31.5353C39.1979 31.5446 39.3843 31.5527 39.5579 31.5564C39.6321 30.5166 39.6667 29.3383 39.6667 28C39.6667 25.171 39.512 23.0569 39.156 21.4549C38.8059 19.8794 38.2927 18.9458 37.6735 18.3265C37.0542 17.7073 36.1206 17.1941 34.5451 16.844C32.9431 16.488 30.829 16.3333 28 16.3333C25.171 16.3333 23.0569 16.488 21.4549 16.844C19.8794 17.1941 18.9458 17.7073 18.3265 18.3265C17.7073 18.9458 17.1941 19.8794 16.844 21.4549C16.488 23.0569 16.3333 25.171 16.3333 28ZM39.2867 33.8826C39.1322 33.8773 38.9718 33.8704 38.8129 33.8635C38.6611 33.857 38.5105 33.8505 38.3676 33.8455C37.8871 33.8289 37.4029 33.8246 36.9301 33.8634C35.9671 33.9427 35.2031 34.1894 34.682 34.7122C34.1574 35.2383 33.9245 35.9683 33.8561 36.8929C33.8221 37.3517 33.831 37.8253 33.8515 38.3091C33.8568 38.4328 33.8631 38.5617 33.8695 38.6925C33.8791 38.8889 33.889 39.0898 33.8958 39.2844C34.1211 39.2449 34.3374 39.2022 34.5451 39.156C36.1206 38.8059 37.0542 38.2927 37.6735 37.6735C38.2927 37.0542 38.8059 36.1206 39.156 34.5451C39.2031 34.3334 39.2466 34.1127 39.2867 33.8826Z" fill="#ABAFD1"/>
<path d="M24.5 22.1667C24.5 21.5223 25.0223 21 25.6667 21H30.3333C30.9777 21 31.5 21.5223 31.5 22.1667C31.5 22.811 30.9777 23.3333 30.3333 23.3333H25.6667C25.0223 23.3333 24.5 22.811 24.5 22.1667Z" fill="#5189CF"/>
<path d="M22.1667 26.8333C21.5223 26.8333 21 27.3557 21 28C21 28.6443 21.5223 29.1667 22.1667 29.1667H33.8333C34.4777 29.1667 35 28.6443 35 28C35 27.3557 34.4777 26.8333 33.8333 26.8333H22.1667Z" fill="#5189CF"/>
</svg>
