<svg width="56" height="56" viewBox="0 0 56 56" fill="none" xmlns="http://www.w3.org/2000/svg">
<rect width="56" height="56" rx="28" fill="#F2F4F8"/>
<path d="M29 23C29 23.5523 28.5523 24 28 24C27.4477 24 27 23.5523 27 23C27 22.4477 27.4477 22 28 22C28.5523 22 29 22.4477 29 23Z" fill="#5189CF"/>
<path d="M25 25C25 25.5523 24.5523 26 24 26C23.4477 26 23 25.5523 23 25C23 24.4477 23.4477 24 24 24C24.5523 24 25 24.4477 25 25Z" fill="#5189CF"/>
<path d="M32 26C32.5523 26 33 25.5523 33 25C33 24.4477 32.5523 24 32 24C31.4477 24 31 24.4477 31 25C31 25.5523 31.4477 26 32 26Z" fill="#5189CF"/>
<path fill-rule="evenodd" clip-rule="evenodd" d="M37.9988 28.0498C37.9996 28.0333 38 28.0167 38 28C38 25.1944 37.5206 22.6425 35.9195 20.7989C34.2923 18.9251 31.7031 18 28 18C24.2969 18 21.7077 18.9251 20.0805 20.7989C18.4794 22.6425 18 25.1944 18 28C18 28.0167 18.0004 28.0333 18.0012 28.0498C16.8595 28.2809 16 29.2901 16 30.5C16 31.7535 16.9226 32.7915 18.1257 32.9722C18.1305 33.0145 18.1353 33.0571 18.1402 33.0999L18.1502 33.1888C18.1886 33.5273 18.2317 33.8933 18.3042 34.2474C18.4542 34.9803 18.7461 35.7452 19.4689 36.3776C20.1612 36.9833 21.1433 37.3739 22.474 37.6235C23.8122 37.8745 25.601 38 28 38C30.3991 38 32.1878 37.8745 33.526 37.6235C34.8567 37.3739 35.8389 36.9833 36.5311 36.3776C37.2539 35.7452 37.5459 34.9803 37.6959 34.2474C37.7684 33.8933 37.8114 33.5273 37.8498 33.1888L37.8598 33.0999C37.8647 33.0571 37.8695 33.0145 37.8743 32.9722C39.0775 32.7915 40 31.7535 40 30.5C40 29.2901 39.1405 28.2809 37.9988 28.0498ZM20 28H36C36 25.3511 35.5321 23.403 34.4094 22.1102C33.3129 20.8476 31.4022 20 28 20C24.5978 20 22.6871 20.8476 21.5906 22.1102C20.4679 23.403 20 25.3511 20 28ZM36.9767 31H27V33H35.8584C35.8209 33.3286 35.7869 33.6002 35.7365 33.8463C35.637 34.3322 35.4914 34.6298 35.2142 34.8724C34.9064 35.1417 34.3261 35.4386 33.1573 35.6578C31.9961 35.8755 30.3486 36 28 36C25.6514 36 24.0039 35.8755 22.8427 35.6578C21.674 35.4386 21.0936 35.1417 20.7859 34.8724C20.5086 34.6298 20.363 34.3322 20.2635 33.8463C20.2131 33.6002 20.1791 33.3286 20.1417 33H23V31H19.0234C19.0117 30.9998 18.9999 30.9998 18.9881 31H18.5C18.2239 31 18 30.7761 18 30.5C18 30.2239 18.2239 30 18.5 30H37.5C37.7761 30 38 30.2239 38 30.5C38 30.7761 37.7761 31 37.5 31H37.0118C37.0001 30.9998 36.9884 30.9998 36.9767 31Z" fill="#ABAFD1"/>
<path d="M29.0001 29.3906V29.4372C29.0004 29.4216 29.0004 29.4061 29.0001 29.3906Z" fill="#5189CF"/>
<path fill-rule="evenodd" clip-rule="evenodd" d="M28.8661 29.9993C28.8502 30.0323 28.8329 30.0651 28.8141 30.0976L26.3937 34.2744C26.0962 34.7879 25.5683 34.9925 25.1296 34.9991C24.6907 35.0057 24.16 34.8174 23.8458 34.3189L21.2131 30.1421C21.1835 30.0952 21.1572 30.0475 21.134 29.9993H28.8661ZM25.0879 32.5388L23.4872 29.9993L26.5595 29.9993L25.0879 32.5388Z" fill="#5189CF"/>
<path d="M21.0001 29.432V29.3966C21 29.4084 21 29.4202 21.0001 29.432Z" fill="#5189CF"/>
</svg>
