<svg width="56" height="56" viewBox="0 0 56 56" fill="none" xmlns="http://www.w3.org/2000/svg">
<rect width="56" height="56" rx="28" fill="#F2F4F8"/>
<path fill-rule="evenodd" clip-rule="evenodd" d="M16 29C16 38.882 18.118 41 28 41C37.882 41 40 38.882 40 29C40 19.118 37.882 17 28 17C18.118 17 16 19.118 16 29ZM18 29C18 31.4249 18.1325 33.2369 18.4377 34.6101C18.7378 35.9605 19.1777 36.7608 19.7085 37.2915C20.2392 37.8223 21.0395 38.2622 22.3899 38.5623C23.7631 38.8675 25.5751 39 28 39C30.4249 39 32.2369 38.8675 33.6101 38.5623C34.9605 38.2622 35.7608 37.8223 36.2915 37.2915C36.8223 36.7608 37.2622 35.9605 37.5623 34.6101C37.8675 33.2369 38 31.4249 38 29C38 26.5751 37.8675 24.7631 37.5623 23.3899C37.2622 22.0395 36.8223 21.2392 36.2915 20.7085C35.7608 20.1777 34.9605 19.7378 33.6101 19.4377C32.2369 19.1325 30.4249 19 28 19C25.5751 19 23.7631 19.1325 22.3899 19.4377C21.0395 19.7378 20.2392 20.1777 19.7085 20.7085C19.1777 21.2392 18.7378 22.0395 18.4377 23.3899C18.1325 24.7631 18 26.5751 18 29Z" fill="#ABAFD1"/>
<path d="M25 15C25 14.4477 25.4477 14 26 14C26.5523 14 27 14.4477 27 15V16H29V15C29 14.4477 29.4477 14 30 14C30.5523 14 31 14.4477 31 15V16H32C33.1046 16 34 16.8954 34 18C34 19.1046 33.1046 20 32 20H24C22.8954 20 22 19.1046 22 18C22 16.8954 22.8954 16 24 16H25V15Z" fill="#5189CF"/>
<path fill-rule="evenodd" clip-rule="evenodd" d="M28.9676 24C28.9676 23.4477 28.5199 23 27.9676 23C27.4154 23 26.9676 23.4477 26.9676 24V24.3517C25.4676 24.5174 24.3008 25.7892 24.3008 27.3334C24.3008 28.9903 25.6439 30.3334 27.3008 30.3334H28.6341C29.1864 30.3334 29.6341 30.7811 29.6341 31.3334C29.6341 31.8857 29.1864 32.3334 28.6341 32.3334H27.9806C27.9763 32.3334 27.972 32.3333 27.9676 32.3333C27.9633 32.3333 27.959 32.3334 27.9547 32.3334H25.3008C24.7485 32.3334 24.3008 32.7811 24.3008 33.3334C24.3008 33.8857 24.7485 34.3334 25.3008 34.3334H26.9676V34.6667C26.9676 35.219 27.4154 35.6667 27.9676 35.6667C28.5199 35.6667 28.9676 35.219 28.9676 34.6667V34.3151C30.4675 34.1492 31.6341 32.8775 31.6341 31.3334C31.6341 29.6766 30.291 28.3334 28.6341 28.3334H27.3008C26.7485 28.3334 26.3008 27.8857 26.3008 27.3334C26.3008 26.7811 26.7485 26.3334 27.3008 26.3334H30.6341C31.1864 26.3334 31.6341 25.8857 31.6341 25.3334C31.6341 24.7811 31.1864 24.3334 30.6341 24.3334H28.9676V24Z" fill="#5189CF"/>
</svg>
