<svg width="56" height="56" viewBox="0 0 56 56" fill="none" xmlns="http://www.w3.org/2000/svg">
<rect width="56" height="56" rx="28" fill="#F2F4F8"/>
<path fill-rule="evenodd" clip-rule="evenodd" d="M16 26C16 34.235 18.118 36 28 36C37.882 36 40 34.235 40 26C40 17.765 37.882 16 28 16C18.118 16 16 17.765 16 26ZM18 26C18 30.1423 18.5893 31.7306 19.5746 32.5517C20.0968 32.9868 20.9189 33.3695 22.3202 33.629C23.7267 33.8895 25.5669 34 28 34C30.4331 34 32.2733 33.8895 33.6798 33.629C35.0811 33.3695 35.9032 32.9868 36.4254 32.5517C37.4107 31.7306 38 30.1423 38 26C38 21.8577 37.4107 20.2694 36.4254 19.4483C35.9032 19.0132 35.0811 18.6305 33.6798 18.371C32.2733 18.1105 30.4331 18 28 18C25.5669 18 23.7267 18.1105 22.3202 18.371C20.9189 18.6305 20.0968 19.0132 19.5746 19.4483C18.5893 20.2694 18 21.8577 18 26Z" fill="#ABAFD1"/>
<path d="M18 39C18 38.4477 18.4477 38 19 38H37C37.5523 38 38 38.4477 38 39C38 39.5523 37.5523 40 37 40H19C18.4477 40 18 39.5523 18 39Z" fill="#5189CF"/>
</svg>
