<svg width="56" height="56" viewBox="0 0 56 56" fill="none" xmlns="http://www.w3.org/2000/svg">
<rect width="56" height="56" rx="28" fill="#F2F4F8"/>
<path d="M23.6818 32.3103C23.205 31.8343 23.205 31.0625 23.6818 30.5865L30.5883 23.691C31.065 23.215 31.8381 23.215 32.3149 23.691C32.7917 24.1671 32.7917 24.9388 32.3149 25.4149L25.4084 32.3103C24.9316 32.7864 24.1586 32.7864 23.6818 32.3103Z" fill="#5189CF"/>
<path d="M24.4927 26.834C23.8474 26.834 23.3242 26.3116 23.3242 25.6673V24.5007C23.3242 23.8563 23.8474 23.334 24.4927 23.334C25.1381 23.334 25.6613 23.8563 25.6613 24.5007V25.6673C25.6613 26.3116 25.1381 26.834 24.4927 26.834Z" fill="#5189CF"/>
<path d="M30.3354 31.5007C30.3354 32.145 30.8586 32.6673 31.5039 32.6673C32.1493 32.6673 32.6725 32.145 32.6725 31.5007V30.334C32.6725 29.6897 32.1493 29.1673 31.5039 29.1673C30.8586 29.1673 30.3354 29.6897 30.3354 30.334V31.5007Z" fill="#5189CF"/>
<path fill-rule="evenodd" clip-rule="evenodd" d="M14.6452 36.7052C15.384 38.6869 16.45 39.9282 18.0675 40.8333C19.5307 41.6522 21.6424 42 25.4038 42H30.5962C34.3576 42 36.4693 41.6522 37.9325 40.8333C39.55 39.9282 40.616 38.6869 41.3548 36.7052C41.7236 35.7159 41.8889 34.5708 41.963 32.9686C41.9863 32.4641 41.998 32.2119 41.9577 31.9691C41.8051 31.0485 41.0537 30.2629 40.1397 30.0682C39.8986 30.0169 39.6202 30.0169 39.0633 30.0169C38.2977 30.0169 37.6771 29.2564 37.6771 28.3184C37.6771 27.3804 38.2977 26.62 39.0633 26.62C39.6316 26.62 39.9157 26.62 40.158 26.5681C41.0652 26.3738 41.8001 25.6174 41.9669 24.7061C42.0114 24.4628 42.0033 24.1969 41.9871 23.6653C41.9277 21.7229 41.7705 20.4099 41.3548 19.2948C40.616 17.3131 39.55 16.0718 37.9325 15.1667C36.4693 14.3478 34.3576 14 30.5962 14H25.4038C21.6424 14 19.5307 14.3478 18.0675 15.1667C16.45 16.0718 15.384 17.3131 14.6452 19.2948C14.2295 20.4099 14.0723 21.7229 14.0129 23.6653C13.9967 24.1969 13.9886 24.4628 14.0331 24.7061C14.1999 25.6174 14.9348 26.3738 15.842 26.5681C16.0843 26.62 16.3684 26.62 16.9367 26.62C17.7023 26.62 18.3229 27.3804 18.3229 28.3184C18.3229 29.2564 17.7023 30.0169 16.9367 30.0169C16.3798 30.0169 16.1014 30.0169 15.8603 30.0682C14.9463 30.2629 14.1949 31.0485 14.0423 31.9691C14.002 32.2119 14.0137 32.4641 14.037 32.9686C14.1111 34.5708 14.2764 35.7159 14.6452 36.7052ZM16.3489 23.7365C16.4068 21.843 16.5593 20.8493 16.8355 20.1087C17.396 18.6053 18.1118 17.8167 19.2102 17.2021C20.1041 16.7018 21.676 16.3333 25.4038 16.3333H30.5962C34.324 16.3333 35.8959 16.7018 36.7898 17.2021C37.8882 17.8167 38.604 18.6053 39.1645 20.1087C39.4407 20.8493 39.5932 21.843 39.6511 23.7365C39.6598 24.0202 39.6638 24.166 39.6628 24.2723L39.6627 24.2811L39.6449 24.2818C39.5267 24.2863 39.3648 24.2867 39.0633 24.2867C36.5826 24.2867 35.34 26.5608 35.34 28.3184C35.34 30.076 36.5826 32.3502 39.0633 32.3502C39.3591 32.3502 39.5164 32.3506 39.6312 32.3549L39.6415 32.3553L39.644 32.3579L39.6472 32.3613C39.6466 32.4588 39.6408 32.5929 39.6284 32.8611C39.5581 34.3809 39.4071 35.2408 39.1645 35.8913C38.604 37.3947 37.8882 38.1833 36.7898 38.7979C35.8959 39.2982 34.324 39.6667 30.5962 39.6667H25.4038C21.676 39.6667 20.1041 39.2982 19.2102 38.7979C18.1118 38.1833 17.396 37.3947 16.8355 35.8913C16.5929 35.2408 16.4418 34.3809 16.3716 32.861C16.3592 32.5929 16.3534 32.4588 16.3528 32.3613L16.356 32.3579L16.3585 32.3553L16.3688 32.3549C16.4836 32.3506 16.6409 32.3502 16.9367 32.3502C19.4174 32.3502 20.66 30.076 20.66 28.3184C20.66 26.5608 19.4174 24.2867 16.9367 24.2867C16.6352 24.2867 16.4733 24.2863 16.3551 24.2818L16.3373 24.2811L16.3372 24.2723C16.3362 24.166 16.3402 24.0202 16.3489 23.7365Z" fill="#ABAFD1"/>
</svg>
