<svg width="56" height="56" viewBox="0 0 56 56" fill="none" xmlns="http://www.w3.org/2000/svg">
<rect width="56" height="56" rx="28" fill="#F2F4F8"/>
<path d="M18.6667 35.6667C19.219 35.6667 19.6667 35.219 19.6667 34.6667C19.6667 34.1144 19.219 33.6667 18.6667 33.6667V35.6667ZM16 34.6667H15C15 35.219 15.4477 35.6667 16 35.6667V34.6667ZM16 26.6667L15.0715 26.2953C15.0243 26.4134 15 26.5394 15 26.6667H16ZM18.6667 20V19C18.2578 19 17.8901 19.249 17.7382 19.6286L18.6667 20ZM30.6667 20L31.4475 19.3753C31.2578 19.1381 30.9705 19 30.6667 19V20ZM36 26.6667L35.2191 27.2914C35.4089 27.5286 35.6962 27.6667 36 27.6667V26.6667ZM40 34.6667V35.6667C40.5523 35.6667 41 35.219 41 34.6667H40ZM37.3333 33.6667C36.781 33.6667 36.3333 34.1144 36.3333 34.6667C36.3333 35.219 36.781 35.6667 37.3333 35.6667V33.6667ZM32 35.6667C32.5523 35.6667 33 35.219 33 34.6667C33 34.1144 32.5523 33.6667 32 33.6667V35.6667ZM24 33.6667C23.4477 33.6667 23 34.1144 23 34.6667C23 35.219 23.4477 35.6667 24 35.6667V33.6667ZM16 25.6667C15.4477 25.6667 15 26.1144 15 26.6667C15 27.219 15.4477 27.6667 16 27.6667V25.6667ZM36 27.6667C36.5523 27.6667 37 27.219 37 26.6667C37 26.1144 36.5523 25.6667 36 25.6667V27.6667ZM27 26.6667C27 27.219 27.4477 27.6667 28 27.6667C28.5523 27.6667 29 27.219 29 26.6667H27ZM29 20C29 19.4477 28.5523 19 28 19C27.4477 19 27 19.4477 27 20H29ZM18.6667 33.6667H16V35.6667H18.6667V33.6667ZM17 34.6667V26.6667H15V34.6667H17ZM16.9285 27.0381L19.5951 20.3714L17.7382 19.6286L15.0715 26.2953L16.9285 27.0381ZM18.6667 21H30.6667V19H18.6667V21ZM29.8858 20.6247L35.2191 27.2914L36.7809 26.042L31.4475 19.3753L29.8858 20.6247ZM36 27.6667H37.3333V25.6667H36V27.6667ZM37.3333 27.6667C38.2538 27.6667 39 28.4129 39 29.3333H41C41 27.3083 39.3584 25.6667 37.3333 25.6667V27.6667ZM39 29.3333V34.6667H41V29.3333H39ZM40 33.6667H37.3333V35.6667H40V33.6667ZM32 33.6667H24V35.6667H32V33.6667ZM16 27.6667H36V25.6667H16V27.6667ZM29 26.6667V20H27V26.6667H29Z" fill="#5189CF"/>
<circle cx="21.3307" cy="34.6667" r="2.66667" stroke="#ABAFD1" stroke-width="2" stroke-linecap="round" stroke-linejoin="round"/>
<circle cx="34.6667" cy="34.6667" r="2.66667" stroke="#ABAFD1" stroke-width="2" stroke-linecap="round" stroke-linejoin="round"/>
</svg>
