<svg width="48" height="48" viewBox="0 0 48 48" fill="none" xmlns="http://www.w3.org/2000/svg">
<rect width="48" height="48" rx="24" fill="#F2F4F8"/>
<path d="M20 18C20 18.5523 19.5523 19 19 19C18.4477 19 18 18.5523 18 18C18 16.062 18.7367 14.535 19.8981 13.5026C21.0412 12.4866 22.5369 12 24 12C25.4631 12 26.9588 12.4866 28.1019 13.5026C29.2633 14.535 30 16.062 30 18C30 18.5523 29.5523 19 29 19C28.4477 19 28 18.5523 28 18C28 16.6047 27.4867 15.6317 26.7731 14.9974C26.0412 14.3468 25.0369 14 24 14C22.9631 14 21.9588 14.3468 21.2269 14.9974C20.5133 15.6317 20 16.6047 20 18Z" fill="#5189CF"/>
<path fill-rule="evenodd" clip-rule="evenodd" d="M12 26.5C12 34.3232 14.118 36 24 36C33.882 36 36 34.3232 36 26.5C36 18.6768 33.882 17 24 17C14.118 17 12 18.6768 12 26.5ZM14 26.5C14 30.4173 14.5839 31.8621 15.5357 32.6156C16.0585 33.0295 16.8887 33.3973 18.3026 33.646C19.7176 33.895 21.5649 34 24 34C26.4351 34 28.2824 33.895 29.6974 33.646C31.1113 33.3973 31.9415 33.0295 32.4643 32.6156C33.4161 31.8621 34 30.4173 34 26.5C34 22.5827 33.4161 21.1379 32.4643 20.3844C31.9415 19.9705 31.1113 19.6027 29.6974 19.354C28.2824 19.105 26.4351 19 24 19C21.5649 19 19.7176 19.105 18.3026 19.354C16.8887 19.6027 16.0585 19.9705 15.5357 20.3844C14.5839 21.1379 14 22.5827 14 26.5Z" fill="#ABAFD1"/>
<path d="M25 24C25 23.4477 24.5523 23 24 23C23.4477 23 23 23.4477 23 24V26H21C20.4477 26 20 26.4477 20 27C20 27.5523 20.4477 28 21 28H23V30C23 30.5523 23.4477 31 24 31C24.5523 31 25 30.5523 25 30V28H27C27.5523 28 28 27.5523 28 27C28 26.4477 27.5523 26 27 26H25V24Z" fill="#5189CF"/>
</svg>
