<svg width="56" height="56" viewBox="0 0 56 56" fill="none" xmlns="http://www.w3.org/2000/svg">
<rect width="56" height="56" rx="28" fill="#F2F4F8"/>
<path fill-rule="evenodd" clip-rule="evenodd" d="M27 18C25.8954 18 25 18.8954 25 20L39 20L40 21V38L39 39H17L16 38V21L17 20H23C23 17.7909 24.7909 16 27 16H29.3333C31.4659 16 33 17.9048 33 20L31 20C31 18.7814 30.1463 18 29.3333 18L27 18ZM18 22V33C20.2091 33 22 34.7909 22 37H34C34 34.7909 35.7909 33 38 33V26C35.7909 26 34 24.2091 34 22H22C22 24.2091 20.2091 26 18 26L18 24C19.1046 24 20 23.1046 20 22L18 22ZM18 37V35C19.1046 35 20 35.8954 20 37H18ZM36 22C36 23.1046 36.8954 24 38 24V22H36ZM38 37H36C36 35.8954 36.8954 35 38 35V37Z" fill="#ABAFD1"/>
<path d="M30.8984 24L31.7713 27.2576L28.5137 28.1305L27.6408 24.8729L30.8984 24Z" fill="#5189CF"/>
<path d="M27 31C27 32.1046 26.1046 33 25 33C23.8954 33 23 32.1046 23 31C23 29.8954 23.8954 29 25 29C26.1046 29 27 29.8954 27 31Z" fill="#5189CF"/>
<path d="M33.9903 31.4826L31.1542 35.1726L29.3767 30.8714L33.9903 31.4826Z" fill="#5189CF"/>
</svg>
