<svg width="36" height="36" viewBox="0 0 36 36" fill="none" xmlns="http://www.w3.org/2000/svg">
<rect width="36" height="36" rx="4" fill="white" fill-opacity="0.16"/>
<path d="M26.3327 17.9998C26.3327 13.3975 22.6017 9.6665 17.9993 9.6665C13.397 9.6665 9.66602 13.3975 9.66602 17.9998C9.66602 22.1592 12.7134 25.6068 16.6973 26.2319V20.4087H14.5814V17.9998H16.6973V16.1639C16.6973 14.0754 17.9414 12.9217 19.8449 12.9217C20.7566 12.9217 21.7103 13.0845 21.7103 13.0845V15.1353H20.6595C19.6243 15.1353 19.3014 15.7776 19.3014 16.4366V17.9998H21.6126L21.2432 20.4087H19.3014V26.2319C23.2853 25.6068 26.3327 22.1592 26.3327 17.9998Z" fill="white"/>
</svg>
