<svg width="56" height="56" viewBox="0 0 56 56" fill="none" xmlns="http://www.w3.org/2000/svg">
<rect x="0.75" y="0.75" width="54.5" height="54.5" rx="27.25" fill="white"/>
<path fill-rule="evenodd" clip-rule="evenodd" d="M16.332 18.668C16.332 18.1157 16.7797 17.668 17.332 17.668H19.9987C20.551 17.668 20.9987 18.1157 20.9987 18.668C20.9987 19.2203 20.551 19.668 19.9987 19.668H17.332C16.7797 19.668 16.332 19.2203 16.332 18.668Z" fill="#ABAFD1"/>
<path fill-rule="evenodd" clip-rule="evenodd" d="M18.668 16.332C19.2203 16.332 19.668 16.7797 19.668 17.332V19.9987C19.668 20.551 19.2203 20.9987 18.668 20.9987C18.1157 20.9987 17.668 20.551 17.668 19.9987V17.332C17.668 16.7797 18.1157 16.332 18.668 16.332Z" fill="#ABAFD1"/>
<path fill-rule="evenodd" clip-rule="evenodd" d="M27.5774 16.3621C28.1132 16.4961 28.439 17.039 28.305 17.5748L27.6383 20.2415C27.5044 20.7773 26.9615 21.103 26.4257 20.9691C25.8899 20.8351 25.5641 20.2922 25.6981 19.7564L26.3647 17.0897C26.4987 16.5539 27.0416 16.2282 27.5774 16.3621Z" fill="#1C4B85"/>
<path fill-rule="evenodd" clip-rule="evenodd" d="M35 18.668C35 18.1157 35.4477 17.668 36 17.668H38.6667C39.219 17.668 39.6667 18.1157 39.6667 18.668C39.6667 19.2203 39.219 19.668 38.6667 19.668H36C35.4477 19.668 35 19.2203 35 18.668Z" fill="#1C4B85"/>
<path fill-rule="evenodd" clip-rule="evenodd" d="M37.332 16.332C37.8843 16.332 38.332 16.7797 38.332 17.332V19.9987C38.332 20.551 37.8843 20.9987 37.332 20.9987C36.7797 20.9987 36.332 20.551 36.332 19.9987V17.332C36.332 16.7797 36.7797 16.332 37.332 16.332Z" fill="#1C4B85"/>
<path fill-rule="evenodd" clip-rule="evenodd" d="M32.7084 23.2929C33.0989 23.6834 33.0989 24.3166 32.7084 24.7071L31.3751 26.0404C30.9846 26.431 30.3514 26.431 29.9609 26.0404C29.5703 25.6499 29.5703 25.0168 29.9609 24.6262L31.2942 23.2929C31.6847 22.9024 32.3179 22.9024 32.7084 23.2929Z" fill="#1C4B85"/>
<path fill-rule="evenodd" clip-rule="evenodd" d="M39.637 28.4257C39.771 28.9615 39.4452 29.5044 38.9094 29.6383L36.2428 30.305C35.707 30.439 35.164 30.1132 35.0301 29.5774C34.8961 29.0416 35.2219 28.4987 35.7577 28.3647L38.4244 27.6981C38.9602 27.5641 39.5031 27.8899 39.637 28.4257Z" fill="#ABAFD1"/>
<path fill-rule="evenodd" clip-rule="evenodd" d="M35 37.332C35 36.7797 35.4477 36.332 36 36.332H38.6667C39.219 36.332 39.6667 36.7797 39.6667 37.332C39.6667 37.8843 39.219 38.332 38.6667 38.332H36C35.4477 38.332 35 37.8843 35 37.332Z" fill="#1C4B85"/>
<path fill-rule="evenodd" clip-rule="evenodd" d="M37.332 35C37.8843 35 38.332 35.4477 38.332 36V38.6667C38.332 39.219 37.8843 39.6667 37.332 39.6667C36.7797 39.6667 36.332 39.219 36.332 38.6667V36C36.332 35.4477 36.7797 35 37.332 35Z" fill="#1C4B85"/>
<path fill-rule="evenodd" clip-rule="evenodd" d="M14.3016 37.2777L14.3027 37.2753L19.5569 25.8095C20.4279 23.9088 22.9271 23.4596 24.4055 24.9379L31.0622 31.5947C32.5405 33.0729 32.0914 35.572 30.191 36.4431L18.7237 41.6997C17.4563 42.2785 15.9628 42.009 14.9776 41.0238C13.9924 40.0386 13.7229 38.5451 14.3016 37.2777ZM16.1209 38.1084L21.3751 26.6426C21.6654 26.0091 22.4985 25.8593 22.9913 26.3521L29.648 33.0089C30.1408 33.5016 29.9911 34.3347 29.3576 34.625L17.8929 39.8804C17.3851 40.1123 16.7866 40.0043 16.3918 39.6096C15.997 39.2148 15.889 38.6163 16.1209 38.1084Z" fill="#ABAFD1"/>
<rect x="0.75" y="0.75" width="54.5" height="54.5" rx="27.25" stroke="#1C4B85" stroke-width="1.5"/>
</svg>
