<svg width="56" height="56" viewBox="0 0 56 56" fill="none" xmlns="http://www.w3.org/2000/svg">
<rect x="0.75" y="0.75" width="54.5" height="54.5" rx="27.25" fill="white"/>
<path fill-rule="evenodd" clip-rule="evenodd" d="M28 16C37.882 16 40 17.7778 40 26.6667C40 32.4445 39.0002 36 34.5002 36C32.0954 36 31.3801 37.1424 30.714 38.2061C30.1336 39.1329 29.5906 40 28.0002 40C26.41 40 25.867 39.1329 25.2866 38.2061C24.6205 37.1424 23.9051 36 21.5002 36C17.0002 36 16 32.3307 16 26.6667C16 17.8827 18.118 16 28 16ZM38 26.6667C38 22.168 37.4029 20.3991 36.3833 19.5004C35.8642 19.0428 35.0543 18.6477 33.6661 18.3807C32.2678 18.1116 30.4346 18 28 18C25.5696 18 23.7388 18.1179 22.3436 18.3935C20.9592 18.667 20.1462 19.0691 19.623 19.5342C18.594 20.4488 18 22.2292 18 26.6667C18 29.4774 18.2661 31.392 18.8515 32.563C19.1182 33.0964 19.4235 33.4161 19.7654 33.6196C20.1154 33.8279 20.6482 34 21.5002 34C22.9376 34 24.1054 34.3253 25.0558 34.9692C25.9702 35.5888 26.504 36.3908 26.8448 36.9272L26.9818 37.1432C27.2765 37.6084 27.3741 37.7625 27.5122 37.8864L27.5176 37.8916C27.5466 37.9199 27.6286 38 28.0003 38C28.372 38 28.454 37.9199 28.483 37.8916L28.4884 37.8864C28.6265 37.7625 28.7241 37.6085 29.0188 37.1431L29.1557 36.9273C29.4965 36.391 30.0303 35.5889 30.9447 34.9693C31.895 34.3253 33.0629 34 34.5002 34C35.3628 34 35.9003 33.8307 36.2506 33.6264C36.5896 33.4288 36.8894 33.1199 37.1518 32.5995C37.7325 31.448 38 29.5408 38 26.6667Z" fill="#ABAFD1"/>
<path fill-rule="evenodd" clip-rule="evenodd" d="M33.8526 26.5223C34.141 26.0513 33.993 25.4357 33.522 25.1473C33.0521 24.8596 32.4383 25.0062 32.149 25.4746C32.149 25.4746 32.1491 25.4745 32.149 25.4746C32.1489 25.4749 32.1486 25.4752 32.1484 25.4755L32.1386 25.4908C32.1281 25.5068 32.1103 25.5334 32.0855 25.5685C32.0639 25.599 32.0373 25.6356 32.006 25.6768L29.2178 26.6505C29.0457 26.554 28.8591 26.4231 28.6582 26.2473C27.8041 25.5 26.9229 25.1362 26.052 25.1024C25.1932 25.069 24.4598 25.3609 23.8953 25.7165C23.3342 26.07 22.9023 26.5092 22.6171 26.8449C22.4722 27.0155 22.3592 27.1665 22.2808 27.2776C22.2414 27.3332 22.2104 27.3794 22.188 27.4135C22.1769 27.4306 22.1678 27.4447 22.161 27.4555L22.1523 27.4693L22.1492 27.4743L22.148 27.4763L22.1474 27.4772C22.1472 27.4776 22.1469 27.478 22.9998 28.0001L22.1474 27.4772C21.859 27.9482 22.0066 28.5646 22.4776 28.853C22.9475 29.1407 23.5613 28.994 23.8506 28.5257L26.941 27.4461C27.0674 27.5287 27.2009 27.6297 27.3413 27.7525C28.1954 28.4998 29.0766 28.8637 29.9475 28.8976C30.8063 28.931 31.5397 28.6392 32.1042 28.2836C32.6652 27.9302 33.0973 27.491 33.3824 27.1553C33.5274 26.9847 33.6403 26.8338 33.7188 26.7228C33.7581 26.6671 33.7892 26.621 33.8115 26.5868C33.8227 26.5698 33.8317 26.5557 33.8386 26.5448L33.8472 26.531L33.8503 26.526L33.8516 26.524L33.8526 26.5223C33.8529 26.5219 33.8526 26.5223 32.9998 26.0001L33.8526 26.5223ZM26.941 27.4461C26.9409 27.446 26.9412 27.4462 26.941 27.4461L29.2178 26.6505C29.5378 26.83 29.8078 26.8906 30.0252 26.8991C30.3718 26.9126 30.7099 26.7982 31.0382 26.5913C31.37 26.3823 31.6523 26.1028 31.8582 25.8605C31.9153 25.7933 31.9648 25.7309 32.006 25.6768C32.0059 25.6768 32.006 25.6767 32.006 25.6768L29.2178 26.6505C29.2177 26.6505 29.2179 26.6506 29.2178 26.6505L26.941 27.4461ZM26.941 27.4461C26.5505 27.191 26.2269 27.1107 25.9744 27.1009C25.6278 27.0874 25.2898 27.2018 24.9614 27.4087C24.6296 27.6177 24.3473 27.8973 24.1414 28.1397C24.0408 28.2582 23.964 28.3611 23.9141 28.4317C23.8893 28.4668 23.8715 28.4935 23.8611 28.5094L23.8506 28.5257L26.941 27.4461ZM32.1478 25.4765C32.1478 25.4766 32.1479 25.4764 32.1478 25.4765V25.4765Z" fill="#1C4B85"/>
<rect x="0.75" y="0.75" width="54.5" height="54.5" rx="27.25" stroke="#8FA1BD" stroke-width="1.5"/>
</svg>
