<svg width="338" height="266" viewBox="0 0 338 266" fill="none" xmlns="http://www.w3.org/2000/svg">
<g opacity="0.05">
<path d="M244.37 61.3556C244.034 60.7706 243.745 60.1599 243.504 59.5291C242.836 57.8193 242.511 55.9933 242.545 54.156C242.58 52.3188 242.975 50.5066 243.706 48.8238C244.438 47.1409 245.492 45.6207 246.808 44.3504C248.125 43.0802 249.677 42.0851 251.376 41.4224C301.243 21.3701 326.471 19.7421 335.76 35.9428C337.387 38.8627 337.92 42.2751 337.263 45.5584C336.606 48.8418 334.802 51.7778 332.179 53.832C329.556 55.8861 326.29 56.9217 322.974 56.7503C319.658 56.5789 316.514 55.2118 314.113 52.8979C310.453 52.62 296.913 53.1362 261.609 67.3117C258.509 68.6071 255.048 68.7168 251.874 67.6201C248.7 66.5235 246.031 64.296 244.37 61.3556Z" fill="#5189CF"/>
<path d="M3.459 229.316C-5.82959 213.115 8.22137 191.871 50.3349 158.319C51.7516 157.092 53.3993 156.167 55.1791 155.6C56.9589 155.032 58.8341 154.833 60.6921 155.014C62.5501 155.196 64.3525 155.754 65.9912 156.656C67.6299 157.558 69.071 158.785 70.228 160.263C71.3851 161.741 72.2341 163.439 72.7243 165.256C73.2144 167.074 73.3354 168.972 73.0802 170.837C72.825 172.703 72.1986 174.497 71.2389 176.113C70.2792 177.728 69.0058 179.131 67.4952 180.237C37.6221 204.062 30.4195 215.537 28.8058 218.873C29.6422 222.137 29.2771 225.597 27.778 228.611C26.279 231.625 23.7478 233.988 20.6536 235.263C17.5593 236.538 14.1118 236.638 10.9502 235.544C7.78848 234.451 5.12699 232.238 3.459 229.316Z" fill="#5189CF"/>
<path d="M266.293 101.341C270.363 114.245 271.848 127.837 270.661 141.326C268.518 139.464 265.991 138.107 263.262 137.356C258.22 135.992 252.848 136.704 248.327 139.337C243.806 141.969 240.507 146.306 239.155 151.392C237.803 156.479 238.51 161.899 241.119 166.46C243.728 171.021 248.026 174.349 253.068 175.713C255.794 176.423 258.637 176.545 261.412 176.07C255.754 188.359 247.726 199.387 237.797 208.511C235.288 210.804 233.634 213.896 233.111 217.271C232.588 220.645 233.228 224.099 234.924 227.055C235.446 227.98 236.066 228.846 236.774 229.636C238.072 231.106 239.645 232.303 241.403 233.159C243.161 234.015 245.069 234.512 247.018 234.623C248.966 234.733 250.918 234.455 252.76 233.804C254.602 233.152 256.298 232.141 257.752 230.827C276.474 213.765 289.908 191.607 296.437 167.02C302.966 142.434 302.311 116.467 294.552 92.2478C293.346 88.4671 290.701 85.3245 287.199 83.5112C283.697 81.698 279.624 81.3626 275.876 82.579C272.129 83.7953 269.014 86.4637 267.217 89.9971C265.419 93.5305 265.087 97.6395 266.293 101.42V101.341Z" fill="#5189CF"/>
<path d="M266.728 43.526C249.816 24.6378 227.853 11.0843 203.483 4.49743C179.112 -2.08947 153.374 -1.42896 129.367 6.39945C127.509 6.99472 125.786 7.95463 124.296 9.22401C122.806 10.4934 121.58 12.0472 120.688 13.7962C119.795 15.5452 119.254 17.4549 119.096 19.4155C118.937 21.3761 119.164 23.349 119.764 25.2208C120.075 26.2507 120.511 27.2376 121.063 28.1592C122.767 31.1153 125.42 33.3958 128.583 34.6234C131.747 35.8509 135.231 35.9519 138.459 34.9095C151.237 30.8049 164.697 29.3067 178.054 30.5019C176.238 32.6845 174.897 35.2278 174.118 37.9669C172.777 43.064 173.497 48.4899 176.121 53.0509C178.745 57.6119 183.058 60.9346 188.11 62.2878C193.162 63.6411 198.54 62.9141 203.061 60.2668C207.582 57.6195 210.876 53.2688 212.217 48.1718C212.952 45.4279 213.087 42.5553 212.611 39.7538C224.773 45.4737 235.689 53.5716 244.727 63.5783C247.368 66.5218 251.06 68.2862 254.99 68.4836C258.921 68.6809 262.768 67.2949 265.685 64.6306C268.603 61.9662 270.352 58.2417 270.547 54.2764C270.743 50.311 269.369 46.4297 266.728 43.4863V43.526Z" fill="#5189CF"/>
<path d="M72.6111 163.92C68.5249 151.019 67.0395 137.423 68.2423 123.934C70.5075 125.834 73.1666 127.196 76.0235 127.921C78.8803 128.646 81.8619 128.714 84.7485 128.121C87.635 127.529 90.3528 126.289 92.7014 124.496C95.0499 122.702 96.9693 120.399 98.318 117.757C99.6666 115.114 100.41 112.201 100.494 109.23C100.577 106.259 99.9987 103.307 98.8007 100.592C97.6026 97.8774 95.8158 95.4684 93.5718 93.543C91.3278 91.6177 88.6841 90.2251 85.8355 89.468C83.1157 88.7261 80.2684 88.5906 77.4915 89.0709C83.1612 76.8008 91.1878 65.7877 101.107 56.6696C104.024 54.0052 105.773 50.2807 105.969 46.3154C106.164 42.3501 104.79 38.4688 102.15 35.5253C99.5086 32.5819 95.8168 30.8174 91.8864 30.6201C87.9559 30.4227 84.1088 31.8087 81.1912 34.4731C62.4745 51.5395 49.0413 73.6959 42.5061 98.2795C35.9709 122.863 36.6118 148.827 44.3517 173.052C44.6962 174.069 45.1309 175.053 45.6505 175.991C47.4884 179.151 50.4115 181.522 53.8659 182.654C57.3204 183.785 61.0663 183.6 64.3941 182.131C67.7218 180.663 70.4002 178.015 71.9219 174.687C73.4435 171.36 73.7027 167.586 72.6504 164.078L72.6111 163.92Z" fill="#5189CF"/>
<path d="M219.142 239.997C217.924 236.22 215.275 233.082 211.773 231.267C208.271 229.452 204.199 229.108 200.446 230.309C187.665 234.462 174.188 235.988 160.812 234.796C162.666 232.639 164.012 230.087 164.748 227.331C165.499 224.473 165.608 221.481 165.067 218.575C164.525 215.669 163.347 212.922 161.619 210.534C159.89 208.146 157.655 206.178 155.076 204.773C152.497 203.368 149.639 202.562 146.712 202.414C143.785 202.266 140.862 202.779 138.156 203.917C135.451 205.054 133.031 206.787 131.075 208.988C129.118 211.19 127.674 213.804 126.847 216.641C126.02 219.478 125.831 222.465 126.295 225.385C114.133 219.665 103.217 211.567 94.1787 201.56C92.871 200.103 91.2916 198.92 89.5307 198.078C87.7697 197.236 85.8617 196.753 83.9155 196.655C79.9851 196.458 76.1379 197.844 73.2203 200.508C70.3028 203.173 68.5538 206.897 68.3582 210.862C68.1626 214.828 69.5364 218.709 72.1773 221.653C89.0937 240.535 111.055 254.088 135.423 260.681C159.79 267.274 185.526 266.627 209.538 258.819C213.279 257.598 216.389 254.934 218.189 251.407C219.988 247.88 220.331 243.778 219.142 239.997Z" fill="#5189CF"/>
<path d="M3.45691 229.316C1.74592 226.388 1.1546 222.93 1.79423 219.593C2.43386 216.255 4.26033 213.269 6.92998 211.195C9.59963 209.122 12.9284 208.104 16.29 208.333C19.6516 208.562 22.8142 210.023 25.1828 212.441C37.8955 213.989 92.5644 197.392 178.012 147.598C263.459 97.8051 305.06 58.3358 310.098 46.4632C309.221 43.1888 309.558 39.704 311.046 36.6621C312.533 33.6202 315.069 31.2299 318.178 29.9392C321.287 28.6484 324.756 28.5459 327.935 29.6507C331.114 30.7555 333.784 32.9919 335.445 35.9407C355.636 71.2407 241.772 142.675 191.826 171.741C141.88 200.806 23.6871 264.616 3.45691 229.316Z" fill="#5189CF"/>
</g>
</svg>
