<svg width="56" height="56" viewBox="0 0 56 56" fill="none" xmlns="http://www.w3.org/2000/svg">
<rect x="0.75" y="0.75" width="54.5" height="54.5" rx="27.25" fill="white"/>
<path fill-rule="evenodd" clip-rule="evenodd" d="M38.4776 29C37.9329 29 37.5 28.5448 37.5 28C37.5 24.2875 36.6092 21.8741 35.181 20.3838C33.768 18.9094 31.5029 18 28 18C24.4971 18 22.232 18.9094 20.819 20.3838C20.1277 21.1052 19.5623 22.0428 19.1629 23.2394C19.0153 23.6815 18.6142 24 18.1482 24C17.4995 24 17.0134 23.3984 17.2092 22.7799C18.6404 18.26 22.2373 16 28 16C35.6667 16 39.5 20 39.5 28C39.5 28.0147 39.5 28.0294 39.5 28.044C39.499 28.5786 39.0575 29 38.5229 29H38.4776ZM36.8371 32.7606C36.9847 32.3185 37.3858 32 37.8518 32C38.5005 32 38.9866 32.6016 38.7908 33.2201C37.3596 37.74 33.7627 40 28 40C20.3333 40 16.5 36 16.5 28C16.5 27.9853 16.5 27.9706 16.5 27.956C16.501 27.4214 16.9425 27 17.4771 27H17.5224C18.0671 27 18.5 27.4552 18.5 28C18.5 31.7125 19.3908 34.1259 20.819 35.6162C22.232 37.0906 24.4971 38 28 38C31.5029 38 33.768 37.0906 35.181 35.6162C35.8723 34.8948 36.4377 33.9572 36.8371 32.7606Z" fill="#ABAFD1"/>
<path d="M17.5 17V23H23.5" stroke="#1C4B85" stroke-width="2" stroke-linecap="round" stroke-linejoin="round"/>
<path d="M38.5 39L38.5 33L32.5 33" stroke="#1C4B85" stroke-width="2" stroke-linecap="round" stroke-linejoin="round"/>
<rect x="0.75" y="0.75" width="54.5" height="54.5" rx="27.25" stroke="#1C4B85" stroke-width="1.5"/>
</svg>
