<svg width="56" height="56" viewBox="0 0 56 56" fill="none" xmlns="http://www.w3.org/2000/svg">
<rect x="0.75" y="0.75" width="54.5" height="54.5" rx="27.25" fill="white"/>
<path d="M18.0013 31.0114C17.9648 30.4752 17.5255 30.0504 16.988 30.0504C16.4204 30.0504 15.9645 30.5258 16.0022 31.0921C16.4271 37.4868 18.5137 39.5735 24.9084 39.9984C25.4747 40.036 25.9501 39.5801 25.9501 39.0125C25.9501 38.475 25.5253 38.0358 24.9891 37.9992C23.9528 37.9286 23.0742 37.8134 22.3255 37.647C20.9693 37.3456 20.1648 36.9037 19.6308 36.3697C19.0969 35.8357 18.6549 35.0312 18.3536 33.6751C18.1872 32.9263 18.0719 32.0477 18.0013 31.0114Z" fill="#ABAFD1"/>
<path d="M37.9133 31.0114C37.9499 30.4752 38.3891 30.0504 38.9266 30.0504C39.4942 30.0504 39.9501 30.5258 39.9125 31.0921C39.4876 37.4868 37.4009 39.5735 31.0062 39.9984C30.4399 40.036 29.9645 39.5801 29.9645 39.0125C29.9645 38.475 30.3893 38.0358 30.9255 37.9992C31.9618 37.9286 32.8404 37.8134 33.5892 37.647C34.9453 37.3456 35.7498 36.9037 36.2838 36.3697C36.8178 35.8357 37.2597 35.0312 37.5611 33.6751C37.7275 32.9263 37.8427 32.0477 37.9133 31.0114Z" fill="#ABAFD1"/>
<path d="M40.0005 28.0892C40.0005 28.0739 40.0005 28.0585 40.0005 28.0432C40.0005 28.0279 40.0005 28.0126 40.0005 27.9973V28.0892Z" fill="#ABAFD1"/>
<path d="M39.9125 24.9943C39.9501 25.5606 39.4942 26.036 38.9266 26.036C38.3891 26.036 37.9499 25.6113 37.9133 25.075C37.8427 24.0387 37.7275 23.1601 37.5611 22.4114C37.2597 21.0552 36.8178 20.2507 36.2838 19.7167C35.7498 19.1828 34.9453 18.7408 33.5892 18.4395C32.8404 18.2731 31.9618 18.1578 30.9255 18.0872C30.3893 18.0507 29.9645 17.6114 29.9645 17.0739C29.9645 16.5063 30.4399 16.0504 31.0062 16.0881C37.4009 16.513 39.4876 18.5996 39.9125 24.9943Z" fill="#ABAFD1"/>
<path d="M18.0013 25.075C17.9648 25.6113 17.5255 26.036 16.988 26.036C16.4204 26.036 15.9645 25.5606 16.0022 24.9943C16.4271 18.5996 18.5137 16.513 24.9084 16.0881C25.4747 16.0504 25.9501 16.5063 25.9501 17.0739C25.9501 17.6114 25.5253 18.0507 24.9891 18.0872C23.9528 18.1578 23.0742 18.2731 22.3255 18.4395C20.9693 18.7408 20.1648 19.1828 19.6308 19.7167C19.0969 20.2507 18.6549 21.0552 18.3536 22.4114C18.1872 23.1601 18.0719 24.0387 18.0013 25.075Z" fill="#ABAFD1"/>
<path fill-rule="evenodd" clip-rule="evenodd" d="M25 24.0859C25 25.7428 26.3431 27.0859 28 27.0859C29.6569 27.0859 31 25.7428 31 24.0859C31 22.4291 29.6569 21.0859 28 21.0859C26.3431 21.0859 25 22.4291 25 24.0859ZM27 24.0859C27 24.6382 27.4477 25.0859 28 25.0859C28.5523 25.0859 29 24.6382 29 24.0859C29 23.5337 28.5523 23.0859 28 23.0859C27.4477 23.0859 27 23.5337 27 24.0859Z" fill="#1C4B85"/>
<path fill-rule="evenodd" clip-rule="evenodd" d="M22 31.0859C22 33.5564 23.059 34.0859 28 34.0859C32.941 34.0859 34 33.5564 34 31.0859C34 28.6154 32.941 28.0859 28 28.0859C23.059 28.0859 22 28.6154 22 31.0859ZM24 31.0859C24 31.4546 24.0319 31.6444 24.0531 31.7291C24.1922 31.7957 24.5175 31.9011 25.1989 31.9768C25.8817 32.0527 26.7866 32.0859 28 32.0859C29.2134 32.0859 30.1183 32.0527 30.8011 31.9768C31.4825 31.9011 31.8078 31.7957 31.9469 31.7291C31.9681 31.6444 32 31.4546 32 31.0859C32 30.7173 31.9681 30.5274 31.9469 30.4427C31.8078 30.3761 31.4825 30.2708 30.8011 30.195C30.1183 30.1192 29.2134 30.0859 28 30.0859C26.7866 30.0859 25.8817 30.1192 25.1989 30.195C24.5175 30.2708 24.1922 30.3761 24.0531 30.4427C24.0319 30.5274 24 30.7173 24 31.0859Z" fill="#1C4B85"/>
<rect x="0.75" y="0.75" width="54.5" height="54.5" rx="27.25" stroke="#1C4B85" stroke-width="1.5"/>
</svg>
