<svg width="502" height="502" viewBox="0 0 502 502" fill="none" xmlns="http://www.w3.org/2000/svg">
<path d="M128.511 88.4874C163.464 62.6936 205.685 48.6273 249.124 48.3043C292.562 47.9813 334.988 61.4183 370.32 86.6895L361.943 98.4012C329.084 74.899 289.628 62.4025 249.231 62.7029C208.833 63.0033 169.567 76.085 137.061 100.073L128.511 88.4874Z" fill="white"/>
<path d="M55.6176 319.374C41.8119 278.186 41.3996 233.685 54.4399 192.249C67.4802 150.813 93.3036 114.569 128.209 88.7114L136.78 100.282C104.318 124.329 80.3023 158.036 68.1748 196.572C56.0473 235.107 56.4307 276.493 69.27 314.797L55.6176 319.374Z" fill="#1C4B85"/>
<path d="M252.15 459.995C208.648 460.311 166.163 446.846 130.784 421.532C95.4051 396.218 68.9481 360.353 55.2052 319.078L68.8868 314.522C81.6677 352.908 106.273 386.262 139.175 409.805C172.078 433.347 211.589 445.869 252.046 445.576L252.15 459.995Z" fill="#8FA1BD"/>
<path d="M446.615 316.547C433.407 357.93 407.436 394.069 372.426 419.784C337.416 445.5 295.163 459.471 251.724 459.697L251.649 445.298C292.048 445.088 331.342 432.095 363.902 408.179C396.461 384.264 420.614 350.655 432.898 312.169L446.615 316.547Z" fill="#1C4B85"/>
<path d="M370.627 86.9088C405.913 112.244 432.273 148.1 445.929 189.337C459.584 230.575 459.835 275.077 446.643 316.465L432.924 312.092C445.192 273.601 444.959 232.214 432.26 193.864C419.56 155.513 395.045 122.167 362.229 98.6053L370.627 86.9088Z" fill="#69ADEC"/>
</svg>
