<svg width="56" height="56" viewBox="0 0 56 56" fill="none" xmlns="http://www.w3.org/2000/svg">
<rect x="0.75" y="0.75" width="54.5" height="54.5" rx="27.25" fill="white"/>
<path fill-rule="evenodd" clip-rule="evenodd" d="M16 29.5C16 39.382 18.118 41.5 28 41.5C37.882 41.5 40 39.382 40 29.5C40 19.618 37.882 17.5 28 17.5C18.118 17.5 16 19.618 16 29.5ZM18 29.5C18 31.9249 18.1325 33.7369 18.4377 35.1101C18.7378 36.4605 19.1777 37.2608 19.7085 37.7915C20.2392 38.3223 21.0395 38.7622 22.3899 39.0623C23.7631 39.3675 25.5751 39.5 28 39.5C30.4249 39.5 32.2369 39.3675 33.6101 39.0623C34.9605 38.7622 35.7608 38.3223 36.2915 37.7915C36.8223 37.2608 37.2622 36.4605 37.5623 35.1101C37.8675 33.7369 38 31.9249 38 29.5C38 27.0751 37.8675 25.2631 37.5623 23.8899C37.2622 22.5395 36.8223 21.7392 36.2915 21.2085C35.7608 20.6777 34.9605 20.2378 33.6101 19.9377C32.2369 19.6325 30.4249 19.5 28 19.5C25.5751 19.5 23.7631 19.6325 22.3899 19.9377C21.0395 20.2378 20.2392 20.6777 19.7085 21.2085C19.1777 21.7392 18.7378 22.5395 18.4377 23.8899C18.1325 25.2631 18 27.0751 18 29.5Z" fill="#ABAFD1"/>
<path d="M25 15.5C25 14.9477 25.4477 14.5 26 14.5C26.5523 14.5 27 14.9477 27 15.5V16.5H29V15.5C29 14.9477 29.4477 14.5 30 14.5C30.5523 14.5 31 14.9477 31 15.5V16.5H32C33.1046 16.5 34 17.3954 34 18.5C34 19.6046 33.1046 20.5 32 20.5H24C22.8954 20.5 22 19.6046 22 18.5C22 17.3954 22.8954 16.5 24 16.5H25V15.5Z" fill="#1C4B85"/>
<path d="M23 29.5C22.4477 29.5 22 29.9477 22 30.5C22 31.0523 22.4477 31.5 23 31.5H33C33.5523 31.5 34 31.0523 34 30.5C34 29.9477 33.5523 29.5 33 29.5H23Z" fill="#1C4B85"/>
<path d="M23 34.5C22.4477 34.5 22 34.9477 22 35.5C22 36.0523 22.4477 36.5 23 36.5H33C33.5523 36.5 34 36.0523 34 35.5C34 34.9477 33.5523 34.5 33 34.5H23Z" fill="#1C4B85"/>
<rect x="0.75" y="0.75" width="54.5" height="54.5" rx="27.25" stroke="#1C4B85" stroke-width="1.5"/>
</svg>
