<svg width="56" height="56" viewBox="0 0 56 56" fill="none" xmlns="http://www.w3.org/2000/svg">
<rect x="0.75" y="0.75" width="54.5" height="54.5" rx="27.25" fill="white"/>
<path fill-rule="evenodd" clip-rule="evenodd" d="M23.6064 19.6555C23.5527 19.9442 23.2562 20.1133 22.9841 20.0171C18.306 18.3635 14.8382 24.42 18.5894 27.6377C18.811 27.8278 18.811 28.1722 18.5894 28.3623C14.8382 31.58 18.306 37.6365 22.9841 35.9829C23.2562 35.8867 23.5527 36.0558 23.6064 36.3445C24.514 41.2185 31.486 41.2185 32.3936 36.3445C32.4473 36.0558 32.7438 35.8867 33.0159 35.9829C37.694 37.6365 41.1618 31.58 37.4106 28.3623C37.189 28.1722 37.189 27.8278 37.4106 27.6377C41.1618 24.42 37.694 18.3635 33.0159 20.0171C32.7438 20.1133 32.4473 19.9442 32.3936 19.6555C31.486 14.7815 24.514 14.7815 23.6064 19.6555ZM25.5706 20.022C26.0726 17.326 29.9274 17.326 30.4295 20.022C30.7076 21.5159 32.2508 22.4086 33.6811 21.903C36.2624 20.9906 38.1899 24.3354 36.1106 26.119C34.9584 27.1073 34.9584 28.8927 36.1106 29.881C38.1899 31.6646 36.2624 35.0094 33.6811 34.097C32.2508 33.5914 30.7076 34.4841 30.4295 35.978C29.9274 38.674 26.0726 38.674 25.5706 35.978C25.2924 34.4841 23.7492 33.5914 22.3189 34.097C19.7376 35.0094 17.8101 31.6646 19.8894 29.881C21.0416 28.8927 21.0416 27.1073 19.8894 26.119C17.8101 24.3354 19.7376 20.9906 22.3189 21.903C23.7492 22.4086 25.2924 21.5159 25.5706 20.022Z" fill="#ABAFD1"/>
<path fill-rule="evenodd" clip-rule="evenodd" d="M24.0039 28C24.0039 30.2091 25.7929 32 27.9998 32C30.2067 32 31.9957 30.2091 31.9957 28C31.9957 25.7909 30.2067 24 27.9998 24C25.7929 24 24.0039 25.7909 24.0039 28ZM26.0019 28C26.0019 29.1046 26.8964 30 27.9998 30C29.1032 30 29.9978 29.1046 29.9978 28C29.9978 26.8954 29.1032 26 27.9998 26C26.8964 26 26.0019 26.8954 26.0019 28Z" fill="#1C4B85"/>
<rect x="0.75" y="0.75" width="54.5" height="54.5" rx="27.25" stroke="#1C4B85" stroke-width="1.5"/>
</svg>
