<svg width="20" height="21" viewBox="0 0 20 21" fill="none" xmlns="http://www.w3.org/2000/svg">
<path fill-rule="evenodd" clip-rule="evenodd" d="M10 0.449707C7.284 0.449707 6.944 0.46104 5.87733 0.509707C4.81267 0.558374 4.08533 0.727707 3.44933 0.97504C2.78267 1.22571 2.178 1.61904 1.678 2.12837C1.16948 2.6278 0.775905 3.23204 0.524667 3.89904C0.278667 4.53504 0.108667 5.26304 0.06 6.32771C0.012 7.39371 0 7.73304 0 10.4497C0 13.1664 0.0113333 13.5057 0.06 14.5724C0.108667 15.637 0.278 16.3644 0.525333 17.0004C0.776 17.667 1.16933 18.2717 1.67867 18.7717C2.1781 19.2802 2.78234 19.6738 3.44933 19.925C4.08533 20.1717 4.81267 20.341 5.87733 20.3897C6.944 20.4384 7.284 20.4497 10 20.4497C12.716 20.4497 13.056 20.4384 14.1227 20.3897C15.1873 20.341 15.9147 20.1717 16.5507 19.9244C17.2173 19.6737 17.822 19.2804 18.322 18.771C18.8305 18.2716 19.2241 17.6674 19.4753 17.0004C19.722 16.3644 19.8913 15.637 19.94 14.5724C19.9887 13.5057 20 13.1657 20 10.4497C20 7.73371 19.9887 7.39371 19.94 6.32704C19.8913 5.26237 19.722 4.53504 19.4747 3.89904C19.2236 3.23175 18.83 2.62725 18.3213 2.12771C17.8219 1.61919 17.2177 1.22561 16.5507 0.974374C15.9147 0.728374 15.1867 0.558374 14.122 0.509707C13.056 0.461707 12.7167 0.449707 10 0.449707ZM10 2.25171C12.67 2.25171 12.9867 2.26171 14.0413 2.30971C15.016 2.35437 15.5453 2.51637 15.898 2.65437C16.3647 2.83504 16.698 3.05237 17.048 3.40171C17.398 3.75171 17.6147 4.08504 17.7953 4.55171C17.9327 4.90437 18.0953 5.43371 18.14 6.40837C18.188 7.46304 18.198 7.77971 18.198 10.4497C18.198 13.1197 18.188 13.4364 18.14 14.491C18.0953 15.4657 17.9333 15.995 17.7953 16.3477C17.6353 16.7821 17.3799 17.175 17.048 17.4977C16.7254 17.8297 16.3324 18.0851 15.898 18.245C15.5453 18.3824 15.016 18.545 14.0413 18.5897C12.9867 18.6377 12.6707 18.6477 10 18.6477C7.32933 18.6477 7.01333 18.6377 5.95867 18.5897C4.984 18.545 4.45467 18.383 4.102 18.245C3.66764 18.085 3.27467 17.8296 2.952 17.4977C2.62012 17.175 2.36475 16.7821 2.20467 16.3477C2.06733 15.995 1.90467 15.4657 1.86 14.491C1.812 13.4364 1.802 13.1197 1.802 10.4497C1.802 7.77971 1.812 7.46304 1.86 6.40837C1.90467 5.43371 2.06667 4.90437 2.20467 4.55171C2.38533 4.08504 2.60267 3.75171 2.952 3.40171C3.27463 3.06974 3.66761 2.81436 4.102 2.65437C4.45467 2.51704 4.984 2.35437 5.95867 2.30971C7.01333 2.26171 7.33 2.25171 10 2.25171Z" fill="#2A2A2A"/>
<path fill-rule="evenodd" clip-rule="evenodd" d="M10 13.7864C9.56184 13.7864 9.12795 13.7001 8.72313 13.5324C8.31831 13.3647 7.95047 13.1189 7.64064 12.8091C7.3308 12.4992 7.08502 12.1314 6.91734 11.7266C6.74965 11.3218 6.66335 10.8879 6.66335 10.4497C6.66335 10.0115 6.74965 9.57764 6.91734 9.17282C7.08502 8.768 7.3308 8.40017 7.64064 8.09033C7.95047 7.78049 8.31831 7.53471 8.72313 7.36703C9.12795 7.19935 9.56184 7.11304 10 7.11304C10.885 7.11304 11.7336 7.46458 12.3594 8.09033C12.9851 8.71607 13.3367 9.56477 13.3367 10.4497C13.3367 11.3346 12.9851 12.1833 12.3594 12.8091C11.7336 13.4348 10.885 13.7864 10 13.7864ZM10 5.30971C8.6368 5.30971 7.32942 5.85124 6.36549 6.81518C5.40155 7.77911 4.86002 9.08649 4.86002 10.4497C4.86002 11.8129 5.40155 13.1203 6.36549 14.0842C7.32942 15.0482 8.6368 15.5897 10 15.5897C11.3632 15.5897 12.6706 15.0482 13.6345 14.0842C14.5985 13.1203 15.14 11.8129 15.14 10.4497C15.14 9.08649 14.5985 7.77911 13.6345 6.81518C12.6706 5.85124 11.3632 5.30971 10 5.30971ZM16.6353 5.21637C16.6353 5.53861 16.5073 5.84765 16.2795 6.07551C16.0516 6.30337 15.7426 6.43137 15.4204 6.43137C15.0981 6.43137 14.7891 6.30337 14.5612 6.07551C14.3334 5.84765 14.2053 5.53861 14.2053 5.21637C14.2053 4.89414 14.3334 4.5851 14.5612 4.35724C14.7891 4.12938 15.0981 4.00137 15.4204 4.00137C15.7426 4.00137 16.0516 4.12938 16.2795 4.35724C16.5073 4.5851 16.6353 4.89414 16.6353 5.21637Z" fill="#2A2A2A"/>
</svg>
