<svg width="72" height="73" viewBox="0 0 72 73" fill="none" xmlns="http://www.w3.org/2000/svg">
<rect x="0.5" y="0.5" width="71" height="71.0087" rx="35.5" fill="#5189CF"/>
<path fill-rule="evenodd" clip-rule="evenodd" d="M20 33.3333C20 44.3133 22.824 46.6667 36 46.6667C49.176 46.6667 52 44.3133 52 33.3333C52 22.3533 49.176 20 36 20C22.824 20 20 22.3533 20 33.3333ZM22.6667 33.3333C22.6667 38.8564 23.4524 40.9741 24.7662 42.0689C25.4624 42.6491 26.5585 43.1593 28.427 43.5053C30.3023 43.8526 32.7558 44 36 44C39.2442 44 41.6977 43.8526 43.573 43.5053C45.4415 43.1593 46.5376 42.6491 47.2338 42.0689C48.5476 40.9741 49.3333 38.8564 49.3333 33.3333C49.3333 27.8103 48.5476 25.6926 47.2338 24.5978C46.5376 24.0176 45.4415 23.5074 43.573 23.1613C41.6977 22.814 39.2442 22.6667 36 22.6667C32.7558 22.6667 30.3023 22.814 28.427 23.1613C26.5585 23.5074 25.4624 24.0176 24.7662 24.5978C23.4524 25.6926 22.6667 27.8103 22.6667 33.3333Z" fill="white"/>
<path d="M34.6654 46.666C35.0976 46.6719 35.5419 46.6748 35.9987 46.6748C36.4555 46.6748 36.8998 46.6719 37.332 46.666C37.332 46.6689 37.332 46.6718 37.332 46.6748V49.3414H41.332C42.0684 49.3414 42.6654 49.9384 42.6654 50.6748C42.6654 51.4111 42.0684 52.0081 41.332 52.0081H30.6654C29.929 52.0081 29.332 51.4111 29.332 50.6748C29.332 49.9384 29.929 49.3414 30.6654 49.3414H34.6654V46.6748C34.6654 46.6718 34.6654 46.6689 34.6654 46.666Z" fill="white" fill-opacity="0.5"/>
<rect x="0.5" y="0.5" width="71" height="71.0087" rx="35.5" stroke="#F3F5F8"/>
</svg>
