<svg width="71" height="17" viewBox="0 0 71 17" fill="none" xmlns="http://www.w3.org/2000/svg">
<path d="M9.51321 10.8951C9.51321 9.81885 9.08724 8.84678 8.38913 8.09459C9.07541 7.35397 9.48954 6.39348 9.48954 5.32884V4.62294H9.47771C9.45405 4.46093 9.30022 4.33363 9.12274 4.33363H6.93376C6.75627 4.33363 6.60245 4.46093 6.57879 4.62294L6.53146 5.32884C6.53146 6.08103 5.88068 6.69436 5.09974 6.69436V6.70593H4.36614C3.85735 6.70593 3.37222 6.79851 2.92259 6.94895V0.850407C2.91076 0.665252 2.7451 0.503242 2.55579 0.503242H0.366803C0.165653 0.503242 0 0.665252 0 0.850407V13.765C0 13.9501 0.165653 14.1121 0.366803 14.1121H2.54395C2.7451 14.1121 2.91076 13.9501 2.91076 13.765V10.8951H2.93442C2.93442 10.1429 3.5852 9.52954 4.36614 9.52954H5.13524C5.92801 9.52954 6.56695 10.1429 6.56695 10.8951V11.601H6.57879V13.765C6.57879 13.9501 6.74444 14.1121 6.94559 14.1121H9.12274C9.32389 14.1121 9.48954 13.9501 9.48954 13.765L9.52504 11.601V10.8951H9.51321Z" fill="#2A2A2A"/>
<path d="M20.399 7.06467C20.399 6.87951 20.2333 6.7175 20.0322 6.7175H17.855C17.6539 6.7175 17.4882 6.87951 17.4882 7.06467V12.2606C17.4882 13.0128 16.8374 13.6261 16.0328 13.6261H15.2637C14.471 13.6261 13.832 13.0128 13.832 12.2606L13.8202 7.06467C13.8202 6.87951 13.6545 6.7175 13.4534 6.7175H11.2881C11.0869 6.7175 10.9213 6.87951 10.9213 7.06467L10.9094 12.2606C10.9094 14.575 12.8499 16.4497 15.2637 16.4497H16.0328C18.4466 16.4497 20.399 14.575 20.399 12.2606V7.06467Z" fill="#2A2A2A"/>
<path d="M21.8662 13.846C21.8662 14.0311 22.0318 14.1931 22.233 14.1931H24.4101C24.6113 14.1931 24.7769 14.0311 24.7769 13.846V8.65006C24.7769 7.89787 25.4277 7.28454 26.2205 7.28454H26.9896C27.7824 7.28454 28.4213 7.89787 28.4213 8.65006L28.4331 13.846C28.4331 14.0311 28.5988 14.1931 28.7999 14.1931H30.9771C31.1782 14.1931 31.3439 14.0311 31.3439 13.846L31.3557 8.65006C31.3557 6.34719 29.4152 4.46093 27.0014 4.46093H26.2323C23.8185 4.46093 21.878 6.33562 21.878 8.65006L21.8662 13.846Z" fill="#2A2A2A"/>
<path d="M42.3006 7.06467C42.3006 6.87951 42.135 6.7175 41.9338 6.7175H39.7567C39.5555 6.7175 39.3899 6.87951 39.3899 7.06467V12.2606C39.3899 13.0128 38.7391 13.6261 37.9463 13.6261H37.1772C36.3845 13.6261 35.7455 13.0128 35.7455 12.2606L35.7337 7.06467C35.7337 6.87951 35.568 6.7175 35.3669 6.7175H33.1779C32.9768 6.7175 32.8111 6.87951 32.8111 7.06467V12.2606C32.8111 14.575 34.7516 16.4497 37.1654 16.4497H37.9345C40.3483 16.4497 42.2888 14.575 42.2888 12.2606V7.06467H42.3006Z" fill="#2A2A2A"/>
<path d="M64.2023 7.06467C64.2023 6.87951 64.0367 6.7175 63.8355 6.7175H61.6584C61.4572 6.7175 61.2916 6.87951 61.2916 7.06467V12.2606C61.2916 13.0128 60.6408 13.6261 59.848 13.6261H59.0789C58.2861 13.6261 57.6472 13.0128 57.6472 12.2606L57.6354 7.06467C57.6354 6.87951 57.4697 6.7175 57.2686 6.7175H55.0914C54.8903 6.7175 54.7246 6.87951 54.7246 7.06467L54.7128 12.2606C54.7128 14.575 56.6533 16.4497 59.0671 16.4497H59.8362C62.25 16.4497 64.1905 14.575 64.1905 12.2606L64.2023 7.06467Z" fill="#2A2A2A"/>
<path d="M43.7797 13.765C43.7797 13.9617 43.9453 14.1121 44.1465 14.1121H46.3236C46.5248 14.1121 46.6904 13.9617 46.6904 13.765V8.58062C46.6904 7.82843 47.3412 7.21511 48.134 7.21511H48.9031C49.6959 7.21511 50.3348 7.82843 50.3348 8.58062L50.3466 13.7765C50.3466 13.9733 50.5123 14.1237 50.7134 14.1237H52.8906C53.0917 14.1237 53.2574 13.9733 53.2574 13.7765L53.2692 8.58062C53.2692 6.26619 51.3287 4.39149 48.9149 4.39149H48.1458C45.732 4.39149 43.7915 6.26619 43.7915 8.58062L43.7797 13.765Z" fill="#2A2A2A"/>
<path d="M66.1192 1.30172C65.9772 1.16286 65.7287 1.16286 65.5867 1.30172L65.4447 1.44059C65.3027 1.57945 65.3027 1.8109 65.4447 1.96134L66.3203 2.79453C66.4386 2.91026 66.4268 3.09541 66.3085 3.19956L66.202 3.30371C66.0837 3.41943 65.8943 3.41943 65.776 3.30371L64.9004 2.47051C64.4508 2.04234 64.4508 1.33644 64.8886 0.90827L65.0306 0.769403C65.4802 0.341232 66.2138 0.341233 66.6634 0.780976L67.4799 1.56788L67.539 1.62574C67.6574 1.74147 67.6574 1.91505 67.539 2.03077L67.4326 2.13492C67.3142 2.25064 67.1131 2.26221 66.9948 2.14649L66.1192 1.30172Z" fill="#2A2A2A"/>
<path d="M70.1067 1.96133C70.2486 1.82247 70.2486 1.59103 70.1067 1.45216L69.9647 1.3133C69.8227 1.17443 69.5742 1.17443 69.4322 1.3133L68.5566 2.14649C68.4383 2.26221 68.249 2.25064 68.1307 2.13492L68.0242 2.03077C67.9058 1.91505 67.9058 1.74146 68.0123 1.62574L68.8879 0.780974C69.3376 0.352804 70.0712 0.341231 70.5208 0.769402L70.6628 0.908269C71.1124 1.34801 71.1124 2.04234 70.6628 2.47051L69.8464 3.25742L69.7872 3.31528C69.6689 3.431 69.4795 3.431 69.3612 3.31528L69.2547 3.21113C69.1364 3.09541 69.1246 2.91026 69.2429 2.80611L70.1067 1.96133Z" fill="#2A2A2A"/>
<path d="M65.4329 5.12054C65.2909 5.25941 65.2909 5.49085 65.4329 5.64129L65.5749 5.78016C65.7169 5.91902 65.9653 5.91902 66.1073 5.78016L66.9829 4.94696C67.1012 4.83124 67.2906 4.84281 67.4089 4.95853L67.5154 5.06268C67.6337 5.1784 67.6337 5.35199 67.5272 5.46771L66.6516 6.3009C66.202 6.74065 65.4684 6.74065 65.0187 6.31248L64.8768 6.17361C64.4271 5.74544 64.4271 5.03954 64.8886 4.62294L65.705 3.83603L65.7642 3.77817C65.8825 3.66245 66.0718 3.66245 66.1902 3.77817L66.2966 3.88232C66.415 3.99804 66.4268 4.18319 66.3085 4.28734L65.4329 5.12054Z" fill="#2A2A2A"/>
<path d="M69.4204 5.75701C69.5624 5.89588 69.8109 5.89588 69.9528 5.75701L70.0948 5.61815C70.2368 5.47928 70.2487 5.24784 70.0948 5.0974L69.2192 4.2642C69.1009 4.14848 69.1127 3.9749 69.2311 3.85918L69.3376 3.75502C69.4559 3.6393 69.6452 3.63931 69.7635 3.74346L70.6391 4.57665C71.0887 5.00482 71.0887 5.71072 70.651 6.13889L70.509 6.27776C70.0593 6.71751 69.3257 6.70593 68.8761 6.26619L68.0597 5.47928L68.0005 5.42142C67.8822 5.3057 67.8822 5.13212 68.0005 5.0164L68.107 4.91224C68.2253 4.79652 68.4265 4.78495 68.5448 4.90067L69.4204 5.75701Z" fill="#2A2A2A"/>
</svg>
