<svg width="87" height="36" viewBox="0 0 87 36" fill="none" xmlns="http://www.w3.org/2000/svg">
<rect width="87" height="36" rx="4" fill="white" fill-opacity="0.16"/>
<path d="M17.5132 20.4454C17.5132 19.3691 17.0872 18.3971 16.3891 17.6449C17.0754 16.9043 17.4895 15.9438 17.4895 14.8791V14.1732H17.4777C17.454 14.0112 17.3002 13.8839 17.1227 13.8839H14.9338C14.7563 13.8839 14.6024 14.0112 14.5788 14.1732L14.5315 14.8791C14.5315 15.6313 13.8807 16.2447 13.0997 16.2447V16.2562H12.3661C11.8573 16.2562 11.3722 16.3488 10.9226 16.4992V10.4007C10.9108 10.2155 10.7451 10.0535 10.5558 10.0535H8.3668C8.16565 10.0535 8 10.2155 8 10.4007V23.3153C8 23.5004 8.16565 23.6624 8.3668 23.6624H10.544C10.7451 23.6624 10.9108 23.5004 10.9108 23.3153V20.4454H10.9344C10.9344 19.6932 11.5852 19.0798 12.3661 19.0798H13.1352C13.928 19.0798 14.567 19.6932 14.567 20.4454V21.1513H14.5788V23.3153C14.5788 23.5004 14.7444 23.6624 14.9456 23.6624H17.1227C17.3239 23.6624 17.4895 23.5004 17.4895 23.3153L17.525 21.1513V20.4454H17.5132Z" fill="white"/>
<path d="M28.399 16.615C28.399 16.4298 28.2333 16.2678 28.0322 16.2678H25.855C25.6539 16.2678 25.4882 16.4298 25.4882 16.615V21.8109C25.4882 22.5631 24.8374 23.1764 24.0328 23.1764H23.2637C22.471 23.1764 21.832 22.5631 21.832 21.8109L21.8202 16.615C21.8202 16.4298 21.6545 16.2678 21.4534 16.2678H19.2881C19.0869 16.2678 18.9213 16.4298 18.9213 16.615L18.9094 21.8109C18.9094 24.1253 20.8499 26 23.2637 26H24.0328C26.4466 26 28.399 24.1253 28.399 21.8109V16.615Z" fill="white"/>
<path d="M29.8662 23.3963C29.8662 23.5814 30.0318 23.7434 30.233 23.7434H32.4101C32.6113 23.7434 32.7769 23.5814 32.7769 23.3963V18.2004C32.7769 17.4482 33.4277 16.8348 34.2205 16.8348H34.9896C35.7824 16.8348 36.4213 17.4482 36.4213 18.2004L36.4331 23.3963C36.4331 23.5814 36.5988 23.7434 36.7999 23.7434H38.9771C39.1782 23.7434 39.3439 23.5814 39.3439 23.3963L39.3557 18.2004C39.3557 15.8975 37.4152 14.0112 35.0014 14.0112H34.2323C31.8185 14.0112 29.878 15.8859 29.878 18.2004L29.8662 23.3963Z" fill="white"/>
<path d="M50.3006 16.615C50.3006 16.4298 50.135 16.2678 49.9338 16.2678H47.7567C47.5555 16.2678 47.3899 16.4298 47.3899 16.615V21.8109C47.3899 22.5631 46.7391 23.1764 45.9463 23.1764H45.1772C44.3845 23.1764 43.7455 22.5631 43.7455 21.8109L43.7337 16.615C43.7337 16.4298 43.568 16.2678 43.3669 16.2678H41.1779C40.9768 16.2678 40.8111 16.4298 40.8111 16.615V21.8109C40.8111 24.1253 42.7516 26 45.1654 26H45.9345C48.3483 26 50.2888 24.1253 50.2888 21.8109V16.615H50.3006Z" fill="white"/>
<path d="M72.2023 16.615C72.2023 16.4298 72.0367 16.2678 71.8355 16.2678H69.6584C69.4572 16.2678 69.2916 16.4298 69.2916 16.615V21.8109C69.2916 22.5631 68.6408 23.1764 67.848 23.1764H67.0789C66.2861 23.1764 65.6472 22.5631 65.6472 21.8109L65.6354 16.615C65.6354 16.4298 65.4697 16.2678 65.2686 16.2678H63.0914C62.8903 16.2678 62.7246 16.4298 62.7246 16.615L62.7128 21.8109C62.7128 24.1253 64.6533 26 67.0671 26H67.8362C70.25 26 72.1905 24.1253 72.1905 21.8109L72.2023 16.615Z" fill="white"/>
<path d="M51.7797 23.3153C51.7797 23.512 51.9453 23.6624 52.1465 23.6624H54.3236C54.5248 23.6624 54.6904 23.512 54.6904 23.3153V18.1309C54.6904 17.3787 55.3412 16.7654 56.134 16.7654H56.9031C57.6959 16.7654 58.3348 17.3787 58.3348 18.1309L58.3466 23.3268C58.3466 23.5236 58.5123 23.674 58.7134 23.674H60.8906C61.0917 23.674 61.2574 23.5236 61.2574 23.3268L61.2692 18.1309C61.2692 15.8165 59.3287 13.9418 56.9149 13.9418H56.1458C53.732 13.9418 51.7915 15.8165 51.7915 18.1309L51.7797 23.3153Z" fill="white"/>
<path d="M74.1192 10.852C73.9772 10.7132 73.7287 10.7132 73.5867 10.852L73.4447 10.9909C73.3027 11.1297 73.3027 11.3612 73.4447 11.5116L74.3203 12.3448C74.4386 12.4605 74.4268 12.6457 74.3085 12.7499L74.202 12.854C74.0837 12.9697 73.8943 12.9697 73.776 12.854L72.9004 12.0208C72.4508 11.5926 72.4508 10.8867 72.8886 10.4586L73.0306 10.3197C73.4802 9.89152 74.2138 9.89153 74.6635 10.3313L75.4799 11.1182L75.539 11.176C75.6574 11.2918 75.6574 11.4653 75.539 11.5811L75.4325 11.6852C75.3142 11.8009 75.1131 11.8125 74.9948 11.6968L74.1192 10.852Z" fill="white"/>
<path d="M78.1067 11.5116C78.2486 11.3728 78.2486 11.1413 78.1067 11.0025L77.9647 10.8636C77.8227 10.7247 77.5742 10.7247 77.4322 10.8636L76.5566 11.6968C76.4383 11.8125 76.249 11.8009 76.1307 11.6852L76.0242 11.5811C75.9058 11.4653 75.9058 11.2918 76.0123 11.176L76.8879 10.3313C77.3376 9.9031 78.0712 9.89152 78.5208 10.3197L78.6628 10.4586C79.1124 10.8983 79.1124 11.5926 78.6628 12.0208L77.8464 12.8077L77.7872 12.8656C77.6689 12.9813 77.4795 12.9813 77.3612 12.8656L77.2547 12.7614C77.1364 12.6457 77.1246 12.4605 77.2429 12.3564L78.1067 11.5116Z" fill="white"/>
<path d="M73.4329 14.6708C73.2909 14.8097 73.2909 15.0411 73.4329 15.1916L73.5749 15.3304C73.7169 15.4693 73.9653 15.4693 74.1073 15.3304L74.9829 14.4973C75.1012 14.3815 75.2906 14.3931 75.4089 14.5088L75.5154 14.613C75.6337 14.7287 75.6337 14.9023 75.5272 15.018L74.6516 15.8512C74.202 16.2909 73.4684 16.2909 73.0188 15.8628L72.8768 15.7239C72.4271 15.2957 72.4271 14.5898 72.8886 14.1732L73.705 13.3863L73.7642 13.3285C73.8825 13.2127 74.0718 13.2127 74.1902 13.3285L74.2966 13.4326C74.415 13.5483 74.4268 13.7335 74.3085 13.8376L73.4329 14.6708Z" fill="white"/>
<path d="M77.4204 15.3073C77.5624 15.4462 77.8109 15.4462 77.9528 15.3073L78.0948 15.1684C78.2368 15.0296 78.2486 14.7981 78.0948 14.6477L77.2192 13.8145C77.1009 13.6988 77.1127 13.5252 77.2311 13.4095L77.3376 13.3053C77.4559 13.1896 77.6452 13.1896 77.7635 13.2937L78.6391 14.1269C79.0887 14.5551 79.0887 15.261 78.6509 15.6892L78.509 15.8281C78.0593 16.2678 77.3257 16.2562 76.8761 15.8165L76.0597 15.0296L76.0005 14.9717C75.8822 14.856 75.8822 14.6824 76.0005 14.5667L76.107 14.4625C76.2253 14.3468 76.4265 14.3352 76.5448 14.451L77.4204 15.3073Z" fill="white"/>
</svg>
