<svg width="24" height="25" viewBox="0 0 24 25" fill="none" xmlns="http://www.w3.org/2000/svg">
<path d="M9.00024 15.5002L15.0002 9.50024M11.0002 6.50031L11.4632 5.96431C12.401 5.02663 13.6729 4.49991 14.9991 4.5C16.3253 4.50009 17.5971 5.027 18.5347 5.96481C19.4724 6.90261 19.9991 8.1745 19.9991 9.50066C19.999 10.8268 19.4721 12.0986 18.5342 13.0363L18.0002 13.5003M13.0001 18.5002L12.6031 19.0342C11.6544 19.9724 10.3739 20.4986 9.03964 20.4986C7.70535 20.4986 6.42489 19.9724 5.47614 19.0342C5.0085 18.5718 4.63724 18.0213 4.38385 17.4144C4.13047 16.8075 4 16.1564 4 15.4987C4 14.8411 4.13047 14.19 4.38385 13.5831C4.63724 12.9762 5.0085 12.4256 5.47614 11.9632L6.00014 11.5002" stroke="#8FA1BD" stroke-width="2" stroke-linecap="round" stroke-linejoin="round"/>
</svg>
