<svg width="36" height="36" viewBox="0 0 36 36" fill="none" xmlns="http://www.w3.org/2000/svg">
<rect width="36" height="36" rx="4" fill="white" fill-opacity="0.16"/>
<path d="M26.3327 10.892V25.1077C26.3327 25.4327 26.2036 25.7444 25.9737 25.9742C25.7439 26.2041 25.4322 26.3332 25.1072 26.3332H10.8915C10.5665 26.3332 10.2548 26.2041 10.025 25.9742C9.79513 25.7444 9.66602 25.4327 9.66602 25.1077V10.892C9.66602 10.567 9.79513 10.2553 10.025 10.0254C10.2548 9.79562 10.5665 9.6665 10.8915 9.6665H25.1072C25.4322 9.6665 25.7439 9.79562 25.9737 10.0254C26.2036 10.2553 26.3327 10.567 26.3327 10.892V10.892ZM14.568 16.0391H12.117V23.8822H14.568V16.0391ZM14.7886 13.343C14.7899 13.1576 14.7546 12.9737 14.6849 12.802C14.6151 12.6302 14.5122 12.4738 14.382 12.3418C14.2518 12.2098 14.0969 12.1047 13.9261 12.0326C13.7553 11.9605 13.572 11.9227 13.3866 11.9214H13.3425C12.9655 11.9214 12.6039 12.0712 12.3373 12.3378C12.0707 12.6044 11.9209 12.966 11.9209 13.343C11.9209 13.72 12.0707 14.0816 12.3373 14.3482C12.6039 14.6148 12.9655 14.7645 13.3425 14.7645V14.7645C13.5279 14.7691 13.7124 14.7371 13.8854 14.6703C14.0585 14.6036 14.2166 14.5034 14.3509 14.3754C14.4852 14.2475 14.593 14.0944 14.6681 13.9248C14.7432 13.7552 14.7841 13.5725 14.7886 13.3871V13.343ZM23.8817 19.1175C23.8817 16.7596 22.3817 15.843 20.8915 15.843C20.4036 15.8185 19.9178 15.9225 19.4826 16.1444C19.0473 16.3663 18.6779 16.6984 18.4111 17.1077H18.3425V16.0391H16.0386V23.8822H18.4895V19.7106C18.4541 19.2834 18.5887 18.8594 18.864 18.5308C19.1394 18.2022 19.5333 17.9956 19.9601 17.9557H20.0533C20.8327 17.9557 21.4111 18.4459 21.4111 19.6812V23.8822H23.8621L23.8817 19.1175Z" fill="white"/>
</svg>
