<svg width="20" height="21" viewBox="0 0 20 21" fill="none" xmlns="http://www.w3.org/2000/svg">
<path d="M18.3327 3.3417V17.5574C18.3327 17.8824 18.2036 18.1941 17.9737 18.4239C17.7439 18.6538 17.4322 18.7829 17.1072 18.7829H2.89151C2.56649 18.7829 2.25478 18.6538 2.02495 18.4239C1.79513 18.1941 1.66602 17.8824 1.66602 17.5574V3.3417C1.66602 3.01668 1.79513 2.70497 2.02495 2.47515C2.25478 2.24532 2.56649 2.11621 2.89151 2.11621H17.1072C17.4322 2.11621 17.7439 2.24532 17.9737 2.47515C18.2036 2.70497 18.3327 3.01668 18.3327 3.3417V3.3417ZM6.56798 8.48876H4.117V16.3319H6.56798V8.48876ZM6.78856 5.79268C6.78986 5.60728 6.75462 5.42345 6.68486 5.25167C6.6151 5.07989 6.5122 4.92354 6.38201 4.79153C6.25183 4.65953 6.09691 4.55446 5.92612 4.48232C5.75533 4.41018 5.572 4.3724 5.3866 4.37111H5.34249C4.96546 4.37111 4.60388 4.52089 4.33729 4.78748C4.07069 5.05408 3.92092 5.41566 3.92092 5.79268C3.92092 6.16971 4.07069 6.53129 4.33729 6.79788C4.60388 7.06448 4.96546 7.21425 5.34249 7.21425V7.21425C5.5279 7.21881 5.71239 7.1868 5.88542 7.12003C6.05845 7.05327 6.21663 6.95306 6.35092 6.82514C6.48522 6.69722 6.59299 6.5441 6.66808 6.37451C6.74317 6.20493 6.78411 6.02221 6.78856 5.8368V5.79268ZM15.8817 11.5672C15.8817 9.20935 14.3817 8.29268 12.8915 8.29268C12.4036 8.26825 11.9178 8.37217 11.4826 8.59408C11.0473 8.816 10.6779 9.14814 10.4111 9.55739H10.3425V8.48876H8.03857V16.3319H10.4895V12.1603C10.4541 11.7331 10.5887 11.3091 10.864 10.9805C11.1394 10.652 11.5333 10.4453 11.9601 10.4054H12.0533C12.8327 10.4054 13.4111 10.8956 13.4111 12.1309V16.3319H15.8621L15.8817 11.5672Z" fill="#2A2A2A"/>
</svg>
