<svg width="16" height="23" viewBox="0 0 16 23" fill="none" xmlns="http://www.w3.org/2000/svg">
<path d="M9.54418 20.5205C8.76649 21.544 7.23351 21.544 6.45582 20.5205C2.15166 14.8557 0 10.7504 0 8.20391C0 6.16174 0.842855 4.20321 2.34315 2.75918C3.84344 1.31515 5.87827 0.503906 8 0.503906C10.1217 0.503906 12.1566 1.31515 13.6569 2.75918C15.1571 4.20321 16 6.16174 16 8.20391C16 10.7504 13.8483 14.8557 9.54418 20.5205ZM8 12.6039C9.21242 12.6039 10.3752 12.1403 11.2325 11.3152C12.0898 10.49 12.5714 9.37086 12.5714 8.20391C12.5714 7.03695 12.0898 5.9178 11.2325 5.09264C10.3752 4.26748 9.21242 3.80391 8 3.80391C6.78758 3.80391 5.62482 4.26748 4.76751 5.09264C3.9102 5.9178 3.42857 7.03695 3.42857 8.20391C3.42857 9.37086 3.9102 10.49 4.76751 11.3152C5.62482 12.1403 6.78758 12.6039 8 12.6039Z" fill="#679FE4"/>
</svg>
