<svg width="200" height="34" viewBox="0 0 200 34" fill="none" xmlns="http://www.w3.org/2000/svg">
<g clip-path="url(#clip0_1747_3503)">
<path d="M9.38281 0H15.4364C19.4686 11.1392 23.4043 22.3103 27.4418 33.4495H20.8198C16.986 22.3103 13.238 11.1339 9.38281 0Z" fill="#1B4A84"/>
<path d="M29.3574 0H42.1242C47.4325 0.366351 52.7408 3.13257 55.3145 7.86859C58.8051 14.2293 58.2689 22.889 53.3092 28.363C50.537 31.416 46.4566 33.0141 42.3976 33.4495H29.3574C29.3574 22.2997 29.3574 11.1498 29.3574 0ZM35.3896 5.70765C35.3896 13.0506 35.3896 20.3989 35.3896 27.7418C39.1751 27.6834 43.2877 28.2091 46.6711 26.1384C50.0706 24.2535 51.5183 20.1759 51.3574 16.4858C51.4378 12.8064 49.7435 8.91455 46.3494 7.1412C43.0143 5.24573 39.0625 5.77667 35.3896 5.70765Z" fill="#1B4A84"/>
<path d="M54.6816 0H61.3519C64.1186 7.95885 66.8586 15.9336 69.5556 23.919C72.4725 15.9655 75.2178 7.94292 78.1615 0H84.8103C80.6602 11.1392 76.5583 22.2997 72.4457 33.4495H66.7085C62.6495 22.3156 58.7299 11.1339 54.6816 0Z" fill="#1B4A84"/>
<path d="M96.9012 0H100.499C107.437 0.578729 113.555 5.77136 115.341 12.4082C106.714 16.0292 98.0755 19.6025 89.4482 23.2235C91.8074 26.3295 95.7055 28.2728 99.668 27.8905C104.022 27.6463 107.85 24.6199 109.496 20.6856C111.239 21.4077 112.971 22.1404 114.708 22.8678C112.429 28.6657 106.73 32.9185 100.467 33.4495H96.8262C88.7672 32.6531 81.9039 25.5968 81.7055 17.5318C81.0514 8.888 88.2256 0.75925 96.9012 0ZM94.7457 6.2439C90.0487 7.93231 86.8744 12.8966 87.3892 17.8291C94.0809 15.0257 100.799 12.2754 107.48 9.42957C104.381 5.94657 99.1372 4.55019 94.7457 6.2439Z" fill="#1B4A84"/>
<path d="M117.293 0H130.971C134.365 0.493778 137.529 2.53791 139.154 5.55898C140.977 8.92517 140.655 13.3373 138.253 16.3478C136.998 18.0309 135.186 19.1989 133.25 19.9794C136.274 24.4871 139.33 28.9683 142.387 33.4495H135.159C132.172 29.2709 129.389 24.9491 126.494 20.7068C125.432 20.7068 124.381 20.7068 123.325 20.7068C123.325 24.9544 123.325 29.2019 123.325 33.4495H117.293C117.293 22.2997 117.293 11.1498 117.293 0ZM123.325 5.70765C123.325 8.80305 123.325 11.9038 123.325 14.9992C125.293 14.9832 127.261 15.031 129.234 14.9939C131.277 14.9567 133.331 13.6453 133.952 11.6702C134.928 8.98888 132.612 5.84039 129.792 5.72889C127.636 5.65986 125.481 5.72889 123.325 5.70765Z" fill="#1B4A84"/>
<path d="M156.917 0H160.37C162.011 0.19114 163.609 0.631824 165.164 1.1787C164.472 2.9255 163.829 4.68824 163.083 6.4138C160.531 5.43156 157.641 5.21918 155.024 6.074C151.083 7.32172 147.973 10.8578 147.33 14.9142C146.59 18.9016 148.381 23.1545 151.63 25.5809C155.11 28.3259 160.258 28.6763 164.124 26.526C168.043 24.4287 170.343 19.9847 170.006 15.6151C166.413 17.0964 162.842 18.6043 159.255 20.0856C158.467 18.3335 157.711 16.5655 156.955 14.8027C162.392 12.5568 167.807 10.2525 173.25 8.02257C176.161 12.817 176.461 19.0609 173.963 24.0889C171.459 29.255 166.134 32.8867 160.381 33.4495H156.869C152.327 33.0194 148.027 30.731 145.191 27.1843C140.735 21.8484 140.295 13.6771 144.043 7.85266C146.799 3.44052 151.689 0.456612 156.917 0Z" fill="#1B4A84"/>
<path d="M172.553 0H179.212C181.314 5.69703 183.319 11.4259 185.357 17.1442C182.815 16.1142 180.29 15.0363 177.765 13.9745C175.979 9.334 174.322 4.64576 172.553 0Z" fill="#1B4A84"/>
<path d="M192.922 0H200V0.196449C196.075 11.2932 192.075 22.3687 188.107 33.4495H182.021C185.936 22.3368 189.635 11.1445 193.48 0.00530944L192.922 0Z" fill="#1B4A84"/>
<path d="M5.59249 19.2838C7.92493 18.2378 10.3164 17.314 12.6649 16.3052C10.6756 22.0341 8.63271 27.747 6.55764 33.4494H0V33.2317C1.46381 29.1487 3.02413 25.1029 4.47721 21.0147C4.77212 20.4041 4.84182 19.5386 5.59249 19.2838Z" fill="#1B4A84"/>
</g>
<defs>
<clipPath id="clip0_1747_3503">
<rect width="200" height="33.4495" fill="white"/>
</clipPath>
</defs>
</svg>
