<svg width="24" height="24" viewBox="0 0 24 24" fill="none" xmlns="http://www.w3.org/2000/svg">
<path d="M5.90034 10.9005L10.8996 10.9005L12.9007 10.9005L17.8999 10.9005C18.0327 10.8982 18.1646 10.9224 18.2879 10.9716C18.4113 11.0208 18.5236 11.0941 18.6183 11.1872C18.713 11.2802 18.7882 11.3912 18.8395 11.5137C18.8909 11.6362 18.9173 11.7676 18.9173 11.9004C18.9173 12.0332 18.8909 12.1646 18.8395 12.2871C18.7882 12.4095 18.713 12.5205 18.6183 12.6136C18.5236 12.7067 18.4113 12.78 18.2879 12.8292C18.1646 12.8784 18.0327 12.9025 17.8999 12.9002L12.9 12.9009L10.8996 12.9002L5.90034 12.9002C5.76758 12.9025 5.63568 12.8784 5.51235 12.8292C5.38903 12.78 5.27673 12.7067 5.18203 12.6136C5.08732 12.5205 5.0121 12.4095 4.96076 12.2871C4.90941 12.1646 4.88296 12.0332 4.88296 11.9004C4.88296 11.7676 4.90941 11.6362 4.96076 11.5137C5.0121 11.3912 5.08732 11.2802 5.18203 11.1872C5.27673 11.0941 5.38903 11.0208 5.51235 10.9716C5.63568 10.9224 5.76758 10.8982 5.90034 10.9005Z" fill="#1C4B85"/>
</svg>
