<svg width="24" height="24" viewBox="0 0 24 24" fill="none" xmlns="http://www.w3.org/2000/svg">
<path d="M12.9007 10.9005L12.9 5.90059C12.9023 5.76783 12.8781 5.63593 12.8289 5.5126C12.7797 5.38927 12.7064 5.27698 12.6134 5.18228C12.5203 5.08757 12.4093 5.01235 12.2868 4.961C12.1644 4.90966 12.0329 4.88321 11.9001 4.88321C11.7674 4.88321 11.6359 4.90966 11.5134 4.961C11.391 5.01235 11.28 5.08757 11.1869 5.18228C11.0938 5.27698 11.0206 5.38927 10.9714 5.5126C10.9221 5.63593 10.898 5.76782 10.9003 5.90059L10.8996 10.9005L5.90034 10.9005C5.76758 10.8982 5.63568 10.9224 5.51235 10.9716C5.38903 11.0208 5.27673 11.0941 5.18203 11.1872C5.08732 11.2802 5.0121 11.3912 4.96076 11.5137C4.90941 11.6362 4.88296 11.7676 4.88296 11.9004C4.88296 12.0332 4.90941 12.1646 4.96076 12.2871C5.0121 12.4095 5.08732 12.5205 5.18203 12.6136C5.27673 12.7067 5.38903 12.78 5.51235 12.8292C5.63568 12.8784 5.76758 12.9025 5.90034 12.9002L10.8996 12.9002L10.9003 17.9002C10.898 18.033 10.9221 18.1649 10.9714 18.2882C11.0206 18.4115 11.0938 18.5238 11.1869 18.6185C11.28 18.7132 11.391 18.7884 11.5134 18.8398C11.6359 18.8911 11.7674 18.9176 11.9001 18.9176C12.0329 18.9176 12.1644 18.8911 12.2868 18.8398C12.4093 18.7884 12.5203 18.7132 12.6134 18.6185C12.7064 18.5238 12.7797 18.4115 12.8289 18.2882C12.8781 18.1649 12.9023 18.033 12.9 17.9002L12.9 12.9009L17.8999 12.9002C18.0327 12.9025 18.1646 12.8784 18.2879 12.8292C18.4113 12.78 18.5236 12.7067 18.6183 12.6136C18.713 12.5205 18.7882 12.4095 18.8395 12.2871C18.8909 12.1646 18.9173 12.0332 18.9173 11.9004C18.9173 11.7676 18.8909 11.6362 18.8395 11.5137C18.7882 11.3912 18.713 11.2802 18.6183 11.1872C18.5236 11.0941 18.4113 11.0208 18.2879 10.9716C18.1646 10.9224 18.0327 10.8982 17.8999 10.9005L12.9 10.8998L12.9007 10.9005Z" fill="#1C4B85"/>
</svg>
