<svg width="24" height="24" viewBox="0 0 24 24" fill="none" xmlns="http://www.w3.org/2000/svg">
<path d="M12.9007 10.8996L12.9 5.89961C12.9023 5.76685 12.8781 5.63495 12.8289 5.51163C12.7797 5.3883 12.7064 5.276 12.6134 5.1813C12.5203 5.08659 12.4093 5.01137 12.2868 4.96003C12.1644 4.90868 12.0329 4.88223 11.9001 4.88223C11.7674 4.88224 11.6359 4.90868 11.5134 4.96003C11.391 5.01137 11.28 5.08659 11.1869 5.1813C11.0938 5.276 11.0206 5.3883 10.9714 5.51163C10.9221 5.63495 10.898 5.76685 10.9003 5.89961L10.8996 10.8996L5.90034 10.8996C5.76758 10.8973 5.63568 10.9214 5.51235 10.9706C5.38903 11.0198 5.27673 11.0931 5.18203 11.1862C5.08732 11.2793 5.0121 11.3903 4.96076 11.5127C4.90941 11.6352 4.88296 11.7666 4.88296 11.8994C4.88296 12.0322 4.90941 12.1637 4.96076 12.2861C5.0121 12.4086 5.08732 12.5196 5.18203 12.6126C5.27673 12.7057 5.38903 12.779 5.51235 12.8282C5.63568 12.8774 5.76758 12.9016 5.90034 12.8993L10.8996 12.8993L10.9003 17.8992C10.898 18.032 10.9221 18.1639 10.9714 18.2872C11.0206 18.4105 11.0938 18.5228 11.1869 18.6175C11.28 18.7122 11.391 18.7875 11.5134 18.8388C11.6359 18.8901 11.7674 18.9166 11.9001 18.9166C12.0329 18.9166 12.1644 18.8901 12.2868 18.8388C12.4093 18.7875 12.5203 18.7122 12.6134 18.6175C12.7064 18.5228 12.7797 18.4105 12.8289 18.2872C12.8781 18.1639 12.9023 18.032 12.9 17.8992L12.9 12.9L17.8999 12.8993C18.0327 12.9016 18.1646 12.8774 18.2879 12.8282C18.4113 12.779 18.5236 12.7057 18.6183 12.6126C18.713 12.5196 18.7882 12.4086 18.8395 12.2861C18.8909 12.1637 18.9173 12.0322 18.9173 11.8994C18.9173 11.7666 18.8909 11.6352 18.8395 11.5127C18.7882 11.3903 18.713 11.2793 18.6183 11.1862C18.5236 11.0931 18.4113 11.0198 18.2879 10.9706C18.1646 10.9214 18.0327 10.8973 17.8999 10.8996L12.9 10.8989L12.9007 10.8996Z" fill="#8FA1BD"/>
</svg>
