<svg width="25" height="25" viewBox="0 0 25 25" fill="none" xmlns="http://www.w3.org/2000/svg">
<path fill-rule="evenodd" clip-rule="evenodd" d="M10.7929 1.37102C11.1834 0.980494 11.8166 0.980494 12.2071 1.37102L15.2071 4.37102C15.3946 4.55855 15.5 4.81291 15.5 5.07812C15.5 5.34334 15.3946 5.5977 15.2071 5.78523L12.2071 8.78523C11.8166 9.17576 11.1834 9.17576 10.7929 8.78523C10.4024 8.39471 10.4024 7.76154 10.7929 7.37102L12.073 6.09094C8.40584 6.31161 5.5 9.35552 5.5 13.0781C5.5 16.9441 8.63401 20.0781 12.5 20.0781C16.366 20.0781 19.5 16.9441 19.5 13.0781C19.5 12.5258 19.9477 12.0781 20.5 12.0781C21.0523 12.0781 21.5 12.5258 21.5 13.0781C21.5 18.0487 17.4706 22.0781 12.5 22.0781C7.52944 22.0781 3.5 18.0487 3.5 13.0781C3.5 8.24337 7.31226 4.29901 12.0947 4.08709L10.7929 2.78523C10.4024 2.39471 10.4024 1.76154 10.7929 1.37102Z" fill="#8FA1BD"/>
</svg>
