<svg width="29" height="28" viewBox="0 0 29 28" fill="none" xmlns="http://www.w3.org/2000/svg">
<g clip-path="url(#clip0_1018_2560)">
<path d="M26.4331 0H2.56694C2.01876 0 1.49302 0.217767 1.10539 0.605394C0.717767 0.993022 0.5 1.51876 0.5 2.06694V25.9331C0.5 26.4812 0.717767 27.007 1.10539 27.3946C1.49302 27.7822 2.01876 28 2.56694 28H26.4331C26.9812 28 27.507 27.7822 27.8946 27.3946C28.2822 27.007 28.5 26.4812 28.5 25.9331V2.06694C28.5 1.51876 28.2822 0.993022 27.8946 0.605394C27.507 0.217767 26.9812 0 26.4331 0ZM8.84556 23.8525H4.63583V10.4806H8.84556V23.8525ZM6.73778 8.6275C6.26026 8.62481 5.79423 8.48073 5.39852 8.21344C5.00281 7.94614 4.69515 7.56762 4.51436 7.12564C4.33357 6.68365 4.28776 6.19802 4.3827 5.73003C4.47765 5.26204 4.7091 4.83266 5.04785 4.49608C5.38659 4.1595 5.81745 3.93081 6.28604 3.83887C6.75464 3.74693 7.23997 3.79586 7.68078 3.97948C8.12159 4.16311 8.49813 4.47319 8.76288 4.87061C9.02762 5.26803 9.16871 5.73497 9.16833 6.2125C9.17284 6.53221 9.11293 6.84955 8.99218 7.14561C8.87143 7.44166 8.69231 7.71038 8.4655 7.93574C8.23869 8.16111 7.96882 8.3385 7.67199 8.45734C7.37517 8.57619 7.05745 8.63406 6.73778 8.6275ZM24.3622 23.8642H20.1544V16.5589C20.1544 14.4044 19.2386 13.7394 18.0564 13.7394C16.8081 13.7394 15.5831 14.6806 15.5831 16.6133V23.8642H11.3733V10.4903H15.4217V12.3433H15.4761C15.8825 11.5208 17.3058 10.115 19.4778 10.115C21.8267 10.115 24.3642 11.5092 24.3642 15.5925L24.3622 23.8642Z" fill="#0A66C2"/>
</g>
<defs>
<clipPath id="clip0_1018_2560">
<rect width="28" height="28" fill="white" transform="translate(0.5)"/>
</clipPath>
</defs>
</svg>
