<svg width="63" height="25" viewBox="0 0 63 25" fill="none" xmlns="http://www.w3.org/2000/svg">
<path d="M49.5914 3.35841C49.4465 3.35841 49.3245 3.41025 49.2632 3.5117C49.1998 3.6165 49.2096 3.75139 49.2769 3.88796L50.9042 6.75864C50.9069 6.76421 50.9069 6.76756 50.9042 6.77257L48.347 11.3712C48.2803 11.5067 48.2836 11.6427 48.347 11.7475C48.4083 11.8484 48.5166 11.9147 48.6615 11.9147H51.0683C51.4282 11.9147 51.6016 11.6672 51.7247 11.4409C51.7247 11.4409 54.2255 6.93366 54.3228 6.75864C54.313 6.74247 52.6682 3.81828 52.6682 3.81828C52.5484 3.60089 52.3674 3.35841 51.9981 3.35841H49.5914ZM38.9936 8.72352C35.2588 8.72352 33.2092 10.9443 33.2092 14.9666V19.2029C33.2092 23.0446 35.0039 25 38.556 25C41.4282 25 43.754 23.8556 43.9165 23.7737V16.165C43.9165 15.9286 43.7518 15.7609 43.5199 15.7609H38.7611C38.5292 15.7609 38.3646 15.9286 38.3646 16.165V18.1159C38.3646 18.3523 38.5292 18.5201 38.7611 18.5201H40.9764C40.9857 18.5201 40.9901 18.5245 40.9901 18.534V21.8227C40.9901 21.83 40.9824 21.8344 40.9764 21.8367C40.966 21.8411 39.9328 22.2408 38.6517 22.2408C36.9594 22.2408 36.1356 21.1706 36.1356 18.9799V14.9666C36.1356 13.8278 36.3555 12.9905 36.8057 12.4164C37.2985 11.7882 38.0435 11.4827 39.103 11.4827H39.5679C41.106 11.4827 42.2941 11.8328 43.055 12.0819C43.1731 12.1204 43.2814 12.1003 43.3558 12.0401C43.4318 11.9788 43.4789 11.8746 43.4789 11.7475V9.88015C43.4789 9.66889 43.3771 9.55016 43.0686 9.39242C42.6753 9.19175 41.5557 8.72352 39.6226 8.72352H38.9936ZM1.00555 8.93255C0.895059 8.93255 0.809183 8.97603 0.759407 9.05797C0.705256 9.1466 0.705803 9.26923 0.759407 9.37848L4.67034 16.6388C4.67308 16.6438 4.67308 16.6616 4.67034 16.6667L0.540614 24.2893C0.486462 24.3991 0.486462 24.5212 0.540614 24.6098C0.589842 24.6917 0.676266 24.7352 0.786756 24.7352H3.4533C3.75852 24.7352 3.86737 24.5608 3.98661 24.3172L6.72153 19.189C6.72427 19.1834 6.72919 19.175 6.73521 19.175C6.74177 19.175 6.74615 19.1834 6.74888 19.189C6.74888 19.189 9.49693 24.3166 9.49748 24.3172C9.61617 24.5602 9.7119 24.7352 10.0171 24.7352H12.6973C12.8078 24.7352 12.8942 24.6917 12.9435 24.6098C12.9708 24.5652 12.9845 24.5106 12.9845 24.4565C12.9845 24.4019 12.9703 24.3445 12.9435 24.2893C12.9429 24.2882 8.80007 16.6667 8.80007 16.6667C8.79843 16.6639 8.80007 16.6555 8.80007 16.6527C8.80007 16.6499 8.79843 16.641 8.80007 16.6388L12.7247 9.37848C12.7515 9.3233 12.7657 9.26588 12.7657 9.21126C12.7657 9.15719 12.7515 9.102 12.7247 9.05797C12.6749 8.97603 12.5885 8.93255 12.4785 8.93255H9.79832C9.4931 8.93255 9.38425 9.10758 9.26501 9.35061L6.74888 14.1165C6.74615 14.1215 6.74177 14.1304 6.73521 14.1304C6.72919 14.1304 6.72427 14.1215 6.72153 14.1165C6.72153 14.1165 4.20595 9.35061 4.20541 9.35061C4.10586 9.1466 4.00084 8.93255 3.6721 8.93255H1.00555ZM14.9263 8.93255C14.6949 8.93255 14.5297 9.10089 14.5297 9.33667V24.3311C14.5297 24.5669 14.6949 24.7352 14.9263 24.7352H17.0459C17.2772 24.7352 17.4424 24.5669 17.4424 24.3311V9.33667C17.4424 9.10089 17.2772 8.93255 17.0459 8.93255H14.9263ZM20.5876 8.93255C20.3562 8.93255 20.1773 9.10089 20.1773 9.33667V24.3311C20.1773 24.5669 20.3562 24.7352 20.5876 24.7352H22.7071C22.9385 24.7352 23.1037 24.5669 23.1037 24.3311V15.2871C23.1037 15.2793 23.1103 15.2748 23.1174 15.2731C23.1245 15.2709 23.1278 15.2804 23.1311 15.2871C23.1311 15.2871 27.7257 24.3166 27.7257 24.3172C27.8204 24.51 27.9675 24.7352 28.259 24.7352H30.4743C30.7057 24.7352 30.8709 24.5669 30.8709 24.3311V9.33667C30.8709 9.10089 30.7057 8.93255 30.4743 8.93255H28.3548C28.1234 8.93255 27.9582 9.10089 27.9582 9.33667V18.3668C27.9582 18.3746 27.9516 18.379 27.9445 18.3807C27.9374 18.3829 27.921 18.3874 27.9172 18.3807C27.9172 18.3807 23.3225 9.35117 23.3225 9.35061C23.2219 9.14715 23.1179 8.93255 22.7892 8.93255H20.5876Z" fill="#005A5F"/>
<path d="M59.7023 0C59.3429 0 59.187 0.230776 59.0579 0.46712C59.0579 0.46712 53.8731 9.83724 53.7024 10.1449C53.7112 10.1617 57.1221 16.5385 57.1221 16.5385C57.2414 16.7559 57.4257 17.0056 57.7944 17.0056H60.1984C60.3434 17.0056 60.4566 16.9498 60.5178 16.8489C60.5818 16.7442 60.5802 16.6059 60.5129 16.4699L57.12 10.1527C57.1167 10.1477 57.1167 10.1416 57.12 10.1366L62.4487 0.535123C62.5154 0.399671 62.5171 0.26143 62.4536 0.156637C62.3924 0.0557446 62.2786 0 62.1336 0H59.7023Z" fill="#D4D600"/>
</svg>
