<svg width="29" height="28" viewBox="0 0 29 28" fill="none" xmlns="http://www.w3.org/2000/svg">
<g clip-path="url(#clip0_1018_2564)">
<path d="M27.9419 7.21672C27.7836 6.62103 27.4716 6.07738 27.0372 5.64015C26.6027 5.20292 26.0611 4.88747 25.4664 4.72536C23.2773 4.13672 14.5273 4.13672 14.5273 4.13672C14.5273 4.13672 5.77734 4.13672 3.58825 4.72536C2.9936 4.88747 2.45195 5.20292 2.01751 5.64015C1.58308 6.07738 1.2711 6.62103 1.1128 7.21672C0.527344 9.41535 0.527344 14.0004 0.527344 14.0004C0.527344 14.0004 0.527344 18.5854 1.1128 20.784C1.2711 21.3797 1.58308 21.9233 2.01751 22.3606C2.45195 22.7978 2.9936 23.1132 3.58825 23.2754C5.77734 23.864 14.5273 23.864 14.5273 23.864C14.5273 23.864 23.2773 23.864 25.4664 23.2754C26.0611 23.1132 26.6027 22.7978 27.0372 22.3606C27.4716 21.9233 27.7836 21.3797 27.9419 20.784C28.5273 18.5854 28.5273 14.0004 28.5273 14.0004C28.5273 14.0004 28.5273 9.41535 27.9419 7.21672Z" fill="#FF0302"/>
<path d="M11.6641 18.1628V9.83594L18.9822 13.9993L11.6641 18.1628Z" fill="#FEFEFE"/>
</g>
<defs>
<clipPath id="clip0_1018_2564">
<rect width="28" height="28" fill="white" transform="translate(0.5)"/>
</clipPath>
</defs>
</svg>
