<svg width="71" height="16" viewBox="0 0 71 16" fill="none" xmlns="http://www.w3.org/2000/svg">
<path d="M9.51321 10.4454C9.51321 9.36914 9.08724 8.39708 8.38913 7.64488C9.07541 6.90426 9.48954 5.94377 9.48954 4.87913V4.17323H9.47771C9.45405 4.01122 9.30022 3.88393 9.12274 3.88393H6.93376C6.75627 3.88393 6.60245 4.01122 6.57879 4.17323L6.53146 4.87913C6.53146 5.63133 5.88068 6.24465 5.09974 6.24465V6.25622H4.36614C3.85735 6.25622 3.37222 6.3488 2.92259 6.49924V0.4007C2.91076 0.215545 2.7451 0.0535348 2.55579 0.0535348H0.366803C0.165653 0.0535348 0 0.215545 0 0.4007V13.3153C0 13.5004 0.165653 13.6624 0.366803 13.6624H2.54395C2.7451 13.6624 2.91076 13.5004 2.91076 13.3153V10.4454H2.93442C2.93442 9.69316 3.5852 9.07984 4.36614 9.07984H5.13524C5.92801 9.07984 6.56695 9.69316 6.56695 10.4454V11.1513H6.57879V13.3153C6.57879 13.5004 6.74444 13.6624 6.94559 13.6624H9.12274C9.32389 13.6624 9.48954 13.5004 9.48954 13.3153L9.52504 11.1513V10.4454H9.51321Z" fill="#18242B"/>
<path d="M20.399 6.61496C20.399 6.42981 20.2333 6.2678 20.0322 6.2678H17.855C17.6539 6.2678 17.4882 6.42981 17.4882 6.61496V11.8109C17.4882 12.5631 16.8374 13.1764 16.0328 13.1764H15.2637C14.471 13.1764 13.832 12.5631 13.832 11.8109L13.8202 6.61496C13.8202 6.42981 13.6545 6.2678 13.4534 6.2678H11.2881C11.0869 6.2678 10.9213 6.42981 10.9213 6.61496L10.9094 11.8109C10.9094 14.1253 12.8499 16 15.2637 16H16.0328C18.4466 16 20.399 14.1253 20.399 11.8109V6.61496Z" fill="#18242B"/>
<path d="M21.8662 13.3963C21.8662 13.5814 22.0318 13.7434 22.233 13.7434H24.4101C24.6113 13.7434 24.7769 13.5814 24.7769 13.3963V8.20035C24.7769 7.44816 25.4277 6.83483 26.2205 6.83483H26.9896C27.7824 6.83483 28.4213 7.44816 28.4213 8.20035L28.4331 13.3963C28.4331 13.5814 28.5988 13.7434 28.7999 13.7434H30.9771C31.1782 13.7434 31.3439 13.5814 31.3439 13.3963L31.3557 8.20035C31.3557 5.89749 29.4152 4.01122 27.0014 4.01122H26.2323C23.8185 4.01122 21.878 5.88591 21.878 8.20035L21.8662 13.3963Z" fill="#18242B"/>
<path d="M42.3006 6.61496C42.3006 6.42981 42.135 6.2678 41.9338 6.2678H39.7567C39.5555 6.2678 39.3899 6.42981 39.3899 6.61496V11.8109C39.3899 12.5631 38.7391 13.1764 37.9463 13.1764H37.1772C36.3845 13.1764 35.7455 12.5631 35.7455 11.8109L35.7337 6.61496C35.7337 6.42981 35.568 6.2678 35.3669 6.2678H33.1779C32.9768 6.2678 32.8111 6.42981 32.8111 6.61496V11.8109C32.8111 14.1253 34.7516 16 37.1654 16H37.9345C40.3483 16 42.2888 14.1253 42.2888 11.8109V6.61496H42.3006Z" fill="#18242B"/>
<path d="M64.2023 6.61496C64.2023 6.42981 64.0367 6.2678 63.8355 6.2678H61.6584C61.4572 6.2678 61.2916 6.42981 61.2916 6.61496V11.8109C61.2916 12.5631 60.6408 13.1764 59.848 13.1764H59.0789C58.2861 13.1764 57.6472 12.5631 57.6472 11.8109L57.6354 6.61496C57.6354 6.42981 57.4697 6.2678 57.2686 6.2678H55.0914C54.8903 6.2678 54.7246 6.42981 54.7246 6.61496L54.7128 11.8109C54.7128 14.1253 56.6533 16 59.0671 16H59.8362C62.25 16 64.1905 14.1253 64.1905 11.8109L64.2023 6.61496Z" fill="#18242B"/>
<path d="M43.7797 13.3153C43.7797 13.512 43.9453 13.6624 44.1465 13.6624H46.3236C46.5248 13.6624 46.6904 13.512 46.6904 13.3153V8.13092C46.6904 7.37873 47.3412 6.7654 48.134 6.7654H48.9031C49.6959 6.7654 50.3348 7.37873 50.3348 8.13092L50.3466 13.3268C50.3466 13.5236 50.5123 13.674 50.7134 13.674H52.8906C53.0917 13.674 53.2574 13.5236 53.2574 13.3268L53.2692 8.13092C53.2692 5.81648 51.3287 3.94179 48.9149 3.94179H48.1458C45.732 3.94179 43.7915 5.81648 43.7915 8.13092L43.7797 13.3153Z" fill="#18242B"/>
<path d="M66.1192 0.852017C65.9772 0.71315 65.7287 0.71315 65.5867 0.852017L65.4447 0.990881C65.3027 1.12975 65.3027 1.36119 65.4447 1.51163L66.3203 2.34483C66.4386 2.46055 66.4268 2.6457 66.3085 2.74985L66.202 2.854C66.0837 2.96972 65.8943 2.96972 65.776 2.854L64.9004 2.02081C64.4508 1.59264 64.4508 0.886734 64.8886 0.458563L65.0306 0.319696C65.4802 -0.108475 66.2138 -0.108474 66.6634 0.331268L67.4799 1.11818L67.539 1.17604C67.6574 1.29176 67.6574 1.46534 67.539 1.58106L67.4326 1.68521C67.3142 1.80093 67.1131 1.81251 66.9948 1.69678L66.1192 0.852017Z" fill="#18242B"/>
<path d="M70.1067 1.51163C70.2486 1.37276 70.2486 1.14132 70.1067 1.00245L69.9647 0.863589C69.8227 0.724722 69.5742 0.724722 69.4322 0.863589L68.5566 1.69678C68.4383 1.81251 68.249 1.80093 68.1307 1.68521L68.0242 1.58106C67.9058 1.46534 67.9058 1.29176 68.0123 1.17604L68.8879 0.331267C69.3376 -0.0969032 70.0712 -0.108476 70.5208 0.319695L70.6628 0.458562C71.1124 0.898305 71.1124 1.59264 70.6628 2.02081L69.8464 2.80771L69.7872 2.86557C69.6689 2.9813 69.4795 2.9813 69.3612 2.86557L69.2547 2.76143C69.1364 2.6457 69.1246 2.46055 69.2429 2.3564L70.1067 1.51163Z" fill="#18242B"/>
<path d="M65.4329 4.67084C65.2909 4.8097 65.2909 5.04115 65.4329 5.19158L65.5749 5.33045C65.7169 5.46931 65.9653 5.46931 66.1073 5.33045L66.9829 4.49725C67.1012 4.38153 67.2906 4.3931 67.4089 4.50883L67.5154 4.61298C67.6337 4.7287 67.6337 4.90228 67.5272 5.018L66.6516 5.8512C66.202 6.29094 65.4684 6.29094 65.0187 5.86277L64.8768 5.72391C64.4271 5.29573 64.4271 4.58983 64.8886 4.17323L65.705 3.38632L65.7642 3.32846C65.8825 3.21274 66.0718 3.21274 66.1902 3.32846L66.2966 3.43261C66.415 3.54833 66.4268 3.73349 66.3085 3.83764L65.4329 4.67084Z" fill="#18242B"/>
<path d="M69.4204 5.30731C69.5624 5.44617 69.8109 5.44617 69.9528 5.30731L70.0948 5.16844C70.2368 5.02957 70.2487 4.79813 70.0948 4.64769L69.2192 3.8145C69.1009 3.69877 69.1127 3.52519 69.2311 3.40947L69.3376 3.30532C69.4559 3.1896 69.6452 3.1896 69.7635 3.29375L70.6391 4.12694C71.0887 4.55511 71.0887 5.26102 70.651 5.68919L70.509 5.82806C70.0593 6.2678 69.3257 6.25623 68.8761 5.81648L68.0597 5.02958L68.0005 4.97171C67.8822 4.85599 67.8822 4.68241 68.0005 4.56669L68.107 4.46254C68.2253 4.34681 68.4265 4.33524 68.5448 4.45097L69.4204 5.30731Z" fill="#18242B"/>
</svg>
