<svg width="29" height="28" viewBox="0 0 29 28" fill="none" xmlns="http://www.w3.org/2000/svg">
<path d="M20.5404 10.1085C22.341 11.4002 24.5468 12.1602 26.9291 12.1602V7.55952C26.4783 7.55961 26.0285 7.51243 25.5874 7.41864V11.0401C23.2053 11.0401 20.9998 10.28 19.1987 8.98844V18.3772C19.1987 23.0739 15.4048 26.881 10.7251 26.881C8.97895 26.881 7.356 26.3513 6.00781 25.4427C7.54654 27.0216 9.69242 28.0011 12.0665 28.0011C16.7465 28.0011 20.5406 24.1939 20.5406 19.497V10.1085H20.5404V10.1085ZM22.1955 5.46697C21.2753 4.45807 20.6711 3.15426 20.5404 1.71284V1.12109H19.269C19.589 2.95313 20.6806 4.51832 22.1955 5.46697ZM8.96775 21.8386C8.45363 21.1621 8.1758 20.3345 8.17704 19.4836C8.17704 17.3355 9.91235 15.5938 12.0532 15.5938C12.4522 15.5937 12.8488 15.655 13.2291 15.7761V11.0725C12.7847 11.0114 12.3362 10.9855 11.888 10.995V14.656C11.5074 14.5349 11.1107 14.4734 10.7116 14.4738C8.57067 14.4738 6.83546 16.2153 6.83546 18.3637C6.83546 19.8828 7.70283 21.1979 8.96775 21.8386Z" fill="#FF004F"/>
<path d="M19.1958 8.98835C20.9969 10.28 23.2024 11.04 25.5846 11.04V7.41855C24.2548 7.1343 23.0777 6.43694 22.1926 5.46697C20.6776 4.51822 19.5861 2.95304 19.2661 1.12109H15.9264V19.4968C15.9188 21.6391 14.1865 23.3737 12.0502 23.3737C10.7913 23.3737 9.67289 22.7715 8.96459 21.8386C7.69976 21.1979 6.83239 19.8827 6.83239 18.3638C6.83239 16.2156 8.5676 14.4739 10.7085 14.4739C11.1187 14.4739 11.514 14.538 11.8849 14.6561V10.9951C7.28737 11.0904 3.58984 14.8604 3.58984 19.4969C3.58984 21.8115 4.51061 23.9097 6.00503 25.4428C7.35322 26.3513 8.97617 26.8811 10.7223 26.8811C15.4021 26.8811 19.1959 23.0738 19.1959 18.3772V8.98835H19.1958Z" fill="black"/>
<path d="M25.5863 7.41743V6.43823C24.3872 6.44006 23.2117 6.10305 22.1944 5.46576C23.0949 6.45524 24.2808 7.13751 25.5863 7.41743ZM19.2678 1.11998C19.2373 0.944897 19.2138 0.768659 19.1976 0.59175V0H14.5864V18.3759C14.579 20.5179 12.8467 22.2525 10.7102 22.2525C10.083 22.2525 9.49078 22.1031 8.96632 21.8376C9.67463 22.7703 10.793 23.3725 12.0519 23.3725C14.188 23.3725 15.9207 21.6381 15.9281 19.4958V1.11998H19.2678ZM11.8868 10.994V9.95154C11.5015 9.89869 11.1131 9.87217 10.7241 9.87236C6.0439 9.87226 2.25 13.6796 2.25 18.3759C2.25 21.3203 3.74107 23.9151 6.00686 25.4415C4.51245 23.9085 3.59168 21.8102 3.59168 19.4957C3.59168 14.8593 7.28911 11.0893 11.8868 10.994Z" fill="#00F2EA"/>
</svg>
