<svg width="36" height="36" viewBox="0 0 36 36" fill="none" xmlns="http://www.w3.org/2000/svg">
<rect width="36" height="36" rx="4" fill="white" fill-opacity="0.16"/>
<path d="M22.0182 12.2785C21.4072 11.5781 21.04 10.6649 21.04 9.6665H20.2744C20.4716 10.7578 21.1212 11.6942 22.0182 12.2785Z" fill="white"/>
<path d="M14.9348 17.9205C13.6087 17.9205 12.5299 19.0001 12.5299 20.3274C12.5299 21.2523 13.0558 22.0572 13.8213 22.4596C13.5352 22.0649 13.3651 21.5812 13.3651 21.0549C13.3651 19.7276 14.4438 18.648 15.77 18.648C16.0174 18.648 16.2571 18.6905 16.4814 18.7602V15.8348C16.2494 15.8038 16.0136 15.7844 15.77 15.7844C15.7274 15.7844 15.6888 15.7883 15.6462 15.7883V18.0327C15.4181 17.963 15.1823 17.9205 14.9348 17.9205Z" fill="white"/>
<path d="M24.1871 13.5632V15.7883C22.7024 15.7883 21.326 15.3123 20.2047 14.5074V20.3313C20.2047 23.2374 17.8423 25.6057 14.9348 25.6057C13.8135 25.6057 12.7696 25.2496 11.9151 24.6499C12.8778 25.683 14.2504 26.3332 15.7699 26.3332C18.6736 26.3332 21.0398 23.9688 21.0398 21.0588V15.2349C22.1611 16.0398 23.5375 16.5158 25.0222 16.5158V13.6523C24.7322 13.6523 24.4539 13.6213 24.1871 13.5632Z" fill="white"/>
<path d="M20.2047 20.3313V14.5074C21.326 15.3123 22.7024 15.7883 24.1871 15.7883V13.5632C23.3287 13.3814 22.5749 12.917 22.0182 12.2785C21.1211 11.6942 20.4753 10.7578 20.2704 9.6665H18.1748L18.1709 21.1478C18.1246 22.4325 17.0651 23.4657 15.7699 23.4657C14.9657 23.4657 14.2581 23.0671 13.8174 22.4635C13.0518 22.0572 12.526 21.2562 12.526 20.3313C12.526 19.004 13.6047 17.9244 14.9309 17.9244C15.1784 17.9244 15.4181 17.9669 15.6423 18.0366V15.7922C12.7966 15.8541 10.5 18.1913 10.5 21.0588C10.5 22.4441 11.0374 23.7057 11.9151 24.6499C12.7696 25.2496 13.8135 25.6057 14.9348 25.6057C17.8385 25.6057 20.2047 23.2374 20.2047 20.3313Z" fill="white"/>
</svg>
