<svg width="20" height="21" viewBox="0 0 20 21" fill="none" xmlns="http://www.w3.org/2000/svg">
<path d="M14.0182 4.72821C13.4072 4.02783 13.04 3.11458 13.04 2.11621H12.2744C12.4716 3.20746 13.1212 4.14393 14.0182 4.72821Z" fill="#2A2A2A"/>
<path d="M6.93483 10.3702C5.60865 10.3702 4.52993 11.4498 4.52993 12.7771C4.52993 13.702 5.05575 14.5069 5.8213 14.9093C5.53519 14.5146 5.36507 14.0309 5.36507 13.5046C5.36507 12.1773 6.44379 11.0977 7.77 11.0977C8.01744 11.0977 8.25714 11.1402 8.4814 11.2099V8.28448C8.24939 8.25349 8.01357 8.23412 7.77 8.23412C7.72745 8.23412 7.68878 8.23799 7.64625 8.23799V10.4824C7.41813 10.4127 7.18228 10.3702 6.93483 10.3702Z" fill="#2A2A2A"/>
<path d="M16.1871 6.01294V8.23799C14.7024 8.23799 13.326 7.76205 12.2047 6.95714V12.781C12.2047 15.6871 9.84233 18.0554 6.93476 18.0554C5.81351 18.0554 4.76958 17.6993 3.9151 17.0996C4.87784 18.1327 6.25041 18.7829 7.76994 18.7829C10.6736 18.7829 13.0398 16.4185 13.0398 13.5085V7.68464C14.1611 8.48955 15.5375 8.96549 17.0222 8.96549V6.10198C16.7322 6.10198 16.4539 6.07099 16.1871 6.01294Z" fill="#2A2A2A"/>
<path d="M12.2047 12.781V6.95714C13.326 7.76205 14.7024 8.23799 16.1871 8.23799V6.01294C15.3287 5.83111 14.5749 5.36674 14.0182 4.72821C13.1211 4.14393 12.4753 3.20746 12.2704 2.11621H10.1748L10.1709 13.5975C10.1246 14.8822 9.06514 15.9154 7.76994 15.9154C6.9657 15.9154 6.25815 15.5169 5.81738 14.9132C5.05183 14.5069 4.526 13.7059 4.526 12.781C4.526 11.4537 5.60472 10.3741 6.9309 10.3741C7.17835 10.3741 7.41807 10.4166 7.64232 10.4863V8.24187C4.79665 8.30379 2.5 10.6411 2.5 13.5085C2.5 14.8938 3.03743 16.1554 3.9151 17.0996C4.76958 17.6993 5.81351 18.0554 6.93476 18.0554C9.83845 18.0554 12.2047 15.6871 12.2047 12.781Z" fill="#2A2A2A"/>
</svg>
