<svg width="273" height="79" viewBox="0 0 273 79" fill="none" xmlns="http://www.w3.org/2000/svg">
<g clip-path="url(#clip0_1725_4141)">
<path d="M61.8959 25.6942C61.8296 25.5806 61.7724 25.4619 61.7249 25.3394C61.5931 25.0074 61.5288 24.6527 61.5357 24.2959C61.5425 23.9391 61.6204 23.5871 61.7649 23.2603C61.9093 22.9335 62.1175 22.6382 62.3774 22.3915C62.6373 22.1448 62.9437 21.9515 63.2792 21.8228C73.1256 17.9284 78.1071 17.6122 79.9411 20.7586C80.2624 21.3257 80.3677 21.9884 80.2379 22.6261C80.1081 23.2638 79.7519 23.834 79.234 24.233C78.7162 24.6319 78.0712 24.8331 77.4165 24.7998C76.7618 24.7665 76.1409 24.5009 75.6668 24.0516C74.9441 23.9976 72.2707 24.0978 65.2997 26.851C64.6877 27.1025 64.0042 27.1238 63.3775 26.9108C62.7508 26.6979 62.224 26.2652 61.8959 25.6942Z" fill="#FBB929"/>
<path d="M14.3255 58.3181C12.4914 55.1717 15.2658 51.0459 23.5812 44.5294C23.861 44.2912 24.1863 44.1116 24.5377 44.0013C24.8892 43.891 25.2594 43.8524 25.6263 43.8877C25.9932 43.9229 26.3491 44.0314 26.6726 44.2066C26.9962 44.3817 27.2807 44.62 27.5092 44.907C27.7376 45.194 27.9053 45.5239 28.0021 45.8768C28.0988 46.2297 28.1227 46.5984 28.0724 46.9607C28.022 47.3231 27.8983 47.6715 27.7088 47.9853C27.5193 48.299 27.2678 48.5714 26.9696 48.7863C21.0711 53.4134 19.6489 55.6421 19.3303 56.2899C19.4954 56.924 19.4233 57.5959 19.1273 58.1813C18.8313 58.7666 18.3315 59.2256 17.7206 59.4732C17.1096 59.7208 16.4289 59.7402 15.8046 59.5278C15.1803 59.3154 14.6548 58.8856 14.3255 58.3181Z" fill="#B8D0E9"/>
<path d="M66.2235 33.4633C67.0273 35.9695 67.3205 38.6093 67.0862 41.2291C66.663 40.8674 66.1639 40.6039 65.6251 40.4579C64.6296 40.1931 63.5688 40.3315 62.6762 40.8427C61.7835 41.354 61.1321 42.1962 60.8651 43.184C60.5982 44.1719 60.7377 45.2246 61.2529 46.1104C61.7681 46.9962 62.6168 47.6427 63.6123 47.9075C64.1505 48.0455 64.7119 48.0692 65.2599 47.977C64.1427 50.3636 62.5576 52.5055 60.597 54.2775C60.1016 54.7229 59.775 55.3233 59.6718 55.9787C59.5685 56.6341 59.6949 57.3048 60.0297 57.8789C60.1328 58.0587 60.2553 58.2267 60.395 58.3802C60.6514 58.6657 60.962 58.8982 61.3091 59.0644C61.6562 59.2306 62.0329 59.3272 62.4177 59.3487C62.8025 59.3702 63.1877 59.3162 63.5514 59.1897C63.9151 59.0632 64.2501 58.8667 64.5371 58.6116C68.2339 55.2978 70.8865 50.9943 72.1757 46.2193C73.4649 41.4442 73.3356 36.4011 71.8034 31.6973C71.5654 30.963 71.0431 30.3527 70.3516 30.0005C69.66 29.6483 68.8558 29.5832 68.1159 29.8194C67.3759 30.0557 66.7609 30.5739 66.406 31.2602C66.0511 31.9464 65.9855 32.7444 66.2235 33.4787V33.4633Z" fill="#B8D0E9"/>
<path d="M66.3085 22.2347C62.9692 18.5663 58.6325 15.934 53.8205 14.6547C49.0085 13.3754 43.9265 13.5037 39.1863 15.0241C38.8193 15.1397 38.479 15.3262 38.1849 15.5727C37.8908 15.8192 37.6487 16.121 37.4725 16.4607C37.2962 16.8004 37.1894 17.1713 37.1581 17.5521C37.1268 17.9328 37.1716 18.316 37.29 18.6795C37.3514 18.8795 37.4376 19.0712 37.5465 19.2502C37.8829 19.8243 38.4068 20.2673 39.0314 20.5057C39.6561 20.7441 40.3441 20.7637 40.9815 20.5612C43.5045 19.7641 46.1621 19.4731 48.7995 19.7052C48.4409 20.1291 48.1762 20.6231 48.0224 21.155C47.7575 22.145 47.8998 23.1987 48.4179 24.0846C48.936 24.9704 49.7875 25.6157 50.7851 25.8785C51.7827 26.1413 52.8446 26.0002 53.7373 25.486C54.63 24.9719 55.2803 24.1269 55.5451 23.137C55.6903 22.6041 55.7169 22.0462 55.6228 21.5021C58.0243 22.613 60.1798 24.1857 61.9643 26.1292C62.4858 26.7008 63.2147 27.0435 63.9908 27.0818C64.7669 27.1202 65.5265 26.851 66.1026 26.3335C66.6787 25.8161 67.024 25.0927 67.0626 24.3226C67.1013 23.5524 66.83 22.7986 66.3085 22.227V22.2347Z" fill="#222D55"/>
<path d="M27.9795 45.619C27.1726 43.1135 26.8793 40.473 27.1168 37.8532C27.5641 38.2222 28.0892 38.4868 28.6532 38.6276C29.2173 38.7683 29.8061 38.7816 30.376 38.6665C30.946 38.5513 31.4826 38.3107 31.9463 37.9623C32.4101 37.6138 32.7891 37.1666 33.0554 36.6534C33.3216 36.1403 33.4685 35.5744 33.485 34.9974C33.5015 34.4205 33.3872 33.8472 33.1507 33.3199C32.9141 32.7926 32.5613 32.3247 32.1182 31.9508C31.6751 31.5769 31.1531 31.3064 30.5907 31.1594C30.0536 31.0153 29.4914 30.9889 28.9431 31.0822C30.0626 28.6992 31.6475 26.5603 33.606 24.7894C34.182 24.2719 34.5274 23.5486 34.566 22.7784C34.6046 22.0083 34.3334 21.2545 33.8119 20.6828C33.2904 20.1112 32.5615 19.7685 31.7854 19.7302C31.0093 19.6918 30.2497 19.961 29.6736 20.4785C25.978 23.793 23.3255 28.0962 22.0352 32.8707C20.7448 37.6452 20.8713 42.6879 22.3996 47.3928C22.4676 47.5903 22.5534 47.7813 22.656 47.9634C23.0189 48.5773 23.5961 49.0377 24.2782 49.2575C24.9603 49.4773 25.6999 49.4412 26.357 49.156C27.0141 48.8709 27.5429 48.3565 27.8434 47.7103C28.1438 47.0641 28.195 46.331 27.9872 45.6499L27.9795 45.619Z" fill="#6089BB"/>
<path d="M56.913 60.3901C56.6724 59.6565 56.1494 59.047 55.4579 58.6945C54.7664 58.342 53.9625 58.2751 53.2215 58.5084C50.6978 59.315 48.0368 59.6114 45.3957 59.3798C45.7618 58.961 46.0274 58.4653 46.1728 57.93C46.3211 57.3749 46.3426 56.7939 46.2357 56.2295C46.1288 55.6651 45.8962 55.1316 45.5549 54.6678C45.2136 54.204 44.7722 53.8217 44.263 53.5489C43.7537 53.276 43.1895 53.1195 42.6115 53.0908C42.0335 53.062 41.4564 53.1617 40.9222 53.3826C40.388 53.6035 39.9103 53.9401 39.5239 54.3676C39.1376 54.7952 38.8523 55.303 38.689 55.8539C38.5258 56.4049 38.4886 56.9851 38.5802 57.5521C36.1787 56.4412 34.0232 54.8685 32.2387 52.925C31.9805 52.642 31.6686 52.4121 31.3209 52.2487C30.9732 52.0852 30.5965 51.9913 30.2122 51.9723C29.4361 51.934 28.6765 52.2032 28.1004 52.7207C27.5243 53.2381 27.179 53.9615 27.1403 54.7316C27.1017 55.5017 27.373 56.2556 27.8944 56.8272C31.2346 60.4945 35.571 63.1266 40.3824 64.4071C45.1938 65.6876 50.2755 65.562 55.0167 64.0455C55.7554 63.8085 56.3695 63.2909 56.7248 62.606C57.0801 61.921 57.1478 61.1244 56.913 60.3901Z" fill="#FBB929"/>
<path d="M14.3271 58.3165C13.9893 57.7478 13.8725 57.0762 13.9988 56.428C14.1251 55.7798 14.4858 55.1998 15.0129 54.7971C15.54 54.3943 16.1973 54.1966 16.8611 54.2412C17.5248 54.2857 18.1493 54.5695 18.617 55.039C21.1271 55.3397 31.9216 52.1162 48.7934 42.4455C65.6652 32.7749 73.8796 25.1093 74.8743 22.8035C74.7012 22.1675 74.7677 21.4908 75.0614 20.9C75.3551 20.3092 75.8558 19.8449 76.4697 19.5943C77.0836 19.3436 77.7685 19.3237 78.3962 19.5382C79.0238 19.7528 79.5511 20.1872 79.8791 20.7599C83.8659 27.6157 61.3831 41.4893 51.5212 47.1343C41.6592 52.7794 18.3216 65.1723 14.3271 58.3165Z" fill="url(#paint0_linear_1725_4141)"/>
<path d="M134.17 52.6876C133.961 52.6908 133.754 52.6522 133.56 52.574C133.366 52.4958 133.191 52.3797 133.043 52.2326C132.897 52.0857 132.781 51.911 132.704 51.7189C132.626 51.5268 132.588 51.3212 132.593 51.1144V42.0221C132.597 41.2268 132.435 40.4391 132.119 39.7086C131.822 38.9914 131.386 38.3389 130.836 37.7883C130.279 37.245 129.622 36.813 128.901 36.5159C128.165 36.2014 127.371 36.0413 126.57 36.0454C125.768 36.0395 124.974 36.1997 124.238 36.5159C123.521 36.8156 122.867 37.2473 122.311 37.7883C121.747 38.3371 121.298 38.9923 120.993 39.7154C120.687 40.4384 120.53 41.2149 120.531 41.999C120.531 42.0452 120.531 42.053 120.531 41.999C120.531 41.9527 120.531 41.9218 120.531 41.999V51.1298C120.531 51.546 120.365 51.9452 120.068 52.2395C119.772 52.5338 119.369 52.6991 118.95 52.6991C118.53 52.6991 118.128 52.5338 117.832 52.2395C117.535 51.9452 117.368 51.546 117.368 51.1298V42.0221C117.362 41.9632 117.362 41.9037 117.368 41.8447C117.372 41.7857 117.372 41.7264 117.368 41.6674C117.454 39.3785 118.415 37.208 120.057 35.5981C120.908 34.7459 121.923 34.072 123.042 33.6162C124.161 33.1596 125.36 32.9264 126.57 32.9299C127.775 32.9225 128.969 33.1549 130.083 33.6131C131.196 34.0714 132.205 34.7464 133.051 35.5981C133.906 36.4459 134.585 37.4521 135.048 38.5595C135.508 39.6663 135.756 40.8484 135.779 42.0452V51.1144C135.779 51.5234 135.615 51.9157 135.324 52.205C135.032 52.4942 134.637 52.6567 134.225 52.6567L134.17 52.6876Z" fill="white"/>
<path d="M95.691 32.933C96.1033 32.933 96.4986 33.0955 96.7901 33.3848C97.0816 33.674 97.2453 34.0663 97.2453 34.4754V43.5754C97.2449 44.366 97.4043 45.1488 97.7139 45.8773C98.0236 46.6058 98.4773 47.2654 99.0483 47.8169C99.6093 48.3552 100.265 48.7865 100.983 49.0893C101.721 49.3977 102.514 49.5566 103.315 49.5566C104.116 49.5566 104.908 49.3977 105.646 49.0893C106.361 48.784 107.014 48.3529 107.574 47.8169C108.129 47.2722 108.573 46.6252 108.879 45.9121C109.196 45.1816 109.358 44.3939 109.353 43.5985C109.353 43.5445 109.353 43.5522 109.353 43.5985C109.353 43.6448 109.353 43.6679 109.353 43.5985L109.392 34.46C109.392 34.0438 109.559 33.6446 109.855 33.3503C110.152 33.056 110.554 32.8906 110.974 32.8906C111.393 32.8906 111.795 33.056 112.092 33.3503C112.388 33.6446 112.555 34.0438 112.555 34.46V43.5599C112.561 43.6163 112.561 43.6732 112.555 43.7296C112.548 43.7885 112.548 43.848 112.555 43.907C112.481 45.6468 111.907 47.3295 110.902 48.757C109.897 50.1846 108.503 51.2978 106.882 51.9658C105.76 52.4232 104.559 52.6565 103.346 52.6522C102.141 52.6571 100.947 52.4238 99.8332 51.9658C97.5984 51.0283 95.8199 49.2633 94.875 47.0457C94.4156 45.9389 94.1678 44.7568 94.1445 43.5599V34.4985C94.1445 34.0895 94.3083 33.6972 94.5998 33.4079C94.8913 33.1187 95.2866 32.9562 95.6988 32.9562L95.691 32.933Z" fill="white"/>
<path d="M210.484 52.6875C210.071 52.6875 209.676 52.525 209.385 52.2357C209.093 51.9465 208.929 51.5542 208.929 51.1451V42.022C208.93 41.2324 208.771 40.4506 208.462 39.7232C208.152 38.9958 207.698 38.3378 207.126 37.7882C206.569 37.2449 205.912 36.8129 205.191 36.5158C204.455 36.2013 203.661 36.0412 202.86 36.0453C202.058 36.0394 201.264 36.1996 200.528 36.5158C199.807 36.8134 199.151 37.2454 198.593 37.7882C198.029 38.337 197.581 38.9922 197.275 39.7153C196.969 40.4384 196.813 41.2148 196.814 41.9989C196.814 42.0451 196.814 42.0529 196.814 41.9989C196.814 41.9218 196.814 41.9526 196.814 41.9989L196.775 51.1297C196.775 51.5449 196.609 51.9431 196.313 52.2367C196.017 52.5303 195.616 52.6952 195.197 52.6952C194.779 52.6952 194.378 52.5303 194.082 52.2367C193.786 51.9431 193.62 51.5449 193.62 51.1297V42.022C193.616 41.9629 193.616 41.9037 193.62 41.8446C193.626 41.7857 193.626 41.7262 193.62 41.6673C193.669 40.5261 193.933 39.4041 194.397 38.3589C195.358 36.215 197.11 34.5178 199.293 33.6161C200.415 33.1595 201.616 32.9263 202.829 32.9298C204.034 32.9249 205.228 33.1582 206.341 33.6161C207.453 34.0723 208.46 34.7464 209.302 35.5981C210.171 36.4409 210.861 37.4478 211.331 38.5594C211.794 39.6651 212.042 40.8479 212.061 42.0451V51.1143C212.065 51.3211 212.028 51.5267 211.95 51.7188C211.873 51.9109 211.757 52.0856 211.61 52.2325C211.463 52.3796 211.287 52.4957 211.094 52.5739C210.9 52.6521 210.693 52.6907 210.484 52.6875Z" fill="white"/>
<path d="M227.194 52.6889C225.939 52.6949 224.695 52.4564 223.533 51.9872C222.386 51.5221 221.333 50.856 220.425 50.0206C219.478 49.1499 218.714 48.1014 218.179 46.9359C217.64 45.7482 217.341 44.4668 217.3 43.1648C217.227 41.8623 217.42 40.5585 217.868 39.332C218.814 36.8899 220.689 34.9149 223.09 33.8335C224.283 33.3001 225.568 33.0016 226.875 32.9544C228.186 32.8977 229.495 33.1076 230.722 33.5713C231.941 34.0302 233.055 34.7249 234.001 35.6149C234.158 35.7572 234.284 35.9298 234.371 36.1221C234.457 36.3145 234.504 36.5224 234.506 36.7332C234.524 37.156 234.373 37.5687 234.087 37.8822C233.945 38.0386 233.771 38.1634 233.576 38.2484C233.382 38.3335 233.172 38.3769 232.96 38.3758C232.748 38.3883 232.537 38.3578 232.338 38.2862C232.138 38.2146 231.956 38.1034 231.802 37.9593C231.169 37.3467 230.416 36.8686 229.59 36.5544C228.765 36.2401 227.883 36.0963 226.999 36.1316C226.108 36.1815 225.232 36.385 224.411 36.7332C223.596 37.0894 222.867 37.6154 222.274 38.2755C221.06 39.5746 220.412 41.2971 220.472 43.068C220.531 44.8388 221.294 46.5146 222.593 47.7302C223.237 48.355 224.008 48.8362 224.854 49.1415C225.665 49.4454 226.529 49.587 227.396 49.5579C229.185 49.4767 230.871 48.7013 232.09 47.3986C232.231 47.2473 232.401 47.1256 232.591 47.0409C232.78 46.9561 232.985 46.9099 233.193 46.9051C233.402 46.8946 233.611 46.9262 233.807 46.9977C234.003 47.0693 234.183 47.1794 234.335 47.3215C234.488 47.4617 234.611 47.6309 234.696 47.819C234.781 48.0071 234.828 48.2103 234.833 48.4166C234.843 48.6238 234.812 48.8311 234.739 49.0259C234.667 49.2207 234.556 49.399 234.413 49.5502C233.543 50.5053 232.485 51.2742 231.305 51.8098C230.112 52.3422 228.827 52.6408 227.52 52.6889H227.194Z" fill="white"/>
<path d="M188.569 38.8836C188.081 37.7171 187.368 36.6563 186.471 35.7603C185.551 34.872 184.474 34.1608 183.292 33.6627C182.125 33.1703 180.869 32.921 179.601 32.9301C177.681 32.9134 175.799 33.467 174.198 34.5196C172.597 35.5723 171.35 37.0759 170.617 38.8373C170.14 40.0114 169.892 41.2651 169.887 42.5313C169.888 42.9619 169.916 43.3921 169.972 43.8192C170.079 44.8845 170.357 45.9259 170.796 46.9039C171.332 48.0694 172.095 49.1179 173.042 49.9886C173.951 50.8239 175.004 51.4901 176.15 51.9551C177.312 52.425 178.556 52.6634 179.811 52.6569H180.137C181.442 52.6087 182.724 52.3102 183.914 51.7778C185.095 51.2433 186.153 50.4743 187.023 49.5182C187.166 49.367 187.277 49.1886 187.349 48.9938C187.421 48.799 187.453 48.5918 187.442 48.3846C187.44 48.1771 187.394 47.9724 187.307 47.7838C187.22 47.5951 187.094 47.4267 186.937 47.2895C186.786 47.1483 186.607 47.0388 186.412 46.9672C186.218 46.8957 186.01 46.8637 185.803 46.873C185.595 46.8779 185.39 46.9241 185.2 47.0088C185.011 47.0936 184.84 47.2153 184.699 47.3666C183.464 48.6567 181.766 49.4129 179.974 49.4719C179.108 49.5009 178.244 49.3594 177.433 49.0555C176.586 48.7502 175.815 48.269 175.171 47.6442C174.139 46.7158 173.44 45.4783 173.182 44.1199H187.606C188.021 44.1128 188.419 43.9498 188.719 43.6637C189.019 43.3777 189.199 42.9896 189.222 42.5776V42.5236C189.247 41.2795 189.025 40.0427 188.569 38.8836ZM173.329 40.9195C173.691 39.5575 174.487 38.3482 175.599 37.4723C176.156 37.0366 176.781 36.6929 177.448 36.4544C178.14 36.2053 178.873 36.0901 179.609 36.115C180.502 36.1088 181.387 36.2901 182.204 36.6472C182.989 36.9914 183.699 37.4838 184.295 38.097C185.049 38.8987 185.584 39.8782 185.849 40.9426L173.329 40.9195Z" fill="white"/>
<path d="M258.257 38.8836C257.779 37.7173 257.074 36.6559 256.182 35.7603C255.261 34.8737 254.183 34.1627 253.003 33.6627C251.836 33.1703 250.58 32.921 249.312 32.9301C247.392 32.9134 245.51 33.467 243.909 34.5196C242.308 35.5723 241.061 37.0759 240.328 38.8373C239.851 40.0114 239.603 41.2651 239.598 42.5313C239.599 42.9619 239.627 43.3921 239.683 43.8192C239.913 46.1769 241.002 48.3704 242.745 49.9886C243.666 50.8272 244.732 51.4934 245.893 51.9551C247.054 52.425 248.298 52.6634 249.553 52.6569H249.871C251.179 52.6097 252.464 52.3111 253.656 51.7778C254.837 51.2433 255.895 50.4743 256.765 49.5182C257.047 49.2086 257.198 48.8021 257.184 48.3846C257.179 48.1777 257.131 47.9742 257.044 47.7861C256.957 47.5979 256.833 47.4291 256.679 47.2895C256.527 47.1474 256.347 47.0372 256.151 46.9657C255.955 46.8941 255.746 46.8626 255.537 46.873C255.33 46.8762 255.126 46.9217 254.937 47.0066C254.749 47.0915 254.58 47.2141 254.441 47.3666C253.815 48.0203 253.065 48.5446 252.234 48.909C251.44 49.2583 250.585 49.4521 249.716 49.4796C248.85 49.5087 247.986 49.3671 247.175 49.0632C246.328 48.7579 245.557 48.2767 244.913 47.6519C243.906 46.7203 243.225 45.4935 242.97 44.1508H257.394C257.811 44.1456 258.211 43.9835 258.513 43.6972C258.814 43.4109 258.995 43.0218 259.018 42.6084V42.5544C259.017 41.2924 258.758 40.0437 258.257 38.8836ZM243.017 40.9195C243.198 40.2359 243.492 39.5869 243.887 38.9993C244.265 38.4098 244.741 37.8883 245.294 37.4569C245.85 37.0196 246.475 36.6757 247.144 36.4389C247.835 36.1899 248.569 36.0747 249.304 36.0996C250.198 36.0933 251.082 36.2747 251.9 36.6317C252.685 36.976 253.395 37.4684 253.99 38.0816C254.745 38.8829 255.28 39.8626 255.545 40.9272L243.017 40.9195Z" fill="white"/>
<path d="M143.137 52.6891C142.918 52.6922 142.701 52.6516 142.498 52.5697C142.295 52.4878 142.111 52.3662 141.957 52.2122C141.802 52.0582 141.681 51.875 141.599 51.6734C141.517 51.4718 141.478 51.256 141.482 51.0387V34.5817C141.473 34.3642 141.511 34.1473 141.592 33.9452C141.674 33.7432 141.798 33.5606 141.956 33.4095C142.27 33.1116 142.687 32.9453 143.121 32.9453C143.556 32.9453 143.973 33.1116 144.287 33.4095C144.445 33.5606 144.569 33.7432 144.651 33.9452C144.732 34.1473 144.77 34.3642 144.761 34.5817V51.0387C144.768 51.256 144.729 51.4722 144.647 51.6739C144.566 51.8755 144.443 52.0584 144.287 52.2109C144.137 52.3626 143.958 52.483 143.761 52.5651C143.563 52.6472 143.351 52.6894 143.137 52.6891Z" fill="white"/>
<path d="M144.791 29.6362C144.789 30.0141 144.655 30.3796 144.412 30.6705C144.169 30.9615 143.832 31.1598 143.458 31.232C143.084 31.3041 142.697 31.2455 142.362 31.0661C142.026 30.8867 141.764 30.5977 141.62 30.2481C141.475 29.8985 141.457 29.51 141.568 29.1487C141.68 28.7873 141.914 28.4754 142.231 28.266C142.548 28.0567 142.928 27.9628 143.307 28.0003C143.686 28.0378 144.04 28.2044 144.309 28.4717C144.468 28.6213 144.592 28.8023 144.675 29.003C144.758 29.2036 144.798 29.4194 144.791 29.6362Z" fill="white"/>
<path d="M164.694 21.409C164.695 21.1923 164.652 20.9776 164.569 20.7774C164.486 20.5771 164.363 20.3953 164.208 20.2424C164.054 20.0896 163.87 19.9688 163.668 19.8871C163.466 19.8053 163.249 19.7643 163.031 19.7664C162.812 19.7597 162.595 19.7988 162.392 19.8812C162.19 19.9636 162.008 20.0874 161.857 20.2445C161.701 20.3955 161.577 20.5768 161.494 20.7771C161.412 20.9774 161.371 21.1925 161.375 21.409V51.0301C161.373 51.2474 161.415 51.4629 161.498 51.6641C161.581 51.8653 161.703 52.048 161.858 52.2017C162.013 52.3553 162.197 52.4768 162.4 52.559C162.602 52.6412 162.819 52.6825 163.038 52.6804C163.256 52.6838 163.473 52.6432 163.675 52.561C163.876 52.4788 164.059 52.3568 164.212 52.2023C164.368 52.0493 164.491 51.8666 164.574 51.6651C164.656 51.4637 164.697 51.2477 164.694 51.0301V21.409Z" fill="white"/>
<path d="M154.748 21.4083C154.749 21.1917 154.707 20.977 154.624 20.7767C154.54 20.5764 154.418 20.3946 154.263 20.2418C154.108 20.0889 153.924 19.9681 153.722 19.8864C153.52 19.8047 153.303 19.7637 153.085 19.7657C152.867 19.7647 152.652 19.8065 152.45 19.8887C152.249 19.9708 152.066 20.0918 151.912 20.2445C151.758 20.3973 151.636 20.5788 151.554 20.7785C151.471 20.9783 151.429 21.1923 151.43 21.4083V51.0295C151.428 51.2461 151.469 51.461 151.551 51.6616C151.634 51.8623 151.755 52.0447 151.91 52.1982C152.064 52.3518 152.247 52.4734 152.449 52.5561C152.65 52.6388 152.867 52.6808 153.085 52.6798C153.304 52.6819 153.521 52.6406 153.724 52.5584C153.927 52.4762 154.111 52.3547 154.266 52.201C154.421 52.0474 154.543 51.8646 154.626 51.6634C154.709 51.4623 154.75 51.2468 154.748 51.0295V21.4083Z" fill="white"/>
</g>
<defs>
<linearGradient id="paint0_linear_1725_4141" x1="15.8536" y1="60.9408" x2="81.153" y2="22.9488" gradientUnits="userSpaceOnUse">
<stop offset="0.05" stop-color="#B8D0E9"/>
<stop offset="0.07" stop-color="#AAC0DB"/>
<stop offset="0.16" stop-color="#617293"/>
<stop offset="0.23" stop-color="#344066"/>
<stop offset="0.26" stop-color="#222D55"/>
<stop offset="0.37" stop-color="#252F54"/>
<stop offset="0.44" stop-color="#2E3453"/>
<stop offset="0.5" stop-color="#3D3E50"/>
<stop offset="0.56" stop-color="#524C4B"/>
<stop offset="0.61" stop-color="#6D5E46"/>
<stop offset="0.65" stop-color="#8F743F"/>
<stop offset="0.7" stop-color="#B78D37"/>
<stop offset="0.74" stop-color="#E5AB2D"/>
<stop offset="0.76" stop-color="#FBB929"/>
</linearGradient>
<clipPath id="clip0_1725_4141">
<rect width="272" height="79" fill="white" transform="translate(0.5)"/>
</clipPath>
</defs>
</svg>
