<svg width="50" height="21" viewBox="0 0 50 21" fill="none" xmlns="http://www.w3.org/2000/svg">
<path d="M39.2731 3.13644C39.1572 3.13644 39.0596 3.17791 39.0106 3.25907C38.9598 3.3429 38.9677 3.45082 39.0215 3.56007L40.3233 5.85662C40.3255 5.86108 40.3255 5.86375 40.3233 5.86776L38.2776 9.5467C38.2242 9.65506 38.2269 9.76386 38.2776 9.8477C38.3266 9.92841 38.4133 9.98148 38.5292 9.98148H40.4546C40.7425 9.98148 40.8813 9.78348 40.9797 9.60244C40.9797 9.60244 42.9804 5.99664 43.0583 5.85662C43.0504 5.84368 41.7346 3.50433 41.7346 3.50433C41.6387 3.33042 41.4939 3.13644 41.1985 3.13644H39.2731ZM30.7949 7.42852C27.807 7.42852 26.1674 9.20511 26.1674 12.4229V15.812C26.1674 18.8854 27.6031 20.4497 30.4448 20.4497C32.7426 20.4497 34.6032 19.5342 34.7332 19.4687V13.3817C34.7332 13.1926 34.6014 13.0584 34.4159 13.0584H30.6089C30.4234 13.0584 30.2917 13.1926 30.2917 13.3817V14.9425C30.2917 15.1315 30.4234 15.2658 30.6089 15.2658H32.3811C32.3886 15.2658 32.3921 15.2693 32.3921 15.2769V17.9079C32.3921 17.9137 32.3859 17.9173 32.3811 17.919C32.3728 17.9226 31.5462 18.2423 30.5214 18.2423C29.1675 18.2423 28.5085 17.3862 28.5085 15.6337V12.4229C28.5085 11.5119 28.6844 10.8421 29.0445 10.3828C29.4388 9.88025 30.0348 9.63588 30.8824 9.63588H31.2543C32.4848 9.63588 33.4353 9.91593 34.044 10.1153C34.1385 10.146 34.2251 10.13 34.2846 10.0818C34.3455 10.0328 34.3831 9.94937 34.3831 9.8477V8.35383C34.3831 8.18482 34.3017 8.08984 34.0549 7.96364C33.7403 7.8031 32.8445 7.42852 31.2981 7.42852H30.7949ZM0.40444 7.59575C0.316047 7.59575 0.247346 7.63053 0.207526 7.69608C0.164205 7.76698 0.164642 7.86509 0.207526 7.95249L3.33627 13.7607C3.33846 13.7648 3.33846 13.779 3.33627 13.783L0.0324909 19.8811C-0.0108303 19.969 -0.0108303 20.0667 0.0324909 20.1376C0.0718737 20.2031 0.141012 20.2379 0.229405 20.2379H2.36264C2.60682 20.2379 2.6939 20.0983 2.78929 19.9034L4.97723 15.8009C4.97942 15.7964 4.98335 15.7897 4.98817 15.7897C4.99342 15.7897 4.99692 15.7964 4.99911 15.8009L7.19798 19.9034C7.29294 20.0979 7.36952 20.2379 7.61369 20.2379H9.75787C9.84626 20.2379 9.9154 20.2031 9.95478 20.1376C9.97666 20.1019 9.9876 20.0582 9.9876 20.0149C9.9876 19.9712 9.97622 19.9253 9.95478 19.8811L6.64006 13.783C6.63875 13.7808 6.64006 13.7741 6.64006 13.7719C6.64006 13.7697 6.63875 13.7625 6.64006 13.7607L9.77975 7.95249C9.80119 7.90834 9.81257 7.86241 9.81257 7.81871C9.81257 7.77546 9.80119 7.73131 9.77975 7.69608C9.73993 7.63053 9.67079 7.59575 9.58283 7.59575H7.43866C7.19448 7.59575 7.1074 7.73577 7.01201 7.9302L4.99911 11.7429C4.99692 11.7469 4.99342 11.7541 4.98817 11.7541C4.98335 11.7541 4.97942 11.7469 4.97723 11.7429L2.96433 7.9302C2.88468 7.76699 2.80067 7.59575 2.53768 7.59575H0.40444ZM11.541 7.59575C11.3559 7.59575 11.2238 7.73042 11.2238 7.91905V19.9146C11.2238 20.1032 11.3559 20.2379 11.541 20.2379H13.2367C13.4218 20.2379 13.5539 20.1032 13.5539 19.9146V7.91905C13.5539 7.73042 13.4218 7.59575 13.2367 7.59575H11.541ZM16.0701 7.59575C15.885 7.59575 15.7419 7.73042 15.7419 7.91905V19.9146C15.7419 20.1032 15.885 20.2379 16.0701 20.2379H17.7657C17.9508 20.2379 18.083 20.1032 18.083 19.9146V12.6794C18.083 12.6731 18.0882 12.6695 18.0939 12.6682C18.0996 12.6664 18.1022 12.674 18.1048 12.6794L21.7806 19.9034C21.8563 20.0577 21.974 20.2379 22.2072 20.2379H23.9795C24.1646 20.2379 24.2967 20.1032 24.2967 19.9146V7.91905C24.2967 7.73042 24.1646 7.59575 23.9795 7.59575H22.2838C22.0987 7.59575 21.9666 7.73042 21.9666 7.91905V15.1431C21.9666 15.1494 21.9613 15.1529 21.9556 15.1543C21.9499 15.1561 21.9368 15.1596 21.9337 15.1543L18.258 7.9302C18.1775 7.76743 18.0943 7.59575 17.8314 7.59575H16.0701Z" fill="#2A2A2A"/>
<path d="M47.3618 0.449707C47.0743 0.449707 46.9496 0.634328 46.8463 0.823403C46.8463 0.823403 42.6985 8.3195 42.5619 8.56565C42.5689 8.57903 45.2977 13.6805 45.2977 13.6805C45.3931 13.8544 45.5406 14.0542 45.8355 14.0542H47.7587C47.8747 14.0542 47.9653 14.0096 48.0143 13.9289C48.0655 13.845 48.0642 13.7344 48.0103 13.6256L45.296 8.57189C45.2933 8.56788 45.2933 8.56298 45.296 8.55897L49.5589 0.877805C49.6123 0.769444 49.6136 0.658851 49.5629 0.575016C49.5139 0.494303 49.4229 0.449707 49.3069 0.449707H47.3618Z" fill="#2A2A2A"/>
</svg>
