<svg width="66" height="36" viewBox="0 0 66 36" fill="none" xmlns="http://www.w3.org/2000/svg">
<rect width="65.6" height="36" rx="4" fill="white" fill-opacity="0.16"/>
<path d="M47.2731 10.6867C47.1572 10.6867 47.0596 10.7282 47.0106 10.8094C46.9598 10.8932 46.9677 11.0011 47.0215 11.1104L48.3233 13.4069C48.3255 13.4114 48.3255 13.414 48.3233 13.4181L46.2776 17.097C46.2242 17.2053 46.2269 17.3142 46.2776 17.398C46.3266 17.4787 46.4133 17.5318 46.5292 17.5318H48.4546C48.7425 17.5318 48.8813 17.3338 48.9797 17.1527C48.9797 17.1527 50.9804 13.5469 51.0583 13.4069C51.0504 13.394 49.7346 11.0546 49.7346 11.0546C49.6387 10.8807 49.4939 10.6867 49.1985 10.6867H47.2731ZM38.7949 14.9788C35.807 14.9788 34.1674 16.7554 34.1674 19.9732V23.3623C34.1674 26.4357 35.6031 28 38.4448 28C40.7426 28 42.6032 27.0845 42.7332 27.019V20.932C42.7332 20.7429 42.6014 20.6087 42.4159 20.6087H38.6089C38.4234 20.6087 38.2917 20.7429 38.2917 20.932V22.4928C38.2917 22.6818 38.4234 22.8161 38.6089 22.8161H40.3811C40.3886 22.8161 40.3921 22.8196 40.3921 22.8272V25.4582C40.3921 25.464 40.3859 25.4676 40.3811 25.4693C40.3728 25.4729 39.5462 25.7926 38.5214 25.7926C37.1675 25.7926 36.5085 24.9365 36.5085 23.1839V19.9732C36.5085 19.0622 36.6844 18.3924 37.0445 17.9331C37.4388 17.4305 38.0348 17.1862 38.8824 17.1862H39.2543C40.4848 17.1862 41.4353 17.4662 42.044 17.6656C42.1385 17.6963 42.2251 17.6803 42.2846 17.6321C42.3455 17.5831 42.3831 17.4997 42.3831 17.398V15.9041C42.3831 15.7351 42.3017 15.6401 42.0549 15.5139C41.7403 15.3534 40.8445 14.9788 39.2981 14.9788H38.7949ZM8.40444 15.146C8.31605 15.146 8.24735 15.1808 8.20753 15.2464C8.1642 15.3173 8.16464 15.4154 8.20753 15.5028L11.3363 21.311C11.3385 21.315 11.3385 21.3293 11.3363 21.3333L8.03249 27.4314C7.98917 27.5193 7.98917 27.6169 8.03249 27.6878C8.07187 27.7534 8.14101 27.7882 8.22941 27.7882H10.3626C10.6068 27.7882 10.6939 27.6486 10.7893 27.4537L12.9772 23.3512C12.9794 23.3467 12.9834 23.34 12.9882 23.34C12.9934 23.34 12.9969 23.3467 12.9991 23.3512L15.198 27.4537C15.2929 27.6482 15.3695 27.7882 15.6137 27.7882H17.7579C17.8463 27.7882 17.9154 27.7534 17.9548 27.6878C17.9767 27.6522 17.9876 27.6085 17.9876 27.5652C17.9876 27.5215 17.9762 27.4756 17.9548 27.4314L14.6401 21.3333C14.6387 21.3311 14.6401 21.3244 14.6401 21.3222C14.6401 21.32 14.6387 21.3128 14.6401 21.311L17.7797 15.5028C17.8012 15.4586 17.8126 15.4127 17.8126 15.369C17.8126 15.3258 17.8012 15.2816 17.7797 15.2464C17.7399 15.1808 17.6708 15.146 17.5828 15.146H15.4387C15.1945 15.146 15.1074 15.2861 15.012 15.4805L12.9991 19.2932C12.9969 19.2972 12.9934 19.3043 12.9882 19.3043C12.9834 19.3043 12.9794 19.2972 12.9772 19.2932L10.9643 15.4805C10.8847 15.3173 10.8007 15.146 10.5377 15.146H8.40444ZM19.541 15.146C19.3559 15.146 19.2238 15.2807 19.2238 15.4693V27.4649C19.2238 27.6535 19.3559 27.7882 19.541 27.7882H21.2367C21.4218 27.7882 21.5539 27.6535 21.5539 27.4649V15.4693C21.5539 15.2807 21.4218 15.146 21.2367 15.146H19.541ZM24.0701 15.146C23.885 15.146 23.7419 15.2807 23.7419 15.4693V27.4649C23.7419 27.6535 23.885 27.7882 24.0701 27.7882H25.7657C25.9508 27.7882 26.083 27.6535 26.083 27.4649V20.2297C26.083 20.2234 26.0882 20.2198 26.0939 20.2185C26.0996 20.2167 26.1022 20.2243 26.1048 20.2297L29.7806 27.4537C29.8563 27.608 29.974 27.7882 30.2072 27.7882H31.9795C32.1646 27.7882 32.2967 27.6535 32.2967 27.4649V15.4693C32.2967 15.2807 32.1646 15.146 31.9795 15.146H30.2838C30.0987 15.146 29.9666 15.2807 29.9666 15.4693V22.6934C29.9666 22.6997 29.9613 22.7032 29.9556 22.7046C29.9499 22.7064 29.9368 22.7099 29.9337 22.7046L26.258 15.4805C26.1775 15.3177 26.0943 15.146 25.8314 15.146H24.0701Z" fill="white"/>
<path d="M55.3618 8C55.0743 8 54.9496 8.18462 54.8463 8.3737C54.8463 8.3737 50.6985 15.8698 50.5619 16.1159C50.5689 16.1293 53.2977 21.2308 53.2977 21.2308C53.3931 21.4047 53.5406 21.6045 53.8355 21.6045H55.7587C55.8747 21.6045 55.9653 21.5599 56.0143 21.4792C56.0655 21.3953 56.0642 21.2847 56.0103 21.1759L53.296 16.1222C53.2934 16.1182 53.2934 16.1133 53.296 16.1093L57.5589 8.4281C57.6123 8.31974 57.6136 8.20914 57.5629 8.12531C57.5139 8.0446 57.4229 8 57.3069 8H55.3618Z" fill="white"/>
</svg>
