<svg width="20" height="21" viewBox="0 0 20 21" fill="none" xmlns="http://www.w3.org/2000/svg">
<path fill-rule="evenodd" clip-rule="evenodd" d="M17.1631 4.16653C17.9524 4.37781 18.5727 4.99808 18.784 5.78738C19.1658 7.21655 19.1673 10.2002 19.1673 10.2002C19.1673 10.2002 19.1673 13.1838 18.784 14.613C18.5727 15.4023 17.9524 16.0225 17.1631 16.2338C15.734 16.6171 10.0006 16.6171 10.0006 16.6171C10.0006 16.6171 4.26733 16.6171 2.83815 16.2338C2.04886 16.0225 1.4286 15.4023 1.21731 14.613C0.833984 13.1838 0.833984 10.2002 0.833984 10.2002C0.833984 10.2002 0.833984 7.21655 1.21731 5.78738C1.4286 4.99808 2.04886 4.37781 2.83815 4.16653C4.26733 3.7832 10.0006 3.7832 10.0006 3.7832C10.0006 3.7832 15.734 3.7832 17.1631 4.16653ZM12.9285 10.2004L8.16555 12.9501V7.45071L12.9285 10.2004Z" fill="#2A2A2A"/>
</svg>
