<svg width="36" height="36" viewBox="0 0 36 36" fill="none" xmlns="http://www.w3.org/2000/svg">
<rect width="36" height="36" rx="4" fill="white" fill-opacity="0.16"/>
<path fill-rule="evenodd" clip-rule="evenodd" d="M25.1631 11.7168C25.9524 11.9281 26.5727 12.5484 26.784 13.3377C27.1658 14.7668 27.1673 17.7505 27.1673 17.7505C27.1673 17.7505 27.1673 20.7341 26.784 22.1633C26.5727 22.9526 25.9524 23.5728 25.1631 23.7841C23.734 24.1674 18.0006 24.1674 18.0006 24.1674C18.0006 24.1674 12.2673 24.1674 10.8382 23.7841C10.0489 23.5728 9.4286 22.9526 9.21731 22.1633C8.83398 20.7341 8.83398 17.7505 8.83398 17.7505C8.83398 17.7505 8.83398 14.7668 9.21731 13.3377C9.4286 12.5484 10.0489 11.9281 10.8382 11.7168C12.2673 11.3335 18.0006 11.3335 18.0006 11.3335C18.0006 11.3335 23.734 11.3335 25.1631 11.7168ZM20.9285 17.7507L16.1656 20.5004V15.001L20.9285 17.7507Z" fill="white"/>
</svg>
