<svg width="532" height="79" viewBox="0 0 532 79" fill="none" xmlns="http://www.w3.org/2000/svg">
<g clip-path="url(#clip0_1748_2394)">
<path d="M61.3959 25.6961C61.3296 25.5825 61.2724 25.4639 61.2249 25.3414C61.0931 25.0093 61.0288 24.6547 61.0357 24.2979C61.0425 23.941 61.1204 23.5891 61.2649 23.2622C61.4093 22.9354 61.6175 22.6402 61.8774 22.3935C62.1373 22.1468 62.4437 21.9535 62.7792 21.8248C72.6256 17.9303 77.6071 17.6141 79.4411 20.7606C79.7624 21.3277 79.8677 21.9904 79.7379 22.6281C79.6081 23.2657 79.2519 23.836 78.734 24.2349C78.2162 24.6339 77.5712 24.835 76.9165 24.8017C76.2618 24.7684 75.6409 24.5029 75.1668 24.0535C74.4441 23.9995 71.7707 24.0998 64.7997 26.8529C64.1877 27.1045 63.5042 27.1258 62.8775 26.9128C62.2508 26.6998 61.724 26.2672 61.3959 25.6961Z" fill="#FBB929"/>
<path d="M13.8255 58.3172C11.9914 55.1707 14.7658 51.0449 23.0812 44.5284C23.361 44.2902 23.6863 44.1106 24.0377 44.0003C24.3892 43.8901 24.7594 43.8514 25.1263 43.8867C25.4932 43.9219 25.8491 44.0304 26.1726 44.2056C26.4962 44.3808 26.7807 44.619 27.0092 44.906C27.2376 45.193 27.4053 45.5229 27.5021 45.8758C27.5988 46.2288 27.6227 46.5975 27.5724 46.9598C27.522 47.3221 27.3983 47.6706 27.2088 47.9843C27.0193 48.298 26.7678 48.5705 26.4696 48.7853C20.5711 53.4124 19.1489 55.6411 18.8303 56.2889C18.9954 56.923 18.9233 57.595 18.6273 58.1803C18.3313 58.7656 17.8315 59.2246 17.2206 59.4722C16.6096 59.7198 15.9289 59.7392 15.3046 59.5268C14.6803 59.3144 14.1548 58.8847 13.8255 58.3172Z" fill="#B8D0E9"/>
<path d="M65.7235 33.4613C66.5273 35.9675 66.8205 38.6074 66.5862 41.2271C66.163 40.8654 65.6639 40.602 65.1251 40.456C64.1296 40.1911 63.0688 40.3295 62.1762 40.8408C61.2835 41.352 60.6321 42.1942 60.3651 43.1821C60.0982 44.17 60.2377 45.2226 60.7529 46.1084C61.2681 46.9943 62.1168 47.6407 63.1123 47.9056C63.6505 48.0436 64.2119 48.0672 64.7599 47.975C63.6427 50.3617 62.0576 52.5035 60.097 54.2756C59.6016 54.7209 59.275 55.3214 59.1718 55.9768C59.0685 56.6322 59.1949 57.3029 59.5297 57.877C59.6328 58.0567 59.7553 58.2248 59.895 58.3783C60.1514 58.6638 60.462 58.8963 60.8091 59.0625C61.1562 59.2287 61.5329 59.3253 61.9177 59.3468C62.3025 59.3683 62.6877 59.3142 63.0514 59.1877C63.4151 59.0612 63.7501 58.8648 64.0371 58.6096C67.7339 55.2959 70.3865 50.9924 71.6757 46.2173C72.9649 41.4422 72.8356 36.3992 71.3034 31.6953C71.0654 30.9611 70.5431 30.3507 69.8516 29.9985C69.16 29.6464 68.3558 29.5813 67.6159 29.8175C66.8759 30.0537 66.2609 30.572 65.906 31.2582C65.5511 31.9445 65.4855 32.7425 65.7235 33.4768V33.4613Z" fill="#B8D0E9"/>
<path d="M65.8085 22.2327C62.4692 18.5644 58.1325 15.9321 53.3205 14.6528C48.5085 13.3735 43.4265 13.5018 38.6863 15.0222C38.3193 15.1378 37.979 15.3242 37.6849 15.5707C37.3908 15.8173 37.1487 16.1191 36.9725 16.4587C36.7962 16.7984 36.6894 17.1693 36.6581 17.5501C36.6268 17.9309 36.6716 18.314 36.79 18.6776C36.8514 18.8776 36.9376 19.0693 37.0465 19.2483C37.3829 19.8224 37.9068 20.2653 38.5314 20.5037C39.1561 20.7421 39.8441 20.7617 40.4815 20.5593C43.0045 19.7621 45.6621 19.4711 48.2995 19.7033C47.9409 20.1271 47.6762 20.6211 47.5224 21.1531C47.2575 22.143 47.3998 23.1968 47.9179 24.0826C48.436 24.9684 49.2875 25.6138 50.2851 25.8766C51.2827 26.1394 52.3446 25.9982 53.2373 25.4841C54.13 24.9699 54.7803 24.1249 55.0451 23.135C55.1903 22.6021 55.2169 22.0442 55.1228 21.5001C57.5243 22.611 59.6798 24.1838 61.4643 26.1272C61.9858 26.6989 62.7147 27.0416 63.4908 27.0799C64.2669 27.1182 65.0265 26.849 65.6026 26.3316C66.1787 25.8141 66.524 25.0908 66.5626 24.3206C66.6013 23.5505 66.33 22.7967 65.8085 22.225V22.2327Z" fill="#222D55"/>
<path d="M27.4795 45.6151C26.6726 43.1096 26.3793 40.4691 26.6168 37.8493C27.0641 38.2183 27.5892 38.4829 28.1532 38.6237C28.7173 38.7644 29.3061 38.7777 29.876 38.6626C30.446 38.5474 30.9826 38.3068 31.4463 37.9583C31.9101 37.6099 32.2891 37.1627 32.5554 36.6495C32.8216 36.1364 32.9685 35.5705 32.985 34.9935C33.0015 34.4166 32.8872 33.8433 32.6507 33.316C32.4141 32.7887 32.0613 32.3208 31.6182 31.9469C31.1751 31.5729 30.6531 31.3025 30.0907 31.1555C29.5536 31.0114 28.9914 30.985 28.4431 31.0783C29.5626 28.6953 31.1475 26.5564 33.106 24.7855C33.682 24.268 34.0274 23.5447 34.066 22.7745C34.1046 22.0044 33.8334 21.2506 33.3119 20.6789C32.7904 20.1073 32.0615 19.7646 31.2854 19.7263C30.5093 19.6879 29.7497 19.9571 29.1736 20.4746C25.478 23.7891 22.8255 28.0923 21.5352 32.8668C20.2448 37.6413 20.3713 42.684 21.8996 47.3889C21.9676 47.5863 22.0534 47.7773 22.156 47.9595C22.5189 48.5734 23.0961 49.0338 23.7782 49.2536C24.4603 49.4734 25.1999 49.4373 25.857 49.1521C26.5141 48.867 27.0429 48.3526 27.3434 47.7064C27.6438 47.0602 27.695 46.3271 27.4872 45.646L27.4795 45.6151Z" fill="#6089BB"/>
<path d="M56.413 60.3911C56.1724 59.6575 55.6494 59.048 54.9579 58.6955C54.2664 58.343 53.4625 58.2761 52.7215 58.5094C50.1978 59.316 47.5368 59.6123 44.8957 59.3808C45.2618 58.962 45.5274 58.4663 45.6728 57.931C45.8211 57.3759 45.8426 56.7949 45.7357 56.2305C45.6288 55.6661 45.3962 55.1325 45.0549 54.6688C44.7136 54.205 44.2722 53.8227 43.763 53.5499C43.2537 53.277 42.6895 53.1205 42.1115 53.0917C41.5335 53.063 40.9564 53.1627 40.4222 53.3836C39.888 53.6045 39.4103 53.941 39.0239 54.3686C38.6376 54.7962 38.3523 55.304 38.189 55.8549C38.0258 56.4059 37.9886 56.9861 38.0802 57.5531C35.6787 56.4422 33.5232 54.8695 31.7387 52.926C31.4805 52.6429 31.1686 52.4131 30.8209 52.2497C30.4732 52.0862 30.0965 51.9923 29.7122 51.9733C28.9361 51.935 28.1765 52.2042 27.6004 52.7216C27.0243 53.2391 26.679 53.9625 26.6403 54.7326C26.6017 55.5027 26.873 56.2565 27.3944 56.8282C30.7346 60.4955 35.071 63.1276 39.8824 64.4081C44.6938 65.6886 49.7755 65.563 54.5167 64.0465C55.2554 63.8095 55.8695 63.2919 56.2248 62.607C56.5801 61.922 56.6478 61.1253 56.413 60.3911Z" fill="#FBB929"/>
<path d="M13.8271 58.3165C13.4893 57.7478 13.3725 57.0762 13.4988 56.428C13.6251 55.7798 13.9858 55.1998 14.5129 54.7971C15.04 54.3943 15.6973 54.1966 16.3611 54.2412C17.0248 54.2857 17.6493 54.5695 18.117 55.039C20.6271 55.3397 31.4216 52.1162 48.2934 42.4455C65.1652 32.7749 73.3796 25.1093 74.3743 22.8035C74.2012 22.1675 74.2677 21.4908 74.5614 20.9C74.855 20.3092 75.3558 19.8449 75.9697 19.5943C76.5836 19.3436 77.2685 19.3237 77.8962 19.5382C78.5238 19.7528 79.0511 20.1872 79.3791 20.7599C83.3659 27.6157 60.8831 41.4893 51.0212 47.1343C41.1592 52.7794 17.8216 65.1723 13.8271 58.3165Z" fill="url(#paint0_linear_1748_2394)"/>
<path d="M133.67 52.6876C133.461 52.6908 133.254 52.6522 133.06 52.574C132.866 52.4958 132.691 52.3797 132.543 52.2326C132.397 52.0857 132.281 51.911 132.204 51.7189C132.126 51.5268 132.088 51.3212 132.093 51.1144V42.0221C132.097 41.2268 131.935 40.4391 131.619 39.7086C131.322 38.9914 130.886 38.3389 130.336 37.7883C129.779 37.245 129.122 36.813 128.401 36.5159C127.665 36.2014 126.871 36.0413 126.07 36.0454C125.268 36.0395 124.474 36.1997 123.738 36.5159C123.021 36.8156 122.367 37.2473 121.811 37.7883C121.247 38.3371 120.798 38.9923 120.493 39.7154C120.187 40.4384 120.03 41.2149 120.031 41.999C120.031 42.0452 120.031 42.053 120.031 41.999C120.031 41.9219 120.031 41.9527 120.031 41.999V51.1298C120.031 51.546 119.865 51.9452 119.568 52.2395C119.272 52.5338 118.869 52.6991 118.45 52.6991C118.03 52.6991 117.628 52.5338 117.332 52.2395C117.035 51.9452 116.868 51.546 116.868 51.1298V42.0221C116.862 41.9632 116.862 41.9037 116.868 41.8447C116.872 41.7857 116.872 41.7264 116.868 41.6674C116.954 39.3785 117.915 37.208 119.557 35.5981C120.408 34.7459 121.423 34.072 122.542 33.6162C123.661 33.1596 124.86 32.9264 126.07 32.9299C127.275 32.9225 128.469 33.1549 129.583 33.6131C130.696 34.0714 131.705 34.7464 132.551 35.5981C133.406 36.4459 134.085 37.4521 134.548 38.5595C135.008 39.6663 135.256 40.8484 135.279 42.0452V51.1144C135.279 51.5234 135.115 51.9157 134.824 52.205C134.532 52.4942 134.137 52.6567 133.725 52.6567L133.67 52.6876Z" fill="white"/>
<path d="M95.191 32.9291C95.6033 32.9291 95.9986 33.0916 96.2901 33.3809C96.5816 33.6701 96.7453 34.0624 96.7453 34.4715V43.5715C96.7449 44.3621 96.9043 45.1449 97.2139 45.8734C97.5236 46.6019 97.9773 47.2614 98.5483 47.813C99.1093 48.3512 99.7652 48.7826 100.483 49.0854C101.221 49.3938 102.014 49.5527 102.815 49.5527C103.616 49.5527 104.408 49.3938 105.146 49.0854C105.861 48.7801 106.514 48.349 107.074 47.813C107.629 47.2683 108.073 46.6213 108.379 45.9081C108.696 45.1777 108.858 44.39 108.853 43.5946C108.853 43.5406 108.853 43.5483 108.853 43.5946C108.853 43.6409 108.853 43.664 108.853 43.5946L108.892 34.4561C108.892 34.0399 109.059 33.6407 109.355 33.3464C109.652 33.0521 110.054 32.8867 110.474 32.8867C110.893 32.8867 111.295 33.0521 111.592 33.3464C111.888 33.6407 112.055 34.0399 112.055 34.4561V43.556C112.061 43.6124 112.061 43.6693 112.055 43.7257C112.048 43.7846 112.048 43.8441 112.055 43.9031C111.981 45.6429 111.407 47.3255 110.402 48.7531C109.397 50.1807 108.003 51.2939 106.382 51.9619C105.26 52.4193 104.059 52.6526 102.846 52.6483C101.641 52.6532 100.447 52.4199 99.3332 51.9619C97.0984 51.0244 95.3199 49.2594 94.375 47.0418C93.9156 45.935 93.6678 44.7529 93.6445 43.556V34.4946C93.6445 34.0856 93.8083 33.6933 94.0998 33.404C94.3913 33.1148 94.7866 32.9523 95.1988 32.9523L95.191 32.9291Z" fill="white"/>
<path d="M209.984 52.6875C209.571 52.6875 209.176 52.525 208.885 52.2357C208.593 51.9465 208.429 51.5542 208.429 51.1451V42.022C208.43 41.2324 208.271 40.4506 207.962 39.7232C207.652 38.9958 207.198 38.3378 206.626 37.7882C206.069 37.2449 205.412 36.8129 204.691 36.5158C203.955 36.2013 203.161 36.0412 202.36 36.0453C201.558 36.0394 200.764 36.1996 200.028 36.5158C199.307 36.8134 198.651 37.2454 198.093 37.7882C197.529 38.337 197.081 38.9922 196.775 39.7153C196.469 40.4384 196.313 41.2148 196.314 41.9989C196.314 42.0451 196.314 42.0529 196.314 41.9989C196.314 41.9218 196.314 41.9526 196.314 41.9989L196.275 51.1297C196.275 51.5449 196.109 51.9431 195.813 52.2367C195.517 52.5303 195.116 52.6952 194.697 52.6952C194.279 52.6952 193.878 52.5303 193.582 52.2367C193.286 51.9431 193.12 51.5449 193.12 51.1297V42.022C193.116 41.9629 193.116 41.9037 193.12 41.8446C193.126 41.7857 193.126 41.7262 193.12 41.6673C193.169 40.5261 193.433 39.4041 193.897 38.3589C194.858 36.215 196.61 34.5178 198.793 33.6161C199.915 33.1595 201.116 32.9263 202.329 32.9298C203.534 32.9249 204.728 33.1582 205.841 33.6161C206.953 34.0723 207.96 34.7464 208.802 35.5981C209.671 36.4409 210.361 37.4478 210.831 38.5594C211.294 39.6651 211.542 40.8479 211.561 42.0451V51.1143C211.565 51.3211 211.528 51.5267 211.45 51.7188C211.373 51.9109 211.257 52.0856 211.11 52.2325C210.963 52.3796 210.787 52.4957 210.594 52.5739C210.4 52.6521 210.193 52.6907 209.984 52.6875Z" fill="white"/>
<path d="M226.694 52.687C225.439 52.6929 224.195 52.4545 223.033 51.9852C221.886 51.5202 220.833 50.854 219.925 50.0187C218.978 49.1479 218.214 48.0995 217.679 46.934C217.14 45.7462 216.841 44.4649 216.8 43.1629C216.727 41.8604 216.92 40.5565 217.368 39.3301C218.314 36.8879 220.189 34.9129 222.59 33.8316C223.783 33.2982 225.068 32.9996 226.375 32.9524C227.686 32.8957 228.995 33.1057 230.222 33.5694C231.441 34.0282 232.555 34.7229 233.501 35.613C233.658 35.7552 233.784 35.9279 233.871 36.1202C233.957 36.3125 234.004 36.5205 234.006 36.7312C234.024 37.154 233.873 37.5668 233.587 37.8803C233.445 38.0366 233.271 38.1614 233.076 38.2465C232.882 38.3315 232.672 38.3749 232.46 38.3738C232.248 38.3864 232.037 38.3559 231.838 38.2843C231.638 38.2127 231.456 38.1014 231.302 37.9574C230.669 37.3447 229.916 36.8667 229.09 36.5524C228.265 36.2382 227.383 36.0943 226.499 36.1297C225.608 36.1795 224.732 36.3831 223.911 36.7312C223.096 37.0874 222.367 37.6134 221.774 38.2736C220.56 39.5726 219.912 41.2952 219.972 43.066C220.031 44.8369 220.794 46.5126 222.093 47.7283C222.737 48.3531 223.508 48.8342 224.354 49.1395C225.165 49.4435 226.029 49.585 226.896 49.556C228.685 49.4748 230.371 48.6993 231.59 47.3967C231.731 47.2453 231.901 47.1237 232.091 47.0389C232.28 46.9541 232.485 46.908 232.693 46.9031C232.902 46.8927 233.111 46.9242 233.307 46.9958C233.503 47.0673 233.683 47.1774 233.835 47.3196C233.988 47.4598 234.111 47.629 234.196 47.8171C234.281 48.0052 234.328 48.2084 234.333 48.4146C234.343 48.6219 234.312 48.8291 234.239 49.0239C234.167 49.2187 234.056 49.397 233.913 49.5483C233.043 50.5034 231.985 51.2722 230.805 51.8078C229.612 52.3403 228.327 52.6388 227.02 52.687H226.694Z" fill="white"/>
<path d="M188.069 38.8826C187.581 37.7162 186.868 36.6553 185.971 35.7593C185.051 34.871 183.974 34.1598 182.792 33.6617C181.625 33.1693 180.369 32.92 179.101 32.9291C177.181 32.9124 175.299 33.466 173.698 34.5187C172.097 35.5713 170.85 37.0749 170.117 38.8363C169.64 40.0105 169.392 41.2641 169.387 42.5303C169.388 42.961 169.416 43.3911 169.472 43.8182C169.579 44.8835 169.857 45.9249 170.296 46.9029C170.832 48.0684 171.595 49.1169 172.542 49.9876C173.451 50.823 174.504 51.4891 175.65 51.9542C176.812 52.424 178.056 52.6625 179.311 52.6559H179.637C180.942 52.6078 182.224 52.3092 183.414 51.7768C184.595 51.2423 185.653 50.4733 186.523 49.5172C186.666 49.366 186.777 49.1876 186.849 48.9929C186.921 48.7981 186.953 48.5908 186.942 48.3836C186.94 48.1761 186.894 47.9714 186.807 47.7828C186.72 47.5941 186.594 47.4257 186.437 47.2885C186.286 47.1474 186.107 47.0378 185.912 46.9662C185.718 46.8947 185.51 46.8627 185.303 46.8721C185.095 46.8769 184.89 46.9231 184.7 47.0079C184.511 47.0926 184.34 47.2143 184.199 47.3656C182.964 48.6557 181.266 49.4119 179.474 49.471C178.608 49.5 177.744 49.3584 176.933 49.0545C176.086 48.7492 175.315 48.2681 174.671 47.6432C173.639 46.7148 172.94 45.4774 172.682 44.1189H187.106C187.521 44.1118 187.919 43.9489 188.219 43.6628C188.519 43.3767 188.699 42.9887 188.722 42.5766V42.5226C188.747 41.2785 188.525 40.0417 188.069 38.8826ZM172.829 40.9185C173.191 39.5565 173.987 38.3472 175.099 37.4713C175.656 37.0356 176.281 36.6919 176.948 36.4534C177.64 36.2043 178.373 36.0892 179.109 36.1141C180.002 36.1078 180.887 36.2891 181.704 36.6462C182.489 36.9904 183.199 37.4829 183.795 38.096C184.549 38.8978 185.084 39.8773 185.349 40.9417L172.829 40.9185Z" fill="white"/>
<path d="M257.757 38.8826C257.279 37.7163 256.574 36.655 255.682 35.7593C254.761 34.8727 253.683 34.1617 252.503 33.6617C251.336 33.1693 250.08 32.92 248.812 32.9291C246.892 32.9124 245.01 33.466 243.409 34.5187C241.808 35.5713 240.561 37.0749 239.828 38.8363C239.351 40.0105 239.103 41.2641 239.098 42.5303C239.099 42.961 239.127 43.3911 239.183 43.8182C239.413 46.1759 240.502 48.3694 242.245 49.9876C243.166 50.8262 244.232 51.4925 245.393 51.9542C246.554 52.424 247.798 52.6625 249.053 52.6559H249.371C250.679 52.6087 251.964 52.3102 253.156 51.7768C254.337 51.2423 255.395 50.4733 256.265 49.5172C256.547 49.2076 256.698 48.8012 256.684 48.3836C256.679 48.1768 256.631 47.9732 256.544 47.7851C256.457 47.597 256.333 47.4281 256.179 47.2885C256.027 47.1464 255.847 47.0363 255.651 46.9647C255.455 46.8932 255.246 46.8616 255.037 46.8721C254.83 46.8753 254.626 46.9207 254.437 47.0057C254.249 47.0906 254.08 47.2131 253.941 47.3656C253.315 48.0194 252.565 48.5436 251.734 48.908C250.94 49.2574 250.085 49.4512 249.216 49.4787C248.35 49.5077 247.486 49.3661 246.675 49.0622C245.828 48.7569 245.057 48.2758 244.413 47.651C243.406 46.7193 242.725 45.4925 242.47 44.1498H256.894C257.311 44.1446 257.711 43.9825 258.013 43.6962C258.314 43.4099 258.495 43.0208 258.518 42.6074V42.5534C258.517 41.2914 258.258 40.0427 257.757 38.8826ZM242.517 40.9185C242.698 40.2349 242.992 39.5859 243.387 38.9983C243.765 38.4089 244.241 37.8873 244.794 37.4559C245.35 37.0186 245.975 36.6747 246.644 36.438C247.335 36.1889 248.069 36.0737 248.804 36.0986C249.698 36.0924 250.582 36.2737 251.4 36.6308C252.185 36.975 252.895 37.4674 253.49 38.0806C254.245 38.8819 254.78 39.8616 255.045 40.9262L242.517 40.9185Z" fill="white"/>
<path d="M142.637 52.6871C142.418 52.6903 142.201 52.6497 141.998 52.5677C141.795 52.4858 141.611 52.3643 141.457 52.2103C141.302 52.0563 141.181 51.873 141.099 51.6714C141.017 51.4698 140.978 51.254 140.982 51.0368V34.5797C140.973 34.3622 141.011 34.1453 141.092 33.9433C141.174 33.7412 141.298 33.5587 141.456 33.4075C141.77 33.1096 142.187 32.9434 142.621 32.9434C143.056 32.9434 143.473 33.1096 143.787 33.4075C143.945 33.5587 144.069 33.7412 144.151 33.9433C144.232 34.1453 144.27 34.3622 144.261 34.5797V51.0368C144.268 51.254 144.229 51.4702 144.147 51.6719C144.066 51.8736 143.943 52.0564 143.787 52.209C143.637 52.3606 143.458 52.481 143.261 52.5631C143.063 52.6453 142.851 52.6874 142.637 52.6871Z" fill="white"/>
<path d="M144.291 29.6362C144.289 30.0141 144.155 30.3796 143.912 30.6705C143.669 30.9615 143.332 31.1598 142.958 31.232C142.584 31.3041 142.197 31.2455 141.862 31.0661C141.526 30.8867 141.264 30.5977 141.12 30.2481C140.975 29.8985 140.957 29.51 141.068 29.1487C141.18 28.7873 141.414 28.4754 141.731 28.266C142.048 28.0567 142.428 27.9628 142.807 28.0003C143.186 28.0378 143.54 28.2044 143.809 28.4717C143.968 28.6213 144.092 28.8023 144.175 29.003C144.258 29.2036 144.298 29.4194 144.291 29.6362Z" fill="white"/>
<path d="M164.194 21.408C164.195 21.1913 164.152 20.9767 164.069 20.7764C163.986 20.5761 163.863 20.3943 163.708 20.2415C163.554 20.0886 163.37 19.9678 163.168 19.8861C162.966 19.8044 162.749 19.7633 162.531 19.7654C162.312 19.7587 162.095 19.7978 161.892 19.8802C161.69 19.9626 161.508 20.0864 161.357 20.2435C161.201 20.3945 161.077 20.5758 160.994 20.7761C160.912 20.9764 160.871 21.1915 160.875 21.408V51.0291C160.873 51.2464 160.915 51.462 160.998 51.6631C161.081 51.8643 161.203 52.047 161.358 52.2007C161.513 52.3544 161.697 52.4758 161.9 52.558C162.102 52.6403 162.319 52.6815 162.538 52.6795C162.756 52.6829 162.973 52.6422 163.175 52.56C163.376 52.4778 163.559 52.3558 163.712 52.2013C163.868 52.0483 163.991 51.8656 164.074 51.6642C164.156 51.4627 164.197 51.2467 164.194 51.0291V21.408Z" fill="white"/>
<path d="M154.248 21.4083C154.249 21.1917 154.207 20.977 154.124 20.7767C154.04 20.5764 153.918 20.3946 153.763 20.2418C153.608 20.0889 153.424 19.9681 153.222 19.8864C153.02 19.8047 152.803 19.7637 152.585 19.7657C152.367 19.7647 152.152 19.8065 151.95 19.8887C151.749 19.9708 151.566 20.0918 151.412 20.2445C151.258 20.3973 151.136 20.5788 151.054 20.7785C150.971 20.9783 150.929 21.1923 150.93 21.4083V51.0295C150.928 51.2461 150.969 51.461 151.051 51.6616C151.134 51.8623 151.255 52.0447 151.41 52.1982C151.564 52.3518 151.747 52.4734 151.949 52.5561C152.15 52.6388 152.367 52.6808 152.585 52.6798C152.804 52.6819 153.021 52.6406 153.224 52.5584C153.427 52.4762 153.611 52.3547 153.766 52.201C153.921 52.0474 154.043 51.8646 154.126 51.6634C154.209 51.4623 154.25 51.2468 154.248 51.0295V21.4083Z" fill="white"/>
</g>
<path d="M291.973 39.3497L297.275 34.0457C297.418 33.9074 297.533 33.7418 297.611 33.5588C297.69 33.3758 297.731 33.179 297.733 32.9798C297.735 32.7807 297.697 32.5831 297.621 32.3988C297.546 32.2145 297.435 32.047 297.294 31.9061C297.153 31.7653 296.985 31.6539 296.801 31.5785C296.617 31.5031 296.419 31.4651 296.22 31.4669C296.021 31.4686 295.824 31.51 295.641 31.5886C295.458 31.6672 295.293 31.7815 295.154 31.9247L289.85 37.2272L284.548 31.9247C284.409 31.7815 284.244 31.6672 284.061 31.5886C283.878 31.51 283.681 31.4686 283.482 31.4669C283.283 31.4651 283.085 31.5031 282.901 31.5785C282.716 31.6539 282.549 31.7653 282.408 31.9061C282.267 32.047 282.156 32.2145 282.08 32.3988C282.005 32.5831 281.967 32.7807 281.969 32.9798C281.971 33.179 282.012 33.3758 282.091 33.5588C282.169 33.7418 282.283 33.9074 282.427 34.0457L287.729 39.3482L282.427 44.6522C282.283 44.7906 282.169 44.9561 282.091 45.1391C282.012 45.3221 281.971 45.519 281.969 45.7181C281.967 45.9173 282.005 46.1148 282.08 46.2992C282.156 46.4835 282.267 46.651 282.408 46.7918C282.549 46.9327 282.716 47.044 282.901 47.1195C283.085 47.1949 283.283 47.2328 283.482 47.2311C283.681 47.2294 283.878 47.188 284.061 47.1094C284.244 47.0308 284.409 46.9165 284.548 46.7732L289.85 41.4707L295.154 46.7732C295.293 46.9165 295.458 47.0308 295.641 47.1094C295.824 47.188 296.021 47.2294 296.22 47.2311C296.419 47.2328 296.617 47.1949 296.801 47.1195C296.985 47.044 297.153 46.9327 297.294 46.7918C297.435 46.651 297.546 46.4835 297.621 46.2992C297.697 46.1148 297.735 45.9173 297.733 45.7181C297.731 45.519 297.69 45.3221 297.611 45.1391C297.533 44.9561 297.418 44.7906 297.275 44.6522L291.973 39.3482V39.3497Z" fill="white"/>
<g clip-path="url(#clip1_1748_2394)">
<path d="M329.383 22.5H335.436C339.469 33.8225 343.404 45.1775 347.442 56.5H340.82C336.986 45.1775 333.238 33.8171 329.383 22.5Z" fill="white"/>
<path d="M349.355 22.5H362.122C367.431 22.8724 372.739 25.6841 375.313 30.4981C378.803 36.9635 378.267 45.7657 373.307 51.3298C370.535 54.433 366.455 56.0575 362.396 56.5H349.355C349.355 45.1667 349.355 33.8333 349.355 22.5ZM355.388 28.3016C355.388 35.7654 355.388 43.2346 355.388 50.6984C359.173 50.639 363.286 51.1733 366.669 49.0686C370.069 47.1527 371.516 43.0079 371.355 39.2571C371.436 35.5171 369.742 31.5613 366.347 29.7587C363.012 27.8321 359.061 28.3717 355.388 28.3016Z" fill="white"/>
<path d="M374.68 22.5H381.35C384.117 30.5898 386.857 38.6959 389.554 46.8127C392.471 38.7283 395.216 30.5737 398.16 22.5H404.808C400.658 33.8225 396.556 45.1667 392.444 56.5H386.706C382.648 45.1829 378.728 33.8171 374.68 22.5Z" fill="white"/>
<path d="M416.901 22.5H420.499C427.437 23.0883 433.555 28.3664 435.341 35.1124C426.714 38.793 418.076 42.4251 409.448 46.1057C411.807 49.2629 415.706 51.2381 419.668 50.8495C424.022 50.6013 427.85 47.5251 429.496 43.526C431.239 44.26 432.971 45.0048 434.708 45.7441C432.429 51.6375 426.73 55.9603 420.467 56.5H416.826C408.767 55.6905 401.904 48.5181 401.706 40.3203C401.051 31.5343 408.226 23.2717 416.901 22.5ZM414.746 28.8467C410.049 30.5629 406.874 35.6089 407.389 40.6225C414.081 37.773 420.799 34.9775 427.48 32.0848C424.381 28.5444 419.137 27.1251 414.746 28.8467Z" fill="white"/>
<path d="M437.293 22.5H450.971C454.365 23.0019 457.529 25.0797 459.154 28.1505C460.977 31.5721 460.655 36.0568 458.253 39.1168C456.998 40.8276 455.186 42.0149 453.25 42.8083C456.274 47.3902 459.33 51.9451 462.387 56.5H455.159C452.172 52.2527 449.389 47.8597 446.494 43.5476C445.432 43.5476 444.381 43.5476 443.325 43.5476C443.325 47.8651 443.325 52.1825 443.325 56.5H437.293C437.293 45.1667 437.293 33.8333 437.293 22.5ZM443.325 28.3016C443.325 31.4479 443.325 34.5997 443.325 37.746C445.293 37.7298 447.261 37.7784 449.234 37.7406C451.277 37.7029 453.331 36.3698 453.952 34.3622C454.928 31.6368 452.612 28.4365 449.792 28.3232C447.636 28.253 445.481 28.3232 443.325 28.3016Z" fill="white"/>
<path d="M476.917 22.5H480.37C482.011 22.6943 483.609 23.1422 485.164 23.6981C484.472 25.4737 483.829 27.2654 483.083 29.0194C480.531 28.021 477.641 27.8051 475.024 28.674C471.083 29.9422 467.973 33.5365 467.33 37.6597C466.59 41.7127 468.381 46.0356 471.63 48.5019C475.11 51.2921 480.258 51.6483 484.124 49.4625C488.043 47.3308 490.343 42.8137 490.006 38.3721C486.413 39.8778 482.842 41.4105 479.255 42.9162C478.467 41.1352 477.711 39.3381 476.955 37.5463C482.392 35.2635 487.807 32.9213 493.25 30.6546C496.161 35.5279 496.461 41.8746 493.963 46.9854C491.459 52.2365 486.134 55.9279 480.381 56.5H476.869C472.327 56.0629 468.027 53.7368 465.191 50.1317C460.735 44.7079 460.295 36.4022 464.043 30.4819C466.799 25.9971 471.689 22.9641 476.917 22.5Z" fill="white"/>
<path d="M492.551 22.5H499.21C501.312 28.2908 503.318 34.114 505.355 39.9263C502.814 38.8794 500.288 37.7838 497.763 36.7044C495.977 31.9876 494.32 27.2222 492.551 22.5Z" fill="white"/>
<path d="M512.92 22.5H519.998V22.6997C516.073 33.979 512.073 45.2368 508.105 56.5H502.02C505.934 45.2044 509.633 33.8279 513.478 22.5054L512.92 22.5Z" fill="white"/>
<path d="M325.592 42.1009C327.925 41.0377 330.316 40.0986 332.665 39.0732C330.676 44.8964 328.633 50.7034 326.558 56.4996H320V56.2783C321.464 52.1282 323.024 48.0158 324.477 43.8602C324.772 43.2396 324.842 42.3599 325.592 42.1009Z" fill="white"/>
</g>
<defs>
<linearGradient id="paint0_linear_1748_2394" x1="15.3536" y1="60.9408" x2="80.653" y2="22.9488" gradientUnits="userSpaceOnUse">
<stop offset="0.05" stop-color="#B8D0E9"/>
<stop offset="0.07" stop-color="#AAC0DB"/>
<stop offset="0.16" stop-color="#617293"/>
<stop offset="0.23" stop-color="#344066"/>
<stop offset="0.26" stop-color="#222D55"/>
<stop offset="0.37" stop-color="#252F54"/>
<stop offset="0.44" stop-color="#2E3453"/>
<stop offset="0.5" stop-color="#3D3E50"/>
<stop offset="0.56" stop-color="#524C4B"/>
<stop offset="0.61" stop-color="#6D5E46"/>
<stop offset="0.65" stop-color="#8F743F"/>
<stop offset="0.7" stop-color="#B78D37"/>
<stop offset="0.74" stop-color="#E5AB2D"/>
<stop offset="0.76" stop-color="#FBB929"/>
</linearGradient>
<clipPath id="clip0_1748_2394">
<rect width="272" height="79" fill="white"/>
</clipPath>
<clipPath id="clip1_1748_2394">
<rect width="224" height="34" fill="white" transform="translate(308 22.5)"/>
</clipPath>
</defs>
</svg>
