<svg width="542" height="135" viewBox="0 0 542 135" fill="none" xmlns="http://www.w3.org/2000/svg">
<path d="M75.1646 77.7752C83.1198 77.7752 89.5688 71.3262 89.5688 63.371C89.5688 55.4158 83.1198 48.9668 75.1646 48.9668C67.2094 48.9668 60.7604 55.4158 60.7604 63.371C60.7604 71.3262 67.2094 77.7752 75.1646 77.7752Z" fill="#F2F4F8" stroke="#E0E5ED"/>
<path d="M86.7286 61.6083C85.9693 58.2746 84.3521 55.1687 82.1028 52.5981C81.4882 51.8955 80.8212 51.2391 80.1143 50.6295C79.4073 50.0193 78.6617 49.4247 77.8338 48.9873C77.674 48.9031 77.4744 49.1252 77.6298 49.2519C78.2543 49.7591 78.9063 50.2308 79.5172 50.7549C80.1299 51.2809 80.712 51.8437 81.2586 52.4383C82.358 53.6332 83.3207 54.9441 84.1162 56.361C85.8589 59.4657 86.7405 63.0003 86.6856 66.5593C86.6538 68.6526 86.2975 70.7297 85.6324 72.715C85.5144 73.0682 86.0722 73.2198 86.1889 72.8685C87.3912 69.2547 87.5741 65.322 86.7286 61.6083Z" fill="#344A66"/>
<path d="M76.4774 67.5151C75.5983 65.823 74.2187 64.4104 72.6389 63.3584C71.0167 62.2784 69.2048 61.627 67.3267 61.1516C66.2704 60.8845 65.2041 60.6456 64.169 60.3024C63.137 59.9599 62.1905 59.4613 61.2708 58.8854C61.0668 58.7582 60.8652 59.0414 61.0206 59.2093C62.2629 60.5489 64.2376 61.0567 65.9472 61.4954C67.7498 61.9577 69.5342 62.4007 71.182 63.2948C72.7768 64.1602 74.2256 65.3438 75.2638 66.8419C76.3345 68.3874 76.9447 70.2542 76.916 72.1391C76.8867 74.0895 76.118 76.3707 74.2649 77.2997C73.8843 77.4906 74.2181 78.054 74.5981 77.8694C76.3251 77.0283 77.243 75.0648 77.5044 73.2447C77.787 71.2824 77.3883 69.2678 76.4774 67.5151Z" fill="#344A66"/>
<path d="M63.3734 58.7782C63.2062 59.3055 63.0334 59.8258 62.8936 60.3618C62.8275 60.617 62.7539 60.8722 62.7015 61.1311C62.6578 61.3488 62.5804 61.6802 62.8057 61.8255C62.8425 61.8493 62.9005 61.8505 62.9373 61.8255C63.1357 61.6926 63.1183 61.3838 63.1619 61.1723C63.2137 60.9215 63.2799 60.6738 63.3404 60.4254C63.4677 59.9051 63.5569 59.3822 63.6561 58.8568C63.6917 58.6715 63.4315 58.596 63.3734 58.7782Z" fill="#344A66"/>
<path d="M63.9911 59.1868C63.8388 59.7228 63.671 60.2538 63.5107 60.7866C63.4308 61.0537 63.3478 61.3195 63.263 61.584C63.2031 61.7699 63.0315 62.2142 63.3328 62.2972C63.6336 62.3802 63.739 61.9259 63.7995 61.7319C63.8819 61.4661 63.9618 61.1997 64.0391 60.932C64.1939 60.3973 64.3193 59.8538 64.4397 59.3098C64.504 59.0196 64.0734 58.8973 63.9911 59.1868Z" fill="#344A66"/>
<path d="M65.1778 59.0879C65.0343 59.0879 64.9557 59.1983 64.9388 59.3269C64.8677 59.8703 64.7498 60.4088 64.5926 60.9341C64.5164 61.1887 64.431 61.4414 64.3399 61.6916C64.25 61.938 64.099 62.2157 64.1596 62.484C64.1814 62.5807 64.2968 62.6163 64.3779 62.5726C64.6219 62.4409 64.7192 62.124 64.8141 61.8813C64.9214 61.6061 65.0125 61.3266 65.0917 61.0421C65.2477 60.4799 65.3525 59.9065 65.418 59.3269C65.4318 59.1983 65.297 59.0879 65.1778 59.0879Z" fill="#344A66"/>
<path d="M65.8954 59.6539C65.7457 60.1561 65.5822 60.6534 65.4168 61.1507C65.3339 61.399 65.2496 61.6473 65.1617 61.8938C65.0749 62.1377 64.9589 62.3755 65.0263 62.6381C65.05 62.7311 65.1773 62.7941 65.2615 62.7336C65.483 62.5739 65.5485 62.3305 65.6321 62.0816C65.7188 61.8245 65.8025 61.5668 65.8836 61.3085C66.0427 60.8006 66.1818 60.2853 66.3147 59.7699C66.3858 59.4972 65.9759 59.3849 65.8954 59.6539Z" fill="#344A66"/>
<path d="M66.7589 59.9672C66.5985 60.452 66.4432 60.9387 66.2928 61.4266C66.2192 61.6662 66.1481 61.907 66.0807 62.1485C66.0208 62.3631 65.8947 62.6564 66.0588 62.851C66.0882 62.8854 66.1499 62.9009 66.1924 62.886C66.4238 62.8042 66.465 62.5054 66.5224 62.2976C66.5923 62.0474 66.6609 61.7972 66.7289 61.5464C66.8625 61.0541 67.001 60.5624 67.1439 60.0726C67.2162 59.8249 66.8388 59.7245 66.7589 59.9672Z" fill="#344A66"/>
<path d="M67.6948 60.0641C67.6935 60.0448 67.6661 60.0335 67.6555 60.0535C67.5906 60.177 67.4976 60.2806 67.4358 60.4079C67.3759 60.532 67.3441 60.6749 67.3054 60.8066C67.2256 61.0774 67.1544 61.3494 67.0814 61.6221C67.0078 61.8947 66.9367 62.1674 66.8618 62.4394C66.7857 62.7171 66.6996 62.9966 66.6952 63.2867C66.6921 63.4621 66.9304 63.5182 67.0178 63.3741C67.1682 63.127 67.2412 62.8419 67.3148 62.5642C67.3872 62.2915 67.4577 62.0183 67.5213 61.7437C67.585 61.468 67.6448 61.1928 67.6916 60.9133C67.7141 60.7766 67.7491 60.6319 67.7497 60.4934C67.7503 60.3449 67.7047 60.2101 67.6948 60.0641Z" fill="#344A66"/>
<path d="M68.3113 60.265C68.2102 60.8122 68.0936 61.3582 68 61.906C67.9538 62.1755 67.9107 62.4463 67.8658 62.7165C67.8234 62.9748 67.7298 63.2805 67.8527 63.527C67.9032 63.628 68.0524 63.6387 68.1272 63.5625C68.3113 63.3747 68.3157 63.064 68.3519 62.8182C68.3937 62.5362 68.438 62.2541 68.4766 61.9721C68.5521 61.4212 68.6108 60.8671 68.6813 60.3156C68.7094 60.1053 68.35 60.056 68.3113 60.265Z" fill="#344A66"/>
<path d="M69.8867 60.7142C69.8612 60.5039 69.5785 60.3779 69.4562 60.5975C69.3377 60.8102 69.3227 61.1054 69.2747 61.3431C69.2216 61.6039 69.1686 61.8647 69.1156 62.1255C69.0644 62.3763 69.0139 62.6278 68.9627 62.8786C68.9103 63.1369 68.8423 63.4058 68.8959 63.6698C68.9327 63.8488 69.1711 63.8494 69.2597 63.7172C69.4007 63.5057 69.4338 63.2349 69.4799 62.9903C69.5273 62.7382 69.5748 62.4861 69.6222 62.2341C69.6696 61.982 69.717 61.7299 69.7645 61.4779L69.83 61.1291C69.8555 60.9962 69.903 60.8489 69.8867 60.7142Z" fill="#344A66"/>
<path d="M70.5175 60.7537C70.316 61.3002 70.2005 61.8549 70.0988 62.4283C70.0501 62.7022 70.0015 62.9761 69.9528 63.25C69.9048 63.5246 69.8124 63.8471 69.9665 64.0992C70.0233 64.1922 70.1344 64.1947 70.2124 64.131C70.4401 63.9457 70.457 63.6057 70.5031 63.3355C70.5499 63.061 70.5961 62.7864 70.6429 62.5119C70.7402 61.9379 70.8176 61.3751 70.812 60.7936C70.8107 60.617 70.5749 60.5989 70.5175 60.7537Z" fill="#344A66"/>
<path d="M71.4397 61.5605C71.3211 62.0372 71.2025 62.5139 71.084 62.9906C71.0247 63.2289 70.9704 63.4685 70.9162 63.7081C70.8619 63.9477 70.7957 64.1973 70.8151 64.4437C70.8307 64.6447 71.1009 64.7457 71.2113 64.5511C71.3348 64.3346 71.3829 64.0925 71.4365 63.851C71.4896 63.6108 71.5426 63.3706 71.5906 63.1297C71.6867 62.6468 71.7834 62.1645 71.8795 61.6816C71.9363 61.3964 71.5108 61.2723 71.4397 61.5605Z" fill="#344A66"/>
<path d="M73.1474 62.2467C73.0451 62.1868 72.8903 62.218 72.8335 62.3291C72.5952 62.7958 72.3568 63.2625 72.1216 63.7311C71.8883 64.1959 71.6056 64.6776 71.5033 65.1899C71.4646 65.3839 71.7217 65.5923 71.8727 65.4051C71.9544 65.3034 72.0393 65.2061 72.1017 65.0913C72.1634 64.9777 72.2171 64.8604 72.2714 64.7437C72.3837 64.501 72.4954 64.2577 72.6027 64.0125C72.8136 63.5296 73.0213 63.0448 73.2291 62.5606C73.2784 62.4464 73.2634 62.3141 73.1474 62.2467Z" fill="#344A66"/>
<path d="M74.2455 63.4335C74.1631 63.3717 74.0252 63.3649 73.9528 63.451C73.669 63.7867 73.3788 64.1161 73.0812 64.4393C72.934 64.599 72.7873 64.7581 72.642 64.9197C72.4916 65.0863 72.2582 65.2754 72.252 65.5162C72.2495 65.6167 72.345 65.7234 72.4498 65.714C72.6962 65.6928 72.8616 65.4644 73.0176 65.2947C73.1692 65.13 73.3146 64.9615 73.4574 64.7887C73.7469 64.4387 74.0283 64.0818 74.3029 63.7205C74.369 63.6344 74.3253 63.4934 74.2455 63.4335Z" fill="#344A66"/>
<path d="M75.1284 64.4047C75.0017 64.5732 74.8382 64.7111 74.6822 64.8508C74.5032 65.0112 74.3197 65.1653 74.1469 65.3313C73.9734 65.4979 73.8 65.6638 73.6265 65.8304C73.4375 66.0114 73.2534 66.1773 73.1736 66.4338C73.1343 66.5604 73.2634 66.6865 73.3888 66.649C73.6459 66.5717 73.8144 66.3876 73.9972 66.2004C74.1744 66.0189 74.3516 65.8379 74.5294 65.6564C74.8513 65.3275 75.1889 64.975 75.3898 64.557C75.474 64.3791 75.2438 64.2506 75.1284 64.4047Z" fill="#344A66"/>
<path d="M76.0568 65.5632C75.7261 65.8084 75.3936 66.0511 75.0585 66.2907C74.8938 66.4086 74.7278 66.5253 74.5619 66.642C74.3784 66.7711 74.1557 66.8997 74.0702 67.1156C74.0191 67.2441 74.1495 67.3982 74.2799 67.3907C74.4951 67.3789 74.6798 67.2135 74.8445 67.0875C75.018 66.9546 75.1914 66.8204 75.3636 66.6857C75.6881 66.4323 76.01 66.1753 76.3295 65.9163C76.5248 65.7572 76.2621 65.411 76.0568 65.5632Z" fill="#344A66"/>
<path d="M77.5393 66.9324C77.4831 66.8363 77.3771 66.8257 77.2841 66.8656C76.8642 67.0441 76.4474 67.2331 76.0406 67.4403C75.8434 67.5407 75.6494 67.6424 75.4584 67.7541C75.2482 67.877 75.0398 67.9931 74.8788 68.179C74.7472 68.3319 74.8694 68.6045 75.0872 68.5378C75.323 68.4654 75.5134 68.3331 75.7205 68.2033C75.9071 68.0867 76.093 67.9675 76.2814 67.8533C76.6708 67.6168 77.0657 67.3941 77.4719 67.1882C77.5624 67.1414 77.588 67.0154 77.5393 66.9324Z" fill="#344A66"/>
<path d="M77.7558 68.4422C77.3378 68.5284 76.9198 68.6113 76.5005 68.6937C76.2915 68.7349 76.0831 68.7804 75.8741 68.821C75.6806 68.8584 75.378 68.8659 75.2838 69.0737C75.2482 69.1523 75.2476 69.2453 75.3144 69.3095C75.491 69.4805 75.7605 69.3813 75.9689 69.3345C76.1835 69.2858 76.3988 69.2371 76.6109 69.1797C77.0315 69.0656 77.4408 68.9339 77.8507 68.786C78.066 68.708 77.9823 68.3955 77.7558 68.4422Z" fill="#344A66"/>
<path d="M78.2444 69.7797C77.7521 69.8571 77.2573 69.9076 76.7651 69.9831C76.5286 70.0193 76.2921 70.0518 76.0562 70.0905C75.9296 70.1111 75.8029 70.1329 75.6763 70.1535C75.5415 70.1759 75.4049 70.2021 75.345 70.3419C75.3044 70.4355 75.3082 70.526 75.3787 70.604C75.5565 70.7999 75.9196 70.6557 76.1442 70.6139C76.3869 70.569 76.6278 70.5141 76.8692 70.4611C77.359 70.3544 77.8445 70.214 78.3318 70.0942C78.5383 70.0424 78.4465 69.7479 78.2444 69.7797Z" fill="#344A66"/>
<path d="M78.4129 71.0514C78.3792 70.9716 78.303 70.946 78.2219 70.9578C77.7558 71.0252 77.2923 71.1107 76.8262 71.1756C76.5997 71.2068 76.3732 71.2255 76.1455 71.2461C75.9321 71.2648 75.607 71.2411 75.4803 71.4457C75.4479 71.4975 75.4417 71.5861 75.4803 71.6373C75.5752 71.7627 75.6919 71.7839 75.8447 71.7889C75.9608 71.7927 76.0799 71.7802 76.1954 71.769C76.4431 71.7452 76.6902 71.7091 76.9354 71.6679C77.4264 71.5849 77.8912 71.4576 78.3461 71.2536C78.4203 71.2211 78.4409 71.1188 78.4129 71.0514Z" fill="#344A66"/>
<path d="M78.4927 72.0882C78.1021 72.1126 77.7109 72.1313 77.3203 72.1531C77.1281 72.1637 76.9359 72.1694 76.7444 72.1812C76.5447 72.1931 76.3226 72.1868 76.1354 72.2642C75.9545 72.3391 75.9227 72.6017 76.1354 72.6654C76.3307 72.724 76.5447 72.6978 76.7444 72.6822C76.9447 72.6673 77.1443 72.6423 77.3434 72.6186C77.7445 72.5712 78.142 72.5075 78.5395 72.4345C78.7347 72.399 78.6911 72.0758 78.4927 72.0882Z" fill="#344A66"/>
<path d="M78.4658 73.54C77.9935 73.4682 77.5212 73.3921 77.0495 73.3172C76.8217 73.281 76.5946 73.2449 76.3669 73.2087C76.1597 73.1756 75.8228 73.0758 75.6375 73.2049C75.5383 73.2742 75.5314 73.3827 75.6025 73.4745C75.7386 73.6492 76.0886 73.6529 76.2914 73.681C76.5235 73.7128 76.755 73.7446 76.9871 73.7746C77.4606 73.8364 77.9354 73.8925 78.4103 73.948C78.6405 73.9755 78.6973 73.5755 78.4658 73.54Z" fill="#344A66"/>
<path d="M78.165 74.9858C78.0533 74.7961 77.7202 74.7555 77.523 74.7012C77.2728 74.6326 77.017 74.5833 76.7637 74.5272C76.5103 74.4704 76.2564 74.4142 76.0024 74.36C75.7523 74.3063 75.4827 74.2358 75.2257 74.2427C75.0266 74.2476 74.9112 74.5503 75.1165 74.6451C75.3517 74.7537 75.6137 74.7998 75.867 74.851C76.1222 74.9022 76.3774 74.9514 76.6332 75.0001C76.8903 75.0494 77.148 75.1081 77.4076 75.143C77.6066 75.1698 77.9454 75.2759 78.122 75.1486C78.1744 75.1112 78.2006 75.0457 78.165 74.9858Z" fill="#344A66"/>
<path d="M77.3447 75.6942C76.926 75.6094 76.523 75.4578 76.1093 75.3511C75.8978 75.2968 75.6869 75.2419 75.476 75.1876C75.2726 75.1352 75.028 75.0454 74.8452 75.1889C74.7847 75.2363 74.794 75.3236 74.8202 75.3848C74.9039 75.5794 75.2133 75.6169 75.3936 75.6624L76.0051 75.8178C76.4082 75.9207 76.8262 76.0231 77.2386 76.0798C77.3459 76.0948 77.4539 76.0536 77.4851 75.9401C77.5113 75.8421 77.4508 75.7161 77.3447 75.6942Z" fill="#344A66"/>
<path d="M76.6608 76.6992C76.4505 76.6505 76.2465 76.5825 76.0362 76.537C75.8328 76.4927 75.63 76.4471 75.4279 76.3997C75.2251 76.3517 75.0211 76.3105 74.8177 76.2656C74.6517 76.2288 74.4165 76.1508 74.268 76.2562C74.2636 76.2568 74.2592 76.2581 74.2555 76.2587C74.127 76.2731 74.0739 76.4278 74.1887 76.5045C74.2012 76.5139 74.2131 76.5226 74.2255 76.532C74.2087 76.4921 74.1925 76.4521 74.1756 76.4122C74.2037 76.6611 74.4801 76.7023 74.6835 76.7497C74.8938 76.799 75.104 76.8483 75.3168 76.8876C75.5296 76.9269 75.743 76.9644 75.9563 76.9993C76.1722 77.0349 76.3931 77.043 76.6109 77.0686C76.8224 77.0929 76.8648 76.7466 76.6608 76.6992Z" fill="#344A66"/>
<path d="M76.083 77.4127C75.8758 77.3391 75.6387 77.306 75.4235 77.2642C75.2182 77.2243 75.0098 77.195 74.8027 77.1644C74.588 77.1332 74.3728 77.1039 74.1575 77.0796C74.0471 77.0671 73.9317 77.0633 73.82 77.069C73.7726 77.0714 73.7101 77.0727 73.6646 77.0845C73.6041 77.1014 73.5685 77.1488 73.5149 77.1763C73.4225 77.2237 73.445 77.341 73.5149 77.3934C73.5617 77.4283 73.5822 77.4733 73.6384 77.4995C73.6889 77.5232 73.7488 77.5363 73.8031 77.5475C73.9042 77.5687 74.0065 77.5868 74.1088 77.598C74.3254 77.6218 74.5419 77.6442 74.7577 77.6717C74.9624 77.6973 75.1664 77.7322 75.3711 77.7578C75.5863 77.7846 75.8072 77.8351 76.0237 77.8445C76.2839 77.8539 76.3057 77.492 76.083 77.4127Z" fill="#344A66"/>
<path d="M80.931 50.4239C80.8755 50.3546 80.7594 50.3159 80.6802 50.374C80.3795 50.5942 80.0981 50.8332 79.8167 51.0771C79.6813 51.1944 79.5477 51.3148 79.4155 51.4359C79.3512 51.4945 79.2869 51.5532 79.2227 51.6125C79.1478 51.6817 79.0417 51.7784 79.0268 51.882C79.0099 52.0024 79.0754 52.1422 79.2195 52.1353C79.4155 52.1253 79.5777 51.9263 79.7156 51.8015C79.8522 51.678 79.9901 51.5551 80.1249 51.4296C80.3919 51.1826 80.6608 50.9405 80.9154 50.6797C80.9828 50.6104 80.9909 50.4994 80.931 50.4239Z" fill="#344A66"/>
<path d="M80.3545 49.8184C80.2989 49.7491 80.1829 49.7105 80.1036 49.7685C79.8029 49.9887 79.5215 50.2277 79.2401 50.4717C79.1047 50.589 78.9712 50.7094 78.8389 50.8304C78.7746 50.8891 78.7104 50.9483 78.6461 51.007C78.5712 51.0763 78.4652 51.173 78.4508 51.2765C78.434 51.397 78.4995 51.5367 78.6436 51.5299C78.8395 51.5199 79.0018 51.3208 79.1397 51.196C79.2763 51.0725 79.4136 50.9496 79.5489 50.8242C79.816 50.5771 80.0849 50.335 80.3395 50.0748C80.4069 50.005 80.415 49.8939 80.3545 49.8184Z" fill="#344A66"/>
<path d="M81.2429 51.4396C81.1768 51.3367 81.0202 51.2724 80.9091 51.3523C80.7051 51.4983 80.5061 51.6511 80.3139 51.8115C80.2253 51.8851 80.1379 51.9594 80.0525 52.0367C79.9576 52.1222 79.8416 52.2164 79.7885 52.335C79.753 52.4136 79.7492 52.4934 79.8048 52.5652C79.8509 52.6251 79.9464 52.6694 80.0225 52.6394C80.1554 52.5877 80.2528 52.4922 80.3594 52.4017C80.4499 52.325 80.5385 52.247 80.6302 52.1715C80.6745 52.1353 80.7195 52.0991 80.7644 52.0629C80.7843 52.0473 80.8043 52.0317 80.8243 52.0161C80.8261 52.0149 80.8255 52.0155 80.828 52.013C80.8418 52.003 80.8549 51.9924 80.8686 51.9824C80.9628 51.9107 81.0589 51.8414 81.1556 51.7734C81.2598 51.7004 81.3184 51.5563 81.2429 51.4396Z" fill="#344A66"/>
<path d="M81.8957 51.582C81.6267 51.8403 81.3428 52.083 81.0739 52.3413C80.9416 52.4686 80.8075 52.5953 80.6727 52.7194C80.6072 52.7793 80.5355 52.8367 80.4781 52.9041C80.4437 52.9441 80.3938 52.9946 80.3676 53.0395C80.3383 53.0894 80.3358 53.1518 80.3302 53.208C80.3215 53.2922 80.4094 53.3646 80.4868 53.3646C80.5461 53.3646 80.6091 53.364 80.6615 53.3334C80.6983 53.3116 80.7345 53.2829 80.7701 53.2585C80.8518 53.203 80.9223 53.1294 80.9941 53.0614C81.1313 52.9316 81.2674 52.8006 81.4015 52.6683C81.666 52.4068 81.9056 52.1148 82.1459 51.8316C82.2919 51.6606 82.0622 51.4223 81.8957 51.582Z" fill="#344A66"/>
<path d="M83.0674 52.5335C83.0162 52.4461 82.8914 52.4074 82.8028 52.4642C82.4896 52.6657 82.1876 52.8854 81.8962 53.1168C81.7565 53.2273 81.6223 53.3421 81.4925 53.4638C81.4239 53.5274 81.3565 53.5923 81.2904 53.6584C81.2062 53.742 81.1082 53.8369 81.1163 53.9654C81.1238 54.0808 81.2062 54.1719 81.326 54.175C81.452 54.1782 81.5375 54.0927 81.6198 54.0085C81.6816 53.9448 81.7446 53.8824 81.8082 53.8207C81.9355 53.6977 82.0641 53.5761 82.1945 53.4556C82.4497 53.2204 82.718 53.0014 82.9987 52.798C83.083 52.7362 83.1241 52.6296 83.0674 52.5335Z" fill="#344A66"/>
<path d="M83.8972 53.1655C83.8105 53.0787 83.6863 53.0925 83.5984 53.1655C83.2558 53.4506 82.9158 53.7389 82.5795 54.0315C82.4141 54.1756 82.2525 54.3241 82.0909 54.472C81.9237 54.6249 81.7247 54.774 81.5961 54.9618C81.4639 55.1552 81.7203 55.3867 81.9087 55.2744C82.0978 55.1621 82.2563 54.9743 82.4166 54.8251C82.5819 54.671 82.7492 54.52 82.9139 54.3659C83.2383 54.0621 83.5659 53.7613 83.8966 53.4637C83.9821 53.3876 83.9746 53.2428 83.8972 53.1655Z" fill="#344A66"/>
<path d="M84.3557 53.9442C84.3171 53.8762 84.2172 53.8456 84.1499 53.8899C83.7599 54.1463 83.3668 54.3978 82.9731 54.6492C82.7853 54.7697 82.61 54.9238 82.4459 55.0748C82.298 55.2108 82.0409 55.4366 82.1096 55.6588C82.1289 55.7224 82.1801 55.7542 82.2431 55.7605C82.3723 55.7729 82.444 55.6912 82.5357 55.6145C82.6175 55.5458 82.6904 55.4703 82.7678 55.3967C82.9225 55.2501 83.0916 55.1215 83.2501 54.9793C83.5821 54.6823 83.9471 54.4184 84.3015 54.1495C84.367 54.1008 84.3988 54.0209 84.3557 53.9442Z" fill="#344A66"/>
<path d="M84.7152 54.6864C84.1362 55.0258 83.5765 55.3902 83.0449 55.7995C82.9102 55.9031 82.6843 56.0472 82.7336 56.2493C82.7554 56.3373 82.834 56.3922 82.9239 56.3941C83.0262 56.396 83.1042 56.3436 83.1835 56.2855C83.4567 56.0859 83.7207 55.8675 83.9859 55.6566C84.2803 55.4232 84.5817 55.1992 84.8887 54.9827C85.0659 54.8573 84.9093 54.5728 84.7152 54.6864Z" fill="#344A66"/>
<path d="M85.4184 55.8191C85.2288 55.8509 85.0453 55.8878 84.8613 55.9439C84.6728 56.0019 84.4906 56.0737 84.3097 56.1517C84.135 56.2266 83.9603 56.3052 83.7956 56.4C83.6209 56.5005 83.4337 56.5909 83.3595 56.79C83.3214 56.8935 83.4181 56.9809 83.5104 56.9884C83.6995 57.004 83.8636 56.8742 84.0233 56.79C84.1862 56.7039 84.3471 56.6147 84.5131 56.5354C84.8344 56.3813 85.1664 56.2384 85.4964 56.1049C85.6736 56.0338 85.6087 55.7879 85.4184 55.8191Z" fill="#344A66"/>
<path d="M85.8663 56.5397C85.769 56.5703 85.6691 56.5915 85.5737 56.6283C85.4901 56.6608 85.4071 56.697 85.3241 56.7307C85.145 56.803 84.9678 56.881 84.7888 56.9547C84.6003 57.0327 84.4157 57.1206 84.2291 57.2036C84.0538 57.2816 83.8011 57.3477 83.7063 57.5281C83.6426 57.6504 83.6938 57.8176 83.8385 57.8531C84.0513 57.9049 84.2697 57.7589 84.4543 57.6666C84.6347 57.5767 84.8175 57.4881 84.9916 57.387C85.1607 57.2891 85.3291 57.1905 85.4938 57.0844C85.5756 57.0314 85.6604 56.9809 85.7396 56.9241C85.8226 56.8642 85.8956 56.7912 85.9743 56.7269C86.0635 56.6552 85.9686 56.5073 85.8663 56.5397Z" fill="#344A66"/>
<path d="M86.1814 57.5269C85.8951 57.6186 85.6087 57.7129 85.3254 57.8139C85.1775 57.8663 85.0359 57.9368 84.8943 58.0036C84.7539 58.0697 84.5636 58.1303 84.4563 58.2451C84.3901 58.3162 84.3664 58.4179 84.4063 58.5084C84.4407 58.587 84.5324 58.6687 84.6266 58.6562C84.8025 58.6332 84.9598 58.5265 85.117 58.4472C85.2474 58.3811 85.3816 58.3212 85.5082 58.2476C85.769 58.0959 86.0329 57.9499 86.3019 57.8133C86.4597 57.7328 86.3505 57.4726 86.1814 57.5269Z" fill="#344A66"/>
<path d="M86.4703 58.4497C86.2931 58.489 86.1177 58.5845 85.9499 58.655C85.7771 58.7274 85.6092 58.8128 85.4395 58.8927C85.1057 59.0493 84.7725 59.2171 84.4468 59.3906C84.3052 59.4661 84.2615 59.6626 84.3401 59.7974C84.4269 59.9453 84.6016 59.974 84.747 59.9041C85.0776 59.7456 85.4083 59.5665 85.7203 59.3731C85.8719 59.2795 86.026 59.1872 86.1714 59.0836C86.3249 58.9738 86.504 58.8659 86.6312 58.7261C86.7436 58.6026 86.6331 58.4141 86.4703 58.4497Z" fill="#344A66"/>
<path d="M87.1105 59.4343C87.0768 59.3994 87.0381 59.3844 86.9901 59.3813C86.9108 59.3757 86.8721 59.4281 86.8128 59.463C86.7367 59.5073 86.6319 59.5323 86.5483 59.5597C86.3699 59.6184 86.1945 59.6858 86.0186 59.7507C85.8308 59.8199 85.6498 59.9004 85.467 59.9815C85.2786 60.0651 85.0621 60.1469 85.0334 60.3771C85.0259 60.4401 85.0733 60.4944 85.1201 60.5281C85.2998 60.6572 85.5581 60.5044 85.7291 60.4295C85.8975 60.3559 86.0635 60.2822 86.2263 60.198C86.3879 60.1144 86.5514 60.0327 86.7099 59.9434C86.8596 59.8592 87.0393 59.8049 87.1385 59.6564C87.1847 59.5884 87.1648 59.4898 87.1105 59.4343Z" fill="#344A66"/>
<path d="M87.4043 60.3107C87.0225 60.3968 86.6418 60.4904 86.2612 60.5802C86.0784 60.6233 85.8981 60.6825 85.7184 60.7374C85.53 60.7942 85.286 60.8373 85.1251 60.9533C85.0333 61.0195 84.9778 61.1224 85.0096 61.2372C85.0383 61.3414 85.1425 61.425 85.2524 61.4219C85.457 61.4163 85.6673 61.314 85.8594 61.2491C86.0379 61.1886 86.2194 61.1355 86.396 61.07C86.7641 60.934 87.1366 60.8154 87.5116 60.7019C87.7631 60.6258 87.6589 60.2533 87.4043 60.3107Z" fill="#344A66"/>
<path d="M87.4711 61.7025C87.3888 61.6932 87.3058 61.7356 87.2241 61.7456C87.1336 61.7568 87.0469 61.7811 86.9576 61.7986C86.8665 61.8167 86.7754 61.8167 86.6831 61.8342C86.5926 61.851 86.5022 61.8666 86.4117 61.8828C86.2389 61.914 86.0635 61.9458 85.8976 62.0051C85.7048 62.0738 85.507 62.1586 85.4022 62.3458C85.3404 62.4556 85.4159 62.6459 85.5631 62.6259C85.7553 62.6004 85.8969 62.5192 86.0698 62.4612C86.242 62.4032 86.4167 62.3545 86.5932 62.3109C86.6769 62.2903 86.7617 62.2715 86.8447 62.2478C86.9302 62.2229 87.0169 62.1804 87.1011 62.1486C87.1891 62.1156 87.2727 62.0825 87.3488 62.0276C87.4218 61.9752 87.5136 61.934 87.556 61.8516C87.5934 61.7793 87.546 61.7112 87.4711 61.7025Z" fill="#344A66"/>
<path d="M87.9247 62.5646C87.8411 62.481 87.7269 62.4972 87.6415 62.5646C87.3669 62.7811 86.9876 62.8073 86.6619 62.8928C86.461 62.9452 86.2669 63.012 86.0754 63.0918C85.8601 63.1817 85.6536 63.2696 85.502 63.4525C85.4502 63.5149 85.4265 63.5904 85.4608 63.669C85.4895 63.7339 85.5638 63.8 85.6417 63.7906C85.7553 63.7769 85.8533 63.7582 85.9606 63.717C86.0666 63.6771 86.1677 63.6247 86.2719 63.581C86.4735 63.4974 86.6794 63.4213 86.8871 63.3558C87.254 63.2403 87.6402 63.1187 87.9247 62.8479C88.0027 62.773 87.9996 62.6395 87.9247 62.5646Z" fill="#344A66"/>
<path d="M87.8899 63.5998C87.7526 63.6822 87.5748 63.694 87.42 63.724C87.2104 63.7645 87.0064 63.8169 86.7998 63.8712C86.6014 63.9236 86.4043 63.9779 86.2071 64.0341C86.018 64.0883 85.6886 64.1314 85.5956 64.3236C85.5407 64.4377 85.5651 64.57 85.6786 64.6393C85.8758 64.7603 86.1709 64.6156 86.3731 64.5538C86.5902 64.4877 86.8067 64.4184 87.0226 64.3479C87.2291 64.2805 87.4306 64.2081 87.6309 64.1252C87.8112 64.0503 87.9647 63.9492 88.0745 63.7845C88.1507 63.6703 88.0022 63.5324 87.8899 63.5998Z" fill="#344A66"/>
<path d="M87.9023 64.5681C87.5704 64.653 87.2384 64.7378 86.9059 64.8227C86.743 64.8645 86.582 64.9144 86.4204 64.9618C86.3368 64.9861 86.252 65.0092 86.1709 65.0404C86.1291 65.0566 86.0841 65.071 86.0455 65.0953C85.9949 65.1271 85.9762 65.1739 85.9369 65.2107C85.8495 65.2925 85.8851 65.4734 86.0118 65.4946C86.0654 65.5034 86.1066 65.5339 86.1646 65.5346C86.2095 65.5352 86.2576 65.5233 86.3019 65.5146C86.3874 65.4971 86.4704 65.4691 86.554 65.4435C86.7149 65.3942 86.8772 65.348 87.0363 65.2937C87.3613 65.1827 87.6858 65.071 88.0109 64.9599C88.2554 64.8757 88.1581 64.5032 87.9023 64.5681Z" fill="#344A66"/>
<path d="M88.1257 65.4079C88.0957 65.2999 87.9753 65.2269 87.8655 65.26C87.5554 65.3548 87.2459 65.449 86.9358 65.5433C86.7867 65.5888 86.6376 65.6343 86.4885 65.6799C86.315 65.7329 86.1129 65.7797 86.0074 65.9382C85.9319 66.0511 86.013 66.1859 86.1247 66.2258C86.2832 66.2832 86.4679 66.1996 86.6176 66.1466C86.7705 66.0923 86.924 66.0387 87.0768 65.985C87.3776 65.8789 87.6777 65.7735 87.9784 65.6674C88.0851 65.63 88.1569 65.5233 88.1257 65.4079Z" fill="#344A66"/>
<path d="M88.2136 66.4247C88.1575 66.3592 88.0383 66.3542 87.9572 66.3536C87.8524 66.3523 87.7463 66.3822 87.6421 66.3953C87.4343 66.4216 87.2278 66.4671 87.0238 66.517C86.8329 66.5638 86.6413 66.6087 86.4516 66.6599C86.3512 66.6874 86.2501 66.7223 86.1578 66.771C86.1016 66.8009 86.0448 66.8396 86.0118 66.8957C85.9887 66.9351 85.9818 66.9812 85.9662 67.023C85.9369 67.1017 85.9993 67.2152 86.0829 67.2289C86.1135 67.2339 86.1615 67.2595 86.2208 67.2595C86.2794 67.2595 86.3318 67.2389 86.3855 67.2214C86.4753 67.1921 86.5671 67.1665 86.6582 67.1416C86.8634 67.0842 87.0712 67.0336 87.2752 66.9712C87.4112 66.9301 88.4127 66.658 88.2136 66.4247Z" fill="#344A66"/>
<path d="M88.0121 67.577C87.8767 67.6388 87.7419 67.6425 87.5972 67.6594C87.4268 67.6793 87.2584 67.6974 87.0893 67.7249C86.9189 67.7523 86.7486 67.781 86.5783 67.8122C86.4135 67.8428 86.2282 67.8553 86.0722 67.9164C85.9574 67.962 85.8751 68.0581 85.8944 68.1885C85.9125 68.307 86.0123 68.4068 86.1384 68.4037C86.3293 68.3987 86.5252 68.3345 86.7112 68.2933C86.8859 68.2546 87.0593 68.2128 87.2328 68.1704C87.5535 68.0918 87.8704 67.9938 88.1387 67.7929C88.2672 67.6968 88.1606 67.509 88.0121 67.577Z" fill="#344A66"/>
<path d="M87.9278 68.5637C87.8455 68.4807 87.7338 68.4982 87.6495 68.5637C87.4499 68.7203 87.1597 68.7658 86.9102 68.802C86.7498 68.8251 86.5907 68.8601 86.4316 68.89C86.2594 68.9225 86.0466 68.9536 85.9162 69.0784C85.7971 69.1926 85.8713 69.3611 86.0048 69.4141C86.0972 69.4509 86.1995 69.4322 86.2956 69.4247C86.3992 69.4166 86.4996 69.3948 86.6013 69.3754C86.7673 69.343 86.9351 69.3174 87.098 69.2706C87.4062 69.1826 87.6957 69.0691 87.9284 68.8413C88.0033 68.7677 88.0021 68.6386 87.9278 68.5637Z" fill="#344A66"/>
<path d="M87.4667 69.8619C87.4617 69.8713 87.4561 69.88 87.4511 69.8894C87.4492 69.8919 87.4499 69.8913 87.4492 69.8931C87.448 69.8944 87.4486 69.8938 87.4467 69.895C87.4399 69.9025 87.4324 69.9094 87.4249 69.9168C87.4249 69.9168 87.4193 69.9218 87.4155 69.925C87.4099 69.9281 87.3987 69.9356 87.3956 69.9374C87.3862 69.9424 87.3769 69.9474 87.3675 69.9524C87.3588 69.9568 87.3238 69.9724 87.3163 69.9767C87.2209 70.0136 87.121 70.0348 87.0218 70.056C86.8802 70.0866 86.7411 70.1259 86.6013 70.1652C86.4572 70.2057 86.3093 70.24 86.1689 70.2931C86.0753 70.328 85.9705 70.353 85.9075 70.4353C85.837 70.5264 85.812 70.6425 85.8782 70.7411C86.0023 70.927 86.2475 70.8602 86.4272 70.8066C86.7036 70.7242 86.9831 70.6493 87.2514 70.5445C87.5085 70.4441 87.7618 70.3049 87.8442 70.021C87.9085 69.7977 87.5809 69.6554 87.4667 69.8619Z" fill="#344A66"/>
<path d="M69.9027 99.6852L35.3992 6.22293C35.8538 5.67618 36.1135 5.01947 36.0927 4.31868C36.0395 2.50783 34.154 1.09399 31.8814 1.16096C29.6089 1.22794 27.81 2.74979 27.8633 4.56005C27.9023 5.89536 28.9393 7.01252 30.3916 7.48153L53.2852 104.689C54.4488 109.63 59.5823 112.528 64.4147 110.97C69.1197 109.453 71.615 104.323 69.9027 99.6852Z" fill="#344A66"/>
<path opacity="0.28" d="M69.9026 99.685L51.985 51.1504C53.1463 55.2165 54.2723 59.2949 55.3743 63.3769C56.527 67.6464 57.5606 71.9718 57.99 76.3812C58.4184 80.7812 58.1887 85.1874 56.9927 89.4559C55.9594 93.1431 54.3546 96.7173 52.1476 99.8612L53.2846 104.688C54.4482 109.63 59.5817 112.527 64.4142 110.969C69.1197 109.453 71.6149 104.323 69.9026 99.685Z" fill="black"/>
<path d="M48.9261 42.863L39.0379 44.1928L39.7331 47.1427L49.5806 44.6361L48.9261 42.863Z" fill="#D4DBE7"/>
<path d="M50.4204 46.9098L40.2923 49.5176L40.5809 50.7439L50.8908 48.1844L50.4204 46.9098Z" fill="#D4DBE7"/>
<path d="M52.1543 51.6071L41.1432 53.1321L42.6974 59.7319L54.1424 56.9942L52.1543 51.6071Z" fill="#D4DBE7"/>
<path d="M31.0381 10.2246L36.2991 8.66061L35.5146 6.53442L30.4777 7.8446L31.0381 10.2246Z" fill="#D4DBE7"/>
<path d="M141.746 52.7131C148.477 41.7006 145.006 27.3164 133.994 20.5853C122.981 13.8541 108.597 17.3248 101.866 28.3374C95.1346 39.3499 98.6053 53.734 109.618 60.4652C120.63 67.1964 135.015 63.7257 141.746 52.7131Z" fill="#C8CFDA"/>
<path d="M113.124 16.6161C118.564 17.6699 122.119 22.9339 121.065 28.3736C120.011 33.8134 114.747 37.3688 109.308 36.315C103.868 35.2612 100.312 29.9972 101.366 24.5575C102.42 19.1177 107.684 15.5623 113.124 16.6161Z" fill="white" stroke="#D4DBE7"/>
<path d="M99.0917 45.9992C100.061 50.0174 102.019 53.537 104.64 56.3703C105.981 65.9334 92.5984 78.4452 92.5984 78.4452L103.477 84.5043C106.158 70.7764 112.871 65.0505 115.864 63.1219C119.488 64.0784 123.393 64.177 127.292 63.2361C127.444 63.1993 127.591 63.155 127.741 63.1157C119.625 57.6013 104.259 47.199 98.65 43.6582C98.7567 44.4369 98.9033 45.2187 99.0917 45.9992Z" fill="#203044"/>
<path d="M81.4314 114.928C85.5229 116.956 105.681 125.964 121.886 115.442C139.127 104.246 142.922 80.3101 143.252 78.0002C143.252 78.0002 119.348 68.2297 100.312 78.4611C83.2897 87.6103 81.4955 109.623 81.3064 114.18L81.4314 114.928Z" fill="#344A66"/>
<path opacity="0.28" d="M81.3059 114.181L81.4315 114.929C85.5229 116.957 105.682 125.965 121.886 115.443C123.92 114.122 125.76 112.62 127.436 111.002C115.173 113.505 93.9318 113.763 90.4623 86.913C82.524 97.2246 81.4499 110.724 81.3059 114.181Z" fill="#344A66"/>
<path d="M127.831 90.3717C129.468 93.1669 124.068 99.3722 115.77 104.232C107.472 109.093 99.4178 110.767 97.7809 107.972C96.1437 105.177 101.544 98.9714 109.842 94.1111C118.139 89.251 126.193 87.5767 127.831 90.3717Z" fill="#203044"/>
<path d="M143.215 77.9858C143.15 77.9598 142.988 77.8959 142.737 77.802C121.996 96.5542 92.0544 110.204 81.3972 114.724L81.4316 114.929C81.5234 114.975 81.6263 115.025 81.7339 115.077C92.587 110.463 122.524 96.7664 143.215 77.9858Z" fill="#203044"/>
<path d="M139.917 90.7826L129.722 74.5106C126.778 74.0644 123.511 73.7696 120.089 73.794L135.84 99.8249C137.545 96.7363 138.879 93.6387 139.917 90.7826Z" fill="#EAEEF4"/>
<path d="M101.473 120.371L85.6581 95.127C84.1504 98.5757 83.1614 102.008 82.5144 105.028L90.6335 118.446C93.792 119.353 97.5045 120.127 101.473 120.371Z" fill="#EAEEF4"/>
<path d="M124.204 97.3975C124.52 96.7143 124.382 95.8917 124.238 95.1803C124.104 94.5218 123.871 93.902 123.562 93.3057C122.976 92.1772 121.996 91.2122 120.835 90.6863C120.414 90.4958 119.849 90.6148 119.641 91.0649C119.449 91.4794 119.567 92.0571 120.019 92.2597C120.267 92.3705 120.498 92.5023 120.726 92.6485C120.729 92.6498 120.729 92.6501 120.731 92.6513C120.738 92.6576 120.746 92.6634 120.758 92.6734C120.808 92.7138 120.86 92.7521 120.909 92.7923C121.019 92.8821 121.124 92.9759 121.226 93.0743C121.318 93.1637 121.406 93.2576 121.492 93.3531C121.501 93.3623 121.506 93.3673 121.511 93.3732C121.513 93.3767 121.516 93.3802 121.521 93.3884C121.559 93.4409 121.601 93.4899 121.64 93.5411C121.801 93.7582 121.946 93.9869 122.074 94.2258C122.099 94.2717 122.123 94.3187 122.147 94.3654C122.153 94.3798 122.174 94.4274 122.188 94.4585C122.241 94.5816 122.291 94.7067 122.336 94.8335C122.431 95.1003 122.504 95.3722 122.569 95.6481C122.573 95.6671 122.577 95.6807 122.579 95.6901C122.58 95.694 122.58 95.6971 122.581 95.7042C122.592 95.7708 122.604 95.8373 122.615 95.9039C122.637 96.0371 122.657 96.1708 122.673 96.3054C122.712 96.6351 122.732 96.9851 122.867 97.2915C122.988 97.566 123.191 97.7582 123.504 97.7818C123.778 97.8019 124.083 97.6583 124.204 97.3975Z" fill="white"/>
<path d="M120.476 99.8838C120.792 99.2006 120.654 98.378 120.51 97.6666C120.377 97.0081 120.143 96.3883 119.834 95.792C119.248 94.6636 118.268 93.6985 117.108 93.1726C116.687 92.9822 116.121 93.1011 115.913 93.5512C115.721 93.9657 115.839 94.5439 116.291 94.7461C116.539 94.8568 116.77 94.9886 116.998 95.1348C117.001 95.1364 117.001 95.1364 117.003 95.1377C117.01 95.144 117.018 95.1497 117.03 95.1597C117.08 95.2001 117.132 95.2384 117.181 95.2786C117.291 95.3685 117.396 95.4623 117.498 95.5606C117.59 95.65 117.678 95.7439 117.765 95.8394C117.773 95.8486 117.778 95.8536 117.783 95.8595C117.786 95.863 117.788 95.8665 117.793 95.8747C117.831 95.9272 117.873 95.9762 117.911 96.028C118.073 96.2451 118.218 96.4738 118.346 96.7127C118.371 96.7586 118.395 96.8056 118.418 96.8523C118.424 96.8666 118.446 96.9143 118.46 96.9453C118.513 97.0685 118.563 97.1936 118.608 97.3204C118.703 97.5872 118.776 97.8591 118.841 98.135C118.845 98.154 118.848 98.1676 118.851 98.177C118.851 98.1809 118.852 98.184 118.853 98.1911C118.863 98.2577 118.876 98.3241 118.887 98.3907C118.909 98.524 118.929 98.6577 118.944 98.7922C118.984 99.122 119.004 99.472 119.139 99.7784C119.259 100.053 119.463 100.245 119.776 100.269C120.05 100.289 120.355 100.145 120.476 99.8838Z" fill="white"/>
<path d="M107.019 98.4804C106.703 99.1635 106.841 99.9861 106.985 100.698C107.118 101.356 107.352 101.976 107.661 102.572C108.247 103.701 109.227 104.666 110.387 105.192C110.808 105.382 111.373 105.263 111.582 104.813C111.774 104.398 111.656 103.82 111.204 103.618C110.956 103.507 110.725 103.375 110.496 103.229C110.494 103.228 110.494 103.228 110.492 103.226C110.484 103.22 110.477 103.214 110.465 103.204C110.415 103.163 110.363 103.125 110.314 103.085C110.204 102.995 110.099 102.901 109.998 102.803C109.905 102.714 109.817 102.62 109.731 102.524C109.722 102.515 109.717 102.51 109.712 102.504C109.71 102.501 109.708 102.497 109.702 102.489C109.665 102.436 109.622 102.387 109.583 102.336C109.422 102.119 109.277 101.89 109.149 101.651C109.124 101.606 109.1 101.559 109.077 101.512C109.07 101.498 109.049 101.45 109.035 101.419C108.982 101.296 108.932 101.171 108.887 101.044C108.792 100.777 108.719 100.505 108.654 100.229C108.65 100.21 108.647 100.197 108.644 100.187C108.643 100.183 108.643 100.18 108.642 100.173C108.632 100.106 108.619 100.04 108.608 99.9734C108.586 99.8401 108.566 99.7065 108.55 99.5719C108.511 99.2422 108.491 98.8921 108.356 98.5858C108.236 98.3116 108.032 98.119 107.719 98.095C107.445 98.0754 107.141 98.219 107.019 98.4804Z" fill="white"/>
<path d="M103.103 100.539C102.786 101.222 102.924 102.045 103.068 102.756C103.202 103.415 103.435 104.034 103.745 104.631C104.33 105.759 105.31 106.724 106.471 107.25C106.892 107.441 107.457 107.322 107.666 106.871C107.857 106.457 107.739 105.879 107.287 105.677C107.039 105.566 106.808 105.434 106.58 105.288C106.577 105.286 106.577 105.286 106.575 105.285C106.568 105.279 106.56 105.273 106.548 105.263C106.498 105.222 106.447 105.184 106.397 105.144C106.288 105.054 106.183 104.96 106.081 104.862C105.989 104.772 105.901 104.678 105.814 104.583C105.806 104.574 105.801 104.569 105.795 104.563C105.793 104.559 105.791 104.556 105.785 104.548C105.748 104.495 105.706 104.446 105.667 104.395C105.505 104.178 105.36 103.949 105.232 103.71C105.207 103.664 105.183 103.617 105.16 103.57C105.154 103.556 105.132 103.508 105.119 103.477C105.065 103.354 105.016 103.229 104.971 103.102C104.875 102.836 104.803 102.564 104.738 102.288C104.734 102.269 104.73 102.255 104.727 102.246C104.727 102.242 104.726 102.239 104.725 102.232C104.715 102.165 104.702 102.099 104.691 102.032C104.669 101.898 104.649 101.765 104.633 101.63C104.594 101.3 104.574 100.95 104.439 100.644C104.318 100.37 104.115 100.177 103.802 100.153C103.528 100.135 103.224 100.278 103.103 100.539Z" fill="white"/>
<path d="M99.9378 102.913C99.6729 103.484 99.7881 104.172 99.9092 104.767C100.021 105.317 100.216 105.835 100.475 106.333C100.964 107.276 101.783 108.083 102.753 108.523C103.105 108.682 103.578 108.582 103.751 108.206C103.912 107.859 103.813 107.377 103.435 107.208C103.228 107.116 103.035 107.005 102.844 106.883C102.842 106.882 102.842 106.882 102.84 106.881C102.834 106.876 102.828 106.871 102.818 106.862C102.776 106.828 102.733 106.797 102.691 106.763C102.6 106.688 102.512 106.609 102.427 106.527C102.35 106.452 102.276 106.374 102.204 106.294C102.197 106.286 102.193 106.282 102.188 106.277C102.187 106.274 102.185 106.271 102.18 106.264C102.149 106.221 102.114 106.18 102.081 106.137C101.946 105.955 101.824 105.764 101.717 105.564C101.697 105.526 101.677 105.487 101.657 105.448C101.652 105.435 101.634 105.396 101.623 105.37C101.578 105.267 101.537 105.162 101.499 105.057C101.419 104.834 101.358 104.606 101.304 104.376C101.301 104.36 101.298 104.348 101.296 104.34C101.296 104.337 101.295 104.335 101.294 104.329C101.285 104.273 101.275 104.217 101.265 104.161C101.247 104.05 101.231 103.938 101.217 103.826C101.184 103.55 101.167 103.258 101.055 103.002C100.953 102.772 100.784 102.612 100.523 102.591C100.293 102.575 100.039 102.695 99.9378 102.913Z" fill="white"/>
<path d="M126.641 94.6869C126.841 94.0901 126.651 93.4198 126.466 92.8418C126.295 92.3071 126.044 91.8135 125.733 91.3464C125.143 90.4626 124.241 89.7507 123.228 89.4202C122.86 89.3003 122.402 89.4514 122.27 89.844C122.148 90.2063 122.299 90.6752 122.694 90.802C122.909 90.8711 123.114 90.9597 123.317 91.0602C123.319 91.0615 123.319 91.0615 123.321 91.0619C123.328 91.0665 123.334 91.0708 123.345 91.0778C123.39 91.1068 123.436 91.1337 123.481 91.1632C123.58 91.2276 123.677 91.2963 123.77 91.3686C123.855 91.4344 123.936 91.5044 124.017 91.5761C124.025 91.583 124.029 91.5869 124.034 91.5911C124.037 91.594 124.039 91.5967 124.044 91.6026C124.08 91.6427 124.119 91.6792 124.156 91.7186C124.31 91.8838 124.452 92.0609 124.58 92.2472C124.605 92.2831 124.629 92.32 124.653 92.3567C124.659 92.3682 124.681 92.4056 124.695 92.4302C124.751 92.5281 124.803 92.6274 124.852 92.7279C124.957 92.9407 125.042 93.1599 125.12 93.3833C125.126 93.3987 125.13 93.4095 125.133 93.4173C125.134 93.4207 125.134 93.4229 125.136 93.4289C125.15 93.4835 125.168 93.5373 125.183 93.5913C125.213 93.7 125.242 93.8093 125.268 93.9193C125.331 94.1892 125.379 94.4786 125.519 94.721C125.645 94.9377 125.831 95.0791 126.093 95.0702C126.325 95.062 126.564 94.9148 126.641 94.6869Z" fill="white"/>
<path d="M98.5788 106.325C98.6174 106.144 98.7421 105.984 98.9266 105.909C109.343 101.67 126.211 90.4854 126.38 90.3728C126.647 90.1954 127.006 90.2681 127.183 90.5345C127.36 90.8009 127.288 91.1611 127.022 91.3374C126.851 91.4507 109.888 102.699 99.3635 106.981C99.0675 107.102 98.7291 106.959 98.6091 106.663C98.5638 106.552 98.5557 106.435 98.5788 106.325Z" fill="white"/>
<path d="M117.066 101.334C117.424 101.079 117.514 100.634 117.295 100.257C116.379 98.684 115.41 97.1452 114.527 95.5519C114.306 95.1526 113.689 95.037 113.325 95.2964C112.923 95.582 112.826 96.0771 113.069 96.499C113.973 98.0728 114.906 99.648 115.989 101.106C116.232 101.433 116.709 101.589 117.066 101.334Z" fill="white"/>
<path d="M114.003 102.801C114.36 102.546 114.451 102.101 114.232 101.724C113.316 100.151 112.346 98.6116 111.463 97.0187C111.242 96.6194 110.625 96.5038 110.261 96.7631C109.86 97.0488 109.763 97.5442 110.005 97.9657C110.909 99.5395 111.842 101.115 112.926 102.572C113.169 102.899 113.645 103.056 114.003 102.801Z" fill="white"/>
<path d="M186.002 68.9707L185.934 80.3C185.934 80.3 206.818 89.3772 234.254 80.0271L234.322 69.2437C234.322 69.3119 212.482 76.6828 186.002 68.9707Z" fill="#344A66"/>
<path d="M227.77 108.623L230.91 83.5757C208.934 89.2404 189.278 83.3027 189.278 83.3027L192.076 108.418C192.076 108.35 207.705 117.495 227.77 108.623Z" fill="#344A66"/>
<path d="M231.797 53.3408C232.548 53.2726 233.571 53.4773 234.254 53.2043C234.936 52.9996 234.936 51.5663 234.936 51.0203C234.936 50.0649 234.868 49.1094 234.868 48.1539C234.868 45.4922 234.936 42.8304 234.936 40.1687C234.936 39.145 235.005 38.053 235.073 37.0293C232.752 37.9165 231.046 40.1688 231.046 42.8305L230.978 49.3823H229.067V53.4091C229.954 53.4091 230.91 53.4091 231.797 53.3408Z" fill="#D4DBE7"/>
<path d="M239.236 53.4748C239.1 51.0178 238.554 48.6291 238.485 46.1722C238.349 43.0327 237.871 39.8932 238.212 36.7538C237.939 36.6855 237.666 36.6855 237.393 36.6855C237.12 36.6855 236.847 36.6855 236.574 36.7538C236.574 36.9585 236.574 37.1633 236.506 37.2998C236.438 37.9823 236.438 38.733 236.438 39.4155C236.438 40.917 236.438 42.3502 236.438 43.8517C236.438 46.2404 236.574 48.6974 236.438 51.0178C236.37 52.3146 236.028 54.2938 234.527 54.635C233.64 54.8398 232.684 54.7033 231.865 54.7715C230.978 54.8398 230.022 54.908 229.135 54.908V57.9792C231.524 58.0475 233.844 58.5252 236.233 58.3205C237.189 58.2522 238.485 58.0475 238.895 57.0237C239.304 55.9318 239.304 54.635 239.236 53.4748Z" fill="#D4DBE7"/>
<path d="M243.672 42.9669C243.672 40.3052 242.034 37.9848 239.646 37.0293C239.509 38.7355 239.577 40.4417 239.714 42.0797C239.85 43.7177 239.85 45.4239 240.055 47.0619C240.396 49.8601 241.079 52.7948 240.669 55.593C240.533 56.6167 240.328 57.9135 239.441 58.596C238.554 59.2785 237.53 59.5515 236.438 59.6197C233.981 59.8244 231.524 59.415 229.067 59.2785V61.8719L237.257 61.9402C240.738 61.9402 243.536 59.142 243.604 55.6613C243.604 55.3883 243.604 55.047 243.536 54.774H243.604L243.672 42.9669Z" fill="#D4DBE7"/>
<path d="M192.827 39.6896L192.622 68.3541C192.622 68.3541 193.987 68.7636 196.308 69.1731C196.308 66.5114 196.717 32.5234 202.45 24.0605C196.785 26.927 192.827 32.8647 192.827 39.6896Z" fill="#D4DBE7"/>
<path d="M218.488 24.198C224.221 32.8656 224.017 67.9456 224.017 69.4471H222.788C222.788 69.3788 222.856 59.4827 222.106 48.9041C220.877 31.4324 217.192 23.5837 217.192 23.5837C216.168 23.106 215.076 22.7647 213.916 22.56C215.349 25.3582 216.373 33.9576 216.987 48.1534C217.465 59.4145 217.533 70.1978 217.533 70.3343H216.304C216.236 58.3907 213.165 22.4235 213.165 22.4235C212.482 22.287 211.8 22.2188 211.049 22.2188L210.708 70.7438C216.1 70.812 222.106 70.3343 227.702 68.5598L227.907 39.8952C227.975 33.0703 224.153 27.1327 218.488 24.198Z" fill="#D4DBE7"/>
<path d="M207.023 22.4922C205.862 22.6969 204.77 23.0382 203.747 23.4477C203.747 23.4477 199.925 31.2963 198.491 48.6998C197.604 59.2101 197.536 69.1063 197.536 69.1745H196.922C198.56 69.5157 200.539 69.7888 202.791 70.0618C202.791 69.1745 202.996 58.8007 203.61 47.9491C204.429 33.8898 205.589 25.2904 207.023 22.4922Z" fill="#D4DBE7"/>
<path d="M207.773 22.4235C207.773 22.4235 204.156 58.3907 203.951 70.266H203.337C205.248 70.4708 207.296 70.6755 209.48 70.7438L209.821 22.2188C209.207 22.2188 208.456 22.287 207.773 22.4235Z" fill="#D4DBE7"/>
<path d="M195.22 25.8997L194.423 26.6465L198.111 30.5802L198.908 29.8334L195.22 25.8997Z" fill="#344A66"/>
<path d="M193.13 31.595L192.333 32.3418L196.021 36.2756L196.818 35.5288L193.13 31.595Z" fill="#344A66"/>
<path d="M191.737 38.5227L190.94 39.2695L194.627 43.2033L195.424 42.4565L191.737 38.5227Z" fill="#344A66"/>
<path d="M191.336 46.7024L190.539 47.4492L194.226 51.383L195.023 50.6362L191.336 46.7024Z" fill="#344A66"/>
<path d="M191.242 53.0735L190.445 53.8203L194.133 57.7541L194.93 57.0072L191.242 53.0735Z" fill="#344A66"/>
<path d="M191.177 60.9348L190.38 61.6816L194.068 65.6154L194.864 64.8686L191.177 60.9348Z" fill="#344A66"/>
<path d="M204.164 25.9661L203.367 26.7129L207.054 30.6467L207.851 29.8999L204.164 25.9661Z" fill="#344A66"/>
<path d="M203.772 31.6516L202.975 32.3984L206.662 36.3322L207.459 35.5854L203.772 31.6516Z" fill="#344A66"/>
<path d="M202.329 38.6321L201.532 39.3789L205.22 43.3127L206.016 42.5659L202.329 38.6321Z" fill="#344A66"/>
<path d="M201.928 46.8118L201.131 47.5586L204.819 51.4924L205.615 50.7456L201.928 46.8118Z" fill="#344A66"/>
<path d="M201.884 53.1419L201.088 53.8887L204.775 57.8224L205.572 57.0757L201.884 53.1419Z" fill="#344A66"/>
<path d="M201.819 60.9973L201.022 61.7441L204.71 65.6779L205.506 64.9311L201.819 60.9973Z" fill="#344A66"/>
<path d="M225.091 26.0768L221.352 29.9609L222.139 30.7182L225.878 26.8341L225.091 26.0768Z" fill="#344A66"/>
<path d="M227.073 31.7584L223.334 35.6426L224.12 36.3999L227.86 32.5157L227.073 31.7584Z" fill="#344A66"/>
<path d="M228.387 38.776L224.647 42.6602L225.434 43.4176L229.174 39.5334L228.387 38.776Z" fill="#344A66"/>
<path d="M228.685 46.9088L224.946 50.793L225.733 51.5503L229.472 47.6661L228.685 46.9088Z" fill="#344A66"/>
<path d="M228.677 53.3463L224.937 57.2305L225.724 57.9879L229.464 54.1037L228.677 53.3463Z" fill="#344A66"/>
<path d="M228.612 61.2076L224.873 65.0918L225.659 65.8492L229.399 61.965L228.612 61.2076Z" fill="#344A66"/>
<path d="M216.221 26.0318L212.482 29.916L213.269 30.6733L217.008 26.7891L216.221 26.0318Z" fill="#344A66"/>
<path d="M216.504 31.7077L212.765 35.5918L213.551 36.3491L217.29 32.4649L216.504 31.7077Z" fill="#344A66"/>
<path d="M217.826 38.6491L214.087 42.5332L214.873 43.2905L218.613 39.4063L217.826 38.6491Z" fill="#344A66"/>
<path d="M218.116 46.86L214.377 50.7441L215.164 51.5014L218.903 47.6172L218.116 46.86Z" fill="#344A66"/>
<path d="M218.118 53.2408L214.379 57.125L215.166 57.8823L218.905 53.9981L218.118 53.2408Z" fill="#344A66"/>
<path d="M218.056 61.1217L214.317 65.0059L215.103 65.7632L218.843 61.879L218.056 61.1217Z" fill="#344A66"/>
<path d="M312.293 54.7592L313.253 50.7422H276.255V90.6504L314.214 90.5631C310.022 85.4109 307.49 78.6867 307.49 71.3513C307.446 65.1947 309.236 59.4749 312.293 54.7592Z" fill="#E0E5ED"/>
<path d="M391.255 50.7422H364.339L365.256 54.7592C368.225 59.4749 369.972 65.1947 369.972 71.3513C369.972 78.6867 367.359 85.4981 363.255 90.6504H391.255V50.7422Z" fill="#E0E5ED"/>
<path d="M391.255 93.6504L276.255 93.6505V97.6505L391.255 97.6504V93.6504Z" fill="#344A66"/>
<path d="M391.255 31.6504H277.255L277.255 35.6504H391.255V31.6504Z" fill="#849CBA"/>
<path d="M359.594 92.1742C371.104 80.6644 371.104 62.0035 359.594 50.4938C348.084 38.9841 329.423 38.9841 317.914 50.4938C306.404 62.0035 306.404 80.6644 317.914 92.1742C329.423 103.684 348.084 103.684 359.594 92.1742Z" fill="#344A66"/>
<path d="M358.837 38.1211H338.752H318.624L314.388 55.2371L338.752 44.2051L363.073 55.2371L358.837 38.1211Z" fill="#849CBA"/>
<rect x="276.172" y="37.1504" width="115" height="54" stroke="#344A66"/>
<path d="M338.753 41.877C322.466 41.877 309.28 55.0633 309.28 71.3497C309.28 87.6361 322.466 100.822 338.753 100.822C355.039 100.822 368.225 87.6361 368.225 71.3497C368.225 55.0633 354.995 41.877 338.753 41.877ZM338.753 95.2335C325.523 95.2335 314.825 84.536 314.825 71.306C314.825 58.076 325.523 47.3785 338.753 47.3785C351.982 47.3785 362.68 58.076 362.68 71.306C362.636 84.536 351.939 95.2335 338.753 95.2335Z" fill="#D4DBE7"/>
<path d="M338.752 98.2458C331.548 98.2458 324.78 95.4513 319.715 90.3427C314.607 85.2341 311.812 78.5099 311.812 71.3055C311.812 64.101 314.607 57.3332 319.715 52.2683C324.824 47.1597 331.548 44.3652 338.752 44.3652C345.957 44.3652 352.725 47.1597 357.789 52.2683C362.898 57.3769 365.693 64.101 365.693 71.3055C365.693 78.5099 362.898 85.2777 357.789 90.3427C352.681 95.4513 345.913 98.2458 338.752 98.2458ZM338.752 45.2822C324.387 45.2822 312.685 56.9839 312.685 71.3492C312.685 85.7144 324.387 97.4161 338.752 97.4161C353.118 97.4161 364.819 85.7144 364.819 71.3492C364.819 56.9839 353.118 45.2822 338.752 45.2822Z" fill="#344A66"/>
<path d="M358.314 25.0234H319.148V31.1363H358.314V25.0234Z" fill="#849CBA"/>
<path d="M387.088 29.0801H368.269V31.1323H387.088V29.0801Z" fill="#344A66"/>
<path d="M384.992 25.0234H370.408V28.3418H384.992V25.0234Z" fill="#344A66"/>
<path d="M315.916 29.082H302.075V31.1342H315.916V29.082Z" fill="#C1CAD8"/>
<path d="M317.794 21.7051H300.241V28.3419H317.794V21.7051Z" fill="#C1CAD8"/>
<path d="M317.794 26.2461H300.241V27.0757H317.794V26.2461Z" fill="#C1CAD8"/>
<path d="M297.927 26.9863H285.047V31.1343H297.927V26.9863Z" fill="#D4DBE7"/>
<path d="M314.345 45.545C314.345 46.069 314.345 45.545 314.345 49.1691L308.013 46.7676C307.489 46.7676 306.354 46.069 306.354 45.545V39.9125C306.354 39.3885 306.791 38.9082 307.358 38.9082H313.384C313.908 38.9082 314.388 39.3448 314.388 39.9125V45.545H314.345Z" fill="#344A66"/>
<path d="M302.818 55.1077C305.229 55.1077 307.184 53.1528 307.184 50.7413C307.184 48.3299 305.229 46.375 302.818 46.375C300.406 46.375 298.451 48.3299 298.451 50.7413C298.451 53.1528 300.406 55.1077 302.818 55.1077Z" fill="#344A66"/>
<path d="M300.023 50.7417C300.023 49.2135 301.289 47.9473 302.817 47.9473C304.346 47.9473 305.612 49.2135 305.612 50.7417C305.612 52.2699 304.346 53.5362 302.817 53.5362C301.246 53.5362 300.023 52.2699 300.023 50.7417Z" fill="#D4DBE7"/>
<path d="M338.752 86.9354C330.151 86.9354 323.165 79.9492 323.165 71.3476C323.165 62.7459 330.151 55.7598 338.752 55.7598C347.354 55.7598 354.34 62.7459 354.34 71.3476C354.34 79.9492 347.354 86.9354 338.752 86.9354ZM338.752 56.5894C330.631 56.5894 323.994 63.1825 323.994 71.3476C323.994 79.5126 330.587 86.1058 338.752 86.1058C346.874 86.1058 353.511 79.5126 353.511 71.3476C353.511 63.1825 346.874 56.5894 338.752 56.5894Z" fill="#D4DBE7"/>
<path d="M345.738 62.7474C345.738 64.232 344.56 65.4109 343.075 65.4109C341.59 65.4109 340.411 64.232 340.411 62.7474C340.411 61.2629 341.59 60.084 343.075 60.084C344.56 60.084 345.738 61.2629 345.738 62.7474Z" fill="#D4DBE7"/>
<path d="M389.169 48.2051H389.669V47.7051V45.9551H389.169V42.4551H389.669V40.7051V40.2051H389.169H387.17V40.7051H383.171V40.2051H379.173V40.7051H375.175V40.2051H371.176V40.7051H367.178V40.2051H365.179H364.679V40.7051V42.4551H365.179V45.9551H364.679V47.7051V48.2051H365.179H367.178V47.7051H371.176V48.2051H375.175V47.7051H379.173V48.2051H383.171V47.7051H387.17V48.2051H389.169Z" fill="white" stroke="#344A66" stroke-dasharray="4 4"/>
<path d="M428.966 79.5845L470.596 62.5215L541.574 75.9112L502.55 93.6852L428.966 79.5845Z" fill="white" fill-opacity="0.4"/>
<path d="M445.318 78.1618L471.031 67.0234L525.577 77.2929L501.088 88.7867L445.318 78.1618Z" fill="#344A66"/>
<path d="M541.574 75.9121L541.495 77.4525L540.191 78.1635L540.705 98.8603L541.376 98.5443L541.337 100.006L503.063 118.254C503.063 118.254 498.798 117.108 498.521 113.711C498.166 108.932 502.55 93.6861 502.55 93.6861L541.574 75.9121Z" fill="#253549"/>
<path d="M503.063 118.253L492.952 116.396L490.622 115.962L438.208 106.285L435.917 105.85L429.045 104.587C429.045 104.587 426.951 101.901 426.951 92.4212C426.951 81.8753 428.966 79.5449 428.966 79.5449L436.549 81.0063L438.761 81.4408L490.898 91.4338L493.11 91.8682L502.589 93.6851C502.589 93.6851 500.931 99.0173 500.931 106.166C500.931 112.684 503.063 118.253 503.063 118.253Z" fill="#344A66"/>
<path d="M540.705 98.8589L504.406 116.198C504.406 116.198 502.905 112.446 502.826 105.179C502.787 97.595 504.09 94.7907 504.09 94.7907L540.191 78.1621L540.705 98.8589Z" fill="#F2F4F8"/>
<path opacity="0.5" d="M503.3 97.99C503.498 97.0816 504.13 94.7907 504.13 94.7907L540.231 78.1621L540.31 81.006C540.31 81.006 513.096 94.1587 503.3 97.99Z" fill="#E0E5ED"/>
<path d="M492.952 116.396L490.622 115.962C489.121 104.626 490.029 96.0548 490.859 91.4336L493.07 91.8681C492.28 96.4103 491.372 105.06 492.952 116.396Z" fill="white" fill-opacity="0.4"/>
<path d="M438.208 106.284C436.233 94.3166 437.537 85.5086 438.721 81.4403L436.51 81.0059C435.048 85.1136 434.1 93.6846 435.917 105.85L438.208 106.284Z" fill="white" fill-opacity="0.4"/>
<g opacity="0.5">
<path opacity="0.28" d="M428.531 103.639C428.808 104.35 429.045 104.626 429.045 104.626L435.917 105.89L438.208 106.325L490.622 116.001L492.952 116.436L503.063 118.292C503.063 118.292 502.945 117.976 502.787 117.463C502.787 117.423 429.361 103.718 428.531 103.639Z" fill="#88ADC7"/>
</g>
<path d="M535.57 64.1002L502.629 51.1055L433.31 64.1792L463.645 77.885L535.57 64.1002Z" fill="#849CBA"/>
<path d="M433.31 64.1777L433.389 65.6786L434.653 66.3501L434.179 76.3825L433.508 76.0666L433.547 77.4885L463.171 91.6682C463.171 91.6682 464.395 91.0757 464.672 87.7579C465.027 83.0577 463.684 77.844 463.684 77.844L433.31 64.1777Z" fill="#849CBA"/>
<path d="M463.645 77.8843L463.131 91.7086L535.452 78.3583L535.57 64.0996L463.645 77.8843Z" fill="#C8CFDA"/>
<path d="M478.417 75.041L475.099 75.673V89.4577L478.417 88.8652V75.041Z" fill="#849CBA"/>
<path d="M484.42 73.8945L480.352 74.6845V88.5087L484.42 87.7583V73.8945Z" fill="#849CBA"/>
<path d="M447.648 61.4531L444.33 62.0851L475.099 75.5933L478.417 75.0009L447.648 61.4531Z" fill="#F2F4F8"/>
<path d="M453.652 60.2695L449.583 61.0595L480.352 74.6467L484.42 73.8963L453.652 60.2695Z" fill="#F2F4F8"/>
<path d="M487.264 53.8711L483.946 54.5031L514.715 68.0508L518.033 67.4188L487.264 53.8711Z" fill="#F2F4F8"/>
<path d="M493.268 52.7246L489.2 53.5146L519.968 67.0623L524.037 66.3118L493.268 52.7246Z" fill="#F2F4F8"/>
<path d="M524.037 66.3125L520.719 66.9445V81.0452L524.037 80.4527V66.3125Z" fill="#849CBA"/>
<path d="M518.941 67.2988L514.873 68.0493V82.1895L518.941 81.439V67.2988Z" fill="#849CBA"/>
<path d="M434.14 76.4231L461.828 89.6943L462.104 78.9904L434.614 66.3906L434.14 76.4231Z" fill="white"/>
<path opacity="0.5" d="M434.456 70.1429L462.025 82.8612L462.104 78.9904L434.614 66.3906L434.456 70.1429Z" fill="#E0E5ED"/>
<path d="M425.727 52.803L456.614 38.4258L521.746 47.0363L493.268 61.532L425.727 52.803Z" fill="#849CBA"/>
<path opacity="0.5" d="M430.032 50.8676L456.614 38.4258L521.746 47.0363L495.756 60.2681L430.032 50.8676Z" fill="#93BBD7"/>
<path d="M521.746 47.0371L521.667 48.459L520.482 49.17L520.956 57.7015L521.588 57.3855L521.548 58.7285L493.742 73.6191C493.742 73.6191 489.832 72.7897 489.595 69.6693C489.279 65.2851 493.307 61.5328 493.307 61.5328L521.746 47.0371Z" fill="#344356"/>
<path d="M493.268 61.5317C493.268 61.5317 491.451 62.5192 491.53 68.0884C491.569 71.5642 493.742 73.6181 493.742 73.6181L425.806 64.9285C425.806 64.9285 423.673 62.8352 423.673 58.9644C423.633 54.9356 425.727 52.8027 425.727 52.8027L493.268 61.5317Z" fill="#344A66"/>
<path d="M441.17 59.2812L439.195 61.0587L441.17 63.31L443.145 61.5326L441.17 59.2812Z" fill="white"/>
<path d="M447.213 60.0312L445.239 61.8087L447.213 64.06L449.228 62.3221L447.213 60.0312Z" fill="white"/>
<path d="M453.296 60.8223L451.321 62.5602L453.296 64.8115L455.271 63.0736L453.296 60.8223Z" fill="white"/>
<path d="M459.379 61.5723L457.364 63.3102L459.379 65.5615L461.354 63.8236L459.379 61.5723Z" fill="white"/>
<path d="M465.422 62.3223L463.447 64.0602L465.422 66.351L467.397 64.5736L465.422 62.3223Z" fill="white"/>
<path d="M471.505 63.0723L469.53 64.8497L471.505 67.101L473.479 65.3236L471.505 63.0723Z" fill="white"/>
<path d="M520.956 57.6995L494.966 71.6817L494.69 62.4787L520.521 49.168L520.956 57.6995Z" fill="#E3E7EC"/>
<path d="M520.956 51.3798L494.848 67.6924L494.69 62.4787L520.521 49.168L520.956 51.3798Z" fill="#D8E2EC"/>
<path d="M441.526 34.3585L473.401 22.0352L537.782 34.0425L508.238 47.0373L441.526 34.3585Z" fill="#436A90"/>
<path d="M537.782 34.043L537.624 35.4649L536.4 36.0969L536.479 46.6823L537.111 46.4058L536.953 47.7487L508.08 61.1384C508.08 61.1384 504.209 57.7021 504.209 54.6213C504.209 50.2371 508.277 46.9982 508.277 46.9982L537.782 34.043Z" fill="#A5BDD1"/>
<path d="M508.238 47.0362C508.238 47.0362 506.618 48.8136 506.618 53.0399C506.618 57.5031 508.04 61.1764 508.04 61.1764L440.894 48.9321C440.894 48.9321 438.485 42.7704 438.761 38.8997C439.037 34.8709 441.486 34.3574 441.486 34.3574L508.238 47.0362Z" fill="#2B4C6B"/>
<path d="M536.439 46.7206L509.423 59.2809C509.423 59.2809 508.554 55.6076 508.554 52.7243C508.554 49.1695 509.62 48.024 509.62 48.024L536.36 36.0957L536.439 46.7206Z" fill="white"/>
<path opacity="0.5" d="M536.36 36.8852V36.1348L509.62 48.0631C509.62 48.0631 508.554 49.2085 508.554 52.7633C508.554 53.0793 508.554 53.3953 508.593 53.6718C511.674 51.6574 530.198 40.44 536.36 36.8852Z" fill="#C8CFDA"/>
<path d="M530.712 28.6306L499.824 16.4258L434.693 28.7096L463.171 41.5859L530.712 28.6306Z" fill="#E0E5ED"/>
<path d="M434.693 28.709L434.772 30.1309L435.957 30.7629L435.483 36.0556L434.851 35.7791L434.89 37.122L462.697 50.4328C462.697 50.4328 466.607 49.3663 466.844 46.246C467.16 41.8617 463.131 41.5458 463.131 41.5458L434.693 28.709Z" fill="#AFC2DA"/>
<path d="M463.171 41.5861C463.171 41.5861 464.75 43.1265 464.474 46.6418C464.276 49.0512 462.697 50.4731 462.697 50.4731L530.633 37.9128C530.633 37.9128 533.082 37.3204 533.082 33.4101C533.121 29.3813 530.712 28.6309 530.712 28.6309L463.171 41.5861Z" fill="#849CBA"/>
<path d="M435.483 36.0568L461.512 48.5381C461.512 48.5381 462.736 48.5381 462.736 45.8128C462.736 43.9959 461.788 42.5739 461.788 42.5739L435.957 30.7246L435.483 36.0568Z" fill="#F3F6F8"/>
<path opacity="0.5" d="M462.341 43.7589C462.065 43.0479 461.749 42.5739 461.749 42.5739L435.917 30.7246L435.799 32.107C435.838 32.1465 453.336 40.2831 462.341 43.7589Z" fill="#E0E5ED"/>
</svg>
