<svg width="357" height="183" viewBox="0 0 357 183" fill="none" xmlns="http://www.w3.org/2000/svg">
<path fill-rule="evenodd" clip-rule="evenodd" d="M81.3673 162.597C81.3673 160.744 80.629 158.945 79.3079 157.642C77.9868 156.32 76.2124 155.586 74.3473 155.586C63.4417 155.586 42.5372 155.586 31.6316 155.586C29.7665 155.586 27.9921 156.32 26.6709 157.642C25.3498 158.963 24.6116 160.744 24.6116 162.597C24.6116 164.451 25.3498 166.25 26.6709 167.553C27.9921 168.875 29.7665 169.609 31.6316 169.609C42.5372 169.609 63.4417 169.609 74.3473 169.609C76.2124 169.609 77.9868 168.875 79.3079 167.553C80.629 166.25 81.3673 164.47 81.3673 162.597Z" fill="#D4DBE7"/>
<path fill-rule="evenodd" clip-rule="evenodd" d="M29.1233 145.676C29.2738 139.99 42.8073 138.794 52.9882 129.629C63.2238 139.972 76.7025 140.008 76.853 145.676V163.344H29.1233V145.676Z" fill="#EAEEF5"/>
<path fill-rule="evenodd" clip-rule="evenodd" d="M67.2289 147.588C67.2289 146.982 66.7434 146.486 66.1293 146.486C61.5882 146.486 44.395 146.486 39.854 146.486C39.2399 146.486 38.7544 146.982 38.7544 147.588C38.7544 150.047 38.7544 155.939 38.7544 158.398C38.7544 159.004 39.2542 159.5 39.854 159.5C44.395 159.5 61.5882 159.5 66.1293 159.5C66.7434 159.5 67.2289 159.004 67.2289 158.398C67.2289 155.939 67.2289 150.047 67.2289 147.588Z" fill="white"/>
<path fill-rule="evenodd" clip-rule="evenodd" d="M50.8168 92.3033L48.5959 133.785C48.5959 136.207 50.5782 138.19 53.001 138.19C55.4238 138.19 57.4061 136.207 57.4061 133.785L55.1852 92.3033C55.1852 91.0919 54.2124 90.1191 53.001 90.1191C51.7896 90.1191 50.8168 91.0919 50.8168 92.3033Z" fill="#D4DBE7"/>
<path d="M70.6903 144.97H35.3027C34.697 144.97 34.2014 144.475 34.2014 143.869C34.2014 143.263 34.697 142.768 35.3027 142.768H70.6903C71.296 142.768 71.7915 143.263 71.7915 143.869C71.7915 144.475 71.296 144.97 70.6903 144.97Z" fill="#8FA1BD"/>
<path fill-rule="evenodd" clip-rule="evenodd" d="M40.9306 64.0616C24.17 59.2036 12.7197 37.3258 9.47623 29.2235C6.23274 21.1212 3.89439 6.38076 6.18747 6.29757C7.48487 6.33085 9.68744 6.3974 10.8038 6.29757C13.4439 6.28094 11.2866 8.4604 15.0731 15.5145C20.6248 25.8295 31.5622 27.0441 31.5622 27.0441V18.1931C31.5622 18.1931 22.1183 20.1896 18.0602 11.8211C14.002 3.45262 16.5063 -0.0578084 13.8663 0.00874005C10.1853 0.108563 4.40732 0.0752885 1.42029 0.00874005C-2.01933 -0.0744455 1.46555 19.5574 4.70905 29.4065C7.95255 39.2557 23.9588 67.622 40.8703 69.2192C40.9155 67.5055 40.9457 65.9416 40.9306 64.0616Z" fill="#B4C1D6"/>
<path fill-rule="evenodd" clip-rule="evenodd" d="M65.0425 64.0616C81.8031 59.2036 93.2534 37.3258 96.4969 29.2235C99.7404 21.1212 102.079 6.38076 99.7857 6.29757C98.4883 6.33084 96.2857 6.39739 95.1693 6.29757C92.5293 6.28093 94.6866 8.46039 90.9 15.5145C85.3483 25.8295 74.411 27.0441 74.411 27.0441V18.1931C74.411 18.1931 83.8548 20.1896 87.913 11.8211C91.9711 3.46926 89.4668 -0.0578127 92.1069 0.00873581C95.7879 0.108559 101.566 0.0752843 104.553 0.00873581C107.992 -0.0744498 104.508 19.5574 101.264 29.4065C98.0206 39.2557 82.0143 67.622 65.1029 69.2191C65.0576 67.5055 65.0425 65.9416 65.0425 64.0616Z" fill="#B4C1D6"/>
<path fill-rule="evenodd" clip-rule="evenodd" d="M59.3284 91.3707C58.4458 94.1239 55.8934 95.9961 53.0071 95.9961C50.1208 95.9961 47.5445 94.1239 46.6858 91.3707C37.9791 64.1142 22.9034 16.9063 18.6574 3.59926C18.395 2.75495 18.5381 1.85558 19.0629 1.13976C19.5877 0.423927 20.3988 0.00177765 21.2813 0.00177765C33.59 0.00177765 72.4481 0.00177765 84.7567 0.00177765C85.6393 0.00177765 86.4503 0.423927 86.9751 1.13976C87.4999 1.85558 87.643 2.77331 87.3806 3.59926C83.0869 16.9247 68.0351 64.1142 59.3284 91.3707Z" fill="#F2F4F8"/>
<path fill-rule="evenodd" clip-rule="evenodd" d="M48.0264 93.791L27.8364 0.0175781H32.9023L52.9822 96.0119L73.0804 0.0175781H78.1462L57.9562 93.791C56.7265 95.1676 54.9277 96.0119 53.0005 96.0119C51.0733 96.0119 49.2745 95.1676 48.0264 93.791Z" fill="white"/>
<path d="M80.9232 4.47598H25.052C24.4463 4.47598 23.9507 3.98041 23.9507 3.37471C23.9507 2.76901 24.4463 2.27344 25.052 2.27344H80.9049C81.5106 2.27344 82.0061 2.76901 82.0061 3.37471C82.0061 3.98041 81.5289 4.47598 80.9232 4.47598Z" fill="#D4DBE7"/>
<path fill-rule="evenodd" clip-rule="evenodd" d="M230.015 162.189C230.015 158.316 226.868 155.178 223.007 155.178H162.5C158.622 155.178 155.492 158.316 155.492 162.189C155.492 166.062 158.639 169.201 162.5 169.201H223.007C226.868 169.219 230.015 166.062 230.015 162.189Z" fill="#D4DBE7"/>
<path d="M224.84 135.453H160.646V162.948H224.84V135.453Z" fill="#233853"/>
<path d="M211.552 140.562H173.942V157.408H211.552V140.562Z" fill="#D4DBE7"/>
<path d="M208.666 155.808H176.814C176.516 155.808 176.274 155.568 176.274 155.268V142.442C176.274 142.142 176.516 141.902 176.814 141.902H208.666C208.964 141.902 209.207 142.142 209.207 142.442V155.268C209.207 155.568 208.964 155.808 208.666 155.808ZM177.364 154.72H208.126V142.981H177.364V154.72Z" fill="white"/>
<path fill-rule="evenodd" clip-rule="evenodd" d="M160.657 131.968C160.86 126.281 179.061 125.085 192.753 115.92C206.518 126.263 224.645 126.299 224.848 131.968V135.427H160.657V131.968Z" fill="#8FA1BD"/>
<path d="M220.006 132.573H165.474C165.239 132.573 165.033 132.37 165.033 132.131C165.033 131.892 165.225 131.689 165.474 131.689H220.021C220.256 131.689 220.462 131.892 220.462 132.131C220.447 132.37 220.256 132.573 220.006 132.573Z" fill="#344A66"/>
<path fill-rule="evenodd" clip-rule="evenodd" d="M184.458 98.2541C184.458 98.2541 186.298 100.996 187.826 105.855C188.322 107.437 188.838 109.13 188.819 110.915C188.801 112.737 188.23 114.394 187.734 115.976C186.206 120.78 184.476 123.577 184.476 123.577C184.476 128.141 201.039 128.141 201.039 123.577C201.039 123.577 199.309 120.78 197.782 115.976C197.266 114.375 196.714 112.719 196.696 110.915C196.677 109.112 197.193 107.437 197.69 105.855C199.217 100.996 201.057 98.2541 201.057 98.2541C201.057 93.6901 197.34 89.9727 192.776 89.9727C188.175 89.9727 184.458 93.6901 184.458 98.2541Z" fill="#233853"/>
<path d="M156.324 79.2123C151.588 79.2123 146.082 78.0009 141.64 74.5502C136.225 70.347 133.344 63.7761 133.105 55.0577C132.903 47.6424 134.867 42.3747 138.979 39.3829C145.348 34.7392 154.176 37.786 154.562 37.9329C155.993 38.4468 156.746 40.0069 156.232 41.4386C155.718 42.8703 154.158 43.6228 152.726 43.1089C152.634 43.0722 146.21 40.9063 142.209 43.843C139.676 45.6969 138.465 49.4228 138.612 54.8925C138.813 61.8856 140.961 67.0432 145.017 70.1818C149.863 73.9445 156.471 74.1831 160.674 73.2287C162.16 72.8983 163.629 73.816 163.959 75.3028C164.29 76.7895 163.372 78.2578 161.885 78.5882C160.27 78.992 158.361 79.2123 156.324 79.2123Z" fill="#233853"/>
<path d="M228.949 79.2097C226.912 79.2097 225.003 78.9895 223.388 78.6224C221.901 78.292 220.965 76.8053 221.314 75.3369C221.644 73.8502 223.131 72.9325 224.599 73.2629C228.784 74.2173 235.391 73.9787 240.237 70.216C244.293 67.059 246.459 61.9197 246.643 54.9267C246.79 49.457 245.597 45.731 243.045 43.8772C239.044 40.9405 232.583 43.1247 232.528 43.143C231.097 43.6386 229.518 42.8861 229.022 41.4544C228.527 40.0228 229.261 38.4626 230.693 37.9487C231.06 37.8202 239.907 34.7734 246.276 39.3987C250.387 42.3905 252.351 47.6583 252.149 55.0735C251.911 63.7919 249.029 70.3445 243.614 74.566C239.173 77.9983 233.685 79.2097 228.949 79.2097Z" fill="#233853"/>
<path fill-rule="evenodd" clip-rule="evenodd" d="M151.217 41.539V30.4603C151.217 25.8963 154.916 22.1973 159.48 22.1973H225.768C227.958 22.1973 230.056 23.0622 231.602 24.6081C233.148 26.154 234.013 28.2519 234.013 30.4419C234.013 35.7788 234.013 41.7231 234.013 41.7231C233.939 75.3089 215.407 102.546 192.606 102.546C169.786 102.564 151.217 75.2169 151.217 41.539Z" fill="#344A66"/>
<path d="M192.522 83.5287C204.205 83.5287 213.675 74.0582 213.675 62.3757C213.675 50.6932 204.205 41.2227 192.522 41.2227C180.84 41.2227 171.369 50.6932 171.369 62.3757C171.369 74.0582 180.84 83.5287 192.522 83.5287Z" fill="white"/>
<path d="M192.526 87.0631C178.912 87.0631 167.853 75.985 167.853 62.39C167.853 48.7949 178.931 37.7168 192.526 37.7168C206.121 37.7168 217.199 48.7759 217.199 62.3709C217.199 75.9659 206.121 87.0631 192.526 87.0631ZM192.526 38.8036C179.522 38.8036 168.94 49.386 168.94 62.39C168.94 75.3939 179.522 85.9763 192.526 85.9763C205.53 85.9763 216.112 75.3939 216.112 62.39C216.112 49.386 205.511 38.8036 192.526 38.8036Z" fill="white"/>
<path fill-rule="evenodd" clip-rule="evenodd" d="M191.731 50.8962C191.84 50.5466 192.168 50.3281 192.518 50.3281C192.867 50.3281 193.195 50.5685 193.304 50.8962C194.113 53.3871 195.315 57.1015 195.773 58.5218C195.883 58.8714 196.21 59.0899 196.56 59.0899C198.046 59.0899 201.957 59.0899 204.579 59.0899C204.928 59.0899 205.256 59.3302 205.365 59.658C205.475 60.0076 205.365 60.379 205.06 60.5757C202.94 62.127 199.772 64.4212 198.57 65.2952C198.286 65.5137 198.155 65.8851 198.264 66.2129C198.723 67.6331 199.925 71.3476 200.733 73.8385C200.843 74.188 200.733 74.5595 200.427 74.7561C200.143 74.9746 199.75 74.9746 199.466 74.7561C197.347 73.2048 194.178 70.9106 192.977 70.0366C192.693 69.8181 192.299 69.8181 192.015 70.0366C190.814 70.9106 187.645 73.2048 185.526 74.7561C185.242 74.9746 184.849 74.9746 184.565 74.7561C184.28 74.5376 184.149 74.1662 184.259 73.8385C185.067 71.3476 186.269 67.6331 186.728 66.2129C186.837 65.8633 186.728 65.4918 186.422 65.2952C185.22 64.4212 182.052 62.127 179.932 60.5757C179.648 60.3572 179.517 59.9857 179.626 59.658C179.736 59.3084 180.063 59.0899 180.413 59.0899C183.035 59.0899 186.946 59.0899 188.432 59.0899C188.782 59.0899 189.109 58.8495 189.219 58.5218C189.721 57.1234 190.923 53.3871 191.731 50.8962Z" fill="#344A66"/>
<path d="M163.914 72.9517C163.27 72.9517 162.663 72.5653 162.387 71.9396C155.154 54.935 155.909 38.8322 155.946 38.1513C156.001 37.2312 156.774 36.5318 157.694 36.587C158.614 36.6423 159.314 37.4152 159.258 38.3353C159.24 38.5378 158.541 54.4013 165.442 70.6513C165.791 71.4979 165.405 72.4733 164.558 72.8229C164.356 72.9149 164.135 72.9517 163.914 72.9517Z" fill="white" fill-opacity="0.4"/>
<path d="M171.35 86.0533C170.834 86.0533 170.337 85.8141 170.024 85.3908C168.295 83.072 166.693 80.5508 165.276 77.9191C164.835 77.1094 165.129 76.1156 165.939 75.6739C166.749 75.2322 167.742 75.5267 168.184 76.3364C169.546 78.8209 171.055 81.2133 172.693 83.4032C173.245 84.1394 173.079 85.17 172.343 85.7221C172.049 85.9429 171.699 86.0533 171.35 86.0533Z" fill="white" fill-opacity="0.4"/>
<path fill-rule="evenodd" clip-rule="evenodd" d="M236.712 26.7419C236.712 24.2198 234.67 22.1816 232.155 22.1816C216.953 22.1816 168.084 22.1816 152.881 22.1816C150.367 22.1816 148.324 24.2198 148.324 26.7419C148.324 29.2639 150.367 31.3021 152.881 31.3021C168.084 31.3021 216.953 31.3021 232.155 31.3021C234.67 31.3021 236.712 29.2639 236.712 26.7419C236.712 26.7565 236.712 26.7565 236.712 26.7419Z" fill="#D4DBE7"/>
<path d="M229.826 27.5514H155.665C155.225 27.5514 154.865 27.2018 154.865 26.7601C154.865 26.3184 155.225 25.9688 155.665 25.9688H229.826C230.266 25.9688 230.625 26.3184 230.625 26.7601C230.605 27.1834 230.266 27.5514 229.826 27.5514Z" fill="#344A66"/>
<path fill-rule="evenodd" clip-rule="evenodd" d="M356.851 163.207C356.851 159.334 353.716 156.195 349.829 156.195H296.544C292.672 156.195 289.522 159.334 289.522 163.207C289.522 167.08 292.656 170.218 296.544 170.218H349.829C353.716 170.237 356.851 167.08 356.851 163.207Z" fill="#EAEEF5"/>
<path fill-rule="evenodd" clip-rule="evenodd" d="M350.69 146.654C350.69 145.13 349.459 143.9 347.931 143.9C338.538 143.9 307.827 143.9 298.434 143.9C296.906 143.9 295.675 145.13 295.675 146.654C295.675 151.995 295.675 163.209 295.675 163.209H350.69V146.654Z" fill="#D4DBE7"/>
<path fill-rule="evenodd" clip-rule="evenodd" d="M336.275 148.452C336.275 148.157 336.162 147.878 335.95 147.676C335.737 147.466 335.462 147.35 335.175 147.35C330.911 147.35 315.492 147.35 311.216 147.35C310.928 147.35 310.64 147.466 310.44 147.676C310.228 147.886 310.115 148.165 310.115 148.452C310.115 150.806 310.115 156.312 310.115 158.666C310.115 158.961 310.228 159.24 310.44 159.442C310.653 159.652 310.928 159.768 311.216 159.768C315.48 159.768 330.898 159.768 335.175 159.768C335.462 159.768 335.75 159.652 335.95 159.442C336.162 159.233 336.275 158.953 336.275 158.666C336.275 156.305 336.275 150.806 336.275 148.452Z" fill="white"/>
<path fill-rule="evenodd" clip-rule="evenodd" d="M342.03 21.0742L354.512 30.949L323.18 67.7866L291.849 30.949L304.33 21.0742H342.03Z" fill="#FDE282"/>
<path fill-rule="evenodd" clip-rule="evenodd" d="M342.03 21.0742L354.512 30.949L323.18 67.7866L291.849 30.949L304.33 21.0742H342.03Z" fill="#FDE282"/>
<path fill-rule="evenodd" clip-rule="evenodd" d="M323.199 67.7868L291.867 30.9492H354.53L323.199 67.7868Z" fill="#D4DBE7"/>
<path fill-rule="evenodd" clip-rule="evenodd" d="M354.53 30.949H291.867L304.349 21.0742H342.049L354.53 30.949Z" fill="#F2F4F8"/>
<path fill-rule="evenodd" clip-rule="evenodd" d="M322.079 21.0742L310.204 30.949L304.331 21.0742H322.079Z" fill="white"/>
<path fill-rule="evenodd" clip-rule="evenodd" d="M342.031 21.0742L336.157 30.949L322.079 21.0742H342.031Z" fill="white"/>
<path fill-rule="evenodd" clip-rule="evenodd" d="M336.157 30.9492L323.181 67.7868L310.204 30.9492H336.157Z" fill="white"/>
<path fill-rule="evenodd" clip-rule="evenodd" d="M345.059 143.903C345.059 142.215 344.399 140.6 343.206 139.407C342.013 138.213 340.397 137.553 338.709 137.553C330.412 137.553 315.986 137.553 307.708 137.553C306.019 137.553 304.404 138.213 303.211 139.407C302.018 140.6 301.357 142.215 301.357 143.903H345.059Z" fill="#F2F4F8"/>
<path fill-rule="evenodd" clip-rule="evenodd" d="M337.315 132.57C337.315 131.817 336.698 131.193 335.939 131.193C331.147 131.193 315.229 131.193 310.437 131.193C309.677 131.193 309.061 131.817 309.061 132.57C309.061 134.442 309.061 137.544 309.061 137.544H337.315V132.57Z" fill="#8FA1BD"/>
<path fill-rule="evenodd" clip-rule="evenodd" d="M303.253 61.9055H343.119L333.153 131.193H313.22L303.253 61.9055Z" fill="#F2F4F8"/>
<path fill-rule="evenodd" clip-rule="evenodd" d="M313.223 61.9055H333.156L328.173 131.193H318.206L313.223 61.9055Z" fill="white"/>
<circle cx="190.764" cy="93.1645" r="89.3364" stroke="#344A66" stroke-dasharray="4 4"/>
</svg>
