<svg width="246" height="235" viewBox="0 0 246 235" fill="none" xmlns="http://www.w3.org/2000/svg">
<path d="M1.00909 136.31L0 136.428L1.80122 151.823L2.81031 151.705L1.00909 136.31Z" fill="#E1E5EB"/>
<path d="M3.47727 157.427L2.46817 157.545L3.3765 165.309L4.3856 165.191L3.47727 157.427Z" fill="#E1E5EB"/>
<path d="M70.7452 104.928L69.5452 101.564C67.8442 96.7948 63.0752 93.8317 58.0462 94.4197L10.2552 100.01C4.29319 100.707 0.0261928 106.105 0.723193 112.067L14.3272 228.37C14.8052 232.458 18.5072 235.385 22.5952 234.907L193.584 214.908C197.672 214.43 200.599 210.728 200.121 206.64L188.362 106.1C187.884 102.012 184.182 99.0848 180.094 99.5628L80.8032 111.176C76.4042 111.69 72.2332 109.099 70.7452 104.928Z" fill="#2A3544"/>
<path d="M36.7335 138.953L22.0912 65.502L75.1372 54.9274L89.7796 128.379L36.7335 138.953Z" fill="white" stroke="#D4DBE7"/>
<path opacity="0.7" d="M36.7335 138.953L22.0912 65.502L75.1372 54.9274L89.7796 128.379L36.7335 138.953Z" fill="white" stroke="#D4DBE7"/>
<g opacity="0.4">
<path d="M68.3072 72.2625L35.0262 78.8955C33.4122 79.2175 31.8432 78.1695 31.5212 76.5555C31.1992 74.9415 32.2472 73.3725 33.8612 73.0505L67.1422 66.4175C68.7562 66.0955 70.3252 67.1435 70.6472 68.7575C70.9692 70.3715 69.9212 71.9405 68.3072 72.2625Z" fill="#D4DBE7"/>
<path d="M70.7602 84.5692L37.4792 91.2022C35.8652 91.5242 34.2962 90.4762 33.9742 88.8622C33.6522 87.2482 34.7002 85.6792 36.3142 85.3572L69.5952 78.7242C71.2092 78.4022 72.7782 79.4502 73.1002 81.0642C73.4212 82.6792 72.3742 84.2482 70.7602 84.5692Z" fill="#D4DBE7"/>
<path d="M73.2132 96.8777L39.9322 103.511C38.3182 103.833 36.7492 102.785 36.4272 101.171C36.1052 99.5567 37.1532 97.9877 38.7672 97.6657L72.0482 91.0327C73.6622 90.7107 75.2312 91.7587 75.5532 93.3727C75.8742 94.9867 74.8272 96.5557 73.2132 96.8777Z" fill="#D4DBE7"/>
<path d="M75.6662 109.184L42.3852 115.817C40.7712 116.139 39.2022 115.091 38.8802 113.477C38.5582 111.863 39.6062 110.294 41.2202 109.972L74.5012 103.339C76.1152 103.017 77.6842 104.065 78.0062 105.679C78.3272 107.294 77.2802 108.863 75.6662 109.184Z" fill="#D4DBE7"/>
<path d="M69.0232 123.305L44.8382 128.125C43.2242 128.447 41.6552 127.399 41.3332 125.785C41.0112 124.171 42.0592 122.602 43.6732 122.28L67.8582 117.46C69.4722 117.138 71.0412 118.186 71.3632 119.8C71.6842 121.414 70.6372 122.983 69.0232 123.305Z" fill="#D4DBE7"/>
</g>
<path d="M151.512 40.0005L96.9291 47.4707L107.221 122.669L161.804 115.199L151.512 40.0005Z" fill="#E7ECF4"/>
<path opacity="0.7" d="M151.512 40.0005L96.9291 47.4707L107.221 122.669L161.804 115.199L151.512 40.0005Z" fill="#E7ECF4"/>
<path d="M144.215 57.4358L110.593 62.0377C108.963 62.2607 107.46 61.1198 107.237 59.4898C107.014 57.8598 108.155 56.3568 109.785 56.1338L143.407 51.5317C145.037 51.3087 146.54 52.4498 146.763 54.0798C146.987 55.7108 145.846 57.2128 144.215 57.4358Z" fill="#D4DBE7"/>
<path d="M145.917 69.8703L112.295 74.4723C110.665 74.6953 109.162 73.5543 108.939 71.9243C108.716 70.2933 109.857 68.7913 111.487 68.5683L145.109 63.9673C146.739 63.7443 148.242 64.8853 148.465 66.5153C148.688 68.1443 147.547 69.6473 145.917 69.8703Z" fill="#D4DBE7"/>
<path d="M123.261 85.6369L113.997 86.9049C112.367 87.1279 110.864 85.9869 110.641 84.3569C110.418 82.7259 111.559 81.2239 113.189 81.0009L122.453 79.7329C124.083 79.5099 125.586 80.6509 125.809 82.2809C126.032 83.9119 124.892 85.4139 123.261 85.6369Z" fill="#D4DBE7"/>
<path d="M141.226 83.1779L131.962 84.4459C130.332 84.6689 128.829 83.5279 128.606 81.8979C128.383 80.2679 129.524 78.7649 131.154 78.5419L140.418 77.2739C142.048 77.0509 143.551 78.1919 143.774 79.8219C143.997 81.4519 142.856 82.9549 141.226 83.1779Z" fill="#D4DBE7"/>
<path d="M149.32 94.7385L115.698 99.3405C114.068 99.5635 112.565 98.4225 112.342 96.7925C112.119 95.1615 113.26 93.6595 114.89 93.4365L148.512 88.8345C150.143 88.6115 151.645 89.7525 151.868 91.3825C152.092 93.0125 150.951 94.5145 149.32 94.7385Z" fill="#D4DBE7"/>
<path d="M141.833 108.428L117.4 111.772C115.77 111.995 114.267 110.854 114.044 109.224C113.821 107.594 114.962 106.091 116.592 105.868L141.025 102.524C142.655 102.301 144.158 103.442 144.381 105.072C144.605 106.702 143.464 108.205 141.833 108.428Z" fill="#D4DBE7"/>
<path d="M100.993 50.9799L46.1122 55.7617L52.7 131.37L107.581 126.588L100.993 50.9799Z" fill="#F4F5F8"/>
<path opacity="0.8" d="M100.993 50.9799L46.1122 55.7617L52.7 131.37L107.581 126.588L100.993 50.9799Z" fill="#F4F5F8"/>
<path d="M91.8672 67.9953L58.0602 70.9413C56.4212 71.0843 54.9762 69.8713 54.8332 68.2313C54.6902 66.5923 55.9032 65.1473 57.5432 65.0043L91.3502 62.0583C92.9892 61.9153 94.4342 63.1283 94.5772 64.7683C94.7192 66.4083 93.5062 67.8523 91.8672 67.9953Z" fill="#D4DBE7"/>
<path d="M92.9562 80.4983L59.1492 83.4443C57.5102 83.5873 56.0652 82.3743 55.9222 80.7343C55.7792 79.0953 56.9922 77.6503 58.6322 77.5073L92.4392 74.5603C94.0782 74.4173 95.5232 75.6303 95.6662 77.2703C95.8092 78.9103 94.5962 80.3553 92.9562 80.4983Z" fill="#D4DBE7"/>
<path d="M94.0462 93.0012L60.2392 95.9472C58.6002 96.0902 57.1552 94.8772 57.0122 93.2372C56.8692 91.5972 58.0822 90.1532 59.7222 90.0102L93.5292 87.0642C95.1682 86.9212 96.6132 88.1342 96.7562 89.7742C96.8992 91.4132 95.6852 92.8582 94.0462 93.0012Z" fill="#D4DBE7"/>
<path d="M95.1362 105.503L61.3292 108.449C59.6892 108.592 58.2452 107.379 58.1022 105.739C57.9592 104.1 59.1722 102.655 60.8122 102.512L94.6192 99.5661C96.2582 99.4231 97.7032 100.636 97.8462 102.276C97.9882 103.915 96.7752 105.36 95.1362 105.503Z" fill="#D4DBE7"/>
<path d="M86.9862 118.81L62.4192 120.951C60.7802 121.094 59.3352 119.881 59.1922 118.241C59.0492 116.602 60.2622 115.157 61.9022 115.014L86.4692 112.873C88.1082 112.73 89.5532 113.943 89.6962 115.583C89.8382 117.222 88.6252 118.667 86.9862 118.81Z" fill="#D4DBE7"/>
<path d="M116.986 125.228L113.376 50.4206L167.401 47.8135L171.011 122.621L116.986 125.228Z" fill="white" stroke="#D4DBE7"/>
<path opacity="0.8" d="M116.986 125.228L113.376 50.4206L167.401 47.8135L171.011 122.621L116.986 125.228Z" fill="white" stroke="#D4DBE7"/>
<g opacity="0.4">
<path d="M158.102 63.9409L124.206 65.5769C122.562 65.6559 121.165 64.3879 121.086 62.7439C121.007 61.0999 122.275 59.7029 123.918 59.6239L157.814 57.9879C159.458 57.9089 160.854 59.1769 160.934 60.8209C161.014 62.4639 159.745 63.8609 158.102 63.9409Z" fill="#B4BECD"/>
<path d="M158.707 76.476L124.811 78.112C123.167 78.191 121.771 76.923 121.691 75.279C121.612 73.635 122.88 72.238 124.524 72.159L158.42 70.523C160.064 70.444 161.461 71.712 161.54 73.356C161.619 74.999 160.351 76.396 158.707 76.476Z" fill="#B4BECD"/>
<path d="M134.756 90.1967L125.416 90.6477C123.772 90.7267 122.375 89.4587 122.296 87.8147C122.217 86.1707 123.485 84.7747 125.128 84.6947L134.468 84.2437C136.112 84.1647 137.509 85.4327 137.588 87.0767C137.668 88.7207 136.4 90.1177 134.756 90.1967Z" fill="#B4BECD"/>
<path d="M152.867 89.3217L143.527 89.7727C141.883 89.8517 140.486 88.5837 140.407 86.9397C140.328 85.2957 141.596 83.8997 143.24 83.8197L152.58 83.3687C154.224 83.2897 155.621 84.5577 155.7 86.2017C155.779 87.8457 154.511 89.2417 152.867 89.3217Z" fill="#B4BECD"/>
<path d="M159.917 101.546L126.021 103.182C124.377 103.261 122.981 101.993 122.901 100.349C122.822 98.7053 124.09 97.3083 125.734 97.2293L159.63 95.5933C161.274 95.5143 162.671 96.7823 162.75 98.4263C162.829 100.07 161.561 101.466 159.917 101.546Z" fill="#B4BECD"/>
<path d="M151.259 114.529L126.627 115.718C124.983 115.797 123.586 114.529 123.507 112.885C123.428 111.241 124.696 109.844 126.34 109.765L150.972 108.576C152.616 108.497 154.013 109.765 154.092 111.409C154.17 113.053 152.902 114.45 151.259 114.529Z" fill="#B4BECD"/>
</g>
<path d="M86.0072 107.08L85.1312 103.789C83.8892 99.1227 79.4452 96.2337 74.4162 96.8217L26.6252 102.411C20.6632 103.108 15.9432 108.404 16.0822 114.24L18.7942 228.085C18.8892 232.087 22.2812 234.943 26.3692 234.465L197.358 214.466C201.446 213.988 204.683 210.356 204.588 206.354L202.244 107.94C202.149 103.938 198.757 101.082 194.669 101.56L95.3782 113.173C90.9802 113.687 87.0932 111.16 86.0072 107.08Z" fill="#E1E5EB"/>
<path d="M86.0072 107.08L85.1312 103.789C83.8892 99.1227 79.4452 96.2337 74.4162 96.8217L26.6252 102.411C20.6632 103.108 15.9432 108.404 16.0822 114.24L18.7942 228.085C18.8892 232.087 22.2812 234.943 26.3692 234.465L197.358 214.466C201.446 213.988 204.683 210.356 204.588 206.354L202.244 107.94C202.149 103.938 198.757 101.082 194.669 101.56L95.3782 113.173C90.9802 113.687 87.0932 111.16 86.0072 107.08Z" fill="#344A66"/>
<path d="M239.325 76.2401L245.111 13.429L232.76 3.97205L195.056 0.498047L188.51 71.5591L239.325 76.2401Z" fill="#FBFBFC"/>
<path d="M239.008 74.2314L238.873 75.6963L237.254 75.5471L237.208 76.045L232.973 75.6549L233.019 75.157L228.785 74.767L228.739 75.2648L224.504 74.8748L224.55 74.3769L220.315 73.9868L220.27 74.4847L216.035 74.0946L216.081 73.5967L211.846 73.2066L211.8 73.7045L207.566 73.3144L207.612 72.8165L203.377 72.4265L203.331 72.9243L199.097 72.5343L199.143 72.0364L194.908 71.6463L194.862 72.1442L190.628 71.7541L190.673 71.2562L189.054 71.107L189.19 69.631L188.692 69.5851L189.056 65.6373L189.554 65.6832L189.917 61.7353L189.419 61.6895L189.783 57.7416L190.281 57.7875L190.645 53.8397L190.147 53.7938L190.51 49.846L191.008 49.8918L191.372 45.944L190.874 45.8981L191.238 41.9503L191.736 41.9962L192.099 38.0483L191.601 38.0025L191.965 34.0546L192.463 34.1005L192.827 30.1527L192.329 30.1068L192.692 26.159L193.19 26.2048L193.554 22.257L193.056 22.2111L193.42 18.2633L193.918 18.3092L194.281 14.3613L193.783 14.3155L194.147 10.3676L194.645 10.4135L195.009 6.46565L194.511 6.41978L194.874 2.47195L195.372 2.51782L195.508 1.04181L196.896 1.16964L196.941 0.671747L200.712 1.01915L200.666 1.51704L204.436 1.86444L204.482 1.36655L208.253 1.71395L208.207 2.21184L211.977 2.55924L212.023 2.06135L215.793 2.40875L215.748 2.90664L219.518 3.25404L219.564 2.75615L223.334 3.10355L223.288 3.60144L227.059 3.94884L227.105 3.45095L230.875 3.79835L230.829 4.29624L232.571 4.45671L234 5.55116L234.304 5.15417L237.392 7.51842L237.088 7.91541L240.176 10.2797L240.48 9.88267L243.567 12.2469L243.263 12.6439L244.588 13.6582L244.433 15.346L244.93 15.3919L244.569 19.3176L244.071 19.2717L243.709 23.1974L244.207 23.2433L243.846 27.169L243.348 27.1231L242.986 31.0488L243.484 31.0946L243.122 35.0203L242.624 34.9745L242.263 38.9002L242.761 38.946L242.399 42.8717L241.901 42.8258L241.54 46.7515L242.037 46.7974L241.676 50.7231L241.178 50.6772L240.816 54.6029L241.314 54.6488L240.953 58.5745L240.455 58.5286L240.093 62.4543L240.591 62.5002L240.229 66.4258L239.731 66.38L239.37 70.3057L239.868 70.3515L239.506 74.2772L239.008 74.2314Z" fill="#E7ECF4" fill-opacity="0.5" stroke="#344A66" stroke-dasharray="4 4"/>
<path d="M210.148 32.9939L210.148 32.9939C211.515 33.0861 212.697 32.0529 212.788 30.6863L212.788 30.686C212.881 29.3195 211.847 28.1374 210.481 28.045L210.148 32.9939ZM210.148 32.9939L200.819 32.3663C200.819 32.3663 200.818 32.3663 200.818 32.3663C199.452 32.274 198.419 31.0918 198.511 29.7254C198.603 28.3588 199.785 27.3263 201.151 27.4175C201.151 27.4175 201.151 27.4175 201.151 27.4175L210.48 28.045L210.148 32.9939Z" fill="white" stroke="#344A66"/>
<path d="M236.352 14.7091L233.657 5.2889L243.936 13.1595L236.352 14.7091Z" fill="#D4DBE7" stroke="#344A66"/>
<path d="M201.572 17.5065L201.572 17.5065C200.209 17.3865 199.006 18.3952 198.886 19.76C198.766 21.1242 199.774 22.3273 201.139 22.4475L201.572 17.5065ZM201.572 17.5065L235.378 20.4769C235.378 20.4769 235.378 20.4769 235.378 20.4769C236.742 20.5972 237.75 21.7999 237.631 23.1648C237.512 24.5279 236.308 25.5371 234.944 25.4179C234.944 25.4179 234.944 25.4179 234.944 25.4179L201.139 22.4475L201.572 17.5065Z" fill="white" stroke="#344A66"/>
<path d="M204.412 58.0721C209.42 64.4113 208.341 73.61 202.002 78.6179C195.662 83.6259 186.464 82.5466 181.456 76.2073C176.448 69.8681 177.527 60.6694 183.866 55.6614C190.206 50.6535 199.404 51.7328 204.412 58.0721Z" fill="white" stroke="#344A66" stroke-width="1.5"/>
<path d="M189.789 62.3432C190.088 60.7136 191.872 59.6758 193.773 60.0252L194.757 60.2059C196.658 60.5553 197.956 62.1596 197.657 63.7891C197.49 65.1146 196.467 66.1702 195.148 66.3782C193.801 66.7316 192.705 68.1881 192.458 69.9509" stroke="#344A66" stroke-width="2" stroke-linecap="round" stroke-linejoin="round"/>
<path d="M191.735 73.8858L191.733 73.8956" stroke="#344A66" stroke-width="2" stroke-linecap="round" stroke-linejoin="round"/>
</svg>
