<svg width="220" height="214" viewBox="0 0 220 214" fill="none" xmlns="http://www.w3.org/2000/svg">
<path d="M5.84021 57.7066H0.046519C0.0211451 57.7066 0 57.6855 0 57.6601V55.6598C0 55.6344 0.0211451 55.6133 0.046519 55.6133H5.84021V57.7066Z" fill="#B4BECD"/>
<path d="M8.14075 61.7887H2.34706C2.32168 61.7887 2.30054 61.7675 2.30054 61.7421V59.7418C2.30054 59.7165 2.32168 59.6953 2.34706 59.6953H8.14075V61.7887Z" fill="#344A66"/>
<path d="M9.61657 65.6793H3.82289C3.79751 65.6793 3.77637 65.6581 3.77637 65.6328V63.6325C3.77637 63.6071 3.79751 63.5859 3.82289 63.5859H9.61657V65.6793Z" fill="#D4DBE7"/>
<path d="M207.583 189.845L207.583 189.845L177.613 213.387H10.6116L33.103 186.873H206.619C208.119 186.873 208.827 188.868 207.583 189.845Z" fill="#B4BECD" stroke="#344A66"/>
<path d="M170.77 179.349V210.085L199.544 189.909L198.567 168.582L170.77 179.349Z" fill="#ECEFF4"/>
<path d="M11.3355 176.497L39.8745 163.69L201.913 164.734L201.913 164.734C202.396 164.737 202.706 165.065 202.783 165.488C202.86 165.913 202.685 166.343 202.231 166.528L177.688 176.497H11.3355Z" fill="#D4DBE7" stroke="#344A66"/>
<path d="M9.5 213.385V176.498L177.497 176.499L177.288 213.385H9.5Z" fill="#F4F5F8" stroke="#344A66"/>
<path opacity="0.08" d="M177.786 176.998L198.668 168.582L198.74 170.096L177.777 183.367L177.786 176.998Z" fill="#000100"/>
<path d="M19.3948 206.493V183.865H131.279V206.493H19.3948Z" fill="white" stroke="#D4DBE7"/>
<path d="M153.364 203.695C158.053 203.695 161.855 199.789 161.855 194.97C161.855 190.152 158.053 186.246 153.364 186.246C148.674 186.246 144.872 190.152 144.872 194.97C144.872 199.789 148.674 203.695 153.364 203.695Z" fill="#D4DBE7"/>
<path d="M153.363 204.105C148.462 204.105 144.474 200.007 144.474 194.971C144.474 189.934 148.462 185.836 153.363 185.836C158.265 185.836 162.253 189.934 162.253 194.971C162.253 200.007 158.265 204.105 153.363 204.105ZM153.363 186.656C148.902 186.656 145.269 190.386 145.269 194.971C145.269 199.555 148.902 203.285 153.363 203.285C157.825 203.285 161.458 199.555 161.458 194.971C161.458 190.386 157.825 186.656 153.363 186.656Z" fill="white"/>
<path d="M15 132.5H180C180.276 132.5 180.5 132.724 180.5 133V170C180.5 170.276 180.276 170.5 180 170.5H15C14.7239 170.5 14.5 170.276 14.5 170V133C14.5 132.724 14.7239 132.5 15 132.5Z" fill="#FBFBFC" stroke="#B4BECD"/>
<path d="M177.359 105.045H9.95923V132.567H177.359V105.045Z" fill="#B4BECD"/>
<path d="M6.34009 104.78V67.873H172.74V104.78L6.34009 104.78Z" fill="#D4DBE7" stroke="#344A66"/>
<path d="M6.84009 54.5273H172.24C172.516 54.5273 172.74 54.7512 172.74 55.0273V66.4586C172.74 66.7347 172.516 66.9586 172.24 66.9586H6.84008C6.56394 66.9586 6.34009 66.7347 6.34009 66.4586V55.0273C6.34009 54.7512 6.56395 54.5273 6.84009 54.5273Z" fill="#F4F5F8" stroke="#B4BECD"/>
<path d="M121.697 73.3965H17.7659V100.398H121.697V73.3965Z" fill="white" stroke="#344A66" stroke-dasharray="4 4"/>
<path d="M153.364 63.6705C157.899 63.6705 161.576 59.8932 161.576 55.2337C161.576 50.5742 157.899 46.7969 153.364 46.7969C148.828 46.7969 145.151 50.5742 145.151 55.2337C145.151 59.8932 148.828 63.6705 153.364 63.6705Z" fill="#D4DBE7"/>
<path d="M154.365 161.641C154.368 161.642 154.37 161.642 154.373 161.643L154.309 161.952C153.17 161.717 152.112 161.25 151.184 160.602L151.47 160.192C151.465 160.188 151.459 160.184 151.454 160.18L151.63 159.927C152.473 160.515 153.433 160.938 154.466 161.152L154.365 161.641ZM160.838 160.602C159.91 161.25 158.852 161.717 157.713 161.952L157.649 161.643C157.652 161.642 157.654 161.642 157.657 161.641L157.556 161.152C158.589 160.938 159.549 160.515 160.392 159.927L160.568 160.18C160.563 160.184 160.558 160.188 160.552 160.192L160.838 160.602ZM162.955 157.97L162.534 157.7C163.086 156.843 163.482 155.872 163.681 154.829L163.971 154.884C163.971 154.886 163.97 154.887 163.97 154.889L164.461 154.982C164.242 156.132 163.806 157.202 163.199 158.146L162.946 157.984C162.949 157.979 162.952 157.975 162.955 157.97ZM163.972 151.681L163.681 151.736C163.482 150.693 163.086 149.722 162.534 148.865L162.955 148.595C162.951 148.589 162.947 148.582 162.943 148.576L163.198 148.412C163.805 149.356 164.242 150.426 164.461 151.575L163.97 151.668C163.971 151.672 163.971 151.677 163.972 151.681ZM160.57 146.382L160.392 146.638C159.549 146.05 158.589 145.627 157.556 145.413L157.657 144.924C157.654 144.923 157.651 144.922 157.648 144.922L157.713 144.609C158.851 144.844 159.909 145.31 160.837 145.958L160.551 146.368C160.558 146.373 160.564 146.377 160.57 146.382ZM149.076 157.984L148.824 158.146C148.216 157.202 147.78 156.132 147.561 154.982L148.052 154.889C148.052 154.887 148.052 154.886 148.051 154.884L148.341 154.829C148.54 155.872 148.936 156.843 149.488 157.7L149.068 157.97C149.07 157.975 149.073 157.979 149.076 157.984ZM148.052 151.668L147.561 151.575C147.78 150.426 148.217 149.356 148.824 148.412L149.079 148.576C149.075 148.582 149.071 148.589 149.068 148.595L149.488 148.865C148.936 149.722 148.54 150.693 148.341 151.736L148.05 151.681C148.051 151.677 148.052 151.672 148.052 151.668ZM151.471 146.368L151.185 145.958C152.113 145.31 153.171 144.844 154.309 144.609L154.374 144.922C154.371 144.922 154.368 144.923 154.365 144.924L154.466 145.413C153.433 145.627 152.473 146.05 151.63 146.638L151.452 146.382C151.458 146.377 151.465 146.373 151.471 146.368Z" stroke="#344A66" stroke-dasharray="4 4"/>
<path d="M153.736 0L199.079 26.7779C201.443 28.3087 199.933 31.0999 197.392 31.0999L25.7587 27.3995L11.1687 8.01814L153.736 0Z" fill="#313F52"/>
<path d="M152.251 38.082L150.771 1.17578L188.519 23.4836L187.166 50.363L152.251 38.082Z" fill="white"/>
<path d="M153.503 36.0098L192.697 51.2256C194.744 52.0207 194.182 54.6299 191.991 54.5284L30.5501 46.9755L10.6443 36.014H153.503V36.0098Z" fill="#313F52"/>
<path d="M11.1426 35.5097L11.0528 8.51612L153.232 0.529069L153.006 35.5097H11.1426Z" fill="#344A66" stroke="#344A66"/>
<path d="M16.5479 32.7375L16.4802 12.2692L107.526 6.41211L107.615 32.268L16.5479 32.7375Z" fill="white"/>
<path d="M178.26 47.282H10.8601C11.4014 45.0787 11.4014 42.7697 10.8601 40.5664L178.26 43.9242V47.282Z" fill="#F2F4F8"/>
<path d="M181.347 53.9969H13.9473C14.6746 51.8189 14.6746 49.4549 13.9473 47.2812H181.347V53.9969Z" fill="#D4DBE7"/>
<path d="M130.307 26.44C134.843 26.44 138.52 22.6627 138.52 18.0032C138.52 13.3437 134.843 9.56641 130.307 9.56641C125.772 9.56641 122.095 13.3437 122.095 18.0032C122.095 22.6627 125.772 26.44 130.307 26.44Z" fill="#313F52"/>
<path d="M130.307 26.8499C125.558 26.8499 121.697 22.8832 121.697 18.0072C121.697 13.1312 125.558 9.16016 130.307 9.16016C135.057 9.16016 138.918 13.1269 138.918 18.0072C138.918 22.8832 135.057 26.8499 130.307 26.8499ZM130.307 9.97634C125.998 9.97634 122.492 13.5752 122.492 18.0029C122.492 22.4307 125.998 26.0295 130.307 26.0295C134.617 26.0295 138.123 22.4307 138.123 18.0029C138.123 13.5794 134.617 9.97634 130.307 9.97634Z" fill="white"/>
<path d="M153.736 23.7163C153.736 23.7163 163.598 28.2286 190.426 14.5352L219.162 25.7673C219.162 25.7673 189.652 42.2434 186.87 41.2876C166.325 34.2041 153.736 23.7163 153.736 23.7163Z" fill="#F2F4F8"/>
<path d="M33.3709 41.2901C29.6791 40.5332 25.9618 39.9073 22.2361 39.3617C18.7091 38.8458 15.0933 38.6174 11.5917 37.9577C13.7274 38.3595 15.863 38.7654 17.9944 39.1672C14.5224 38.444 11.0504 37.7251 7.57844 37.002C9.6591 38.4229 11.4479 39.1164 12.6701 39.459C12.6913 39.4632 12.6828 39.4971 12.6617 39.4971L7.50654 39.1672C7.4854 39.1672 7.47694 39.1968 7.49809 39.2053C11.5706 41.4762 14.4209 41.3282 14.4209 41.3282C14.4209 41.3282 31.9712 40.9941 31.9754 40.9941L33.3709 41.2901Z" fill="#EDF0F5"/>
<path d="M172.187 37.1641L193.971 45.2668V46.0745L153.081 32.7363L172.187 37.1641Z" fill="#F2F4F8"/>
<path opacity="0.2" d="M64.0564 53.998C64.0564 53.998 140.529 91.0312 143.257 104.716L164.621 86.8783C164.621 86.8783 96.2558 54.2687 64.0564 53.998Z" fill="#344A66"/>
<path d="M167.518 98.7237C148.843 84.0068 127.753 72.8508 105.246 65.78L64.052 53.998H217.128L167.518 98.7237Z" fill="#F2F4F8"/>
<path d="M24.6846 109.756V114.421C27.0739 114.949 28.8163 116.616 28.8163 118.586C28.8163 120.561 27.0697 122.223 24.6846 122.752V127.86H58.2668V109.752H24.6846V109.756Z" fill="white"/>
<path d="M28.0476 161.245V142.834H123.654V161.245H28.0476Z" fill="white" stroke="#D4DBE7"/>
<path d="M37.3376 113.887H35.0667V125.521H37.3376V113.887Z" fill="#F2F4F8"/>
<path d="M42.6069 113.887H40.3359V125.521H42.6069V113.887Z" fill="#F2F4F8"/>
<path d="M49.3733 113.887H47.1023V125.521H49.3733V113.887Z" fill="#F2F4F8"/>
<path d="M161.856 111.52H158.21V127.86H161.856V111.52Z" fill="#EDF0F5" fill-opacity="0.5"/>
</svg>
