<svg width="429" height="213" viewBox="0 0 429 213" fill="none" xmlns="http://www.w3.org/2000/svg">
<path d="M236.057 201.419C183.008 201.419 140 176.901 140 146.651C140 116.409 183.01 91.8867 236.057 91.8867C289.11 91.8867 332.112 116.409 332.112 146.651C332.112 176.901 289.108 201.419 236.057 201.419Z" fill="#D4DBE7"/>
<path d="M152.371 119.852V139.174C152.371 165.528 189.84 186.888 236.057 186.888C282.276 186.888 319.741 165.528 319.741 139.174V119.852H152.371Z" fill="#344A66"/>
<path d="M236.055 167.565C189.84 167.565 152.369 146.206 152.369 119.852C152.369 93.5059 189.838 72.1406 236.055 72.1406C282.274 72.1406 319.739 93.504 319.739 119.852C319.739 146.206 282.276 167.565 236.055 167.565Z" fill="#849CBA"/>
<path d="M236.055 157.437C199.65 157.437 170.133 140.612 170.133 119.851C170.133 99.0968 199.648 82.2676 236.055 82.2676C272.462 82.2676 301.975 99.0968 301.975 119.851C301.975 140.612 272.464 157.437 236.055 157.437Z" fill="white"/>
<path d="M236.055 148.311C263.624 148.311 285.973 135.569 285.973 119.852C285.973 104.134 263.624 91.3926 236.055 91.3926C208.486 91.3926 186.137 104.134 186.137 119.852C186.137 135.569 208.486 148.311 236.055 148.311Z" fill="#4E6A8D"/>
<path d="M236.055 138.527C217.965 138.527 203.302 130.167 203.302 119.853C203.302 109.54 217.965 101.18 236.055 101.18C254.145 101.18 268.808 109.542 268.808 119.853C268.808 130.167 254.145 138.527 236.055 138.527Z" fill="white"/>
<path d="M236.055 129.296C226.909 129.296 219.495 125.07 219.495 119.855C219.495 114.642 226.909 110.414 236.055 110.414C245.199 110.414 252.613 114.642 252.613 119.855C252.615 125.068 245.201 129.296 236.055 129.296Z" fill="#344A66"/>
<path d="M236.055 123.046C232.963 123.046 230.456 121.618 230.456 119.854C230.456 118.092 232.963 116.662 236.055 116.662C239.147 116.662 241.654 118.092 241.654 119.854C241.654 121.616 239.147 123.046 236.055 123.046Z" fill="#233853"/>
<path d="M236.055 45.1771V8.83018L252.871 0V34.6457L236.055 45.1771Z" fill="#344A66"/>
<path d="M236.055 45.1771V8.83018L219.241 0V34.6457L236.055 45.1771Z" fill="#4E6A8D"/>
<rect x="234.588" y="1.88477" width="3" height="118" fill="#344A66"/>
<path d="M88.4214 165.983C88.4249 165.457 88.6994 164.979 89.2709 164.593C89.3612 164.532 89.4585 164.477 89.5575 164.425C89.5888 164.409 89.6218 164.394 89.6548 164.378C89.7261 164.343 89.799 164.31 89.8754 164.279C89.8945 164.272 89.9119 164.261 89.931 164.255C89.9467 164.248 89.9658 164.244 89.9831 164.237C90.103 164.192 90.2263 164.149 90.3549 164.112C90.3566 164.112 90.3584 164.11 90.3619 164.11H90.3636C90.4939 164.072 90.6277 164.039 90.7632 164.008C90.7788 164.004 90.7944 163.999 90.81 163.996C90.8291 163.99 90.8517 163.989 90.8709 163.984C91.0307 163.949 91.1922 163.918 91.3573 163.89C91.3625 163.89 91.3677 163.888 91.3729 163.886C91.3903 163.883 91.4076 163.881 91.4267 163.879C91.59 163.853 91.7568 163.829 91.9253 163.806C91.9479 163.803 91.9705 163.799 91.9931 163.798C92.1737 163.775 92.3579 163.752 92.5403 163.732C92.5507 163.73 92.5611 163.728 92.5715 163.728C92.6132 163.723 92.6532 163.719 92.6949 163.714C92.8182 163.7 92.9416 163.686 93.0649 163.673C93.2369 163.653 93.4089 163.633 93.5791 163.61C93.6138 163.607 93.6486 163.601 93.6816 163.596C93.8518 163.574 94.0186 163.549 94.1836 163.523C94.2722 163.509 94.3591 163.495 94.4459 163.478C94.6231 163.445 94.8021 163.409 94.9793 163.37C95.0123 163.363 95.0453 163.356 95.0783 163.349C95.2051 163.32 95.3336 163.29 95.4587 163.259C95.4622 163.257 95.4674 163.257 95.4709 163.256C95.5994 163.223 95.7262 163.188 95.8513 163.151C95.8913 163.141 95.9295 163.129 95.9677 163.117C96.0546 163.091 96.1414 163.063 96.2266 163.035C96.2682 163.021 96.3117 163.007 96.3534 162.992C96.4385 162.962 96.5219 162.933 96.6053 162.901C96.64 162.887 96.6747 162.875 96.7095 162.861C96.8189 162.818 96.9249 162.773 97.0274 162.728C97.1889 162.655 97.9759 162.199 98.438 161.809L98.3355 173.559C97.8751 173.948 97.0865 174.405 96.9249 174.478C96.8224 174.525 96.7147 174.57 96.6053 174.613C96.5966 174.617 96.5896 174.62 96.5809 174.624C96.5584 174.632 96.5323 174.641 96.5097 174.65C96.4246 174.683 96.3377 174.714 96.2491 174.744C96.2092 174.757 96.1675 174.771 96.1258 174.785C96.0407 174.813 95.9556 174.841 95.867 174.867C95.8409 174.876 95.8148 174.884 95.787 174.891C95.7731 174.895 95.7592 174.898 95.7471 174.902C95.622 174.938 95.4969 174.973 95.3701 175.006C95.3649 175.008 95.3597 175.008 95.3527 175.009C95.2277 175.041 95.1026 175.072 94.9758 175.1C94.9619 175.103 94.948 175.107 94.9341 175.11C94.9132 175.115 94.8924 175.119 94.8715 175.122C94.6944 175.161 94.5172 175.197 94.34 175.23C94.267 175.244 94.1941 175.256 94.1211 175.268C94.1055 175.272 94.0898 175.273 94.0742 175.275C93.9109 175.301 93.7459 175.326 93.5774 175.348C93.5409 175.353 93.5027 175.357 93.4644 175.362C93.2994 175.383 93.1344 175.404 92.9676 175.423C92.9624 175.423 92.9572 175.425 92.952 175.425C92.8356 175.438 92.7175 175.451 92.5993 175.465C92.5403 175.471 92.4812 175.478 92.4221 175.485C92.2415 175.506 92.0608 175.527 91.8801 175.55C91.8593 175.553 91.8367 175.557 91.8159 175.558C91.6474 175.581 91.4789 175.605 91.3138 175.631C91.2912 175.635 91.2687 175.638 91.2461 175.642C91.0793 175.669 90.9178 175.701 90.7579 175.736C90.7232 175.742 90.6885 175.751 90.6537 175.758C90.5165 175.789 90.381 175.822 90.2507 175.861C90.2489 175.861 90.2489 175.861 90.2472 175.862C90.1169 175.901 89.9936 175.944 89.872 175.989C89.8355 176.003 89.8007 176.017 89.766 176.031C89.6896 176.062 89.6166 176.095 89.5454 176.13C89.5141 176.145 89.4811 176.161 89.4498 176.177C89.3508 176.229 89.2535 176.284 89.1632 176.345C88.5917 176.731 88.3189 177.209 88.3137 177.735L88.4214 165.983Z" fill="#B4BECD"/>
<path d="M42.5321 177.057C42.5269 177.034 42.5234 177.011 42.5182 176.989C42.5147 176.968 42.5095 176.949 42.5061 176.928C42.5043 176.921 42.5043 176.914 42.5026 176.907C42.4974 176.876 42.4939 176.845 42.4904 176.815C42.487 176.791 42.4852 176.768 42.4835 176.746C42.4818 176.713 42.48 176.681 42.48 176.648C42.48 176.629 42.4783 176.61 42.4783 176.591C42.4783 176.582 42.4783 176.575 42.4783 176.567L42.5808 164.816C42.5808 164.842 42.5825 164.87 42.5825 164.896C42.5842 164.929 42.5842 164.962 42.586 164.994C42.5877 165.018 42.5912 165.04 42.5929 165.063C42.5964 165.094 42.5999 165.126 42.6051 165.155C42.6103 165.183 42.6155 165.209 42.6207 165.237C42.6242 165.259 42.6294 165.282 42.6346 165.305C42.6416 165.332 42.6503 165.36 42.6572 165.388C42.6642 165.409 42.6694 165.431 42.6763 165.452C42.6798 165.463 42.685 165.475 42.6885 165.485C42.7163 165.567 42.7493 165.645 42.7875 165.723C42.7892 165.725 42.7892 165.727 42.7892 165.728C42.8274 165.801 42.8709 165.873 42.9195 165.944C42.9265 165.956 42.9352 165.966 42.9421 165.979C42.9907 166.046 43.0446 166.112 43.1019 166.177C43.1175 166.194 43.1332 166.211 43.1506 166.229C43.1679 166.248 43.187 166.267 43.2062 166.286C43.2287 166.307 43.2496 166.328 43.2739 166.349C43.2948 166.368 43.3156 166.385 43.3347 166.404C43.3538 166.422 43.3747 166.437 43.3955 166.453C43.432 166.482 43.4702 166.51 43.5084 166.538C43.5293 166.552 43.5484 166.567 43.5692 166.581C43.6127 166.611 43.6578 166.64 43.7047 166.668C43.7221 166.679 43.7395 166.691 43.7568 166.701C43.7985 166.726 43.8419 166.75 43.8854 166.772C43.9045 166.783 43.9236 166.793 43.9445 166.804C44.0087 166.837 44.0765 166.87 44.146 166.901C44.2797 166.958 44.4187 167.007 44.5594 167.052C44.6063 167.068 44.6567 167.078 44.7053 167.092C44.8026 167.12 44.8982 167.149 44.9989 167.172C45.025 167.179 45.0528 167.182 45.0788 167.189C45.1917 167.215 45.3064 167.238 45.4211 167.259C45.468 167.268 45.5148 167.275 45.5618 167.281C45.6695 167.299 45.7789 167.314 45.8901 167.328C45.9266 167.334 45.9613 167.339 45.9995 167.342C46.142 167.358 46.2879 167.374 46.4356 167.384C46.5276 167.391 46.6214 167.396 46.7135 167.401C46.7917 167.407 46.8698 167.412 46.948 167.415C47.0436 167.42 47.1391 167.422 47.2347 167.426C47.3111 167.427 47.3875 167.433 47.4657 167.434C47.6481 167.44 47.834 167.443 48.0181 167.445H48.0337C48.2509 167.448 48.4698 167.45 48.6869 167.452C48.8259 167.453 48.9649 167.455 49.1039 167.457C49.1733 167.459 49.2411 167.459 49.3088 167.46C49.427 167.462 49.5451 167.464 49.6615 167.467C49.691 167.467 49.7223 167.467 49.7518 167.469C49.8039 167.471 49.8543 167.473 49.9047 167.474C49.995 167.478 50.0836 167.481 50.174 167.485C50.2573 167.488 50.3407 167.493 50.4224 167.499C50.5092 167.504 50.5943 167.509 50.6795 167.516C50.709 167.518 50.7385 167.519 50.7663 167.521C50.8619 167.528 50.9574 167.539 51.0512 167.549C51.0703 167.551 51.0894 167.552 51.1086 167.554C51.2319 167.568 51.3552 167.582 51.4751 167.601C51.489 167.603 51.5029 167.606 51.5168 167.608C51.6975 167.636 51.8747 167.665 52.0466 167.704C52.0518 167.705 52.0553 167.705 52.0623 167.707C52.0657 167.709 52.0744 167.711 52.0796 167.712C52.0866 167.714 52.0953 167.716 52.104 167.719C52.1144 167.723 52.1283 167.726 52.1404 167.73C52.1491 167.733 52.1595 167.735 52.17 167.738C52.1856 167.744 52.2012 167.749 52.2186 167.754C52.2308 167.757 52.2429 167.761 52.2551 167.766C52.2742 167.771 52.295 167.778 52.3176 167.785C52.3315 167.789 52.3437 167.794 52.3558 167.797C52.3802 167.804 52.4045 167.813 52.4305 167.822C52.4444 167.827 52.4601 167.83 52.474 167.836C52.5 167.844 52.5278 167.853 52.5556 167.863C52.5712 167.869 52.5869 167.874 52.6043 167.879C52.6338 167.889 52.6633 167.9 52.6946 167.91C52.712 167.916 52.7276 167.922 52.7467 167.928C52.7762 167.938 52.8075 167.949 52.8388 167.961C52.8579 167.968 52.8787 167.975 52.8978 167.982C52.9256 167.992 52.9552 168.002 52.9847 168.013C53.009 168.021 53.0316 168.03 53.0559 168.039C53.0837 168.049 53.1132 168.06 53.141 168.07C53.1671 168.079 53.1914 168.089 53.2175 168.098C53.247 168.108 53.2748 168.121 53.3043 168.131C53.3304 168.141 53.3547 168.15 53.3808 168.16C53.4103 168.173 53.4398 168.183 53.4694 168.195C53.4954 168.206 53.5215 168.216 53.5475 168.225C53.5771 168.237 53.6066 168.247 53.6344 168.259C53.6604 168.27 53.6865 168.28 53.7126 168.291C53.7421 168.303 53.7699 168.315 53.7994 168.325C53.8255 168.336 53.8515 168.346 53.8759 168.357C53.9071 168.369 53.9384 168.383 53.9679 168.395C53.9905 168.404 54.0131 168.414 54.0339 168.423C54.0861 168.445 54.1364 168.468 54.1868 168.489C54.2598 168.522 54.3293 168.555 54.397 168.586L54.2945 180.336C54.2285 180.305 54.1573 180.272 54.0843 180.239C54.034 180.216 53.9836 180.194 53.9315 180.171C53.9141 180.164 53.8967 180.157 53.8811 180.15C53.8446 180.135 53.8099 180.121 53.7734 180.105C53.7525 180.097 53.7317 180.088 53.7108 180.079C53.6778 180.065 53.6448 180.051 53.6101 180.038C53.5858 180.029 53.5632 180.018 53.5406 180.01C53.5093 179.998 53.4763 179.984 53.445 179.971C53.4207 179.963 53.3964 179.952 53.3721 179.944C53.3408 179.932 53.3096 179.919 53.2783 179.907C53.2522 179.897 53.2279 179.888 53.2018 179.878C53.1723 179.867 53.1428 179.855 53.1132 179.845C53.0889 179.836 53.0646 179.826 53.0386 179.817C53.009 179.806 52.9795 179.794 52.95 179.784C52.9256 179.775 52.903 179.767 52.8805 179.758C52.8509 179.747 52.8231 179.737 52.7953 179.727C52.7693 179.718 52.7432 179.709 52.7189 179.7C52.6946 179.692 52.6703 179.683 52.6477 179.676C52.6216 179.667 52.5973 179.659 52.573 179.65C52.5504 179.641 52.5261 179.634 52.5052 179.626C52.4826 179.619 52.4601 179.61 52.4392 179.603C52.4184 179.596 52.3958 179.588 52.3749 179.582C52.3541 179.575 52.335 179.568 52.3159 179.563C52.295 179.556 52.2759 179.549 52.2568 179.544C52.2377 179.539 52.2221 179.532 52.2047 179.527C52.1873 179.522 52.17 179.516 52.1543 179.511C52.1387 179.506 52.1231 179.501 52.1074 179.497C52.0935 179.492 52.0796 179.489 52.0657 179.485C52.0536 179.482 52.0414 179.478 52.0292 179.475C52.0171 179.471 52.0049 179.468 51.9945 179.464C51.9858 179.461 51.9771 179.459 51.9702 179.457C51.958 179.454 51.9459 179.452 51.9372 179.449C51.7635 179.41 51.588 179.379 51.4056 179.353C51.2718 179.332 51.1363 179.315 51.0009 179.299C50.9783 179.297 50.9539 179.296 50.9314 179.292C50.8115 179.28 50.6899 179.27 50.5666 179.261C50.4814 179.254 50.3963 179.249 50.3112 179.245C50.2278 179.24 50.1444 179.235 50.0593 179.231C49.9724 179.228 49.8838 179.225 49.7952 179.221C49.7119 179.218 49.6285 179.214 49.5434 179.212C49.4304 179.209 49.3141 179.207 49.1994 179.205C49.1282 179.204 49.057 179.202 48.984 179.202C48.8468 179.2 48.7095 179.198 48.5723 179.198C48.3916 179.197 48.2127 179.195 48.032 179.192C47.9868 179.192 47.9417 179.19 47.8965 179.19C47.7141 179.188 47.5317 179.185 47.351 179.179C47.3424 179.179 47.3337 179.179 47.325 179.179C47.2486 179.178 47.1738 179.172 47.0991 179.171C47.0106 179.167 46.9185 179.165 46.8299 179.16C46.7483 179.157 46.6683 179.15 46.5867 179.145C46.4964 179.139 46.406 179.134 46.3192 179.127C46.3087 179.127 46.2983 179.125 46.2896 179.125C46.1507 179.115 46.0152 179.101 45.8797 179.086C45.8449 179.082 45.8119 179.077 45.7772 179.073C45.7094 179.065 45.6399 179.058 45.5739 179.047C45.5305 179.04 45.4871 179.033 45.4436 179.026C45.3967 179.02 45.3516 179.011 45.3064 179.004C45.19 178.983 45.0754 178.96 44.9642 178.934C44.9381 178.927 44.9103 178.924 44.8825 178.917C44.8756 178.915 44.8669 178.914 44.8599 178.912C44.7661 178.889 44.6758 178.861 44.5855 178.835C44.5386 178.821 44.4899 178.811 44.443 178.795C44.3006 178.75 44.1616 178.7 44.0278 178.643C43.9584 178.611 43.8923 178.58 43.8263 178.547C43.8037 178.535 43.7812 178.523 43.7603 178.511C43.7186 178.488 43.6787 178.467 43.6405 178.443C43.6352 178.439 43.63 178.438 43.6248 178.434C43.6092 178.425 43.597 178.415 43.5814 178.406C43.5379 178.379 43.4945 178.351 43.4511 178.321C43.4302 178.307 43.4094 178.292 43.3885 178.276C43.3503 178.248 43.3138 178.22 43.2791 178.191C43.2669 178.182 43.2548 178.174 43.2426 178.163C43.2339 178.156 43.2253 178.147 43.2166 178.141C43.1957 178.123 43.1766 178.106 43.1558 178.087C43.1315 178.066 43.1089 178.045 43.0863 178.022C43.0672 178.003 43.0498 177.986 43.0324 177.967C43.022 177.955 43.0081 177.942 42.9977 177.93C42.9925 177.925 42.989 177.918 42.9838 177.913C42.9265 177.849 42.8726 177.783 42.824 177.715C42.8205 177.711 42.817 177.706 42.8136 177.703C42.8083 177.696 42.8049 177.689 42.8014 177.682C42.7527 177.612 42.7093 177.541 42.6711 177.466C42.6711 177.466 42.6694 177.466 42.6694 177.465C42.6676 177.463 42.6676 177.461 42.6676 177.46C42.6294 177.383 42.5964 177.305 42.5686 177.225C42.5669 177.218 42.5634 177.211 42.5599 177.204C42.5582 177.199 42.5565 177.194 42.5547 177.189C42.5478 177.168 42.5425 177.147 42.5373 177.126C42.546 177.114 42.5391 177.086 42.5321 177.057Z" fill="#B4BECD"/>
<path d="M38.1042 179.592L38 191.342L88.5205 212.6L88.623 200.85L38.1042 179.592Z" fill="#D4DBE7"/>
<path d="M88.623 200.851L88.5205 212.601L127.93 186.008L128.032 174.26L88.623 200.851Z" fill="#B4BECD"/>
<path d="M126.986 174.362L107.176 166.025C106.908 166.199 106.629 166.406 106.391 166.594C106.242 166.711 106.114 166.819 106.02 166.901C105.972 166.943 105.935 166.976 105.91 167.001C105.899 167.011 105.892 167.017 105.888 167.021C105.581 167.435 105.578 167.899 105.574 168.551C105.573 168.647 105.573 168.748 105.571 168.854C105.565 169.234 105.539 169.669 105.38 170.093C105.215 170.533 104.919 170.933 104.426 171.266M126.986 174.362L104.426 171.266M126.986 174.362L88.5707 200.285L39.1532 179.49L54.6922 169.006L55.428 168.509L54.6221 168.137C54.6013 168.128 54.5782 168.117 54.5539 168.105C54.5078 168.084 54.4571 168.06 54.4084 168.038L54.406 168.037C53.9861 167.85 53.482 167.659 53.0636 167.51C52.6606 167.367 52.2951 167.249 52.1644 167.22C51.0637 166.978 49.7995 166.967 48.5977 166.956C48.4032 166.955 48.2103 166.953 48.02 166.95C46.6132 166.931 45.3415 166.859 44.3518 166.444C43.8034 166.198 43.464 165.891 43.2783 165.57C43.0952 165.255 43.0373 164.886 43.1235 164.465C43.3014 163.595 44.0994 162.507 45.6364 161.47C47.1748 160.432 49.0824 159.698 50.9284 159.361C52.7821 159.024 54.5099 159.098 55.7179 159.605C56.3589 159.892 56.6466 160.254 56.8552 160.652C56.9445 160.822 57.0164 160.992 57.0973 161.184C57.1201 161.238 57.1436 161.294 57.1684 161.352C57.2764 161.604 57.4039 161.883 57.5864 162.154C57.5865 162.154 57.5866 162.154 57.5867 162.154L58.0015 161.875M126.986 174.362L61.1927 164.015C60.8557 163.901 60.4909 163.751 60.1834 163.614C59.8151 163.449 59.5233 163.303 59.4486 163.256M104.426 171.266C103.275 172.042 101.39 172.299 99.355 172.177C97.2928 172.053 94.97 171.534 92.8643 170.649M104.426 171.266L92.8643 170.649M92.8643 170.649C92.7454 170.599 92.6284 170.549 92.5122 170.496C92.5118 170.496 92.5113 170.496 92.5108 170.495L92.8643 170.649ZM58.0015 161.875C58.3281 162.362 58.8076 162.862 59.4486 163.256M58.0015 161.875C57.8136 161.596 57.6881 161.298 57.5625 161C57.2724 160.312 56.9812 159.621 55.9169 159.146L58.0015 161.875ZM59.4486 163.256L59.1827 163.68C59.1834 163.68 59.184 163.681 59.1846 163.681C59.1853 163.681 59.186 163.682 59.1866 163.682L59.4486 163.256Z" fill="white" stroke="#B4BECD"/>
<path d="M83.1583 81.498C83.1583 81.5258 83.1565 81.5536 83.1548 81.5814C83.1548 81.611 83.153 81.6405 83.1513 81.67C83.1496 81.6943 83.1461 81.7187 83.1426 81.743C83.1391 81.7708 83.1357 81.8003 83.1322 81.8281C83.127 81.8559 83.1218 81.8837 83.1166 81.9098C83.1131 81.9306 83.1079 81.9514 83.1044 81.9723C83.0975 82.0018 83.0888 82.0296 83.0801 82.0557C83.0749 82.0765 83.0697 82.0956 83.0627 82.1148C83.0592 82.1269 83.054 82.1373 83.0505 82.1495C83.0227 82.2277 82.9915 82.3041 82.955 82.3771C82.955 82.3788 82.9533 82.3805 82.9533 82.3823C82.9168 82.4535 82.8734 82.523 82.8265 82.5907C82.8195 82.6012 82.8126 82.6133 82.8039 82.6237C82.757 82.6897 82.7048 82.754 82.6493 82.8166C82.6336 82.8339 82.618 82.8513 82.6006 82.8687C82.5832 82.8878 82.5641 82.9051 82.5468 82.9243C82.5259 82.9451 82.5033 82.9642 82.4825 82.9851C82.4634 83.0024 82.4425 83.0215 82.4217 83.0389C82.4026 83.0546 82.3835 83.0702 82.3644 83.0858C82.3296 83.1136 82.2914 83.1414 82.2549 83.1692C82.2358 83.1831 82.215 83.1987 82.1941 83.2109C82.1542 83.2387 82.1107 83.2665 82.0673 83.2926C82.0482 83.3047 82.0308 83.3169 82.01 83.329C81.9718 83.3516 81.9335 83.3725 81.8936 83.3933C81.8727 83.4055 81.8502 83.4176 81.8293 83.4298C81.765 83.4611 81.7008 83.4923 81.633 83.5236C81.3776 83.6313 81.1084 83.7164 80.8252 83.7842C80.5994 83.838 80.3684 83.8815 80.1286 83.9162C79.9011 83.9492 79.67 83.9735 79.432 83.9944C79.1037 84.0204 78.7649 84.0361 78.4245 84.0465C77.6792 84.0673 76.9131 84.0604 76.1696 84.0812C75.8343 84.0916 75.5043 84.1055 75.1812 84.1316L75.2819 95.5657C75.605 95.5396 75.9351 95.524 76.2704 95.5153C77.0139 95.4945 77.78 95.5014 78.5252 95.4805C78.8657 95.4701 79.2027 95.4545 79.5328 95.4284C79.769 95.4093 80.0018 95.3833 80.2294 95.3503C80.4674 95.3155 80.7001 95.2721 80.9242 95.2182C81.2074 95.1505 81.4767 95.0654 81.732 94.9577C81.7998 94.9281 81.8641 94.8969 81.9283 94.8639C81.9457 94.8552 81.9631 94.8447 81.9822 94.8343C82.0256 94.8117 82.069 94.7874 82.1107 94.7631C82.1142 94.7614 82.1194 94.7579 82.1229 94.7562C82.1351 94.7475 82.1472 94.7405 82.1594 94.7318C82.2045 94.704 82.2497 94.6762 82.2914 94.6467C82.3122 94.6328 82.3314 94.6189 82.3505 94.605C82.3887 94.5772 82.4252 94.5494 82.4599 94.5216C82.4703 94.5129 82.4825 94.5043 82.4929 94.4956C82.5016 94.4886 82.5086 94.4817 82.5172 94.473C82.5381 94.4556 82.5572 94.4365 82.578 94.4191C82.6006 94.4 82.6215 94.3792 82.6423 94.3583C82.6614 94.341 82.6788 94.3218 82.6979 94.3027C82.7083 94.2906 82.7205 94.2802 82.7309 94.268C82.7361 94.2628 82.7396 94.2558 82.7448 94.2506C82.8021 94.1881 82.8542 94.1238 82.9011 94.0578C82.9046 94.0543 82.9081 94.0491 82.9116 94.0456C82.9168 94.0387 82.9203 94.0317 82.9237 94.0248C82.9706 93.9553 83.0141 93.8858 83.0488 93.8146L83.0505 93.8129C83.0505 93.8111 83.0505 93.8111 83.0523 93.8094C83.0905 93.7347 83.1218 93.6565 83.1496 93.5784C83.1513 93.5714 83.1548 93.5662 83.1565 93.561C83.1583 93.5558 83.16 93.5523 83.16 93.5471C83.1669 93.5245 83.1739 93.5019 83.1808 93.4793C83.1878 93.455 83.1947 93.429 83.2017 93.4046C83.2069 93.3821 83.2121 93.3577 83.2156 93.3351C83.2191 93.316 83.2243 93.2969 83.2277 93.2778C83.2295 93.2709 83.2295 93.2639 83.2312 93.257C83.2364 93.2274 83.2399 93.1962 83.2434 93.1649C83.2451 93.1441 83.2486 93.1215 83.2503 93.0989C83.2538 93.0659 83.2538 93.0311 83.2555 92.9964C83.2555 92.979 83.2573 92.9634 83.2573 92.946C83.2573 92.9373 83.2573 92.9304 83.2573 92.9234L83.1583 81.498Z" fill="#B4BECD"/>
<path d="M73.9374 84.312C73.9339 84.312 73.9304 84.3137 73.9252 84.3154C73.7133 84.3675 72.6171 84.7358 71.8493 85.078C71.778 85.1093 71.7086 85.1406 71.6443 85.1736L71.745 96.6077C71.8093 96.5764 71.8788 96.5451 71.95 96.5121C72.7179 96.1699 73.8123 95.8016 74.0242 95.7495C74.0294 95.7478 74.0329 95.7478 74.0364 95.746C74.2153 95.7061 74.4012 95.6731 74.5888 95.6453C74.8129 95.6123 75.0439 95.5879 75.2784 95.5688L75.1777 84.1348C74.9432 84.1539 74.7121 84.1782 74.4863 84.2112C74.3022 84.239 74.118 84.272 73.9374 84.312Z" fill="#B4BECD"/>
<path d="M87.6126 107.313L87.5118 95.8789L67.1487 104.447L67.2321 113.961C64.8678 114.244 62.7432 114.022 61.5967 113.249C60.8341 112.733 60.7177 112.075 60.6986 111.39C60.6968 111.201 60.6951 111.013 60.6934 110.824C60.6882 110.261 60.6482 109.703 60.2782 109.213C60.1983 109.111 59.3801 108.414 58.6904 108.006L38.3499 116.565L38.4506 127.999L58.7912 119.44C59.4808 119.848 60.3008 120.543 60.3789 120.648C60.7125 121.085 60.7768 121.579 60.7906 122.082C60.7924 122.27 60.7941 122.459 60.7959 122.649C60.8028 123.396 60.8706 124.125 61.6974 124.685C63.6622 126.008 68.4915 125.72 72.4888 124.038C72.6017 123.99 72.7129 123.943 72.8206 123.894C75.4784 122.71 77.0089 121.191 76.9985 119.947C76.9741 117.234 76.9516 114.522 76.9272 111.809L87.6126 107.313Z" fill="#B4BECD"/>
<path d="M81.6315 83.5273L81.7323 94.9614C79.6042 95.8578 76.4044 95.2272 74.0383 95.7466C73.8594 95.7866 72.7354 96.1618 71.952 96.511C71.8808 96.5422 71.813 96.5752 71.747 96.6065L71.6462 85.1724C71.7105 85.1412 71.78 85.1099 71.8512 85.0769C72.6347 84.7277 73.7586 84.3508 73.9376 84.3125C76.3036 83.7931 79.5035 84.4237 81.6315 83.5273Z" fill="#B4BECD"/>
<path d="M38.4271 125.14L38.3767 119.423L37.8768 119.427L37.8539 116.832L36.4739 115.9L36.7536 115.486L33.5576 113.329L33.2779 113.744L30.082 111.587L30.3616 111.173L27.1657 109.016L26.886 109.431L23.6901 107.274L23.9697 106.86L20.7738 104.703L20.4941 105.118L17.2981 102.961L17.5778 102.547L14.3818 100.39L14.1022 100.805L10.9062 98.648L11.1859 98.2335L7.98991 96.0769L7.71024 96.4914L4.51427 94.3348L4.79395 93.9204L1.59798 91.7638L1.31831 92.1783L0.508357 91.6318L0.525169 93.5397L0.0251884 93.5441L0.0755653 99.2611L0.575546 99.2567L0.598417 101.852L1.97841 102.783L1.69874 103.198L4.8947 105.354L5.17437 104.94L8.37033 107.097L8.09066 107.511L11.2866 109.668L11.5663 109.253L14.7623 111.41L14.4826 111.824L17.6786 113.981L17.9582 113.566L21.1542 115.723L20.8745 116.137L24.0705 118.294L24.3502 117.879L27.5461 120.036L27.2664 120.45L30.4624 122.607L30.7421 122.192L33.938 124.349L33.6584 124.763L36.8543 126.92L37.134 126.506L37.944 127.052L37.9271 125.144L38.4271 125.14Z" fill="#D4DBE7" stroke="#344A66" stroke-dasharray="4 4"/>
<path d="M76.0708 107.16C74.8513 106.336 72.7476 106.389 71.0365 106.072C70.1488 105.909 69.2368 105.666 68.5228 105.339C68.3682 105.268 67.5986 104.825 67.1504 104.445L87.5135 95.8769L71.6479 85.1707C71.7122 85.1395 71.7817 85.1082 71.8529 85.0752C72.6364 84.726 73.7604 84.349 73.9393 84.3108C76.3036 83.7914 79.5052 84.422 81.6332 83.5256C84.0548 82.4451 83.5458 79.9158 80.4606 77.8364C77.3441 75.7327 72.7754 74.8849 70.1835 75.9776C68.6982 76.6395 68.7573 77.7356 68.1528 78.6337C67.8349 79.108 67.3675 79.5944 66.7456 79.9783C66.6709 80.0235 66.3843 80.1677 66.023 80.3292C65.7242 80.463 65.3733 80.6072 65.0467 80.7183L49.162 70L0 90.6862L38.3516 116.565L58.6921 108.006C59.3818 108.414 60.2 109.111 60.2799 109.213C61.2301 110.464 60.0054 112.173 61.5984 113.249C63.5614 114.572 68.3925 114.284 72.3897 112.602C72.5026 112.556 72.6138 112.507 72.7215 112.458C76.4755 110.784 77.9782 108.447 76.0708 107.16Z" fill="#F2F4F8"/>
<path d="M365.931 85.9893C365.966 85.9807 366.001 85.9737 366.035 85.9668C366.089 85.9546 366.141 85.9424 366.197 85.932C366.235 85.9251 366.275 85.9181 366.313 85.9112C366.352 85.9042 366.388 85.8973 366.426 85.8921L366.506 95.0122L381.607 105.202L381.512 94.3208L369.001 85.8799C369.185 85.9025 369.369 85.9268 369.555 85.9581C369.595 85.965 369.637 85.972 369.677 85.9789C369.748 85.9911 369.819 86.0032 369.89 86.0171C369.937 86.0258 369.986 86.0363 370.033 86.0449C370.102 86.0588 370.172 86.0727 370.241 86.0884C370.285 86.0988 370.328 86.1075 370.371 86.1179C370.481 86.1422 370.59 86.1683 370.7 86.1961C370.729 86.203 370.757 86.21 370.787 86.2187C370.922 86.2534 371.056 86.2916 371.191 86.3298C371.216 86.3368 371.24 86.3437 371.263 86.3507C371.448 86.4063 371.634 86.4653 371.82 86.5279C371.827 86.5296 371.834 86.5331 371.841 86.5348C372.027 86.5991 372.213 86.6668 372.395 86.7381C372.409 86.7433 372.421 86.7485 372.435 86.7537C372.644 86.8354 372.85 86.9222 373.054 87.0143C373.062 87.0195 373.073 87.023 373.081 87.0264C373.288 87.1202 373.491 87.2175 373.691 87.3218C373.698 87.3252 373.705 87.3287 373.71 87.3322C373.912 87.4364 374.112 87.5476 374.304 87.6605C374.308 87.6622 374.311 87.664 374.315 87.6674C374.513 87.7838 374.706 87.9054 374.892 88.0323C376.557 89.158 377.435 90.4191 377.445 91.4962C377.414 87.869 377.381 84.2418 377.35 80.6145C377.341 79.5392 376.464 78.2763 374.798 77.1506C374.61 77.0238 374.417 76.9022 374.221 76.7858C374.218 76.7841 374.214 76.7806 374.209 76.7789C374.014 76.6642 373.816 76.5548 373.615 76.4505C373.608 76.4471 373.601 76.4436 373.594 76.4401C373.394 76.3376 373.193 76.2386 372.986 76.1465C372.975 76.1413 372.965 76.1378 372.955 76.1326C372.751 76.0406 372.546 75.9554 372.34 75.8738C372.336 75.8721 372.331 75.8703 372.327 75.8686C372.317 75.8634 372.305 75.8599 372.293 75.8564C372.112 75.7852 371.931 75.7192 371.747 75.6566C371.739 75.6532 371.73 75.6514 371.721 75.648C371.539 75.5854 371.355 75.5281 371.171 75.4725C371.155 75.4673 371.139 75.4621 371.122 75.4569C371.111 75.4534 371.101 75.4517 371.091 75.4482C370.957 75.41 370.823 75.3717 370.689 75.337C370.66 75.3283 370.63 75.3214 370.599 75.3144C370.491 75.2866 370.384 75.2606 370.276 75.2362C370.255 75.231 370.232 75.2258 370.212 75.2206C370.187 75.2154 370.163 75.2102 370.139 75.205C370.073 75.1911 370.007 75.1772 369.941 75.1633C369.89 75.1529 369.84 75.1424 369.789 75.1338C369.722 75.1216 369.656 75.1094 369.588 75.0973C369.553 75.0903 369.517 75.0834 369.482 75.0782C369.473 75.0764 369.465 75.0764 369.454 75.0747C369.27 75.0452 369.084 75.0191 368.902 74.9965C368.886 74.9948 368.869 74.9913 368.853 74.9896C368.841 74.9878 368.829 74.9878 368.818 74.9861C368.659 74.9687 368.499 74.9531 368.341 74.9427C368.327 74.9409 368.315 74.9392 368.301 74.9392C368.283 74.9375 368.266 74.9375 368.247 74.9375C368.099 74.9288 367.95 74.9218 367.806 74.9183H367.8C367.799 74.9183 367.795 74.9183 367.793 74.9183C367.656 74.9149 367.521 74.9166 367.387 74.9201C367.37 74.9201 367.35 74.9201 367.333 74.9201C367.317 74.9201 367.302 74.9218 367.286 74.9218C367.151 74.927 367.019 74.934 366.888 74.9444C366.888 74.9444 366.881 74.9444 366.876 74.9444C366.866 74.9444 366.857 74.9461 366.847 74.9479C366.711 74.96 366.577 74.9739 366.447 74.993C366.433 74.9948 366.418 74.9965 366.402 74.9983C366.392 75 366.381 75.0017 366.371 75.0035C366.319 75.0122 366.266 75.0208 366.216 75.0295C366.174 75.0365 366.133 75.0434 366.091 75.0521C366.041 75.0625 365.992 75.0729 365.942 75.0834C365.907 75.0903 365.872 75.0973 365.839 75.106C365.834 75.1077 365.83 75.1094 365.825 75.1094C365.709 75.1372 365.596 75.1702 365.485 75.205C365.459 75.2137 365.433 75.2206 365.408 75.2293C365.297 75.2658 365.188 75.3057 365.083 75.3492C365 75.3874 364.922 75.4256 364.847 75.4656C364.825 75.4777 364.804 75.4899 364.783 75.502C364.757 75.5177 364.729 75.5316 364.703 75.5455C364.68 75.5594 364.661 75.5733 364.64 75.5872C364.614 75.6045 364.587 75.6219 364.561 75.6393C364.519 75.6671 364.481 75.6966 364.442 75.7244C364.42 75.7418 364.397 75.7574 364.376 75.7748C364.369 75.78 364.361 75.7869 364.354 75.7921C364.309 75.8286 364.267 75.8668 364.227 75.9051C364.222 75.9103 364.217 75.9155 364.211 75.9207C364.18 75.952 364.149 75.9832 364.121 76.0145C364.111 76.0249 364.104 76.0353 364.095 76.044C364.081 76.0597 364.067 76.0753 364.053 76.0927C364.024 76.1274 363.998 76.1604 363.972 76.1952C363.96 76.2108 363.947 76.2264 363.935 76.2421C363.928 76.2508 363.923 76.2594 363.916 76.2664C363.904 76.2838 363.893 76.3029 363.881 76.3202C363.859 76.3533 363.836 76.388 363.815 76.4227C363.8 76.4471 363.786 76.4731 363.772 76.4974C363.753 76.5322 363.734 76.5669 363.715 76.6017C363.709 76.6121 363.702 76.6225 363.697 76.6329C363.692 76.6451 363.685 76.6573 363.68 76.6677C363.65 76.7285 363.621 76.7893 363.593 76.8501C363.588 76.8605 363.583 76.8709 363.579 76.8796C363.543 76.963 363.506 77.0464 363.47 77.1298C363.447 77.1836 363.423 77.2375 363.4 77.2913C363.39 77.3156 363.378 77.34 363.367 77.366C363.334 77.4372 363.301 77.5085 363.266 77.5797C363.247 77.6144 363.228 77.6492 363.209 77.6857C363.199 77.7048 363.188 77.7239 363.178 77.743C363.147 77.7968 363.114 77.8507 363.077 77.9028C363.054 77.9358 363.028 77.9706 363.006 78.0053C362.971 78.0522 362.936 78.1008 362.898 78.1477C362.882 78.1686 362.867 78.1894 362.849 78.2103C362.799 78.2728 362.745 78.3354 362.69 78.3962C362.686 78.3996 362.683 78.4048 362.679 78.4083C362.62 78.4726 362.558 78.5351 362.493 78.5977C362.474 78.6151 362.455 78.6342 362.436 78.6515C362.389 78.695 362.34 78.7401 362.288 78.7818C362.264 78.8027 362.24 78.8235 362.214 78.8426C362.163 78.8843 362.109 78.9243 362.056 78.966C362.031 78.9833 362.007 79.0024 361.983 79.0198C361.903 79.0754 361.823 79.131 361.738 79.1831C361.734 79.1848 361.727 79.1883 361.722 79.1918C361.713 79.197 361.706 79.2005 361.696 79.2057C361.691 79.2074 361.686 79.2109 361.68 79.2144C361.668 79.2196 361.658 79.2265 361.644 79.2335C361.637 79.237 361.626 79.2422 361.618 79.2474C361.604 79.2543 361.59 79.2613 361.574 79.27C361.566 79.2752 361.554 79.2804 361.545 79.2856C361.527 79.2943 361.512 79.3012 361.493 79.3117C361.479 79.3186 361.465 79.3256 361.451 79.3325C361.434 79.3412 361.416 79.3499 361.397 79.3586C361.376 79.369 361.354 79.3794 361.333 79.3898C361.319 79.3968 361.307 79.402 361.293 79.4089C361.269 79.4211 361.243 79.4315 361.218 79.4437C361.204 79.4506 361.19 79.4558 361.177 79.4628C361.137 79.4802 361.095 79.4993 361.053 79.5184C360.767 79.6452 360.43 79.7842 360.117 79.8901L345 69.6895L345.096 80.5711L360.212 90.7718C360.527 90.6658 360.862 90.5286 361.149 90.4C361.19 90.3809 361.234 90.3618 361.272 90.3444C361.279 90.341 361.286 90.3375 361.293 90.334C361.326 90.3184 361.357 90.3045 361.387 90.2906C361.399 90.2854 361.409 90.2802 361.421 90.2732C361.446 90.2628 361.468 90.2506 361.491 90.2402C361.507 90.2333 361.521 90.2263 361.534 90.2194C361.552 90.2107 361.571 90.202 361.587 90.1933C361.599 90.1881 361.609 90.1829 361.62 90.1777C361.637 90.169 361.654 90.1603 361.67 90.1533C361.679 90.1481 361.687 90.1447 361.694 90.1412C361.71 90.1342 361.724 90.1256 361.738 90.1186C361.745 90.1151 361.75 90.1117 361.757 90.1082C361.769 90.1012 361.781 90.096 361.792 90.0908C361.797 90.0873 361.8 90.0856 361.805 90.0839C361.812 90.0804 361.821 90.0752 361.826 90.0717C361.828 90.07 361.83 90.07 361.83 90.0682C361.915 90.0161 361.997 89.9605 362.075 89.9049C362.101 89.8858 362.125 89.8684 362.149 89.8493C362.203 89.8094 362.255 89.7694 362.304 89.7295C362.318 89.7191 362.332 89.7086 362.344 89.6982C362.358 89.6878 362.368 89.6756 362.38 89.6652C362.429 89.6235 362.478 89.5801 362.523 89.5384C362.544 89.5193 362.565 89.5002 362.584 89.4811C362.648 89.4185 362.709 89.356 362.768 89.2935C362.77 89.2935 362.77 89.2917 362.77 89.2917C362.773 89.2882 362.776 89.283 362.78 89.2796C362.836 89.2188 362.888 89.158 362.938 89.0972C362.955 89.0763 362.971 89.0555 362.987 89.0363C363.025 88.9877 363.06 88.9408 363.094 88.8922C363.103 88.88 363.114 88.8696 363.12 88.8574C363.136 88.8348 363.152 88.814 363.166 88.7914C363.2 88.7393 363.233 88.6854 363.266 88.6316C363.28 88.6073 363.294 88.5812 363.308 88.5552C363.324 88.5274 363.339 88.4996 363.353 88.4718C363.353 88.47 363.355 88.4683 363.355 88.4683C363.391 88.3971 363.426 88.3241 363.459 88.2511C363.468 88.2303 363.477 88.2112 363.487 88.1903C363.515 88.1261 363.543 88.0618 363.57 87.9958C363.602 87.9211 363.635 87.8464 363.668 87.7717C363.675 87.7578 363.682 87.7439 363.687 87.73C363.713 87.6709 363.741 87.6136 363.77 87.5563C363.782 87.532 363.794 87.5094 363.807 87.4851C363.824 87.4503 363.843 87.4173 363.862 87.3826C363.876 87.3565 363.892 87.3304 363.907 87.3061C363.928 87.2714 363.951 87.2384 363.973 87.2036C363.991 87.1776 364.008 87.1515 364.026 87.1255C364.038 87.1098 364.05 87.0925 364.062 87.0768C364.088 87.0438 364.114 87.0091 364.142 86.9761C364.156 86.9587 364.17 86.9431 364.185 86.9257C364.222 86.884 364.26 86.844 364.302 86.8041C364.307 86.7989 364.312 86.7937 364.319 86.7867C364.366 86.7415 364.416 86.6981 364.468 86.6547C364.489 86.6373 364.512 86.6217 364.535 86.6043C364.573 86.5748 364.611 86.547 364.653 86.5192C364.679 86.5018 364.705 86.4844 364.731 86.4671C364.776 86.4375 364.823 86.4097 364.873 86.3819C364.894 86.3698 364.917 86.3576 364.938 86.3455C365.012 86.3055 365.089 86.2673 365.174 86.2291C365.278 86.1856 365.387 86.1457 365.499 86.1092C365.525 86.1005 365.551 86.0918 365.575 86.0832C365.7 86.0501 365.813 86.0171 365.931 85.9893Z" fill="#E0E5ED"/>
<path d="M428.398 85.5125L428.303 74.6309L408.923 82.7851L409.001 91.841C408.994 91.841 408.989 91.8428 408.982 91.8428C408.94 91.848 408.898 91.8532 408.857 91.8567C408.702 91.874 408.547 91.8897 408.396 91.9018C408.381 91.9036 408.365 91.9036 408.351 91.9053C408.24 91.914 408.129 91.9227 408.018 91.9279C407.976 91.9296 407.936 91.9314 407.893 91.9331C407.809 91.9366 407.726 91.9418 407.644 91.9435C407.613 91.9453 407.583 91.9453 407.554 91.9453C407.359 91.9505 407.166 91.9522 406.979 91.9487C406.953 91.9487 406.928 91.947 406.904 91.947C406.748 91.9435 406.593 91.9366 406.442 91.9279C406.43 91.9279 406.418 91.9261 406.407 91.9261C406.265 91.9175 406.128 91.9036 405.992 91.8897C405.957 91.8862 405.924 91.8827 405.891 91.8775C405.775 91.8636 405.662 91.848 405.551 91.8306C405.537 91.8289 405.523 91.8271 405.511 91.8237C405.391 91.8028 405.273 91.7802 405.16 91.7559C405.13 91.749 405.101 91.742 405.073 91.7368C404.965 91.7125 404.861 91.6847 404.76 91.6569C404.747 91.6534 404.731 91.6482 404.717 91.6447C404.696 91.6378 404.675 91.6308 404.654 91.6256C404.599 91.6082 404.543 91.5909 404.489 91.5718C404.462 91.5613 404.436 91.5509 404.408 91.5422C404.363 91.5249 404.317 91.5075 404.272 91.4901C404.246 91.4797 404.222 91.4693 404.198 91.4588C404.154 91.4397 404.111 91.4206 404.069 91.4015C404.045 91.3894 404.022 91.3789 403.998 91.3668C403.954 91.3459 403.913 91.3234 403.873 91.3008C403.854 91.2903 403.833 91.2799 403.815 91.2695C403.756 91.2348 403.699 91.2 403.647 91.1635C402.919 90.6719 402.81 90.0431 402.79 89.3899C402.789 89.2127 402.787 89.0372 402.787 88.86C402.782 88.3232 402.745 87.7899 402.389 87.3244C402.314 87.2254 401.536 86.5635 400.876 86.1744L381.521 94.32L381.616 105.202L400.972 97.056C401.632 97.4452 402.41 98.107 402.485 98.206C402.803 98.6247 402.865 99.0972 402.879 99.5784C402.881 99.7538 402.881 99.9293 402.883 100.107C402.889 100.819 402.952 101.514 403.741 102.047C403.795 102.083 403.852 102.118 403.909 102.153C403.928 102.163 403.949 102.174 403.968 102.186C404.008 102.208 404.05 102.231 404.092 102.252C404.116 102.264 404.14 102.274 404.163 102.287C404.205 102.306 404.246 102.325 404.291 102.344C404.316 102.354 404.34 102.365 404.366 102.375C404.38 102.38 404.394 102.387 404.408 102.393C404.439 102.405 404.472 102.417 404.503 102.427C404.531 102.438 404.557 102.448 404.585 102.457C404.637 102.476 404.691 102.492 404.745 102.509C404.767 102.516 404.79 102.523 404.813 102.53C404.816 102.532 404.819 102.532 404.823 102.533C404.832 102.537 404.842 102.539 404.852 102.54C404.955 102.57 405.063 102.598 405.17 102.622C405.186 102.625 405.2 102.631 405.216 102.634C405.228 102.638 405.242 102.639 405.254 102.641C405.37 102.665 405.487 102.69 405.608 102.711C405.61 102.711 405.612 102.712 405.612 102.712C405.622 102.714 405.632 102.716 405.641 102.716C405.754 102.735 405.872 102.75 405.99 102.764C406.008 102.766 406.023 102.77 406.041 102.771C406.056 102.773 406.072 102.773 406.088 102.775C406.223 102.79 406.362 102.803 406.505 102.813L406.513 102.815C406.522 102.815 406.532 102.815 406.541 102.816C406.692 102.827 406.847 102.832 407.005 102.836C407.02 102.836 407.036 102.837 407.052 102.837C407.06 102.837 407.067 102.837 407.076 102.837C407.264 102.841 407.455 102.839 407.651 102.834C407.667 102.834 407.682 102.834 407.698 102.834C407.714 102.834 407.729 102.832 407.747 102.832C407.828 102.83 407.91 102.825 407.993 102.822C408.035 102.82 408.075 102.818 408.117 102.816C408.235 102.81 408.353 102.801 408.473 102.792C408.48 102.792 408.485 102.79 408.492 102.79H408.494C408.646 102.778 408.803 102.763 408.959 102.745C409.001 102.74 409.041 102.737 409.081 102.731C409.218 102.716 409.355 102.697 409.494 102.678C409.512 102.676 409.527 102.674 409.545 102.671C409.55 102.671 409.557 102.669 409.562 102.667C409.691 102.648 409.819 102.629 409.949 102.606C409.972 102.603 409.993 102.598 410.015 102.594C410.125 102.575 410.232 102.556 410.34 102.535C410.389 102.526 410.437 102.516 410.486 102.506C410.57 102.49 410.651 102.473 410.735 102.455C410.788 102.443 410.844 102.431 410.898 102.419C410.976 102.401 411.052 102.384 411.131 102.365C411.151 102.36 411.172 102.356 411.191 102.351C411.209 102.347 411.226 102.34 411.245 102.337C411.455 102.287 411.666 102.231 411.874 102.174C411.902 102.167 411.93 102.158 411.958 102.149C412.171 102.089 412.383 102.024 412.595 101.957C412.618 101.95 412.638 101.943 412.659 101.936C412.876 101.865 413.094 101.79 413.307 101.71C413.319 101.705 413.333 101.699 413.346 101.694C413.57 101.611 413.79 101.524 414.009 101.432C414.117 101.387 414.221 101.342 414.325 101.295C414.473 101.229 414.615 101.163 414.754 101.095C414.801 101.072 414.848 101.048 414.895 101.025C414.985 100.98 415.076 100.935 415.163 100.89C415.215 100.862 415.265 100.836 415.315 100.808C415.397 100.765 415.475 100.721 415.552 100.676C415.6 100.648 415.649 100.621 415.696 100.593C415.725 100.576 415.755 100.56 415.785 100.543C415.833 100.513 415.878 100.483 415.927 100.454C415.969 100.428 416.01 100.402 416.052 100.376C416.137 100.32 416.221 100.265 416.302 100.209C416.328 100.192 416.356 100.173 416.382 100.155C416.488 100.082 416.589 100.007 416.686 99.9328C416.712 99.9137 416.735 99.8946 416.759 99.8755C416.816 99.8303 416.874 99.7851 416.928 99.7399C416.938 99.7313 416.948 99.7226 416.959 99.7139C417.03 99.6548 417.096 99.594 417.162 99.535C417.192 99.5089 417.223 99.4811 417.251 99.4551C417.341 99.3682 417.428 99.2813 417.508 99.1945L417.51 99.1927C417.579 99.1163 417.643 99.0399 417.706 98.9652C417.725 98.9409 417.742 98.9165 417.761 98.8922C417.794 98.8505 417.827 98.8088 417.857 98.7671C417.866 98.755 417.871 98.7446 417.88 98.7341C417.895 98.7133 417.907 98.6924 417.921 98.6699C417.956 98.616 417.989 98.5639 418.019 98.51C418.031 98.4875 418.045 98.4649 418.055 98.444C418.062 98.4319 418.071 98.418 418.076 98.4058C418.105 98.3502 418.13 98.2946 418.154 98.239C418.157 98.2286 418.161 98.2199 418.166 98.2112C418.182 98.173 418.197 98.1331 418.211 98.0949C418.22 98.0705 418.227 98.0462 418.234 98.0219C418.237 98.0097 418.243 97.9958 418.246 97.9837C418.262 97.9281 418.276 97.8725 418.284 97.8169C418.286 97.8065 418.286 97.7943 418.288 97.7822C418.29 97.77 418.291 97.7596 418.293 97.7474C418.302 97.6849 418.307 97.6223 418.307 97.5615C418.307 97.5546 418.307 97.5494 418.307 97.5424C418.284 94.961 418.262 92.3778 418.239 89.7964L428.398 85.5125Z" fill="#B4BECD"/>
<path d="M427.257 74.5272L391.747 50.5658L346.06 69.7915L360.199 79.3321C360.424 79.2478 360.655 79.1512 360.862 79.0593C361.028 78.9855 361.175 78.9161 361.288 78.8605C361.345 78.8326 361.392 78.8088 361.428 78.7899C361.446 78.7805 361.461 78.7728 361.472 78.7668C361.481 78.7614 361.486 78.7585 361.487 78.7578C362.012 78.4334 362.405 78.0218 362.671 77.6271L362.671 77.6263C362.788 77.4529 362.878 77.2632 362.975 77.0398C362.991 77.0028 363.007 76.9644 363.024 76.9249C363.104 76.7368 363.196 76.5229 363.308 76.3164C363.597 75.7808 364.032 75.2713 364.887 74.8904L364.897 74.8861L364.897 74.8862C366.221 74.3293 368.017 74.2924 369.822 74.6272C371.638 74.9642 373.533 75.69 375.079 76.7341L375.079 76.7342C376.592 77.7557 377.574 78.9507 377.801 80.1228C377.918 80.7232 377.833 81.313 377.52 81.8347C377.21 82.35 376.702 82.7592 376.038 83.0548L376.029 83.059L376.029 83.0589C374.952 83.5118 373.606 83.5615 372.334 83.5753C372.165 83.5771 371.997 83.5783 371.83 83.5795C370.698 83.5875 369.626 83.5951 368.7 83.7982C368.699 83.7985 368.693 83.7999 368.682 83.8031C368.675 83.8049 368.667 83.8071 368.658 83.8097C368.65 83.8121 368.641 83.8148 368.63 83.8179C368.588 83.8306 368.533 83.8477 368.467 83.869C368.336 83.9113 368.168 83.9684 367.981 84.0347C367.813 84.094 367.634 84.1599 367.454 84.2289L381.567 93.7512L400.674 85.7105L400.905 85.6131L401.121 85.7407C401.479 85.9515 401.859 86.2296 402.154 86.463C402.303 86.5807 402.434 86.6902 402.535 86.7784C402.585 86.8223 402.63 86.8628 402.666 86.8976C402.693 86.9236 402.742 86.9704 402.779 87.0195M427.257 74.5272L402.381 87.3214M427.257 74.5272L408.729 82.3231L407.977 82.6393L408.6 83.1657C408.841 83.3693 409.154 83.58 409.415 83.7435C409.67 83.9029 409.913 84.0404 410.021 84.0898M427.257 74.5272L410.021 84.0898M402.779 87.0195C402.779 87.0197 402.78 87.02 402.78 87.0203L402.381 87.3214M402.779 87.0195C402.779 87.0192 402.779 87.0189 402.778 87.0186L402.381 87.3214M402.779 87.0195C403.284 87.6838 403.282 88.4713 403.28 89.0577C403.28 89.1415 403.279 89.2213 403.281 89.296C403.286 89.6262 403.311 89.8908 403.398 90.1218C403.478 90.3373 403.623 90.5485 403.918 90.748M402.381 87.3214C402.776 87.8408 402.777 88.4424 402.779 89.0408C402.781 89.8152 402.783 90.5841 403.638 91.1623M403.918 90.748C403.918 90.748 403.918 90.748 403.918 90.7479L403.638 91.1623M403.918 90.748C404.711 91.2833 406.187 91.5383 408.017 91.4286C409.82 91.3206 411.865 90.8643 413.715 90.0864L413.715 90.0862C413.782 90.0582 413.844 90.031 413.909 90.0022C413.946 89.9862 413.983 89.9697 414.023 89.9524M403.918 90.748L403.638 91.1623M403.638 91.1623L414.023 89.9524M414.023 89.9524C414.023 89.9527 414.022 89.9531 414.021 89.9534L414.225 90.4101M414.023 89.9524L413.908 90.5473C413.979 90.5178 414.048 90.4876 414.116 90.4576C414.152 90.4416 414.188 90.4258 414.225 90.4101M414.023 89.9524C415.771 89.1728 416.917 88.2702 417.417 87.483C417.663 87.0956 417.729 86.7763 417.689 86.528C417.65 86.2893 417.501 86.0301 417.132 85.7814C416.653 85.458 415.962 85.2854 415.12 85.1631C414.783 85.1142 414.438 85.0752 414.084 85.0351C414.002 85.0258 413.919 85.0164 413.836 85.0069C413.4 84.9568 412.954 84.9019 412.529 84.8234L412.528 84.8233C411.667 84.6636 410.753 84.4251 410.021 84.0898M414.023 89.9524C414.024 89.952 414.025 89.9517 414.026 89.9513L414.225 90.4101M414.225 90.4101C417.798 88.8171 419.228 86.5935 417.412 85.3671C416.596 84.8162 415.364 84.6767 414.137 84.5379C413.62 84.4794 413.103 84.4209 412.619 84.3317C411.777 84.1754 410.908 83.9461 410.229 83.6351L410.021 84.0898M375.835 82.598C374.737 83.0598 373.289 83.0695 371.83 83.0794C370.704 83.0869 369.572 83.0946 368.591 83.3103C368.446 83.3429 367.647 83.6063 366.952 83.8899L375.835 82.598ZM375.835 82.598C378.218 81.5366 377.732 79.1289 374.799 77.1485M375.835 82.598L374.799 77.1485M374.799 77.1485C371.832 75.1456 367.486 74.3395 365.09 75.3471M374.799 77.1485L365.09 75.3471M365.09 75.3471C364.044 75.8136 363.763 76.469 363.487 77.1145C363.371 77.3849 363.256 77.6536 363.086 77.9059L365.09 75.3471ZM400.867 86.1714L381.512 94.317L400.867 86.1714Z" fill="#D4DBE7" stroke="#344A66"/>
<path d="M381 104.5C381 104.776 381.224 105 381.5 105C381.776 105 382 104.776 382 104.5H381ZM381 93.5V96.25H382V93.5H381ZM381 101.75V104.5H382V101.75H381Z" fill="#344A66"/>
</svg>
