<svg width="245" height="249" viewBox="0 0 245 249" fill="none" xmlns="http://www.w3.org/2000/svg">
<path d="M83.7076 134.224L84.7282 126.497C85.273 122.373 82.6453 119.029 78.859 119.029H17.1294L15.1219 134.224L13.8831 143.6L2.28748 231.376C1.02458 240.937 7.11683 248.687 15.8945 248.687H150.66C159.437 248.687 167.578 240.937 168.841 231.376L181.675 134.224H83.7076Z" fill="#344A66"/>
<path d="M132.59 153.406C104.115 136.586 75.6407 119.767 47.1653 102.947C87.9375 80.7421 67.2032 22.205 107.975 0C136.449 16.8197 164.924 33.6393 193.399 50.459C152.628 72.6648 173.362 131.201 132.59 153.406Z" fill="white"/>
<path d="M113.826 84.6742C102.826 78.1768 91.8265 71.6793 80.8263 65.1819C86.3481 45.0012 89.194 23.2407 105.34 9.33594C116.34 15.8334 127.339 22.3308 138.34 28.8282C122.194 42.733 119.349 64.4935 113.826 84.6742Z" fill="#E0E5ED"/>
<path d="M175.782 56.3876C164.133 49.5067 152.484 42.6257 140.835 35.7448C141.932 34.5789 143.103 33.4549 144.352 32.3789C156.002 39.2599 167.651 46.1408 179.299 53.0218C178.049 54.0977 176.88 55.221 175.782 56.3876Z" fill="#849CBA"/>
<path d="M155.612 52.32C149.246 48.5602 142.881 44.8003 136.516 41.0405C137.097 40.2189 137.702 39.4134 138.335 38.623C144.701 42.3829 151.066 46.1427 157.431 49.9025C156.798 50.6928 156.193 51.4984 155.612 52.32Z" fill="#B4BECD"/>
<path d="M98.4869 81.4334C92.1218 77.6736 85.7568 73.9138 79.3909 70.154C79.6926 69.1679 79.9847 68.1762 80.2687 67.1797C86.6346 70.9395 92.9996 74.6993 99.3646 78.4591C99.0806 79.4556 98.7894 80.4473 98.4869 81.4334Z" fill="#868686"/>
<path d="M111.513 92.4074C100.514 85.91 89.5134 79.4125 78.5132 72.9151C78.6737 72.4281 78.8325 71.9395 78.9874 71.4492C89.9876 77.9466 100.987 84.4441 111.987 90.9415C111.832 91.4317 111.674 91.9204 111.513 92.4074Z" fill="#D9D9D9"/>
<path d="M110.573 95.1354C99.5723 88.638 88.5729 82.1405 77.5727 75.6431C77.7452 75.1633 77.9145 74.6811 78.0814 74.1973C89.0808 80.6947 100.081 87.1921 111.081 93.6896C110.915 94.1742 110.746 94.6556 110.573 95.1354Z" fill="#D9D9D9"/>
<path d="M168.335 66.6619C156.686 59.7809 145.037 52.9 133.388 46.019C133.56 45.7125 133.733 45.4068 133.911 45.1035C145.56 51.9845 157.208 58.8654 168.858 65.7464C168.681 66.0497 168.507 66.3554 168.335 66.6619Z" fill="#E0E5ED"/>
<path d="M165.827 71.6518C154.178 64.7708 142.529 57.8899 130.88 51.0089C131.026 50.6872 131.174 50.3662 131.324 50.0469C142.973 56.9278 154.622 63.8088 166.271 70.6897C166.121 71.0091 165.973 71.3292 165.827 71.6518Z" fill="#E0E5ED"/>
<path d="M163.689 76.8574C152.04 69.9765 140.391 63.0955 128.742 56.2146C128.867 55.88 128.993 55.547 129.122 55.2148C140.771 62.0958 152.421 68.9768 164.069 75.8577C163.94 76.1899 163.813 76.5237 163.689 76.8574Z" fill="#E0E5ED"/>
<path d="M161.844 82.2387C150.194 75.3577 138.545 68.4768 126.896 61.5958C127.005 61.2516 127.116 60.909 127.226 60.5664C138.875 67.4474 150.525 74.3283 162.173 81.2093C162.062 81.5519 161.952 81.8945 161.844 82.2387Z" fill="#E0E5ED"/>
<path d="M160.218 87.7478C148.569 80.8669 136.92 73.9859 125.271 67.105C125.368 66.7543 125.466 66.4045 125.565 66.0547C137.215 72.9356 148.863 79.8166 160.512 86.6975C160.413 87.0466 160.315 87.3972 160.218 87.7478Z" fill="#E0E5ED"/>
<path d="M158.737 93.3447C147.088 86.4637 135.438 79.5827 123.79 72.7018C123.88 72.3471 123.971 71.9925 124.063 71.6387C135.711 78.5196 147.361 85.4006 159.01 92.2815C158.918 92.6354 158.827 92.99 158.737 93.3447Z" fill="#E0E5ED"/>
<path d="M157.326 98.9823C145.677 92.1013 134.028 85.2204 122.379 78.3394C122.467 77.9832 122.556 77.6277 122.644 77.2715C134.293 84.1524 145.943 91.0334 157.591 97.9143C157.502 98.2706 157.415 98.626 157.326 98.9823Z" fill="#E0E5ED"/>
<path d="M155.911 104.617C144.262 97.736 132.612 90.855 120.964 83.9741C121.055 83.6194 121.145 83.2656 121.235 82.9102C132.884 89.7911 144.534 96.6721 156.182 103.553C156.092 103.908 156.002 104.262 155.911 104.617Z" fill="#E0E5ED"/>
<path d="M154.416 110.204C142.768 103.323 131.118 96.4418 119.469 89.5608C119.568 89.211 119.665 88.8612 119.761 88.5098C131.41 95.3907 143.059 102.272 154.708 109.153C154.611 109.503 154.514 109.854 154.416 110.204Z" fill="#E0E5ED"/>
<path d="M152.767 115.701C141.118 108.82 129.469 101.939 117.82 95.0584C117.93 94.715 118.039 94.3724 118.148 94.0273C129.797 100.908 141.446 107.789 153.095 114.67C152.987 115.014 152.878 115.358 152.767 115.701Z" fill="#E0E5ED"/>
<path d="M150.89 121.063C139.241 114.182 127.592 107.301 115.943 100.42C116.069 100.087 116.195 99.7534 116.319 99.418C127.968 106.299 139.618 113.18 151.266 120.061C151.143 120.396 151.017 120.73 150.89 121.063Z" fill="#E0E5ED"/>
<path d="M148.71 126.246C137.061 119.365 125.411 112.484 113.763 105.603C113.911 105.283 114.057 104.961 114.202 104.639C125.851 111.52 137.499 118.401 149.149 125.282C149.004 125.604 148.858 125.926 148.71 126.246Z" fill="#E0E5ED"/>
<path d="M12.1403 173.594H132.272L144.957 40.0449H24.8247L12.1403 173.594Z" fill="#E0E5ED"/>
<path d="M9.96832 173.162H130.101L140.834 36.1152H20.7022L9.96832 173.162Z" fill="#849CBA"/>
<path d="M7.70654 168.74H129.631L138.573 31.6934H32.2865L7.70654 168.74Z" fill="#B4BECD"/>
<path d="M130.721 173.466H10.5878V43.1626L25.059 28.6914H130.721V173.466Z" fill="white"/>
<path d="M63.0848 40.1191H59.2736V40.6191H55.4625V40.1191H51.6513V40.6191H47.8401V40.1191H44.029V40.6191H40.2178V40.1191H36.4066V40.6191H32.5955V40.1191H28.7843V40.6191H24.9732V40.1191H21.162V40.6191H19.7564V41.9913H19.2564V45.7356H19.7564V49.4799H19.2564V53.2242H19.7564V56.9685H19.2564V60.7128H19.7564V64.4571H19.2564V68.2014H19.7564V71.9457H19.2564V75.69H19.7564V79.4343H19.2564V83.1786H19.7564V84.5507H21.162V85.0507H24.9732V84.5507H28.7843V85.0507H32.5955V84.5507H36.4066V85.0507H40.2178V84.5507H44.029V85.0507H47.8401V84.5507H51.6513V85.0507H55.4625V84.5507H59.2736V85.0507H63.0848V84.5507H64.4904V83.1786H64.9904V79.4343H64.4904V75.69H64.9904V71.9457H64.4904V68.2014H64.9904V64.4571H64.4904V60.7128H64.9904V56.9685H64.4904V53.2242H64.9904V49.4799H64.4904V45.7356H64.9904V41.9913H64.4904V40.6191H63.0848V40.1191Z" fill="#E0E5ED" fill-opacity="0.2" stroke="#344A66" stroke-dasharray="4 4"/>
<path d="M122.869 40.0449H73.7223V45.7207H122.869V40.0449Z" fill="#344A66"/>
<path d="M100.576 50.2598H73.7223V53.9008H100.576V50.2598Z" fill="#849CBA"/>
<path d="M45.7139 90.1152H18.8593V93.7563H45.7139V90.1152Z" fill="#849CBA"/>
<path d="M65.2663 95.3574H18.8592V97.178H65.2663V95.3574Z" fill="#E0E5ED"/>
<path d="M65.2663 98.7773H18.8592V100.598H65.2663V98.7773Z" fill="#E0E5ED"/>
<path d="M64.9903 102.701H19.2563V124.365H64.9903V102.701Z" fill="#E0E5ED"/>
<path d="M122.869 59.7402H73.7222V61.0168H122.869V59.7402Z" fill="#E0E5ED"/>
<path d="M122.869 66.4863H73.7222V67.7629H122.869V66.4863Z" fill="#E0E5ED"/>
<path d="M122.869 73.2324H73.7222V74.509H122.869V73.2324Z" fill="#E0E5ED"/>
<path d="M122.869 79.9785H73.7222V81.2551H122.869V79.9785Z" fill="#E0E5ED"/>
<path d="M122.869 86.7246H73.7222V88.0011H122.869V86.7246Z" fill="#E0E5ED"/>
<path d="M122.869 93.4707H73.7222V94.7472H122.869V93.4707Z" fill="#E0E5ED"/>
<path d="M122.869 100.217H73.7222V101.493H122.869V100.217Z" fill="#E0E5ED"/>
<path d="M122.869 106.963H73.7222V108.239H122.869V106.963Z" fill="#E0E5ED"/>
<path d="M122.869 113.707H73.7222V114.984H122.869V113.707Z" fill="#E0E5ED"/>
<path d="M122.869 120.453H73.7222V121.73H122.869V120.453Z" fill="#E0E5ED"/>
<path d="M122.869 127.201H73.7222V128.478H122.869V127.201Z" fill="#E0E5ED"/>
<path d="M122.869 133.947H73.7222V135.224H122.869V133.947Z" fill="#E0E5ED"/>
<path d="M50.0131 73.8171L52.6876 76.4916L58.0366 71.1426" stroke="#344A66" stroke-width="2" stroke-linecap="round" stroke-linejoin="round"/>
<path d="M130.697 143.443L70.9671 140.53V135.295C70.9671 130.847 67.3661 127.241 62.9187 127.233L10.5878 127.152V136.346L77.5728 167.113" fill="#233853"/>
<path d="M68.0857 143.597V144.097H68.5857H166.053V232.793C166.053 241.295 159.16 248.187 150.659 248.187H15.8938C7.39219 248.187 0.5 241.295 0.5 232.793V152.205V143.597V130.146H61.7296C65.2398 130.146 68.0857 132.992 68.0857 136.503V143.597Z" fill="#E0E5ED" stroke="#344A66"/>
<path d="M100.132 102.876C86.8601 124.747 93.8573 153.338 115.728 166.609C137.598 179.881 166.189 172.883 179.46 151.013C192.731 129.142 185.735 100.552 163.864 87.2802C141.993 74.0089 113.403 81.0051 100.132 102.876ZM157.698 97.4425C173.965 107.314 179.168 128.579 169.297 144.846C159.426 161.113 138.162 166.317 121.894 156.446C105.626 146.575 100.423 125.31 110.294 109.043C120.165 92.776 141.431 87.5721 157.698 97.4425Z" fill="#849CBA"/>
<path opacity="0.19" d="M103.578 136.15C108.851 155.827 129.077 167.505 148.754 162.232C168.431 156.96 180.108 136.734 174.836 117.057C169.563 97.3793 149.338 85.7019 129.66 90.9744C109.983 96.2469 98.3059 116.473 103.578 136.15Z" fill="#849CBA"/>
<path opacity="0.55" d="M113.491 139.634C115.507 147.159 123.242 151.625 130.768 149.609C138.293 147.592 142.759 139.857 140.743 132.331C138.727 124.806 130.991 120.34 123.466 122.356C115.94 124.373 111.474 132.108 113.491 139.634Z" fill="white"/>
<path opacity="0.35" d="M140.595 150.897C141.137 152.918 143.214 154.117 145.235 153.575C147.255 153.034 148.455 150.957 147.913 148.936C147.372 146.915 145.295 145.716 143.274 146.258C141.253 146.799 140.054 148.876 140.595 150.897Z" fill="white"/>
<path opacity="0.35" d="M151.197 105.837C154.928 107.991 157.856 111 159.888 114.47L165.425 109.188C162.821 105.263 159.301 101.86 154.945 99.3461C139.89 90.6543 120.64 95.8123 111.949 110.867L118.44 114.615C125.063 103.145 139.728 99.2152 151.197 105.837Z" fill="white"/>
<path d="M101.087 104.595C88.9318 125.649 96.1452 152.569 117.199 164.725C138.253 176.88 165.174 169.667 177.329 148.613C189.484 127.559 182.271 100.639 161.217 88.4831C140.164 76.3285 113.242 83.5421 101.087 104.595ZM171.151 145.047C160.965 162.689 138.406 168.734 120.765 158.548C103.123 148.362 97.0779 125.803 107.263 108.161C117.449 90.5195 140.008 84.4748 157.65 94.6604C175.293 104.846 181.337 127.405 171.151 145.047Z" fill="#344A66"/>
<g opacity="0.35">
<path d="M163.185 126.317C163.238 130.485 162.21 134.721 159.974 138.593L166.466 142.341C169.74 136.67 171.047 130.403 170.601 124.33L163.185 126.317Z" fill="white"/>
</g>
<path d="M240.746 185.226C237.77 190.38 231.179 192.146 226.025 189.17L187.546 166.954L198.322 148.288L236.801 170.505C241.956 173.481 243.721 180.072 240.746 185.226Z" fill="#344A66"/>
<path d="M199.98 151.161L190.86 166.956C189.692 168.979 187.082 169.679 185.059 168.511L175.23 162.836C173.207 161.668 172.507 159.058 173.675 157.034L182.795 141.239C183.963 139.215 186.573 138.516 188.597 139.684L198.425 145.359C200.448 146.527 201.147 149.137 199.98 151.161Z" fill="#233853"/>
<path d="M10.5878 43.1626L25.0582 28.6914L22.8012 45.0168L10.5878 43.1626Z" fill="#D9D9D9"/>
<path d="M10.5878 43.1626L25.059 28.6914V43.1626H10.5878Z" fill="#E0E5ED"/>
</svg>
