<svg width="172" height="162" viewBox="0 0 172 162" fill="none" xmlns="http://www.w3.org/2000/svg">
<path fill-rule="evenodd" clip-rule="evenodd" d="M93.2288 10C72.1588 10 42.2288 19.28 41.0788 45.42C39.6488 77.42 83.0288 62.85 77.6888 87.12C72.4688 110.81 23.0788 109.43 31.4588 141.28C32.2257 144.25 33.6525 147.009 35.6332 149.352C37.6139 151.694 40.0973 153.56 42.8988 154.81C61.7488 163.23 87.8988 152.35 97.8388 134.91C103.349 125.22 102.259 111.91 110.499 103.78C122.439 91.92 147.089 97.78 162.569 82.87C183.279 62.87 160.389 34.66 140.859 25.08C128.729 19.09 113.019 10 93.2288 10Z" fill="#E6EFFD"/>
<path fill-rule="evenodd" clip-rule="evenodd" d="M134.868 84.2002C132.458 88.6402 131.408 93.4702 129.488 98.0802L131.038 98.7302C132.938 94.1702 133.958 89.3902 136.348 85.0002L134.868 84.2002Z" fill="#F6BE5E"/>
<path fill-rule="evenodd" clip-rule="evenodd" d="M127.918 87.5901C131.235 90.2252 134.387 93.0605 137.358 96.0801L138.568 94.92C135.552 91.8489 132.349 88.9667 128.978 86.29L127.918 87.5901Z" fill="#F6BE5E"/>
<path fill-rule="evenodd" clip-rule="evenodd" d="M130.258 83.8C131.106 88.9383 132.288 94.0158 133.798 99L135.398 98.48C133.909 93.5614 132.743 88.5507 131.908 83.48L130.258 83.8Z" fill="#F6BE5E"/>
<path fill-rule="evenodd" clip-rule="evenodd" d="M127.899 93.4999C131.769 91.8199 135.649 90.1799 139.519 88.4999L138.849 86.96C134.979 88.64 131.089 90.27 127.219 91.96L127.899 93.4999Z" fill="#F6BE5E"/>
<path fill-rule="evenodd" clip-rule="evenodd" d="M7.01797 35.5698C6.21797 41.1398 5.26797 46.6898 4.66797 52.2898L6.33798 52.4598C6.93798 46.8898 7.87798 41.3498 8.67798 35.8098L7.01797 35.5698Z" fill="#F56C2C"/>
<path fill-rule="evenodd" clip-rule="evenodd" d="M0.367188 41.5598C4.89719 43.4598 8.66719 46.7098 13.1472 48.6898L13.8272 47.1498C9.32718 45.1498 5.55719 41.9198 1.02719 40.0098L0.367188 41.5598Z" fill="#F56C2C"/>
<path fill-rule="evenodd" clip-rule="evenodd" d="M67.1589 26C75.175 26 83.0111 28.3771 89.6762 32.8306C96.3413 37.2841 101.536 43.6139 104.604 51.0198C107.671 58.4257 108.474 66.575 106.91 74.437C105.346 82.2991 101.486 89.5208 95.818 95.189C90.1497 100.857 82.928 104.717 75.0659 106.281C67.2039 107.845 59.0547 107.042 51.6488 103.975C44.2429 100.907 37.913 95.7124 33.4595 89.0472C29.006 82.3821 26.6289 74.5461 26.6289 66.53C26.6342 55.7824 30.906 45.4765 38.5057 37.8768C46.1054 30.2771 56.4113 26.0053 67.1589 26ZM65.6089 36.68C71.5127 36.68 77.2839 38.4307 82.1927 41.7106C87.1015 44.9906 90.9275 49.6525 93.1867 55.1069C95.446 60.5612 96.0371 66.5631 94.8854 72.3535C93.7336 78.1438 90.8907 83.4625 86.7161 87.6371C82.5415 91.8117 77.2227 94.6547 71.4324 95.8065C65.642 96.9582 59.6402 96.3671 54.1858 94.1078C48.7314 91.8485 44.0695 88.0226 40.7896 83.1138C37.5096 78.205 35.7589 72.4338 35.7589 66.53C35.7537 62.6062 36.5218 58.7198 38.0194 55.0931C39.5171 51.4663 41.7148 48.1704 44.487 45.3935C47.2593 42.6166 50.5516 40.4134 54.1758 38.9097C57.8 37.406 61.6851 36.6313 65.6089 36.63V36.68Z" fill="#2A2A2A"/>
<path fill-rule="evenodd" clip-rule="evenodd" d="M97.4891 88.3999L89.2891 94.7399L130.369 147.86C131.063 148.757 132.085 149.342 133.21 149.486C134.335 149.631 135.471 149.323 136.369 148.63L137.789 147.53C138.684 146.834 139.267 145.813 139.412 144.689C139.556 143.565 139.249 142.429 138.559 141.53L97.4891 88.3999Z" fill="#8FA1BD"/>
<path d="M92.8333 92.0166L89.2891 94.7568L132.98 151.266L136.525 148.526L92.8333 92.0166Z" fill="#2A2A2A"/>
<path fill-rule="evenodd" clip-rule="evenodd" d="M71.1259 22C79.1416 22.002 86.9767 24.3807 93.6405 28.8354C100.304 33.2901 105.498 39.6207 108.564 47.0268C111.63 54.4329 112.431 62.5817 110.866 70.4431C109.301 78.3045 105.44 85.5253 99.7714 91.1926C94.1028 96.8598 86.881 100.719 79.0193 102.282C71.1575 103.845 63.0088 103.042 55.6035 99.9739C48.1981 96.906 41.8688 91.7111 37.4158 85.0462C32.9627 78.3813 30.5859 70.5457 30.5859 62.53C30.5912 51.7807 34.8644 41.4733 42.4663 33.8733C50.0681 26.2733 60.3766 22.0026 71.1259 22ZM71.1259 33.08C76.9506 33.08 82.6445 34.8072 87.4875 38.0432C92.3305 41.2792 96.1052 45.8787 98.3342 51.2599C100.563 56.6412 101.146 62.5626 100.01 68.2754C98.8737 73.9881 96.0689 79.2357 91.9502 83.3543C87.8316 87.473 82.5841 90.2778 76.8713 91.4141C71.1586 92.5505 65.2372 91.9673 59.8559 89.7383C54.4746 87.5093 49.8752 83.7346 46.6392 78.8915C43.4032 74.0485 41.6759 68.3547 41.6759 62.53C41.6759 54.7176 44.778 47.2247 50.3004 41.6986C55.8228 36.1725 63.3134 33.0653 71.1259 33.06V33.08Z" fill="#8FA1BD"/>
<path d="M71.1172 92C87.4096 92 100.617 78.7924 100.617 62.5C100.617 46.2076 87.4096 33 71.1172 33C54.8248 33 41.6172 46.2076 41.6172 62.5C41.6172 78.7924 54.8248 92 71.1172 92Z" fill="#2676DA" fill-opacity="0.2"/>
<path fill-rule="evenodd" clip-rule="evenodd" d="M84.5887 28.3501C83.9187 29.9101 83.2387 31.4501 82.4688 32.9501L83.9587 33.7201C84.7487 32.1801 85.4487 30.6001 86.1287 29.0201L84.5887 28.3501Z" fill="white"/>
<path fill-rule="evenodd" clip-rule="evenodd" d="M89.4155 29.7998C88.6055 31.1998 87.8255 32.5998 87.1055 34.0398L88.6055 34.7898C89.3055 33.3798 90.0855 31.9998 90.8655 30.6398L89.4155 29.7998Z" fill="white"/>
<path fill-rule="evenodd" clip-rule="evenodd" d="M61.8758 92.0698C61.1458 94.4398 60.3358 96.7998 59.6758 99.1898L61.2958 99.6398C61.9458 97.2598 62.7558 94.9198 63.4758 92.5698L61.8758 92.0698Z" fill="white"/>
<path fill-rule="evenodd" clip-rule="evenodd" d="M64.5691 93.1499C64.0391 94.8499 63.4891 96.5499 63.0391 98.2699L64.6691 98.6899C65.0991 96.9899 65.6691 95.3199 66.1791 93.6899L64.5691 93.1499Z" fill="white"/>
<path fill-rule="evenodd" clip-rule="evenodd" d="M67.7783 93.79C67.3583 96.01 66.7083 98.1701 66.2383 100.38L67.8883 100.73C68.3583 98.51 68.9983 96.34 69.4283 94.1L67.7783 93.79Z" fill="white"/>
</svg>
