<svg width="36" height="37" viewBox="0 0 36 37" fill="none" xmlns="http://www.w3.org/2000/svg">
<path d="M3.00187 22.5195C2.94707 21.7152 2.28817 21.0781 1.48202 21.0781C0.630648 21.0781 -0.053183 21.7911 0.00326033 22.6406C0.640571 32.2324 3.77048 35.3624 13.3623 35.9997C14.2118 36.0561 14.9248 35.3723 14.9248 34.5209C14.9248 33.7148 14.2877 33.0558 13.4834 33.0011C11.9289 32.8952 10.6111 32.7223 9.488 32.4727C7.45382 32.0206 6.24704 31.3577 5.44611 30.5568C4.64519 29.7559 3.98234 28.5491 3.53025 26.5149C3.28065 25.3918 3.10776 24.074 3.00187 22.5195Z" fill="#5189CF"/>
<path d="M32.8693 22.5195C32.9241 21.7152 33.583 21.0781 34.3891 21.0781C35.2405 21.0781 35.9243 21.7911 35.8679 22.6406C35.2306 32.2325 32.1007 35.3624 22.5088 35.9997C21.6593 36.0561 20.9463 35.3723 20.9463 34.5209C20.9463 33.7148 21.5834 33.0559 22.3877 33.0011C23.9422 32.8952 25.26 32.7223 26.3831 32.4727C28.4173 32.0206 29.6241 31.3577 30.425 30.5568C31.226 29.7559 31.8888 28.5491 32.3409 26.5149C32.5905 25.3918 32.7634 24.074 32.8693 22.5195Z" fill="#5189CF"/>
<path d="M36 18.1363C36 18.1133 36 18.0903 36 18.0674C36 18.0444 36 18.0214 36 17.9984V18.1363Z" fill="#5189CF"/>
<path d="M35.8679 13.4941C35.9243 14.3436 35.2405 15.0566 34.3891 15.0566C33.583 15.0566 32.9241 14.4195 32.8693 13.6152C32.7634 12.0607 32.5905 10.7429 32.3409 9.61978C31.8888 7.58559 31.226 6.37881 30.425 5.57789C29.6241 4.77697 28.4173 4.11411 26.3831 3.66203C25.26 3.41243 23.9422 3.23954 22.3877 3.13364C21.5834 3.07885 20.9463 2.41995 20.9463 1.61379C20.9463 0.762424 21.6593 0.0785936 22.5088 0.135036C32.1007 0.772344 35.2306 3.90225 35.8679 13.4941Z" fill="#5189CF"/>
<path d="M3.00187 13.6152C2.94707 14.4195 2.28817 15.0566 1.48202 15.0566C0.630647 15.0566 -0.0531832 14.3436 0.00326016 13.4941C0.640571 3.90227 3.77048 0.772355 13.3623 0.13504C14.2118 0.078596 14.9248 0.762427 14.9248 1.6138C14.9248 2.41995 14.2877 3.07885 13.4834 3.13364C11.9289 3.23954 10.6111 3.41243 9.488 3.66203C7.45382 4.11411 6.24704 4.77697 5.44611 5.57789C4.64519 6.37881 3.98234 7.58559 3.53025 9.61978C3.28065 10.7429 3.10776 12.0607 3.00187 13.6152Z" fill="#5189CF"/>
<path fill-rule="evenodd" clip-rule="evenodd" d="M13.4999 12.1317C13.4999 14.617 15.5146 16.6316 17.9998 16.6316C20.485 16.6316 22.4997 14.617 22.4997 12.1317C22.4997 9.64651 20.485 7.63184 17.9998 7.63184C15.5146 7.63184 13.4999 9.64651 13.4999 12.1317ZM16.4998 12.1317C16.4998 12.9601 17.1714 13.6317 17.9998 13.6317C18.8282 13.6317 19.4998 12.9601 19.4998 12.1317C19.4998 11.3033 18.8282 10.6318 17.9998 10.6318C17.1714 10.6318 16.4998 11.3033 16.4998 12.1317Z" fill="#1C4B85"/>
<path fill-rule="evenodd" clip-rule="evenodd" d="M9 22.6315C9 26.3372 10.5885 27.1314 17.9998 27.1314C25.4111 27.1314 26.9996 26.3372 26.9996 22.6315C26.9996 18.9258 25.4111 18.1316 17.9998 18.1316C10.5885 18.1316 9 18.9258 9 22.6315ZM11.9999 22.6315C11.9999 23.1844 12.0478 23.4692 12.0795 23.5963C12.2882 23.6962 12.7762 23.8542 13.7982 23.9678C14.8224 24.0816 16.1797 24.1315 17.9998 24.1315C19.8199 24.1315 21.1772 24.0816 22.2014 23.9678C23.2234 23.8542 23.7114 23.6962 23.9201 23.5963C23.9518 23.4692 23.9997 23.1844 23.9997 22.6315C23.9997 22.0786 23.9518 21.7938 23.9201 21.6667C23.7114 21.5668 23.2234 21.4088 22.2014 21.2952C21.1772 21.1814 19.8199 21.1315 17.9998 21.1315C16.1797 21.1315 14.8224 21.1814 13.7982 21.2952C12.7762 21.4088 12.2882 21.5668 12.0795 21.6667C12.0478 21.7938 11.9999 22.0786 11.9999 22.6315Z" fill="#1C4B85"/>
</svg>
