<svg width="36" height="37" viewBox="0 0 36 37" fill="none" xmlns="http://www.w3.org/2000/svg">
<path d="M25.0607 16.0636C25.6464 15.4778 25.6464 14.5281 25.0607 13.9423C24.4749 13.3565 23.5251 13.3565 22.9393 13.9423L16.5 20.3816L14.5607 18.4423C13.9749 17.8565 13.0251 17.8565 12.4393 18.4423C11.8536 19.0281 11.8536 19.9778 12.4393 20.5636L15.4393 23.5636C16.0251 24.1494 16.9749 24.1494 17.5607 23.5636L25.0607 16.0636Z" fill="#1C4B85"/>
<path fill-rule="evenodd" clip-rule="evenodd" d="M22.0252 2.00232C20.0038 -0.663535 15.9962 -0.663535 13.9748 2.00232L12.2917 4.22196L9.53213 3.84253C6.21774 3.38683 3.3839 6.22067 3.8396 9.53506L4.21903 12.2947L1.99939 13.9777C-0.666465 15.9991 -0.666465 20.0068 1.9994 22.0282L4.21903 23.7112L3.8396 26.4708C3.3839 29.7852 6.21773 32.619 9.53212 32.1633L12.2917 31.7839L13.9748 34.0035C15.9962 36.6694 20.0038 36.6694 22.0252 34.0035L23.7083 31.7839L26.4679 32.1633C29.7823 32.619 32.6161 29.7852 32.1604 26.4708L31.781 23.7112L34.0006 22.0282C36.6665 20.0068 36.6665 15.9991 34.0006 13.9777L31.781 12.2947L32.1604 9.53506C32.6161 6.22067 29.7823 3.38683 26.4679 3.84253L23.7083 4.22196L22.0252 2.00232ZM16.6583 4.03708C17.3321 3.14846 18.6679 3.14846 19.3417 4.03708L21.0248 6.25672C21.7601 7.22644 22.9614 7.72402 24.167 7.55826L26.9266 7.17883C28.0314 7.02693 28.976 7.97154 28.8241 9.07634L28.4447 11.8359C28.2789 13.0416 28.7765 14.2429 29.7462 14.9781L31.9659 16.6612C32.8545 17.335 32.8545 18.6709 31.9659 19.3447L29.7462 21.0277C28.7765 21.763 28.2789 22.9643 28.4447 24.1699L28.8241 26.9295C28.976 28.0343 28.0314 28.9789 26.9266 28.827L24.167 28.4476C22.9614 28.2818 21.7601 28.7794 21.0248 29.7491L19.3417 31.9688C18.6679 32.8574 17.3321 32.8574 16.6583 31.9688L14.9752 29.7491C14.2399 28.7794 13.0386 28.2818 11.833 28.4476L9.0734 28.827C7.96861 28.9789 7.024 28.0343 7.1759 26.9295L7.55533 24.1699C7.7211 22.9643 7.22351 21.763 6.25379 21.0277L4.03415 19.3447C3.14553 18.6709 3.14553 17.335 4.03415 16.6612L6.25379 14.9781C7.22351 14.2428 7.7211 13.0416 7.55533 11.8359L7.1759 9.07633C7.024 7.97154 7.96861 7.02693 9.07341 7.17883L11.833 7.55826C13.0386 7.72402 14.2399 7.22644 14.9752 6.25672L16.6583 4.03708Z" fill="#5189CF"/>
</svg>
