<svg width="36" height="37" viewBox="0 0 36 37" fill="none" xmlns="http://www.w3.org/2000/svg">
<path d="M3.00187 22.5195C2.94707 21.7152 2.28817 21.0781 1.48202 21.0781C0.630648 21.0781 -0.053183 21.7911 0.00326033 22.6406C0.640571 32.2324 3.77048 35.3624 13.3623 35.9997C14.2118 36.0561 14.9248 35.3723 14.9248 34.5209C14.9248 33.7148 14.2877 33.0558 13.4834 33.0011C11.9289 32.8952 10.6111 32.7223 9.488 32.4727C7.45382 32.0206 6.24704 31.3577 5.44611 30.5568C4.64519 29.7559 3.98234 28.5491 3.53025 26.5149C3.28065 25.3918 3.10776 24.074 3.00187 22.5195Z" fill="#5189CF"/>
<path d="M32.8693 22.5195C32.9241 21.7152 33.583 21.0781 34.3891 21.0781C35.2405 21.0781 35.9243 21.7911 35.8679 22.6406C35.2306 32.2325 32.1007 35.3624 22.5088 35.9997C21.6593 36.0561 20.9463 35.3723 20.9463 34.5209C20.9463 33.7148 21.5834 33.0559 22.3877 33.0011C23.9422 32.8952 25.26 32.7223 26.3831 32.4727C28.4173 32.0206 29.6241 31.3577 30.425 30.5568C31.226 29.7559 31.8888 28.5491 32.3409 26.5149C32.5905 25.3918 32.7634 24.074 32.8693 22.5195Z" fill="#5189CF"/>
<path d="M36 18.1363C36 18.1133 36 18.0903 36 18.0674C36 18.0444 36 18.0214 36 17.9984V18.1363Z" fill="#5189CF"/>
<path d="M35.8679 13.4941C35.9243 14.3436 35.2405 15.0566 34.3891 15.0566C33.583 15.0566 32.9241 14.4195 32.8693 13.6152C32.7634 12.0607 32.5905 10.7429 32.3409 9.61978C31.8888 7.58559 31.226 6.37881 30.425 5.57789C29.6241 4.77697 28.4173 4.11411 26.3831 3.66203C25.26 3.41243 23.9422 3.23954 22.3877 3.13364C21.5834 3.07885 20.9463 2.41995 20.9463 1.61379C20.9463 0.762424 21.6593 0.0785936 22.5088 0.135036C32.1007 0.772344 35.2306 3.90225 35.8679 13.4941Z" fill="#5189CF"/>
<path d="M3.00187 13.6152C2.94707 14.4195 2.28817 15.0566 1.48202 15.0566C0.630647 15.0566 -0.0531832 14.3436 0.00326016 13.4941C0.640571 3.90227 3.77048 0.772355 13.3623 0.13504C14.2118 0.078596 14.9248 0.762427 14.9248 1.6138C14.9248 2.41995 14.2877 3.07885 13.4834 3.13364C11.9289 3.23954 10.6111 3.41243 9.488 3.66203C7.45382 4.11411 6.24704 4.77697 5.44611 5.57789C4.64519 6.37881 3.98234 7.58559 3.53025 9.61978C3.28065 10.7429 3.10776 12.0607 3.00187 13.6152Z" fill="#5189CF"/>
<rect x="10.5" y="10.6318" width="14.9997" height="2.99993" rx="1.49997" fill="#1C4B85"/>
<rect x="13.5" y="22.6318" width="8.9998" height="2.99993" rx="1.49997" fill="#1C4B85"/>
<rect x="7.5" y="16.6318" width="20.9995" height="2.99993" rx="1.49997" fill="#1C4B85"/>
</svg>
