<svg width="32" height="37" viewBox="0 0 32 37" fill="none" xmlns="http://www.w3.org/2000/svg">
<path fill-rule="evenodd" clip-rule="evenodd" d="M0 20.0029C0 33.1789 2.824 36.0029 16 36.0029C29.176 36.0029 32 33.1789 32 20.0029C32 6.82693 29.176 4.00293 16 4.00293C2.824 4.00293 0 6.82693 0 20.0029ZM2.66667 20.0029C2.66667 23.2361 2.84339 25.6522 3.25028 27.483C3.65044 29.2836 4.23691 30.3506 4.94462 31.0583C5.65233 31.766 6.71933 32.3525 8.51991 32.7527C10.3508 33.1595 12.7669 33.3363 16 33.3363C19.2331 33.3363 21.6492 33.1595 23.4801 32.7527C25.2807 32.3525 26.3477 31.766 27.0554 31.0583C27.7631 30.3506 28.3496 29.2836 28.7497 27.483C29.1566 25.6522 29.3333 23.2361 29.3333 20.0029C29.3333 16.7698 29.1566 14.3537 28.7497 12.5228C28.3496 10.7223 27.7631 9.65526 27.0554 8.94755C26.3477 8.23984 25.2807 7.65337 23.4801 7.25321C21.6492 6.84632 19.2331 6.6696 16 6.6696C12.7669 6.6696 10.3508 6.84632 8.51991 7.25321C6.71933 7.65337 5.65233 8.23984 4.94462 8.94755C4.23691 9.65526 3.65044 10.7223 3.25028 12.5228C2.84339 14.3537 2.66667 16.7698 2.66667 20.0029Z" fill="#5189CF"/>
<path d="M12 1.33626C12 0.599874 12.5969 0.00292969 13.3333 0.00292969C14.0697 0.00292969 14.6667 0.599874 14.6667 1.33626V2.6696H17.3333V1.33626C17.3333 0.599874 17.9303 0.00292969 18.6667 0.00292969C19.4031 0.00292969 20 0.599874 20 1.33626V2.6696H21.3333C22.8061 2.6696 24 3.86351 24 5.33626C24 6.80902 22.8061 8.00293 21.3333 8.00293H10.6667C9.19393 8.00293 8 6.80902 8 5.33626C8 3.86351 9.19393 2.6696 10.6667 2.6696H12V1.33626Z" fill="#1C4B85"/>
<path d="M9.33333 16.0026C8.59692 16.0026 8 15.4057 8 14.6693C8 13.9329 8.59692 13.3359 9.33333 13.3359H22.6667C23.4031 13.3359 24 13.9329 24 14.6693C24 15.4057 23.4031 16.0026 22.6667 16.0026H9.33333Z" fill="#1C4B85"/>
<path d="M8 21.3359C8 20.5995 8.59692 20.0026 9.33333 20.0026H22.6667C23.4031 20.0026 24 20.5995 24 21.3359C24 22.0723 23.4031 22.6693 22.6667 22.6693H9.33333C8.59692 22.6693 8 22.0723 8 21.3359Z" fill="#1C4B85"/>
<path d="M8 28.0026C8 27.2662 8.59692 26.6693 9.33333 26.6693H22.6667C23.4031 26.6693 24 27.2662 24 28.0026C24 28.739 23.4031 29.3359 22.6667 29.3359H9.33333C8.59692 29.3359 8 28.739 8 28.0026Z" fill="#1C4B85"/>
</svg>
