<svg width="36" height="40" viewBox="0 0 36 40" fill="none" xmlns="http://www.w3.org/2000/svg">
<path fill-rule="evenodd" clip-rule="evenodd" d="M0 21.5029C0 36.3259 3.17697 39.5029 18 39.5029C32.823 39.5029 36 36.3259 36 21.5029C36 6.67992 32.823 3.50293 18 3.50293C3.17697 3.50293 0 6.67992 0 21.5029ZM3 21.5029C3 25.1402 3.19885 27.8583 3.65652 29.918C4.10678 31.9437 4.76651 33.1441 5.56265 33.9402C6.35889 34.7364 7.55923 35.3962 9.58493 35.8464C11.6446 36.3041 14.3627 36.5029 18 36.5029C21.6373 36.5029 24.3554 36.3041 26.4151 35.8464C28.4408 35.3962 29.6411 34.7364 30.4373 33.9402C31.2335 33.1441 31.8932 31.9437 32.3435 29.918C32.8011 27.8583 33 25.1402 33 21.5029C33 20.4244 32.9825 19.4267 32.946 18.5029H3.05402C3.01749 19.4267 3 20.4244 3 21.5029ZM3.26862 15.5029H32.7314C32.632 14.6098 32.5036 13.8085 32.3435 13.0878C31.8932 11.0622 31.2335 9.86179 30.4373 9.06563C29.6411 8.26946 28.4408 7.60969 26.4151 7.1595C24.3554 6.70174 21.6373 6.50293 18 6.50293C14.3627 6.50293 11.6446 6.70174 9.58493 7.1595C7.55923 7.60969 6.35889 8.26946 5.56265 9.06563C4.76651 9.86179 4.10678 11.0622 3.65652 13.0878C3.4964 13.8085 3.36795 14.6098 3.26862 15.5029Z" fill="#5189CF"/>
<path d="M7.5 24.5029C7.5 23.6745 8.17157 23.0029 9 23.0029H13.5C14.3284 23.0029 15 23.6745 15 24.5029C15 25.3314 14.3284 26.0029 13.5 26.0029H9C8.17157 26.0029 7.5 25.3314 7.5 24.5029Z" fill="#1C4B85"/>
<path d="M7.5 30.5029C7.5 29.6745 8.17157 29.0029 9 29.0029H13.5C14.3284 29.0029 15 29.6745 15 30.5029C15 31.3314 14.3284 32.0029 13.5 32.0029H9C8.17157 32.0029 7.5 31.3314 7.5 30.5029Z" fill="#1C4B85"/>
<path d="M26.8245 23.4487C27.4103 22.8629 28.36 22.8629 28.9458 23.4487C29.5316 24.0345 29.5316 24.9842 28.9458 25.57L22.8914 31.6244C22.5826 31.9332 22.1727 32.0792 21.7683 32.0624C21.3985 32.0521 21.0318 31.9059 20.7496 31.6237L18.6283 29.5024C18.0425 28.9166 18.0425 27.9668 18.6283 27.3811C19.2141 26.7953 20.1638 26.7953 20.7496 27.3811L21.8209 28.4523L26.8245 23.4487Z" fill="#1C4B85"/>
<path d="M12 0.50293C11.1716 0.50293 10.5 1.1745 10.5 2.00293V8.00293C10.5 8.83136 11.1716 9.50293 12 9.50293C12.8284 9.50293 13.5 8.83136 13.5 8.00293V2.00293C13.5 1.1745 12.8284 0.50293 12 0.50293Z" fill="#1C4B85"/>
<path d="M24 0.50293C23.1716 0.50293 22.5 1.1745 22.5 2.00293V8.00293C22.5 8.83136 23.1716 9.50293 24 9.50293C24.8284 9.50293 25.5 8.83136 25.5 8.00293V2.00293C25.5 1.1745 24.8284 0.50293 24 0.50293Z" fill="#1C4B85"/>
</svg>
