<svg width="32" height="33" viewBox="0 0 32 33" fill="none" xmlns="http://www.w3.org/2000/svg">
<g clip-path="url(#clip0_223_2977)">
<path d="M31.6883 16.8683C31.6883 15.7807 31.6002 14.6872 31.412 13.6172H16.3203V19.7785H24.9626C24.604 21.7656 23.4517 23.5235 21.7644 24.6405V28.6383H26.9204C29.9481 25.8516 31.6883 21.7362 31.6883 16.8683Z" fill="#4285F4"/>
<path d="M16.3205 32.5014C20.6357 32.5014 24.2749 31.0846 26.9264 28.6388L21.7704 24.6411C20.3359 25.617 18.484 26.1696 16.3263 26.1696C12.1522 26.1696 8.61294 23.3535 7.34306 19.5674H2.02246V23.6886C4.73861 29.0915 10.2709 32.5014 16.3205 32.5014Z" fill="#34A853"/>
<path d="M7.33703 19.5666C6.66681 17.5795 6.66681 15.4277 7.33703 13.4406V9.31934H2.02231C-0.247022 13.8404 -0.247022 19.1668 2.02231 23.6879L7.33703 19.5666Z" fill="#FBBC04"/>
<path d="M16.3205 6.83288C18.6016 6.79761 20.8062 7.65596 22.4583 9.23156L27.0263 4.66349C24.1338 1.94734 20.2947 0.454045 16.3205 0.501078C10.2709 0.501078 4.73861 3.91096 2.02246 9.31974L7.33718 13.441C8.60119 9.64897 12.1463 6.83288 16.3205 6.83288Z" fill="#EA4335"/>
</g>
<defs>
<clipPath id="clip0_223_2977">
<rect width="32" height="32" fill="white" transform="translate(0 0.5)"/>
</clipPath>
</defs>
</svg>
