<svg width="106" height="54" viewBox="0 0 106 54" fill="none" xmlns="http://www.w3.org/2000/svg">
<path d="M16.8408 0.287598H22.6451C26.5112 11.1813 30.2847 22.1061 34.156 32.9998H27.8067C24.1309 22.1061 20.5373 11.1761 16.8408 0.287598Z" fill="white"/>
<path d="M13.2059 19.1466C15.4423 18.1237 17.7352 17.2202 19.987 16.2336C18.0796 21.8363 16.1209 27.4233 14.1313 33H7.84375V32.7871C9.24726 28.7941 10.7433 24.8375 12.1366 20.8393C12.4193 20.2422 12.4861 19.3958 13.2059 19.1466Z" fill="white"/>
<g clip-path="url(#clip0_1_701)">
<path d="M53.1558 33H98.1556V-0.000339508H53.1558V33Z" fill="white"/>
<path d="M54.2139 32.0295H97.0984V0.971277H54.2139V32.0295Z" fill="#1C4B85"/>
<path d="M89.362 16.5L75.6559 2.9184L61.9492 16.5L75.6559 30.0815L89.362 16.5Z" fill="white"/>
<path d="M84.1415 16.5001L75.6558 8.09009L67.1694 16.5001L75.6558 24.9087L84.1415 16.5001Z" fill="#231F20"/>
<path d="M78.5929 16.4999L75.6544 13.5895L72.7188 16.4999L75.6544 19.4089L78.5929 16.4999Z" fill="white"/>
</g>
<path d="M2.268 41.764V44.212H5.148V45.328H2.268V47.884H5.508V49H0.9V40.648H5.508V41.764H2.268ZM10.025 45.652L12.161 49H10.613L9.18497 46.756L7.84097 49H6.41297L8.54897 45.748L6.41297 42.388H7.96097L9.38897 44.632L10.733 42.388H12.161L10.025 45.652ZM15.7973 45.7L18.8453 49H16.9973L14.5493 46.156V49H13.1813V40.12H14.5493V45.28L16.9493 42.388H18.8453L15.7973 45.7ZM21.1938 40.12V49H19.8258V40.12H21.1938ZM28.9778 42.388V49H27.6098V48.22C27.3938 48.492 27.1098 48.708 26.7578 48.868C26.4138 49.02 26.0458 49.096 25.6538 49.096C25.1338 49.096 24.6658 48.988 24.2498 48.772C23.8418 48.556 23.5178 48.236 23.2778 47.812C23.0458 47.388 22.9298 46.876 22.9298 46.276V42.388H24.2858V46.072C24.2858 46.664 24.4338 47.12 24.7298 47.44C25.0258 47.752 25.4298 47.908 25.9418 47.908C26.4538 47.908 26.8578 47.752 27.1538 47.44C27.4578 47.12 27.6098 46.664 27.6098 46.072V42.388H28.9778ZM33.1828 49.108C32.6628 49.108 32.1948 49.016 31.7788 48.832C31.3708 48.64 31.0468 48.384 30.8068 48.064C30.5668 47.736 30.4388 47.372 30.4228 46.972H31.8388C31.8628 47.252 31.9948 47.488 32.2348 47.68C32.4828 47.864 32.7908 47.956 33.1588 47.956C33.5428 47.956 33.8388 47.884 34.0468 47.74C34.2628 47.588 34.3708 47.396 34.3708 47.164C34.3708 46.916 34.2508 46.732 34.0108 46.612C33.7788 46.492 33.4068 46.36 32.8948 46.216C32.3988 46.08 31.9948 45.948 31.6828 45.82C31.3708 45.692 31.0988 45.496 30.8668 45.232C30.6428 44.968 30.5308 44.62 30.5308 44.188C30.5308 43.836 30.6348 43.516 30.8428 43.228C31.0508 42.932 31.3468 42.7 31.7308 42.532C32.1228 42.364 32.5708 42.28 33.0748 42.28C33.8268 42.28 34.4308 42.472 34.8868 42.856C35.3508 43.232 35.5988 43.748 35.6308 44.404H34.2628C34.2388 44.108 34.1188 43.872 33.9028 43.696C33.6868 43.52 33.3948 43.432 33.0268 43.432C32.6668 43.432 32.3908 43.5 32.1988 43.636C32.0068 43.772 31.9108 43.952 31.9108 44.176C31.9108 44.352 31.9748 44.5 32.1028 44.62C32.2308 44.74 32.3868 44.836 32.5708 44.908C32.7548 44.972 33.0268 45.056 33.3868 45.16C33.8668 45.288 34.2588 45.42 34.5628 45.556C34.8748 45.684 35.1428 45.876 35.3668 46.132C35.5908 46.388 35.7068 46.728 35.7148 47.152C35.7148 47.528 35.6108 47.864 35.4028 48.16C35.1948 48.456 34.8988 48.688 34.5148 48.856C34.1388 49.024 33.6948 49.108 33.1828 49.108ZM37.889 41.512C37.641 41.512 37.433 41.428 37.265 41.26C37.097 41.092 37.013 40.884 37.013 40.636C37.013 40.388 37.097 40.18 37.265 40.012C37.433 39.844 37.641 39.76 37.889 39.76C38.129 39.76 38.333 39.844 38.501 40.012C38.669 40.18 38.753 40.388 38.753 40.636C38.753 40.884 38.669 41.092 38.501 41.26C38.333 41.428 38.129 41.512 37.889 41.512ZM38.561 42.388V49H37.193V42.388H38.561ZM42.913 47.776L44.785 42.388H46.237L43.717 49H42.085L39.577 42.388H41.041L42.913 47.776ZM53.3311 45.532C53.3311 45.78 53.3151 46.004 53.2831 46.204H48.2311C48.2711 46.732 48.4671 47.156 48.8191 47.476C49.1711 47.796 49.6031 47.956 50.1151 47.956C50.8511 47.956 51.3711 47.648 51.6751 47.032H53.1511C52.9511 47.64 52.5871 48.14 52.0591 48.532C51.5391 48.916 50.8911 49.108 50.1151 49.108C49.4831 49.108 48.9151 48.968 48.4111 48.688C47.9151 48.4 47.5231 48 47.2351 47.488C46.9551 46.968 46.8151 46.368 46.8151 45.688C46.8151 45.008 46.9511 44.412 47.2231 43.9C47.5031 43.38 47.8911 42.98 48.3871 42.7C48.8911 42.42 49.4671 42.28 50.1151 42.28C50.7391 42.28 51.2951 42.416 51.7831 42.688C52.2711 42.96 52.6511 43.344 52.9231 43.84C53.1951 44.328 53.3311 44.892 53.3311 45.532ZM51.9031 45.1C51.8951 44.596 51.7151 44.192 51.3631 43.888C51.0111 43.584 50.5751 43.432 50.0551 43.432C49.5831 43.432 49.1791 43.584 48.8431 43.888C48.5071 44.184 48.3071 44.588 48.2431 45.1H51.9031ZM56.0453 43.348C56.2453 43.012 56.5093 42.752 56.8373 42.568C57.1733 42.376 57.5693 42.28 58.0253 42.28V43.696H57.6773C57.1413 43.696 56.7333 43.832 56.4533 44.104C56.1813 44.376 56.0453 44.848 56.0453 45.52V49H54.6773V42.388H56.0453V43.348ZM68.232 43.144C68.232 43.568 68.132 43.968 67.932 44.344C67.732 44.72 67.412 45.028 66.972 45.268C66.532 45.5 65.968 45.616 65.28 45.616H63.768V49H62.4V40.66H65.28C65.92 40.66 66.46 40.772 66.9 40.996C67.348 41.212 67.68 41.508 67.896 41.884C68.12 42.26 68.232 42.68 68.232 43.144ZM65.28 44.5C65.8 44.5 66.188 44.384 66.444 44.152C66.7 43.912 66.828 43.576 66.828 43.144C66.828 42.232 66.312 41.776 65.28 41.776H63.768V44.5H65.28ZM69.0807 45.664C69.0807 45 69.2167 44.412 69.4887 43.9C69.7687 43.388 70.1447 42.992 70.6167 42.712C71.0967 42.424 71.6247 42.28 72.2007 42.28C72.7207 42.28 73.1727 42.384 73.5567 42.592C73.9487 42.792 74.2607 43.044 74.4927 43.348V42.388H75.8727V49H74.4927V48.016C74.2607 48.328 73.9447 48.588 73.5447 48.796C73.1447 49.004 72.6887 49.108 72.1767 49.108C71.6087 49.108 71.0887 48.964 70.6167 48.676C70.1447 48.38 69.7687 47.972 69.4887 47.452C69.2167 46.924 69.0807 46.328 69.0807 45.664ZM74.4927 45.688C74.4927 45.232 74.3967 44.836 74.2047 44.5C74.0207 44.164 73.7767 43.908 73.4727 43.732C73.1687 43.556 72.8407 43.468 72.4887 43.468C72.1367 43.468 71.8087 43.556 71.5047 43.732C71.2007 43.9 70.9527 44.152 70.7607 44.488C70.5767 44.816 70.4847 45.208 70.4847 45.664C70.4847 46.12 70.5767 46.52 70.7607 46.864C70.9527 47.208 71.2007 47.472 71.5047 47.656C71.8167 47.832 72.1447 47.92 72.4887 47.92C72.8407 47.92 73.1687 47.832 73.4727 47.656C73.7767 47.48 74.0207 47.224 74.2047 46.888C74.3967 46.544 74.4927 46.144 74.4927 45.688ZM79.0375 43.348C79.2375 43.012 79.5015 42.752 79.8295 42.568C80.1655 42.376 80.5615 42.28 81.0175 42.28V43.696H80.6695C80.1335 43.696 79.7255 43.832 79.4455 44.104C79.1735 44.376 79.0375 44.848 79.0375 45.52V49H77.6695V42.388H79.0375V43.348ZM83.871 43.504V47.164C83.871 47.412 83.927 47.592 84.039 47.704C84.159 47.808 84.359 47.86 84.639 47.86H85.479V49H84.399C83.783 49 83.311 48.856 82.983 48.568C82.655 48.28 82.491 47.812 82.491 47.164V43.504H81.711V42.388H82.491V40.744H83.871V42.388H85.479V43.504H83.871ZM90.0758 42.28C90.5958 42.28 91.0598 42.388 91.4678 42.604C91.8838 42.82 92.2078 43.14 92.4398 43.564C92.6718 43.988 92.7878 44.5 92.7878 45.1V49H91.4318V45.304C91.4318 44.712 91.2838 44.26 90.9878 43.948C90.6918 43.628 90.2878 43.468 89.7758 43.468C89.2638 43.468 88.8558 43.628 88.5518 43.948C88.2558 44.26 88.1078 44.712 88.1078 45.304V49H86.7398V42.388H88.1078V43.144C88.3318 42.872 88.6158 42.66 88.9598 42.508C89.3118 42.356 89.6838 42.28 90.0758 42.28ZM100.593 45.532C100.593 45.78 100.577 46.004 100.545 46.204H95.4928C95.5328 46.732 95.7288 47.156 96.0808 47.476C96.4328 47.796 96.8648 47.956 97.3768 47.956C98.1128 47.956 98.6328 47.648 98.9368 47.032H100.413C100.213 47.64 99.8488 48.14 99.3208 48.532C98.8008 48.916 98.1528 49.108 97.3768 49.108C96.7448 49.108 96.1768 48.968 95.6728 48.688C95.1768 48.4 94.7848 48 94.4968 47.488C94.2168 46.968 94.0768 46.368 94.0768 45.688C94.0768 45.008 94.2128 44.412 94.4848 43.9C94.7648 43.38 95.1528 42.98 95.6488 42.7C96.1528 42.42 96.7288 42.28 97.3768 42.28C98.0008 42.28 98.5568 42.416 99.0448 42.688C99.5328 42.96 99.9128 43.344 100.185 43.84C100.457 44.328 100.593 44.892 100.593 45.532ZM99.1648 45.1C99.1568 44.596 98.9768 44.192 98.6248 43.888C98.2728 43.584 97.8368 43.432 97.3168 43.432C96.8448 43.432 96.4408 43.584 96.1048 43.888C95.7688 44.184 95.5688 44.588 95.5048 45.1H99.1648ZM103.307 43.348C103.507 43.012 103.771 42.752 104.099 42.568C104.435 42.376 104.831 42.28 105.287 42.28V43.696H104.939C104.403 43.696 103.995 43.832 103.715 44.104C103.443 44.376 103.307 44.848 103.307 45.52V49H101.939V42.388H103.307V43.348Z" fill="white"/>
<defs>
<clipPath id="clip0_1_701">
<rect width="45" height="33" fill="white" transform="translate(53.1558)"/>
</clipPath>
</defs>
</svg>
