<svg width="516" height="382" viewBox="0 0 516 382" fill="none" xmlns="http://www.w3.org/2000/svg">
<path d="M125.885 28.5019V136.15C125.885 156.093 120.62 171.247 110.091 181.612C99.718 191.819 85.1022 196.923 66.243 196.923C45.9693 196.923 29.8604 191.348 17.9162 180.198C5.97208 169.049 0 152.796 0 131.439H51.6271C51.6271 138.191 52.7272 142.981 54.9274 145.807C57.1277 148.477 60.1137 149.812 63.8856 149.812C67.0288 149.812 69.4647 148.791 71.1935 146.75C72.9223 144.708 73.7866 141.175 73.7866 136.15V28.5019H125.885Z" fill="#F2F4F8"/>
<path d="M211.658 196.923C198.299 196.923 186.276 194.174 175.589 188.678C164.903 183.182 156.495 175.33 150.365 165.123C144.393 154.758 141.407 142.667 141.407 128.848C141.407 115.028 144.393 103.015 150.365 92.808C156.495 82.4436 164.903 74.5133 175.589 69.0171C186.276 63.5209 198.299 60.7727 211.658 60.7727C225.016 60.7727 237.039 63.5209 247.726 69.0171C258.413 74.5133 266.742 82.4436 272.714 92.808C278.844 103.015 281.908 115.028 281.908 128.848C281.908 142.667 278.844 154.758 272.714 165.123C266.742 175.33 258.413 183.182 247.726 188.678C237.039 194.174 225.016 196.923 211.658 196.923ZM211.658 151.696C216.53 151.696 220.616 149.812 223.916 146.043C227.217 142.117 228.867 136.385 228.867 128.848C228.867 121.31 227.217 115.657 223.916 111.888C220.616 107.962 216.53 105.999 211.658 105.999C206.786 105.999 202.7 107.962 199.399 111.888C196.099 115.657 194.449 121.31 194.449 128.848C194.449 136.385 196.02 142.117 199.163 146.043C202.464 149.812 206.629 151.696 211.658 151.696Z" fill="#F2F4F8"/>
<path d="M324.752 51.8217C315.637 51.8217 308.329 49.3877 302.828 44.5196C297.328 39.6515 294.577 33.5271 294.577 26.1464C294.577 18.6087 297.328 12.4058 302.828 7.5377C308.329 2.51257 315.637 0 324.752 0C333.71 0 340.94 2.51257 346.44 7.5377C351.941 12.4058 354.691 18.6087 354.691 26.1464C354.691 33.5271 351.941 39.6515 346.44 44.5196C340.94 49.3877 333.71 51.8217 324.752 51.8217ZM350.684 62.4216V195.274H298.349V62.4216H350.684Z" fill="#F2F4F8"/>
<path d="M467.438 61.4794C482.682 61.4794 494.548 66.5831 503.034 76.7904C511.678 86.9977 516 100.817 516 118.248V195.274H463.901V124.843C463.901 118.562 462.173 113.615 458.715 110.003C455.415 106.235 450.936 104.35 445.278 104.35C439.463 104.35 434.905 106.235 431.605 110.003C428.305 113.615 426.655 118.562 426.655 124.843V195.274H374.32V62.4216H426.655V82.6792C430.741 76.3978 436.163 71.2941 442.921 67.3682C449.836 63.4423 458.008 61.4794 467.438 61.4794Z" fill="#F2F4F8"/>
<path d="M60.5852 213.579V307.565C60.5852 315.26 62.2354 321.384 65.5357 325.938C68.9933 330.335 74.4939 332.534 82.0375 332.534C89.5812 332.534 95.1604 330.335 98.7751 325.938C102.39 321.384 104.197 315.26 104.197 307.565V213.579H156.296V307.565C156.296 323.426 152.995 337.009 146.395 348.316C139.794 359.465 130.757 367.867 119.284 373.52C107.812 379.173 95.0032 382 80.8588 382C66.7144 382 54.1416 379.173 43.1404 373.52C32.2964 367.867 23.8097 359.465 17.6805 348.316C11.5513 337.166 8.48664 323.583 8.48664 307.565V213.579H60.5852Z" fill="#F2F4F8"/>
<path d="M238.039 382C225.466 382 214.307 379.959 204.563 375.876C194.977 371.793 187.354 366.139 181.697 358.916C176.039 351.692 172.817 343.526 172.031 334.418H222.244C222.873 338.344 224.523 341.249 227.194 343.134C230.023 345.018 233.559 345.96 237.803 345.96C240.474 345.96 242.596 345.411 244.168 344.312C245.739 343.055 246.525 341.563 246.525 339.836C246.525 336.852 244.875 334.732 241.575 333.476C238.274 332.22 232.695 330.806 224.837 329.236C215.25 327.352 207.314 325.31 201.027 323.112C194.898 320.913 189.476 317.144 184.761 311.805C180.204 306.466 177.925 299.085 177.925 289.663C177.925 281.497 180.046 274.117 184.29 267.521C188.69 260.769 195.134 255.508 203.62 251.739C212.107 247.813 222.401 245.85 234.502 245.85C252.419 245.85 266.406 250.247 276.464 259.041C286.68 267.835 292.809 279.299 294.852 293.432H248.411C247.625 289.82 245.975 287.072 243.461 285.188C240.946 283.146 237.567 282.125 233.324 282.125C230.652 282.125 228.609 282.675 227.194 283.774C225.78 284.717 225.073 286.208 225.073 288.25C225.073 290.919 226.723 292.961 230.023 294.374C233.324 295.63 238.589 296.965 245.818 298.379C255.405 300.263 263.498 302.383 270.099 304.739C276.7 307.094 282.436 311.177 287.308 316.987C292.18 322.641 294.616 330.492 294.616 340.543C294.616 348.394 292.337 355.461 287.78 361.742C283.222 368.024 276.621 372.97 267.978 376.582C259.491 380.194 249.511 382 238.039 382Z" fill="#F2F4F8"/>
</svg>
