<svg width="95" height="28" viewBox="0 0 95 28" fill="none" xmlns="http://www.w3.org/2000/svg">
<path d="M14.559 17.0567C14.559 15.7114 14.019 14.4963 13.1341 13.5561C14.004 12.6303 14.529 11.4297 14.529 10.0989V9.21654H14.514C14.484 9.01402 14.289 8.85491 14.064 8.85491H11.2893C11.0643 8.85491 10.8693 9.01402 10.8393 9.21654L10.7793 10.0989C10.7793 11.0392 9.95438 11.8058 8.96446 11.8058V11.8203H8.03454C7.38959 11.8203 6.77464 11.936 6.20469 12.124V4.50088C6.18969 4.26943 5.97971 4.06692 5.73973 4.06692H2.96496C2.70998 4.06692 2.5 4.26943 2.5 4.50088V20.6441C2.5 20.8755 2.70998 21.078 2.96496 21.078H5.72473C5.97971 21.078 6.18969 20.8755 6.18969 20.6441V17.0567H6.21969C6.21969 16.1165 7.04462 15.3498 8.03454 15.3498H9.00946C10.0144 15.3498 10.8243 16.1165 10.8243 17.0567V17.9391H10.8393V20.6441C10.8393 20.8755 11.0493 21.078 11.3043 21.078H14.064C14.319 21.078 14.529 20.8755 14.529 20.6441L14.574 17.9391V17.0567H14.559Z" fill="white"/>
<path d="M28.3578 12.2687C28.3578 12.0373 28.1479 11.8347 27.8929 11.8347H25.1331C24.8781 11.8347 24.6682 12.0373 24.6682 12.2687V18.7636C24.6682 19.7038 23.8432 20.4705 22.8233 20.4705H21.8484C20.8435 20.4705 20.0335 19.7038 20.0335 18.7636L20.0185 12.2687C20.0185 12.0373 19.8086 11.8347 19.5536 11.8347H16.8088C16.5538 11.8347 16.3438 12.0373 16.3438 12.2687L16.3288 18.7636C16.3288 21.6566 18.7886 24 21.8484 24H22.8233C25.8831 24 28.3578 21.6566 28.3578 18.7636V12.2687Z" fill="white"/>
<path d="M30.2177 20.7453C30.2177 20.9768 30.4277 21.1793 30.6827 21.1793H33.4424C33.6974 21.1793 33.9074 20.9768 33.9074 20.7453V14.2504C33.9074 13.3102 34.7323 12.5435 35.7372 12.5435H36.7121C37.7171 12.5435 38.527 13.3102 38.527 14.2504L38.542 20.7453C38.542 20.9768 38.752 21.1793 39.007 21.1793H41.7667C42.0217 21.1793 42.2317 20.9768 42.2317 20.7453L42.2467 14.2504C42.2467 11.3719 39.7869 9.01403 36.7271 9.01403H35.7522C32.6925 9.01403 30.2327 11.3574 30.2327 14.2504L30.2177 20.7453Z" fill="white"/>
<path d="M56.1205 12.2687C56.1205 12.0373 55.9105 11.8347 55.6556 11.8347H52.8958C52.6408 11.8347 52.4308 12.0373 52.4308 12.2687V18.7636C52.4308 19.7038 51.6059 20.4705 50.601 20.4705H49.6261C48.6212 20.4705 47.8112 19.7038 47.8112 18.7636L47.7962 12.2687C47.7962 12.0373 47.5862 11.8347 47.3313 11.8347H44.5565C44.3015 11.8347 44.0915 12.0373 44.0915 12.2687V18.7636C44.0915 21.6566 46.5513 24 49.6111 24H50.586C53.6457 24 56.1055 21.6566 56.1055 18.7636V12.2687H56.1205Z" fill="white"/>
<path d="M83.8832 12.2687C83.8832 12.0373 83.6732 11.8347 83.4183 11.8347H80.6585C80.4035 11.8347 80.1935 12.0373 80.1935 12.2687V18.7636C80.1935 19.7038 79.3686 20.4705 78.3637 20.4705H77.3888C76.3839 20.4705 75.5739 19.7038 75.5739 18.7636L75.5589 12.2687C75.5589 12.0373 75.3489 11.8347 75.0939 11.8347H72.3342C72.0792 11.8347 71.8692 12.0373 71.8692 12.2687L71.8542 18.7636C71.8542 21.6566 74.314 24 77.3738 24H78.3487C81.4084 24 83.8682 21.6566 83.8682 18.7636L83.8832 12.2687Z" fill="white"/>
<path d="M57.9954 20.6441C57.9954 20.89 58.2054 21.078 58.4603 21.078H61.2201C61.4751 21.078 61.6851 20.89 61.6851 20.6441V14.1636C61.6851 13.2234 62.51 12.4568 63.5149 12.4568H64.4898C65.4948 12.4568 66.3047 13.2234 66.3047 14.1636L66.3197 20.6585C66.3197 20.9044 66.5297 21.0925 66.7846 21.0925H69.5444C69.7994 21.0925 70.0094 20.9044 70.0094 20.6585L70.0244 14.1636C70.0244 11.2706 67.5646 8.92723 64.5048 8.92723H63.5299C60.4702 8.92723 58.0104 11.2706 58.0104 14.1636L57.9954 20.6441Z" fill="white"/>
<path d="M86.313 5.06502C86.133 4.89144 85.8181 4.89144 85.6381 5.06502L85.4581 5.2386C85.2781 5.41218 85.2781 5.70149 85.4581 5.88954L86.568 6.93103C86.718 7.07569 86.703 7.30713 86.553 7.43732L86.418 7.5675C86.268 7.71216 86.028 7.71216 85.8781 7.5675L84.7681 6.52601C84.1982 5.9908 84.1982 5.10842 84.7532 4.5732L84.9331 4.39962C85.5031 3.86441 86.433 3.86441 87.003 4.41409L88.0379 5.39772L88.1129 5.47005C88.2629 5.6147 88.2629 5.83168 88.1129 5.97633L87.9779 6.10651C87.8279 6.25117 87.5729 6.26563 87.4229 6.12098L86.313 5.06502Z" fill="white"/>
<path d="M91.3676 5.88953C91.5476 5.71595 91.5476 5.42665 91.3676 5.25307L91.1876 5.07949C91.0076 4.9059 90.6927 4.9059 90.5127 5.07949L89.4028 6.12098C89.2528 6.26563 89.0128 6.25117 88.8628 6.10651L88.7278 5.97633C88.5778 5.83167 88.5778 5.6147 88.7128 5.47004L89.8227 4.41408C90.3927 3.87887 91.3226 3.8644 91.8926 4.39962L92.0725 4.5732C92.6425 5.12288 92.6425 5.99079 92.0725 6.52601L91.0376 7.50964L90.9626 7.58197C90.8127 7.72662 90.5727 7.72662 90.4227 7.58197L90.2877 7.45178C90.1377 7.30713 90.1227 7.07569 90.2727 6.9455L91.3676 5.88953Z" fill="white"/>
<path d="M85.4431 9.83854C85.2631 10.0121 85.2631 10.3014 85.4431 10.4895L85.6231 10.6631C85.8031 10.8366 86.118 10.8366 86.298 10.6631L87.4079 9.62157C87.5579 9.47691 87.7979 9.49138 87.9479 9.63603L88.0829 9.76622C88.2329 9.91087 88.2329 10.1278 88.0979 10.2725L86.988 11.314C86.418 11.8637 85.4881 11.8637 84.9181 11.3285L84.7382 11.1549C84.1682 10.6197 84.1682 9.73729 84.7532 9.21654L85.7881 8.2329L85.8631 8.16058C86.013 8.01593 86.253 8.01593 86.403 8.16058L86.538 8.29076C86.688 8.43542 86.703 8.66686 86.553 8.79705L85.4431 9.83854Z" fill="white"/>
<path d="M90.4977 10.6341C90.6777 10.8077 90.9926 10.8077 91.1726 10.6341L91.3526 10.4605C91.5326 10.287 91.5476 9.99766 91.3526 9.80961L90.2427 8.76812C90.0927 8.62347 90.1077 8.40649 90.2577 8.26184L90.3927 8.13165C90.5427 7.98699 90.7827 7.987 90.9326 8.11719L92.0425 9.15868C92.6125 9.69389 92.6125 10.5763 92.0575 11.1115L91.8776 11.2851C91.3076 11.8347 90.3777 11.8203 89.8077 11.2706L88.7728 10.287L88.6978 10.2146C88.5478 10.07 88.5478 9.85301 88.6978 9.70836L88.8328 9.57817C88.9828 9.43352 89.2378 9.41906 89.3878 9.56371L90.4977 10.6341Z" fill="white"/>
</svg>
