<svg width="200" height="34" viewBox="0 0 200 34" fill="none" xmlns="http://www.w3.org/2000/svg">
<path d="M9.3833 0H15.4369C19.4691 11.3225 23.4047 22.6775 27.4423 34H20.8203C16.9865 22.6775 13.2385 11.3171 9.3833 0Z" fill="white"/>
<path d="M29.3564 0H42.1232C47.4315 0.372381 52.7398 3.18413 55.3136 7.9981C58.8042 14.4635 58.268 23.2657 53.3082 28.8298C50.5361 31.933 46.4556 33.5575 42.3967 34H29.3564C29.3564 22.6667 29.3564 11.3333 29.3564 0ZM35.3886 5.80159C35.3886 13.2654 35.3886 20.7346 35.3886 28.1984C39.1741 28.139 43.2867 28.6733 46.6701 26.5686C50.0696 24.6527 51.5173 20.5079 51.3564 16.7571C51.4369 13.0171 49.7425 9.06127 46.3484 7.25873C43.0133 5.33206 39.0615 5.87175 35.3886 5.80159Z" fill="white"/>
<path d="M54.6812 0H61.3514C64.1181 8.08984 66.8581 16.1959 69.5551 24.3127C72.472 16.2283 75.2173 8.07365 78.161 0H84.8098C80.6597 11.3225 76.5578 22.6667 72.4452 34H66.708C62.649 22.6829 58.7294 11.3171 54.6812 0Z" fill="white"/>
<path d="M96.9008 0H100.499C107.437 0.588254 113.555 5.86635 115.34 12.6124C106.713 16.293 98.075 19.9251 89.4477 23.6057C91.8069 26.7629 95.705 28.7381 99.6675 28.3495C104.021 28.1013 107.85 25.0251 109.496 21.026C111.239 21.76 112.97 22.5048 114.708 23.2441C112.429 29.1375 106.729 33.4603 100.466 34H96.8257C88.7667 33.1905 81.9034 26.0181 81.705 17.8203C81.0509 9.03429 88.2252 0.771746 96.9008 0ZM94.7453 6.34667C90.0482 8.06286 86.8739 13.1089 87.3887 18.1225C94.0804 15.273 100.799 12.4775 107.48 9.58476C104.381 6.04445 99.1367 4.62508 94.7453 6.34667Z" fill="white"/>
<path d="M117.292 0H130.97C134.364 0.501905 137.528 2.57968 139.153 5.65048C140.976 9.07206 140.654 13.5568 138.252 16.6168C136.997 18.3276 135.185 19.5149 133.249 20.3083C136.273 24.8902 139.33 29.4451 142.386 34H135.158C132.171 29.7527 129.389 25.3597 126.493 21.0476C125.431 21.0476 124.38 21.0476 123.324 21.0476C123.324 25.3651 123.324 29.6825 123.324 34H117.292C117.292 22.6667 117.292 11.3333 117.292 0ZM123.324 5.80159C123.324 8.94794 123.324 12.0997 123.324 15.246C125.292 15.2298 127.26 15.2784 129.233 15.2406C131.276 15.2029 133.33 13.8698 133.952 11.8622C134.927 9.13683 132.611 5.93651 129.791 5.82317C127.635 5.75302 125.48 5.82317 123.324 5.80159Z" fill="white"/>
<path d="M156.917 0H160.37C162.01 0.194286 163.608 0.642222 165.163 1.1981C164.472 2.97365 163.828 4.7654 163.083 6.51937C160.531 5.52095 157.641 5.30508 155.024 6.17397C151.083 7.44222 147.973 11.0365 147.33 15.1597C146.59 19.2127 148.38 23.5356 151.63 26.0019C155.11 28.7921 160.257 29.1483 164.123 26.9625C168.043 24.8308 170.343 20.3137 170.005 15.8721C166.413 17.3778 162.842 18.9105 159.254 20.4162C158.466 18.6352 157.71 16.8381 156.954 15.0463C162.391 12.7635 167.807 10.4213 173.249 8.1546C176.161 13.0279 176.461 19.3746 173.962 24.4854C171.458 29.7365 166.134 33.4279 160.38 34H156.868C152.327 33.5629 148.027 31.2368 145.19 27.6317C140.734 22.2079 140.295 13.9022 144.043 7.9819C146.799 3.49714 151.689 0.464127 156.917 0Z" fill="white"/>
<path d="M172.552 0H179.212C181.314 5.79079 183.319 11.614 185.357 17.4263C182.815 16.3794 180.29 15.2838 177.764 14.2044C175.979 9.48762 174.322 4.72222 172.552 0Z" fill="white"/>
<path d="M192.922 0H200V0.199683C196.075 11.479 192.075 22.7368 188.107 34H182.021C185.936 22.7044 189.635 11.3279 193.48 0.00539683L192.922 0Z" fill="white"/>
<path d="M5.59249 19.6014C7.92493 18.5382 10.3164 17.5991 12.6649 16.5737C10.6756 22.3969 8.63271 28.2039 6.55764 34.0001H0V33.7788C1.46381 29.6287 3.02413 25.5163 4.47721 21.3607C4.77212 20.7401 4.84182 19.8604 5.59249 19.6014Z" fill="white"/>
</svg>
