<svg width="48" height="48" viewBox="0 0 48 48" fill="none" xmlns="http://www.w3.org/2000/svg">
<rect width="48" height="48" rx="24" fill="white"/>
<path fill-rule="evenodd" clip-rule="evenodd" d="M21.4986 13C26.0427 13 29.7545 16.5662 29.9871 21.0518L31.9844 20.9482C31.697 15.4053 27.1126 11 21.4986 11C15.6997 11 10.9986 15.701 10.9986 21.5C10.9986 23.1999 11.4033 24.8081 12.1225 26.2308C12.122 26.2488 12.1303 26.3485 12.0914 26.585C12.0507 26.8328 11.9844 27.0999 11.9056 27.4172C11.8794 27.523 11.8517 27.6344 11.8232 27.7524C11.7195 28.1814 11.6039 28.7018 11.5892 29.1927C11.575 29.6684 11.6478 30.3362 12.1553 30.8436C12.6627 31.3508 13.3304 31.4236 13.8061 31.4094C14.2971 31.3948 14.8175 31.2793 15.2465 31.1756C15.3649 31.147 15.4765 31.1193 15.5825 31.093C15.8995 31.0143 16.1665 30.9481 16.4141 30.9074C16.6503 30.8686 16.75 30.8768 16.7681 30.8763C18.0356 31.5169 19.4505 31.9081 20.9469 31.9857L21.0504 29.9884C19.8245 29.9248 18.6689 29.6019 17.6356 29.0737C17.0957 28.7977 16.4712 28.8711 16.0897 28.9339C15.7546 28.9889 15.377 29.0829 15.0425 29.166C14.9501 29.189 14.8609 29.2112 14.7768 29.2315C14.3456 29.3357 14.0073 29.4025 13.7466 29.4103C13.6779 29.4123 13.6278 29.4099 13.5924 29.4061C13.5887 29.3708 13.5863 29.3208 13.5883 29.2524C13.5961 28.9918 13.6629 28.6536 13.7672 28.2224C13.7875 28.1385 13.8096 28.0495 13.8326 27.9572C13.9158 27.6226 14.0098 27.2447 14.065 26.9094C14.1277 26.5275 14.201 25.9031 13.9249 25.363C13.333 24.2051 12.9986 22.893 12.9986 21.5C12.9986 16.8056 16.8042 13 21.4986 13ZM13.6063 29.4791C13.6064 29.4791 13.6062 29.4786 13.6057 29.4775L13.6063 29.4791ZM13.521 29.3928C13.52 29.3924 13.5195 29.3922 13.5195 29.3922L13.521 29.3928Z" fill="#1C4B85"/>
<path fill-rule="evenodd" clip-rule="evenodd" d="M28.5 22C24.9101 22 22 24.9101 22 28.5C22 32.0899 24.9101 35 28.5 35C29.5657 35 30.5687 34.7443 31.4539 34.2918C31.947 34.0397 32.5026 34.1115 32.8044 34.1611C33.0783 34.2061 33.3885 34.2833 33.6532 34.3492C33.7247 34.3669 33.7929 34.3839 33.8561 34.3992C34.1391 34.4676 34.3581 34.512 34.5282 34.5282C34.512 34.3582 34.4675 34.1394 34.3992 33.8566C34.3839 33.7935 34.367 33.7254 34.3492 33.654C34.2833 33.3892 34.206 33.0789 34.161 32.8047C34.1113 32.5027 34.0397 31.9471 34.2918 31.4539C34.7443 30.5687 35 29.5657 35 28.5C35 24.9101 32.0899 22 28.5 22ZM34.5291 34.7411C34.529 34.741 34.5294 34.7388 34.5305 34.7349C34.5297 34.7393 34.5292 34.7412 34.5291 34.7411ZM34.7349 34.5304C34.7388 34.5293 34.741 34.5289 34.7411 34.529C34.7412 34.5291 34.7393 34.5297 34.7349 34.5304ZM20 28.5C20 23.8056 23.8056 20 28.5 20C33.1944 20 37 23.8056 37 28.5C37 29.8578 36.6809 31.1438 36.1128 32.2846C36.1138 32.3169 36.1179 32.3791 36.1345 32.4804C36.1651 32.6669 36.2147 32.8665 36.2761 33.1139C36.2972 33.1988 36.3196 33.2892 36.3432 33.3867C36.425 33.7251 36.5214 34.1551 36.5337 34.5669C36.5455 34.9635 36.4872 35.5635 36.0252 36.0254C35.5632 36.4872 34.9634 36.5455 34.5668 36.5336C34.155 36.5214 33.725 36.425 33.3864 36.3433C33.2888 36.3197 33.1981 36.2972 33.1132 36.2761C32.866 36.2148 32.6664 36.1653 32.48 36.1346C32.3789 36.118 32.3167 36.1139 32.2844 36.1129C31.1436 36.681 29.8577 37 28.5 37C23.8056 37 20 33.1944 20 28.5Z" fill="#5189CF"/>
</svg>
