<svg width="48" height="48" viewBox="0 0 48 48" fill="none" xmlns="http://www.w3.org/2000/svg">
<rect width="48" height="48" rx="24" fill="white"/>
<path fill-rule="evenodd" clip-rule="evenodd" d="M18.9999 18.4002C18.9404 18.3359 18.8737 18.2629 18.8017 18.1824C18.5221 17.8699 18.1525 17.4339 17.8113 16.9562C17.4798 16.4922 17.13 15.9271 16.942 15.3631C16.7678 14.8404 16.6254 13.9604 17.2929 13.2929C17.7067 12.8791 18.1868 12.6669 18.7006 12.6415C19.1621 12.6187 19.5719 12.7536 19.8391 12.8499C19.9472 12.8889 20.0341 12.9218 20.1081 12.9499C20.2604 13.0075 20.3582 13.0446 20.4739 13.0711C20.5386 13.086 20.5727 13.0871 20.5866 13.0866C20.5948 13.0863 20.5958 13.0854 20.5958 13.0854C20.6402 13.0657 20.7092 13.0207 20.8382 12.8645C20.9018 12.7874 20.9645 12.7031 21.0481 12.5907L21.059 12.5761C21.1424 12.4641 21.2448 12.3269 21.3605 12.1897C21.5976 11.9085 21.9153 11.5958 22.3701 11.3614C22.8284 11.1253 23.3645 11 24 11C24.6355 11 25.1716 11.1253 25.6299 11.3614C26.0846 11.5958 26.4024 11.9085 26.6395 12.1897C26.7551 12.3269 26.8576 12.4641 26.9409 12.5761L26.9517 12.5907C27.0354 12.7031 27.0981 12.7874 27.1617 12.8645C27.2907 13.0207 27.3596 13.0656 27.4041 13.0853L27.407 13.086C27.407 13.086 27.411 13.0864 27.4148 13.0866C27.4308 13.0872 27.4673 13.0858 27.5347 13.0705C27.6542 13.0435 27.757 13.005 27.9148 12.946C27.9886 12.9184 28.0744 12.8864 28.1796 12.8488C28.4464 12.7537 28.8579 12.6186 29.3173 12.6415C29.8336 12.6672 30.3151 12.8835 30.722 13.3081C31.3672 13.9814 31.212 14.8555 31.0391 15.3671C30.85 15.9267 30.5039 16.4892 30.1754 16.953C29.8375 17.43 29.4726 17.8655 29.1965 18.1778C29.1243 18.2595 29.0576 18.3335 28.9982 18.3984C30.2607 19.6434 31.5065 21.2885 32.5194 22.9436C33.2234 24.0938 33.8349 25.2813 34.2735 26.3896C34.7047 27.479 35 28.569 35 29.5C35 31.9938 33.6299 33.91 31.593 35.1563C29.5822 36.3866 26.8862 37 24 37C21.1138 37 18.4177 36.3866 16.407 35.1563C14.3701 33.91 13 31.9938 13 29.5C13 28.569 13.2953 27.479 13.7265 26.3896C14.1651 25.2813 14.7766 24.0938 15.4806 22.9435C16.493 21.2893 17.7381 19.645 18.9999 18.4002ZM21.4042 14.9147C21.8596 14.7134 22.1658 14.3979 22.3805 14.1377C22.4778 14.0199 22.5693 13.8968 22.6448 13.7952L22.6636 13.77C22.7482 13.6562 22.8177 13.5641 22.8895 13.4789C23.0274 13.3153 23.1472 13.2109 23.2862 13.1393C23.4217 13.0695 23.6356 13 24 13C24.3644 13 24.5783 13.0695 24.7138 13.1393C24.8527 13.2109 24.9725 13.3153 25.1104 13.4789C25.1822 13.5641 25.2517 13.6562 25.3363 13.77L25.3551 13.7952C25.4306 13.8968 25.5221 14.0199 25.6194 14.1377C25.8342 14.3979 26.1403 14.7134 26.5958 14.9147C27.1106 15.1422 27.6011 15.1062 27.9769 15.021C28.2403 14.9613 28.5273 14.8536 28.7219 14.7806C28.7719 14.7618 28.8158 14.7453 28.8516 14.7326C29.0215 14.6719 29.1166 14.6493 29.1705 14.6419C29.1639 14.6661 29.1554 14.6942 29.1444 14.7267C29.0484 15.0108 28.8346 15.3858 28.5433 15.797C28.2614 16.195 27.9466 16.572 27.6979 16.8534C27.6079 16.9553 27.5277 17.0432 27.4626 17.1135C27.3204 17.0392 27.1618 17 27 17L21 17C20.8376 17 20.6783 17.0396 20.5356 17.1144C20.4687 17.0433 20.3857 16.9534 20.2922 16.8488C20.0405 16.5676 19.7226 16.1911 19.4388 15.7938C19.1453 15.3828 18.9326 15.0104 18.8393 14.7306C18.8273 14.6945 18.8184 14.6642 18.8119 14.6389C18.8564 14.6398 18.9504 14.6555 19.1609 14.7314C19.1959 14.744 19.2392 14.7605 19.2889 14.7794C19.4803 14.8521 19.7656 14.9606 20.0262 15.0204C20.4023 15.1068 20.8902 15.1418 21.4042 14.9147ZM29.1918 14.5353C29.1904 14.5248 29.1914 14.5183 29.1914 14.5183C29.1914 14.5183 29.1927 14.5232 29.1918 14.5353ZM18.7954 14.5336C18.7954 14.5336 18.7966 14.5403 18.7951 14.5511C18.7941 14.5385 18.7954 14.5336 18.7954 14.5336ZM21.3324 19C19.9876 20.0498 18.4377 21.943 17.1864 23.9876C16.5292 25.0614 15.974 26.1454 15.5861 27.1255C15.1908 28.1244 15 28.9396 15 29.5C15 31.1483 15.8685 32.4821 17.4508 33.4503C19.0594 34.4345 21.3633 35 24 35C26.6367 35 28.9406 34.4345 30.5492 33.4503C32.1315 32.4821 33 31.1483 33 29.5C33 28.9396 32.8092 28.1244 32.4139 27.1255C32.026 26.1455 31.4708 25.0614 30.8136 23.9876C29.5623 21.943 28.0124 20.0498 26.6676 19L21.3324 19Z" fill="#1C4B85"/>
<path fill-rule="evenodd" clip-rule="evenodd" d="M24.9676 22C24.9676 21.4477 24.5199 21 23.9676 21C23.4154 21 22.9676 21.4477 22.9676 22V22.3517C21.4676 22.5174 20.3008 23.7892 20.3008 25.3334C20.3008 26.9903 21.6439 28.3334 23.3008 28.3334H24.6341C25.1864 28.3334 25.6341 28.7811 25.6341 29.3334C25.6341 29.8857 25.1864 30.3334 24.6341 30.3334H23.9806C23.9763 30.3334 23.972 30.3333 23.9676 30.3333C23.9633 30.3333 23.959 30.3334 23.9547 30.3334H21.3008C20.7485 30.3334 20.3008 30.7811 20.3008 31.3334C20.3008 31.8857 20.7485 32.3334 21.3008 32.3334H22.9676V32.6667C22.9676 33.219 23.4154 33.6667 23.9676 33.6667C24.5199 33.6667 24.9676 33.219 24.9676 32.6667V32.3151C26.4675 32.1492 27.6341 30.8775 27.6341 29.3334C27.6341 27.6766 26.291 26.3334 24.6341 26.3334H23.3008C22.7485 26.3334 22.3008 25.8857 22.3008 25.3334C22.3008 24.7811 22.7485 24.3334 23.3008 24.3334H26.6341C27.1864 24.3334 27.6341 23.8857 27.6341 23.3334C27.6341 22.7811 27.1864 22.3334 26.6341 22.3334H24.9676V22Z" fill="#5189CF"/>
</svg>
