<svg width="48" height="48" viewBox="0 0 48 48" fill="none" xmlns="http://www.w3.org/2000/svg">
<rect width="48" height="48" rx="24" fill="white"/>
<path fill-rule="evenodd" clip-rule="evenodd" d="M17.5 23C12.9707 23 12 22.0293 12 17.5C12 12.9707 12.9707 12 17.5 12C22.0293 12 23 12.9707 23 17.5C23 22.0293 22.0293 23 17.5 23ZM14.1748 19.8363C14.0608 19.3234 14 18.5867 14 17.5C14 16.4133 14.0608 15.6766 14.1748 15.1637C14.2837 14.6736 14.4129 14.5186 14.4657 14.4657C14.5186 14.4129 14.6736 14.2837 15.1637 14.1748C15.6766 14.0608 16.4133 14 17.5 14C18.5867 14 19.3234 14.0608 19.8363 14.1748C20.3264 14.2837 20.4814 14.4129 20.5343 14.4657C20.5871 14.5186 20.7163 14.6736 20.8252 15.1637C20.9392 15.6766 21 16.4133 21 17.5C21 18.5867 20.9392 19.3234 20.8252 19.8363C20.7163 20.3264 20.5871 20.4814 20.5343 20.5343C20.4814 20.5871 20.3264 20.7163 19.8363 20.8252C19.3234 20.9392 18.5867 21 17.5 21C16.4133 21 15.6766 20.9392 15.1637 20.8252C14.6736 20.7163 14.5186 20.5871 14.4657 20.5343C14.4129 20.4814 14.2837 20.3264 14.1748 19.8363Z" fill="#1C4B85"/>
<path fill-rule="evenodd" clip-rule="evenodd" d="M17.5 36C12.9707 36 12 35.0292 12 30.5C12 25.9707 12.9707 25 17.5 25C22.0293 25 23 25.9707 23 30.5C23 35.0292 22.0293 36 17.5 36ZM14.1748 32.8363C14.0608 32.3234 14 31.5867 14 30.5C14 29.4133 14.0608 28.6766 14.1748 28.1637C14.2837 27.6736 14.4129 27.5186 14.4657 27.4657C14.5186 27.4129 14.6736 27.2837 15.1637 27.1748C15.6766 27.0608 16.4133 27 17.5 27C18.5867 27 19.3234 27.0608 19.8363 27.1748C20.3264 27.2837 20.4814 27.4129 20.5343 27.4657C20.5871 27.5186 20.7163 27.6736 20.8252 28.1637C20.9392 28.6766 21 29.4133 21 30.5C21 31.5867 20.9392 32.3234 20.8252 32.8363C20.7163 33.3264 20.5871 33.4814 20.5343 33.5343C20.4814 33.5871 20.3264 33.7163 19.8363 33.8252C19.3234 33.9392 18.5867 34 17.5 34C16.4133 34 15.6766 33.9392 15.1637 33.8252C14.6736 33.7163 14.5186 33.5871 14.4657 33.5343C14.4129 33.4814 14.2837 33.3264 14.1748 32.8363Z" fill="#1C4B85"/>
<path fill-rule="evenodd" clip-rule="evenodd" d="M25 30.5C25 35.0292 25.9707 36 30.5 36C35.0293 36 36 35.0292 36 30.5C36 25.9707 35.0293 25 30.5 25C25.9707 25 25 25.9707 25 30.5ZM27 30.5C27 31.5867 27.0608 32.3234 27.1748 32.8363C27.2837 33.3264 27.4129 33.4814 27.4657 33.5343C27.5186 33.5871 27.6736 33.7163 28.1637 33.8252C28.6766 33.9392 29.4133 34 30.5 34C31.5867 34 32.3234 33.9392 32.8363 33.8252C33.3264 33.7163 33.4814 33.5871 33.5343 33.5343C33.5871 33.4814 33.7163 33.3264 33.8252 32.8363C33.9392 32.3234 34 31.5867 34 30.5C34 29.4133 33.9392 28.6766 33.8252 28.1637C33.7163 27.6736 33.5871 27.5186 33.5343 27.4657C33.4814 27.4129 33.3264 27.2837 32.8363 27.1748C32.3234 27.0608 31.5867 27 30.5 27C29.4133 27 28.6766 27.0608 28.1637 27.1748C27.6736 27.2837 27.5186 27.4129 27.4657 27.4657C27.4129 27.5186 27.2837 27.6736 27.1748 28.1637C27.0608 28.6766 27 29.4133 27 30.5Z" fill="#1C4B85"/>
<path d="M31.5 14C31.5 13.4477 31.0523 13 30.5 13C29.9477 13 29.5 13.4477 29.5 14V16.5H27C26.4477 16.5 26 16.9477 26 17.5C26 18.0523 26.4477 18.5 27 18.5H29.5V21C29.5 21.5523 29.9477 22 30.5 22C31.0523 22 31.5 21.5523 31.5 21V18.5H34C34.5523 18.5 35 18.0523 35 17.5C35 16.9477 34.5523 16.5 34 16.5H31.5V14Z" fill="#5189CF"/>
</svg>
