<svg width="48" height="48" viewBox="0 0 48 48" fill="none" xmlns="http://www.w3.org/2000/svg">
<rect width="48" height="48" rx="24" fill="white"/>
<path fill-rule="evenodd" clip-rule="evenodd" d="M19 19C19 21.7614 21.2386 24 24 24C26.7614 24 29 21.7614 29 19C29 16.2386 26.7614 14 24 14C21.2386 14 19 16.2386 19 19ZM21 19C21 20.6569 22.3431 22 24 22C25.6569 22 27 20.6569 27 19C27 17.3431 25.6569 16 24 16C22.3431 16 21 17.3431 21 19Z" fill="#5189CF"/>
<path fill-rule="evenodd" clip-rule="evenodd" d="M16 30C16 33.294 17.412 34 24 34C30.588 34 32 33.294 32 30C32 26.706 30.588 26 24 26C17.412 26 16 26.706 16 30ZM18 30C18 30.7179 18.0837 31.0505 18.1512 31.2023C18.1828 31.2735 18.2156 31.3422 18.4239 31.4464C18.7033 31.5861 19.226 31.7432 20.1916 31.8505C21.1391 31.9557 22.3748 32 24 32C25.6252 32 26.861 31.9557 27.8084 31.8505C28.774 31.7432 29.2967 31.5861 29.5761 31.4464C29.7844 31.3422 29.8172 31.2735 29.8488 31.2023C29.9163 31.0505 30 30.7179 30 30C30 29.2821 29.9163 28.9495 29.8488 28.7977C29.8172 28.7265 29.7844 28.6578 29.5761 28.5536C29.2967 28.4139 28.774 28.2568 27.8084 28.1495C26.861 28.0443 25.6252 28 24 28C22.3748 28 21.1391 28.0443 20.1916 28.1495C19.226 28.2568 18.7033 28.4139 18.4239 28.5536C18.2156 28.6578 18.1828 28.7265 18.1512 28.7977C18.0837 28.9495 18 29.2821 18 30Z" fill="#5189CF"/>
<path d="M31 16C33.4161 16 35 18.0138 35 20C35 21.9862 33.4161 24 31 24C30.4477 24 30 23.5523 30 23C30 22.4477 30.4477 22 31 22C32.1839 22 33 21.0138 33 20C33 18.9862 32.1839 18 31 18C30.4477 18 30 17.5523 30 17C30 16.4477 30.4477 16 31 16Z" fill="#1C4B85"/>
<path d="M33 25C32.4477 25 32 25.4477 32 26C32 26.5523 32.4477 27 33 27C34.09 27 34.9736 27.0269 35.6898 27.1017C36.4126 27.1773 36.9042 27.2963 37.2388 27.4473C37.5496 27.5875 37.7053 27.7452 37.803 27.9246C37.9127 28.1262 38 28.4504 38 29C38 29.5456 37.9142 29.8938 37.8055 30.1192C37.7048 30.328 37.5639 30.476 37.3539 30.596C36.8612 30.8776 36.0144 31 34.6 31C34.0477 31 33.6 31.4477 33.6 32C33.6 32.5523 34.0477 33 34.6 33C35.9856 33 37.3388 32.9081 38.3461 32.3325C38.8861 32.024 39.3202 31.5827 39.607 30.9879C39.8858 30.4098 40 29.7401 40 29C40 28.2639 39.8873 27.5702 39.5595 26.9683C39.2197 26.3441 38.7004 25.9125 38.0612 25.6242C37.4458 25.3466 36.7124 25.1977 35.8977 25.1126C35.0764 25.0267 34.11 25 33 25Z" fill="#1C4B85"/>
<path d="M17 16C14.5839 16 13 18.0138 13 20C13 21.9862 14.5839 24 17 24C17.5523 24 18 23.5523 18 23C18 22.4477 17.5523 22 17 22C15.8161 22 15 21.0138 15 20C15 18.9862 15.8161 18 17 18C17.5523 18 18 17.5523 18 17C18 16.4477 17.5523 16 17 16Z" fill="#1C4B85"/>
<path d="M15 25C15.5523 25 16 25.4477 16 26C16 26.5523 15.5523 27 15 27C13.91 27 13.0264 27.0269 12.3102 27.1017C11.5874 27.1773 11.0958 27.2963 10.7612 27.4473C10.4504 27.5875 10.2947 27.7452 10.197 27.9246C10.0873 28.1262 10 28.4504 10 29C10 29.5456 10.0858 29.8938 10.1945 30.1192C10.2952 30.328 10.4361 30.476 10.6461 30.596C11.1388 30.8776 11.9856 31 13.4 31C13.9523 31 14.4 31.4477 14.4 32C14.4 32.5523 13.9523 33 13.4 33C12.0144 33 10.6612 32.9081 9.65386 32.3325C9.11389 32.024 8.67983 31.5827 8.39301 30.9879C8.11422 30.4098 8 29.7401 8 29C8 28.2639 8.11274 27.5702 8.44048 26.9683C8.78031 26.3441 9.29964 25.9125 9.93878 25.6242C10.5542 25.3466 11.2876 25.1977 12.1023 25.1126C12.9236 25.0267 13.89 25 15 25Z" fill="#1C4B85"/>
</svg>
