<svg width="36" height="36" viewBox="0 0 36 36" fill="none" xmlns="http://www.w3.org/2000/svg">
<path d="M24.3939 19.7695H19.2219C14.1714 19.7695 10.0771 23.8638 10.0771 28.9143C10.0771 29.5566 10.5978 30.0772 11.24 30.0772H32.3758C32.8175 30.0772 33.1199 29.8298 33.2729 29.6379C33.4277 29.4437 33.5387 29.18 33.5387 28.8843C33.5387 23.829 29.4396 19.7695 24.3939 19.7695Z" fill="#BBC9DA" stroke="#BBC9DA" stroke-width="2" stroke-linecap="round"/>
<circle cx="21.8076" cy="10.0386" r="5.5" fill="#BBC9DA" stroke="#BBC9DA" stroke-width="2"/>
<path d="M16.7787 19.7695H11.6067C6.55618 19.7695 2.46191 23.8638 2.46191 28.9143C2.46191 29.5566 2.98255 30.0772 3.62481 30.0772H24.7606C25.2023 30.0772 25.5046 29.8298 25.6577 29.6379C25.8125 29.4437 25.9235 29.18 25.9235 28.8843C25.9235 23.829 21.8244 19.7695 16.7787 19.7695Z" fill="white" stroke="#1C4B85" stroke-width="2" stroke-linecap="round"/>
<circle cx="14.1924" cy="10.0386" r="5.5" fill="white" stroke="#1C4B85" stroke-width="2"/>
</svg>
