<svg width="94" height="28" viewBox="0 0 94 28" fill="none" xmlns="http://www.w3.org/2000/svg">
<path d="M14.059 17.0567C14.059 15.7114 13.519 14.4963 12.6341 13.5561C13.504 12.6303 14.029 11.4297 14.029 10.0989V9.21654H14.014C13.984 9.01402 13.789 8.85491 13.564 8.85491H10.7893C10.5643 8.85491 10.3693 9.01402 10.3393 9.21654L10.2793 10.0989C10.2793 11.0392 9.45438 11.8058 8.46446 11.8058V11.8203H7.53454C6.88959 11.8203 6.27464 11.936 5.70469 12.124V4.50088C5.68969 4.26943 5.47971 4.06692 5.23973 4.06692H2.46496C2.20998 4.06692 2 4.26943 2 4.50088V20.6441C2 20.8755 2.20998 21.078 2.46496 21.078H5.22473C5.47971 21.078 5.68969 20.8755 5.68969 20.6441V17.0567H5.71969C5.71969 16.1165 6.54462 15.3498 7.53454 15.3498H8.50946C9.51437 15.3498 10.3243 16.1165 10.3243 17.0567V17.9391H10.3393V20.6441C10.3393 20.8755 10.5493 21.078 10.8043 21.078H13.564C13.819 21.078 14.029 20.8755 14.029 20.6441L14.074 17.9391V17.0567H14.059Z" fill="#18242B"/>
<path d="M27.8578 12.2687C27.8578 12.0373 27.6479 11.8347 27.3929 11.8347H24.6331C24.3781 11.8347 24.1682 12.0373 24.1682 12.2687V18.7636C24.1682 19.7038 23.3432 20.4705 22.3233 20.4705H21.3484C20.3435 20.4705 19.5335 19.7038 19.5335 18.7636L19.5185 12.2687C19.5185 12.0373 19.3086 11.8347 19.0536 11.8347H16.3088C16.0538 11.8347 15.8438 12.0373 15.8438 12.2687L15.8288 18.7636C15.8288 21.6566 18.2886 24 21.3484 24H22.3233C25.3831 24 27.8578 21.6566 27.8578 18.7636V12.2687Z" fill="#18242B"/>
<path d="M29.7177 20.7453C29.7177 20.9768 29.9277 21.1793 30.1827 21.1793H32.9424C33.1974 21.1793 33.4074 20.9768 33.4074 20.7453V14.2504C33.4074 13.3102 34.2323 12.5435 35.2372 12.5435H36.2121C37.2171 12.5435 38.027 13.3102 38.027 14.2504L38.042 20.7453C38.042 20.9768 38.252 21.1793 38.507 21.1793H41.2667C41.5217 21.1793 41.7317 20.9768 41.7317 20.7453L41.7467 14.2504C41.7467 11.3719 39.2869 9.01403 36.2271 9.01403H35.2522C32.1925 9.01403 29.7327 11.3574 29.7327 14.2504L29.7177 20.7453Z" fill="#18242B"/>
<path d="M55.6205 12.2687C55.6205 12.0373 55.4105 11.8347 55.1556 11.8347H52.3958C52.1408 11.8347 51.9308 12.0373 51.9308 12.2687V18.7636C51.9308 19.7038 51.1059 20.4705 50.101 20.4705H49.1261C48.1212 20.4705 47.3112 19.7038 47.3112 18.7636L47.2962 12.2687C47.2962 12.0373 47.0862 11.8347 46.8313 11.8347H44.0565C43.8015 11.8347 43.5915 12.0373 43.5915 12.2687V18.7636C43.5915 21.6566 46.0513 24 49.1111 24H50.086C53.1457 24 55.6055 21.6566 55.6055 18.7636V12.2687H55.6205Z" fill="#18242B"/>
<path d="M83.3832 12.2687C83.3832 12.0373 83.1732 11.8347 82.9183 11.8347H80.1585C79.9035 11.8347 79.6935 12.0373 79.6935 12.2687V18.7636C79.6935 19.7038 78.8686 20.4705 77.8637 20.4705H76.8888C75.8839 20.4705 75.0739 19.7038 75.0739 18.7636L75.0589 12.2687C75.0589 12.0373 74.8489 11.8347 74.5939 11.8347H71.8342C71.5792 11.8347 71.3692 12.0373 71.3692 12.2687L71.3542 18.7636C71.3542 21.6566 73.814 24 76.8738 24H77.8487C80.9084 24 83.3682 21.6566 83.3682 18.7636L83.3832 12.2687Z" fill="#18242B"/>
<path d="M57.4954 20.6441C57.4954 20.89 57.7054 21.078 57.9603 21.078H60.7201C60.9751 21.078 61.1851 20.89 61.1851 20.6441V14.1636C61.1851 13.2234 62.01 12.4568 63.0149 12.4568H63.9898C64.9948 12.4568 65.8047 13.2234 65.8047 14.1636L65.8197 20.6585C65.8197 20.9044 66.0297 21.0925 66.2846 21.0925H69.0444C69.2994 21.0925 69.5094 20.9044 69.5094 20.6585L69.5244 14.1636C69.5244 11.2706 67.0646 8.92723 64.0048 8.92723H63.0299C59.9702 8.92723 57.5104 11.2706 57.5104 14.1636L57.4954 20.6441Z" fill="#18242B"/>
<path d="M85.813 5.06502C85.633 4.89144 85.3181 4.89144 85.1381 5.06502L84.9581 5.2386C84.7781 5.41218 84.7781 5.70149 84.9581 5.88954L86.068 6.93103C86.218 7.07569 86.203 7.30713 86.053 7.43732L85.918 7.5675C85.768 7.71216 85.528 7.71216 85.3781 7.5675L84.2681 6.52601C83.6982 5.9908 83.6982 5.10842 84.2532 4.5732L84.4331 4.39962C85.0031 3.86441 85.933 3.86441 86.503 4.41409L87.5379 5.39772L87.6129 5.47005C87.7629 5.6147 87.7629 5.83168 87.6129 5.97633L87.4779 6.10651C87.3279 6.25117 87.0729 6.26563 86.9229 6.12098L85.813 5.06502Z" fill="#18242B"/>
<path d="M90.8676 5.88953C91.0476 5.71595 91.0476 5.42665 90.8676 5.25307L90.6876 5.07949C90.5076 4.9059 90.1927 4.9059 90.0127 5.07949L88.9028 6.12098C88.7528 6.26563 88.5128 6.25117 88.3628 6.10651L88.2278 5.97633C88.0778 5.83167 88.0778 5.6147 88.2128 5.47004L89.3227 4.41408C89.8927 3.87887 90.8226 3.8644 91.3926 4.39962L91.5725 4.5732C92.1425 5.12288 92.1425 5.99079 91.5725 6.52601L90.5376 7.50964L90.4626 7.58197C90.3127 7.72662 90.0727 7.72662 89.9227 7.58197L89.7877 7.45178C89.6377 7.30713 89.6227 7.07569 89.7727 6.9455L90.8676 5.88953Z" fill="#18242B"/>
<path d="M84.9431 9.83854C84.7631 10.0121 84.7631 10.3014 84.9431 10.4895L85.1231 10.6631C85.3031 10.8366 85.618 10.8366 85.798 10.6631L86.9079 9.62157C87.0579 9.47691 87.2979 9.49138 87.4479 9.63603L87.5829 9.76622C87.7329 9.91087 87.7329 10.1278 87.5979 10.2725L86.488 11.314C85.918 11.8637 84.9881 11.8637 84.4181 11.3285L84.2382 11.1549C83.6682 10.6197 83.6682 9.73729 84.2532 9.21654L85.2881 8.2329L85.3631 8.16058C85.513 8.01593 85.753 8.01593 85.903 8.16058L86.038 8.29076C86.188 8.43542 86.203 8.66686 86.053 8.79705L84.9431 9.83854Z" fill="#18242B"/>
<path d="M89.9977 10.6341C90.1777 10.8077 90.4926 10.8077 90.6726 10.6341L90.8526 10.4605C91.0326 10.287 91.0476 9.99766 90.8526 9.80961L89.7427 8.76812C89.5927 8.62347 89.6077 8.40649 89.7577 8.26184L89.8927 8.13165C90.0427 7.98699 90.2827 7.987 90.4326 8.11719L91.5425 9.15868C92.1125 9.69389 92.1125 10.5763 91.5575 11.1115L91.3776 11.2851C90.8076 11.8347 89.8777 11.8203 89.3077 11.2706L88.2728 10.287L88.1978 10.2146C88.0478 10.07 88.0478 9.85301 88.1978 9.70836L88.3328 9.57817C88.4828 9.43352 88.7378 9.41906 88.8878 9.56371L89.9977 10.6341Z" fill="#18242B"/>
</svg>
