<svg width="70" height="28" viewBox="0 0 70 28" fill="none" xmlns="http://www.w3.org/2000/svg">
<path d="M55.4258 3.76142C55.2621 3.76142 55.1244 3.81948 55.0553 3.93311C54.9836 4.05048 54.9947 4.20156 55.0707 4.35451L56.9079 7.56967C56.911 7.57592 56.911 7.57966 56.9079 7.58528L54.0208 12.7358C53.9455 12.8875 53.9492 13.0398 54.0208 13.1572C54.09 13.2702 54.2123 13.3445 54.3759 13.3445H57.0932C57.4996 13.3445 57.6953 13.0673 57.8343 12.8138C57.8343 12.8138 60.6578 7.7657 60.7677 7.56967C60.7566 7.55157 58.8996 4.27647 58.8996 4.27647C58.7643 4.033 58.5599 3.76142 58.1431 3.76142H55.4258ZM43.4605 9.77034C39.2438 9.77034 36.9298 12.2576 36.9298 16.7625V21.5072C36.9298 25.8099 38.956 28 42.9665 28C46.2093 28 48.8352 26.7183 49.0186 26.6265V18.1048C49.0186 17.8401 48.8327 17.6522 48.5708 17.6522H43.1981C42.9362 17.6522 42.7503 17.8401 42.7503 18.1048V20.2899C42.7503 20.5546 42.9362 20.7425 43.1981 20.7425H45.6992C45.7097 20.7425 45.7146 20.7475 45.7146 20.7581V24.4415C45.7146 24.4496 45.706 24.4546 45.6992 24.4571C45.6874 24.4621 44.5209 24.9097 43.0745 24.9097C41.1638 24.9097 40.2337 23.711 40.2337 21.2575V16.7625C40.2337 15.4871 40.482 14.5494 40.9903 13.9064C41.5467 13.2028 42.3878 12.8606 43.584 12.8606H44.109C45.8455 12.8606 47.1869 13.2527 48.0459 13.5318C48.1793 13.5748 48.3016 13.5524 48.3856 13.4849C48.4714 13.4163 48.5245 13.2995 48.5245 13.1572V11.0658C48.5245 10.8292 48.4097 10.6962 48.0614 10.5195C47.6173 10.2948 46.3532 9.77034 44.1707 9.77034H43.4605ZM0.570782 10.0045C0.446035 10.0045 0.349077 10.0532 0.292879 10.1449C0.23174 10.2442 0.232358 10.3815 0.292879 10.5039L4.70845 18.6355C4.71154 18.6411 4.71154 18.661 4.70845 18.6667L0.045854 27.204C-0.0152847 27.327 -0.0152847 27.4637 0.045854 27.563C0.101435 27.6548 0.19901 27.7035 0.323757 27.7035H3.33438C3.67898 27.7035 3.80187 27.508 3.9365 27.2352L7.02431 21.4916C7.0274 21.4854 7.03296 21.476 7.03975 21.476C7.04716 21.476 7.0521 21.4854 7.05519 21.4916C7.05519 21.4916 10.1578 27.2346 10.1584 27.2352C10.2925 27.5074 10.4005 27.7035 10.7451 27.7035H13.7712C13.8959 27.7035 13.9935 27.6548 14.0491 27.563C14.08 27.513 14.0954 27.4519 14.0954 27.3913C14.0954 27.3301 14.0793 27.2658 14.0491 27.204C14.0485 27.2028 9.37105 18.6667 9.37105 18.6667C9.3692 18.6635 9.37105 18.6542 9.37105 18.6511C9.37105 18.6479 9.3692 18.6379 9.37105 18.6355L13.8021 10.5039C13.8323 10.4421 13.8484 10.3778 13.8484 10.3166C13.8484 10.2561 13.8323 10.1942 13.8021 10.1449C13.7459 10.0532 13.6483 10.0045 13.5242 10.0045H10.4981C10.1535 10.0045 10.0306 10.2005 9.89598 10.4727L7.05519 15.8105C7.0521 15.8161 7.04716 15.8261 7.03975 15.8261C7.03296 15.8261 7.0274 15.8161 7.02431 15.8105C7.02431 15.8105 4.18414 10.4727 4.18352 10.4727C4.07113 10.2442 3.95256 10.0045 3.5814 10.0045H0.570782ZM16.2878 10.0045C16.0265 10.0045 15.84 10.193 15.84 10.4571V27.2508C15.84 27.5149 16.0265 27.7035 16.2878 27.7035H18.6808C18.942 27.7035 19.1285 27.5149 19.1285 27.2508V10.4571C19.1285 10.193 18.942 10.0045 18.6808 10.0045H16.2878ZM22.6795 10.0045C22.4183 10.0045 22.2164 10.193 22.2164 10.4571V27.2508C22.2164 27.5149 22.4183 27.7035 22.6795 27.7035H25.0726C25.3338 27.7035 25.5203 27.5149 25.5203 27.2508V17.1215C25.5203 17.1128 25.5277 17.1078 25.5358 17.1059C25.5438 17.1034 25.5475 17.114 25.5512 17.1215C25.5512 17.1215 30.7387 27.2346 30.7387 27.2352C30.8456 27.4512 31.0117 27.7035 31.3408 27.7035H33.842C34.1032 27.7035 34.2897 27.5149 34.2897 27.2508V10.4571C34.2897 10.193 34.1032 10.0045 33.842 10.0045H31.4489C31.1877 10.0045 31.0012 10.193 31.0012 10.4571V20.5708C31.0012 20.5795 30.9938 20.5845 30.9857 20.5864C30.9777 20.5889 30.9592 20.5939 30.9549 20.5864C30.9549 20.5864 25.7673 10.4733 25.7673 10.4727C25.6537 10.2448 25.5364 10.0045 25.1652 10.0045H22.6795Z" fill="#005A5F"/>
<path d="M66.8413 0C66.4355 0 66.2595 0.25847 66.1138 0.523174C66.1138 0.523174 60.2599 11.0177 60.0672 11.3623C60.0771 11.3811 63.9282 18.5231 63.9282 18.5231C64.0629 18.7666 64.271 19.0463 64.6872 19.0463H67.4014C67.5651 19.0463 67.6929 18.9838 67.7621 18.8708C67.8343 18.7534 67.8325 18.5986 67.7565 18.4463L63.9258 11.3711C63.9221 11.3654 63.9221 11.3586 63.9258 11.353L69.9421 0.599337C70.0174 0.447632 70.0193 0.292802 69.9476 0.175433C69.8785 0.062434 69.75 0 69.5863 0H66.8413Z" fill="#D4D600"/>
</svg>
